<svg xmlns="http://www.w3.org/2000/svg" xmlns:xlink="http://www.w3.org/1999/xlink" viewBox="0 0 916.42 619.68"><defs><style>.cls-1,.cls-156,.cls-204{fill:none;}.cls-2{fill:#191046;}.cls-3{isolation:isolate;}.cls-4{fill:url(#linear-gradient);}.cls-5{fill:url(#linear-gradient-2);}.cls-6{fill:url(#linear-gradient-3);}.cls-11,.cls-199,.cls-38,.cls-39,.cls-7,.cls-8,.cls-9{fill:#fff;}.cls-7{opacity:0.13;}.cls-9{opacity:0.33;}.cls-10{fill:url(#linear-gradient-4);}.cls-11,.cls-17{opacity:0.06;}.cls-12{fill:url(#linear-gradient-5);}.cls-13{fill:url(#linear-gradient-6);}.cls-14{fill:url(#linear-gradient-7);}.cls-15{fill:url(#linear-gradient-8);}.cls-16{fill:url(#linear-gradient-9);}.cls-17{fill:#001b42;}.cls-18{fill:url(#linear-gradient-10);}.cls-19{fill:url(#linear-gradient-11);}.cls-20{fill:url(#linear-gradient-12);}.cls-21{fill:#571723;}.cls-22{fill:url(#linear-gradient-13);}.cls-23{fill:url(#linear-gradient-14);}.cls-24{fill:url(#linear-gradient-15);}.cls-25{fill:#e8a185;}.cls-26{fill:url(#linear-gradient-16);}.cls-27{fill:url(#linear-gradient-17);}.cls-28{fill:url(#linear-gradient-18);}.cls-29{fill:#00003b;}.cls-30{fill:url(#linear-gradient-19);}.cls-31{fill:url(#linear-gradient-20);}.cls-32{fill:url(#linear-gradient-21);}.cls-33{fill:#c5f0ef;}.cls-34{fill:url(#linear-gradient-22);}.cls-35{fill:#a3cdff;}.cls-36{fill:#91273b;}.cls-37{fill:#a39f66;}.cls-38{stroke:#f5f5f5;stroke-width:0.07px;}.cls-156,.cls-204,.cls-38{stroke-miterlimit:10;}.cls-39{opacity:0.25;}.cls-40{fill:url(#linear-gradient-23);}.cls-41{fill:url(#linear-gradient-24);}.cls-42{fill:url(#linear-gradient-25);}.cls-43{fill:url(#linear-gradient-26);}.cls-44{fill:url(#linear-gradient-27);}.cls-45{fill:url(#linear-gradient-28);}.cls-46{fill:#d6675a;}.cls-47{fill:url(#linear-gradient-29);}.cls-48{fill:url(#linear-gradient-30);}.cls-49{fill:#c9c9ff;}.cls-50{fill:url(#linear-gradient-31);}.cls-51{fill:url(#linear-gradient-32);}.cls-52{fill:url(#linear-gradient-33);}.cls-53{fill:url(#linear-gradient-34);}.cls-54{fill:url(#linear-gradient-35);}.cls-55{fill:url(#linear-gradient-36);}.cls-56{fill:url(#linear-gradient-37);}.cls-57{fill:url(#linear-gradient-38);}.cls-58{fill:url(#linear-gradient-39);}.cls-59{fill:url(#linear-gradient-40);}.cls-60{fill:url(#linear-gradient-41);}.cls-61{fill:url(#linear-gradient-42);}.cls-62{fill:url(#linear-gradient-43);}.cls-63{fill:url(#linear-gradient-44);}.cls-64{fill:url(#linear-gradient-45);}.cls-65{fill:url(#linear-gradient-46);}.cls-66{fill:url(#linear-gradient-47);}.cls-67{fill:url(#linear-gradient-48);}.cls-68{fill:url(#linear-gradient-49);}.cls-69{fill:url(#linear-gradient-50);}.cls-70{fill:url(#linear-gradient-51);}.cls-71{fill:url(#linear-gradient-52);}.cls-72{fill:url(#linear-gradient-53);}.cls-73{fill:url(#linear-gradient-54);}.cls-74{fill:#cf4b4e;}.cls-75{fill:url(#linear-gradient-55);}.cls-76{fill:url(#linear-gradient-56);}.cls-77{fill:#2800a2;}.cls-78{fill:url(#linear-gradient-57);}.cls-79{fill:url(#linear-gradient-58);}.cls-80{fill:url(#linear-gradient-59);}.cls-81{fill:url(#linear-gradient-60);}.cls-82{fill:url(#linear-gradient-61);}.cls-83{fill:url(#linear-gradient-62);}.cls-84{fill:url(#linear-gradient-63);}.cls-85{fill:url(#linear-gradient-64);}.cls-86{fill:url(#linear-gradient-65);}.cls-87{fill:url(#linear-gradient-66);}.cls-88{fill:url(#linear-gradient-67);}.cls-89{fill:url(#linear-gradient-68);}.cls-90{fill:url(#linear-gradient-69);}.cls-91{fill:url(#linear-gradient-70);}.cls-92{fill:url(#linear-gradient-71);}.cls-93{fill:url(#linear-gradient-72);}.cls-94{fill:url(#linear-gradient-73);}.cls-95{fill:url(#linear-gradient-74);}.cls-96{fill:url(#linear-gradient-75);}.cls-97{fill:url(#linear-gradient-76);}.cls-98{fill:url(#linear-gradient-77);}.cls-99{fill:url(#linear-gradient-78);}.cls-100{fill:url(#linear-gradient-79);}.cls-101{fill:url(#linear-gradient-80);}.cls-102{fill:url(#linear-gradient-81);}.cls-103{fill:url(#linear-gradient-82);}.cls-104{fill:url(#linear-gradient-83);}.cls-105{fill:url(#linear-gradient-84);}.cls-106{fill:url(#linear-gradient-85);}.cls-107{fill:url(#linear-gradient-86);}.cls-108{fill:url(#linear-gradient-87);}.cls-109,.cls-111,.cls-167,.cls-168{fill-rule:evenodd;}.cls-109{fill:url(#linear-gradient-88);}.cls-110{fill:#474747;}.cls-110,.cls-161,.cls-164{opacity:0.3;}.cls-111{fill:url(#linear-gradient-89);}.cls-112{clip-path:url(#clip-path);}.cls-113{fill:#3b3b3b;}.cls-114{fill:#393939;}.cls-115{fill:#373737;}.cls-116{fill:#353535;}.cls-117{fill:#343434;}.cls-118{clip-path:url(#clip-path-2);}.cls-119{clip-path:url(#clip-path-3);}.cls-120{clip-path:url(#clip-path-4);}.cls-121{clip-path:url(#clip-path-5);}.cls-122{fill:#858585;}.cls-123{fill:#838383;}.cls-124{fill:#363636;}.cls-125{fill:#7a7a7a;}.cls-126{clip-path:url(#clip-path-6);}.cls-127{fill:#818181;}.cls-128{fill:#7c7c7c;}.cls-129{fill:#787878;}.cls-130{fill:#3a3a3a;}.cls-131{clip-path:url(#clip-path-7);}.cls-132{clip-path:url(#clip-path-8);}.cls-133{clip-path:url(#clip-path-9);}.cls-134{clip-path:url(#clip-path-10);}.cls-135{fill:#333;}.cls-136{fill:#4659b8;}.cls-137{clip-path:url(#clip-path-11);}.cls-138{fill:#757575;}.cls-139{clip-path:url(#clip-path-12);}.cls-140{fill:#eceefe;}.cls-141{clip-path:url(#clip-path-13);}.cls-142{fill:#6b1795;}.cls-143{fill:url(#linear-gradient-90);}.cls-144{fill:url(#linear-gradient-91);}.cls-145{fill:url(#linear-gradient-92);}.cls-146{fill:#212e66;}.cls-147{fill:url(#linear-gradient-93);}.cls-148{fill:#d3d4fd;}.cls-149{fill:#9189d3;}.cls-150{fill:#d9c9ff;}.cls-151{fill:url(#linear-gradient-94);}.cls-152{fill:#fefefe;}.cls-153{fill:url(#linear-gradient-95);}.cls-154{fill:url(#linear-gradient-96);}.cls-155{fill:url(#linear-gradient-97);}.cls-156{stroke:#474747;stroke-width:0.42px;}.cls-157{fill:url(#linear-gradient-98);}.cls-158{fill:url(#linear-gradient-99);}.cls-159{fill:url(#linear-gradient-100);}.cls-160{fill:url(#linear-gradient-101);}.cls-161{fill:#321b3d;}.cls-162{fill:url(#linear-gradient-102);}.cls-163{fill:url(#linear-gradient-103);}.cls-164{fill:#562e69;}.cls-165{fill:url(#linear-gradient-104);}.cls-166{fill:#6666c0;}.cls-167{fill:url(#linear-gradient-105);}.cls-168{fill:url(#linear-gradient-106);}.cls-169{fill:#4aafff;}.cls-170{fill:#2273b5;}.cls-171{fill:#3788cc;}.cls-172{fill:#f2ebfd;}.cls-173{fill:url(#linear-gradient-107);}.cls-174{fill:#e3d2fd;}.cls-175{fill:url(#linear-gradient-108);}.cls-176{fill:url(#linear-gradient-109);}.cls-177{fill:url(#linear-gradient-110);}.cls-178{fill:url(#linear-gradient-111);}.cls-179{fill:url(#linear-gradient-112);}.cls-180{fill:url(#linear-gradient-113);}.cls-181{fill:url(#linear-gradient-114);}.cls-182{fill:url(#linear-gradient-115);}.cls-183,.cls-199,.cls-203{opacity:0.1;}.cls-183,.cls-199{mix-blend-mode:overlay;}.cls-184{fill:url(#linear-gradient-116);}.cls-185{fill:url(#linear-gradient-117);}.cls-186{fill:url(#linear-gradient-118);}.cls-187{fill:url(#linear-gradient-119);}.cls-188{fill:url(#linear-gradient-120);}.cls-189{fill:url(#linear-gradient-121);}.cls-190{fill:url(#linear-gradient-122);}.cls-191{fill:url(#linear-gradient-123);}.cls-192{fill:url(#linear-gradient-124);}.cls-193{fill:url(#linear-gradient-125);}.cls-194{fill:url(#linear-gradient-126);}.cls-195{fill:url(#linear-gradient-127);}.cls-196{fill:url(#linear-gradient-128);}.cls-197{fill:url(#linear-gradient-129);}.cls-198{fill:url(#linear-gradient-130);}.cls-200{fill:url(#linear-gradient-131);}.cls-201{fill:url(#linear-gradient-132);}.cls-202{fill:url(#linear-gradient-133);}.cls-204{stroke:#fff;}.cls-205{fill:url(#linear-gradient-134);}.cls-206{fill:url(#linear-gradient-135);}.cls-207{fill:url(#linear-gradient-136);}</style><linearGradient id="linear-gradient" x1="-494.28" y1="632.85" x2="-389.17" y2="632.85" gradientTransform="matrix(1, -0.06, 0.06, 1, 1173.71, -79.91)" gradientUnits="userSpaceOnUse"><stop offset="0" stop-color="#b2a2ff"/><stop offset="1" stop-color="#5c79ff"/></linearGradient><linearGradient id="linear-gradient-2" x1="1031.62" y1="11.43" x2="-140.96" y2="679.72" gradientTransform="matrix(1, 0, 0, 1, 0, 0)" xlink:href="#linear-gradient"/><linearGradient id="linear-gradient-3" x1="995.06" y1="-9266.93" x2="979.84" y2="-9135.23" gradientTransform="matrix(0.94, -0.33, 0.33, 0.94, 2519.71, 9384.27)" gradientUnits="userSpaceOnUse"><stop offset="0" stop-color="#fff" stop-opacity="0"/><stop offset="1" stop-color="#fff"/></linearGradient><linearGradient id="linear-gradient-4" x1="3736.32" y1="-9732.73" x2="3726" y2="-9643.43" gradientTransform="matrix(-0.84, -0.55, 0.55, -0.84, 9080.1, -5900.57)" xlink:href="#linear-gradient-3"/><linearGradient id="linear-gradient-5" x1="144.96" y1="351.61" x2="115.46" y2="427.61" gradientUnits="userSpaceOnUse"><stop offset="0" stop-color="#cec4ff"/><stop offset="1" stop-color="#7286e3"/></linearGradient><linearGradient id="linear-gradient-6" x1="124.53" y1="394.35" x2="127.53" y2="469.1" xlink:href="#linear-gradient-5"/><linearGradient id="linear-gradient-7" x1="187.9" y1="314.38" x2="172.4" y2="469.88" xlink:href="#linear-gradient-5"/><linearGradient id="linear-gradient-8" x1="128.35" y1="489.67" x2="196.87" y2="489.67" gradientUnits="userSpaceOnUse"><stop offset="0" stop-color="#9c9eed"/><stop offset="1" stop-color="#b1b3fd"/></linearGradient><linearGradient id="linear-gradient-9" x1="262.01" y1="1272.92" x2="480.95" y2="1272.92" gradientTransform="translate(688.85 -869.12) rotate(42.92)" gradientUnits="userSpaceOnUse"><stop offset="0" stop-color="#ff8900"/><stop offset="1" stop-color="#ffd865"/></linearGradient><linearGradient id="linear-gradient-10" x1="704.78" y1="356.55" x2="737.03" y2="315.13" gradientUnits="userSpaceOnUse"><stop offset="0" stop-color="#2800a2"/><stop offset="1" stop-color="#895bec"/></linearGradient><linearGradient id="linear-gradient-11" x1="676.31" y1="388.4" x2="760.32" y2="369.8" gradientUnits="userSpaceOnUse"><stop offset="0" stop-color="#0080e8"/><stop offset="1" stop-color="#cfc2fe"/></linearGradient><linearGradient id="linear-gradient-12" x1="704.49" y1="351.2" x2="707.67" y2="351.2" gradientUnits="userSpaceOnUse"><stop offset="0" stop-color="#e4e4e4"/><stop offset="1" stop-color="#fafafa"/></linearGradient><linearGradient id="linear-gradient-13" x1="704.93" y1="348.59" x2="729.92" y2="348.59" gradientUnits="userSpaceOnUse"><stop offset="0" stop-color="#fab6b6"/><stop offset="1" stop-color="#ffead6"/></linearGradient><linearGradient id="linear-gradient-14" x1="672.33" y1="370.42" x2="756.33" y2="351.82" xlink:href="#linear-gradient-11"/><linearGradient id="linear-gradient-15" x1="701.7" y1="336.35" x2="705.47" y2="336.35" xlink:href="#linear-gradient-13"/><linearGradient id="linear-gradient-16" x1="726.82" y1="336" x2="730.59" y2="336" xlink:href="#linear-gradient-13"/><linearGradient id="linear-gradient-17" x1="701.02" y1="353.62" x2="733.27" y2="312.21" xlink:href="#linear-gradient-10"/><linearGradient id="linear-gradient-18" x1="704.64" y1="331.02" x2="726.64" y2="331.02" xlink:href="#linear-gradient-13"/><linearGradient id="linear-gradient-19" x1="708.37" y1="328.17" x2="714.26" y2="328.17" xlink:href="#linear-gradient-10"/><linearGradient id="linear-gradient-20" x1="717.58" y1="327.97" x2="723.47" y2="327.97" xlink:href="#linear-gradient-10"/><linearGradient id="linear-gradient-21" x1="695.88" y1="349.62" x2="728.13" y2="308.2" xlink:href="#linear-gradient-10"/><linearGradient id="linear-gradient-22" x1="660.94" y1="404.92" x2="775.34" y2="404.92" xlink:href="#linear-gradient-13"/><linearGradient id="linear-gradient-23" x1="856.39" y1="257.48" x2="866.31" y2="257.48" xlink:href="#linear-gradient-10"/><linearGradient id="linear-gradient-24" x1="871.33" y1="286.08" x2="823.18" y2="313.52" xlink:href="#linear-gradient-13"/><linearGradient id="linear-gradient-25" x1="833.58" y1="538.47" x2="875.25" y2="464.13" xlink:href="#linear-gradient-13"/><linearGradient id="linear-gradient-26" x1="797.09" y1="554.9" x2="842.76" y2="480.57" xlink:href="#linear-gradient-13"/><linearGradient id="linear-gradient-27" x1="818.59" y1="421.17" x2="877.86" y2="421.17" gradientUnits="userSpaceOnUse"><stop offset="0" stop-color="#001456"/><stop offset="1" stop-color="#5800a2"/></linearGradient><linearGradient id="linear-gradient-28" x1="897.78" y1="387.48" x2="796.47" y2="290.32" gradientUnits="userSpaceOnUse"><stop offset="0" stop-color="#cf766b"/><stop offset="1" stop-color="#ff6e65"/></linearGradient><linearGradient id="linear-gradient-29" x1="881.94" y1="322.86" x2="823.9" y2="323.12" xlink:href="#linear-gradient-28"/><linearGradient id="linear-gradient-30" x1="803.91" y1="336.11" x2="832.4" y2="323.05" xlink:href="#linear-gradient-28"/><linearGradient id="linear-gradient-31" x1="857.88" y1="276.63" x2="837.25" y2="273.57" xlink:href="#linear-gradient-13"/><linearGradient id="linear-gradient-32" x1="839.85" y1="272.53" x2="841.06" y2="272.63" gradientUnits="userSpaceOnUse"><stop offset="0" stop-color="#0b3d77"/><stop offset="1" stop-color="#895bec"/></linearGradient><linearGradient id="linear-gradient-33" x1="840.36" y1="272.73" x2="841.58" y2="272.83" xlink:href="#linear-gradient-32"/><linearGradient id="linear-gradient-34" x1="838.81" y1="273.75" x2="841.16" y2="273.75" xlink:href="#linear-gradient-27"/><linearGradient id="linear-gradient-35" x1="848.24" y1="273.16" x2="849.45" y2="273.25" xlink:href="#linear-gradient-32"/><linearGradient id="linear-gradient-36" x1="848.75" y1="273.36" x2="849.96" y2="273.45" xlink:href="#linear-gradient-32"/><linearGradient id="linear-gradient-37" x1="847.25" y1="274.38" x2="849.6" y2="274.38" xlink:href="#linear-gradient-27"/><linearGradient id="linear-gradient-38" x1="769.24" y1="320.99" x2="773.05" y2="320.99" gradientTransform="translate(94.85 -85.77) rotate(2.76)" xlink:href="#linear-gradient-27"/><linearGradient id="linear-gradient-39" x1="3468.89" y1="190.03" x2="3472.69" y2="190.03" gradientTransform="matrix(-1, 0.05, 0.05, 1, 4297.22, -85.77)" xlink:href="#linear-gradient-27"/><linearGradient id="linear-gradient-40" x1="845.24" y1="309.06" x2="853.56" y2="309.06" xlink:href="#linear-gradient-13"/><linearGradient id="linear-gradient-41" x1="844.07" y1="306.52" x2="846.07" y2="306.52" xlink:href="#linear-gradient-13"/><linearGradient id="linear-gradient-42" x1="810.77" y1="322.09" x2="817.46" y2="322.09" xlink:href="#linear-gradient-13"/><linearGradient id="linear-gradient-43" x1="810.43" y1="324.71" x2="818.19" y2="324.71" xlink:href="#linear-gradient-13"/><linearGradient id="linear-gradient-44" x1="810.39" y1="327.53" x2="818.26" y2="327.53" xlink:href="#linear-gradient-13"/><linearGradient id="linear-gradient-45" x1="811.34" y1="330.49" x2="816.93" y2="330.49" xlink:href="#linear-gradient-13"/><linearGradient id="linear-gradient-46" x1="838.51" y1="528.65" x2="870.54" y2="528.65" gradientUnits="userSpaceOnUse"><stop offset="0" stop-color="#4286ff"/><stop offset="1" stop-color="#6637b0"/></linearGradient><linearGradient id="linear-gradient-47" x1="815.37" y1="528.65" x2="847.4" y2="528.65" xlink:href="#linear-gradient-46"/><linearGradient id="linear-gradient-48" x1="607.73" y1="517.96" x2="617.68" y2="517.96" xlink:href="#linear-gradient-13"/><linearGradient id="linear-gradient-49" x1="569.4" y1="518.12" x2="579.85" y2="518.12" xlink:href="#linear-gradient-13"/><linearGradient id="linear-gradient-50" x1="275.9" y1="436.17" x2="386.92" y2="436.17" gradientTransform="matrix(-1, 0, 0, 1, 898.45, 0)" xlink:href="#linear-gradient-27"/><linearGradient id="linear-gradient-51" x1="567.51" y1="529" x2="603.49" y2="529" gradientUnits="userSpaceOnUse"><stop offset="0" stop-color="#2d3d89"/><stop offset="1" stop-color="#6637b0"/></linearGradient><linearGradient id="linear-gradient-52" x1="605.24" y1="529" x2="640.89" y2="529" xlink:href="#linear-gradient-51"/><linearGradient id="linear-gradient-53" x1="648.81" y1="331.47" x2="692.17" y2="331.47" xlink:href="#linear-gradient-13"/><linearGradient id="linear-gradient-54" x1="609.96" y1="307.24" x2="656.4" y2="307.24" xlink:href="#linear-gradient-46"/><linearGradient id="linear-gradient-55" x1="573.66" y1="246.67" x2="588.13" y2="246.67" xlink:href="#linear-gradient-27"/><linearGradient id="linear-gradient-56" x1="585.8" y1="249.85" x2="612.87" y2="249.85" gradientUnits="userSpaceOnUse"><stop offset="0" stop-color="#a4623e"/><stop offset="0.52" stop-color="#8c502e"/></linearGradient><linearGradient id="linear-gradient-57" x1="266.9" y1="188.85" x2="272.69" y2="188.85" gradientTransform="translate(421.52 -29.31) rotate(21.88)" xlink:href="#linear-gradient-27"/><linearGradient id="linear-gradient-58" x1="1123.29" y1="265.29" x2="1129.08" y2="265.29" gradientTransform="translate(-415.46 781.16) rotate(-40.84)" xlink:href="#linear-gradient-27"/><linearGradient id="linear-gradient-59" x1="556.59" y1="329.63" x2="592.73" y2="329.63" xlink:href="#linear-gradient-46"/><linearGradient id="linear-gradient-60" x1="604.3" y1="322.6" x2="628.25" y2="322.6" xlink:href="#linear-gradient-46"/><linearGradient id="linear-gradient-61" x1="587.81" y1="265.41" x2="604.03" y2="265.41" xlink:href="#linear-gradient-56"/><linearGradient id="linear-gradient-62" x1="587.81" y1="275.66" x2="599.38" y2="275.66" xlink:href="#linear-gradient-12"/><linearGradient id="linear-gradient-63" x1="599.38" y1="275.17" x2="604.26" y2="275.17" xlink:href="#linear-gradient-12"/><linearGradient id="linear-gradient-64" x1="574.71" y1="260.02" x2="616.33" y2="219.02" xlink:href="#linear-gradient-27"/><linearGradient id="linear-gradient-65" x1="586.8" y1="250.94" x2="591.83" y2="250.94" xlink:href="#linear-gradient-56"/><linearGradient id="linear-gradient-66" x1="555.36" y1="317.29" x2="614.46" y2="317.29" xlink:href="#linear-gradient-46"/><linearGradient id="linear-gradient-67" x1="587.21" y1="272.71" x2="628.84" y2="231.71" xlink:href="#linear-gradient-27"/><linearGradient id="linear-gradient-68" x1="629.5" y1="341.11" x2="652.29" y2="341.11" gradientUnits="userSpaceOnUse"><stop offset="0" stop-color="#e5eeff"/><stop offset="1" stop-color="#b2c4ff"/></linearGradient><linearGradient id="linear-gradient-69" x1="628.79" y1="344.72" x2="644.74" y2="344.72" xlink:href="#linear-gradient-68"/><linearGradient id="linear-gradient-70" x1="637.21" y1="325.6" x2="674.02" y2="325.27" xlink:href="#linear-gradient-68"/><linearGradient id="linear-gradient-71" x1="644.51" y1="324.68" x2="696.68" y2="324.68" xlink:href="#linear-gradient-68"/><linearGradient id="linear-gradient-72" x1="615.05" y1="345.8" x2="658.4" y2="345.8" xlink:href="#linear-gradient-56"/><linearGradient id="linear-gradient-73" x1="611" y1="343" x2="620.38" y2="343" xlink:href="#linear-gradient-46"/><linearGradient id="linear-gradient-74" x1="605.85" y1="258.96" x2="610.66" y2="258.96" xlink:href="#linear-gradient-56"/><linearGradient id="linear-gradient-75" x1="705.64" y1="414.32" x2="706.96" y2="395.85" xlink:href="#linear-gradient-68"/><linearGradient id="linear-gradient-76" x1="717.22" y1="404.69" x2="753.25" y2="404.69" xlink:href="#linear-gradient-68"/><linearGradient id="linear-gradient-77" x1="719.01" y1="365.7" x2="740.1" y2="364.85" xlink:href="#linear-gradient-68"/><linearGradient id="linear-gradient-78" x1="727.56" y1="364.08" x2="794.53" y2="364.08" xlink:href="#linear-gradient-68"/><linearGradient id="linear-gradient-79" x1="750.3" y1="389.04" x2="781.2" y2="389.04" xlink:href="#linear-gradient-68"/><linearGradient id="linear-gradient-80" x1="759.52" y1="389.04" x2="775.73" y2="389.04" xlink:href="#linear-gradient-68"/><linearGradient id="linear-gradient-81" x1="727.97" y1="478.1" x2="575.3" y2="529.43" xlink:href="#linear-gradient-46"/><linearGradient id="linear-gradient-82" x1="826.4" y1="480.02" x2="654.37" y2="472.11" xlink:href="#linear-gradient-46"/><linearGradient id="linear-gradient-83" x1="670.94" y1="395.82" x2="691.12" y2="395.82" xlink:href="#linear-gradient-12"/><linearGradient id="linear-gradient-84" x1="671.37" y1="398.39" x2="690.69" y2="398.39" xlink:href="#linear-gradient-12"/><linearGradient id="linear-gradient-85" x1="617.31" y1="409.88" x2="831.22" y2="409.88" xlink:href="#linear-gradient-46"/><linearGradient id="linear-gradient-86" x1="857.07" y1="282.12" x2="864.92" y2="273.48" xlink:href="#linear-gradient-13"/><linearGradient id="linear-gradient-87" x1="859.09" y1="280.02" x2="863.45" y2="275.21" gradientUnits="userSpaceOnUse"><stop offset="0" stop-color="#e6a8a8"/><stop offset="1" stop-color="#f5ddc7"/></linearGradient><linearGradient id="linear-gradient-88" x1="199.48" y1="275.82" x2="225.69" y2="233.27" xlink:href="#linear-gradient-13"/><linearGradient id="linear-gradient-89" x1="200.22" y1="274.45" x2="224.99" y2="234.24" xlink:href="#linear-gradient-13"/><clipPath id="clip-path"><path class="cls-1" d="M221,261.14l-1.38.45a2.91,2.91,0,0,0,1.13-3.88l1.38-.45A2.92,2.92,0,0,1,221,261.14Z"/></clipPath><clipPath id="clip-path-2"><path class="cls-1" d="M210.4,236.37a2.93,2.93,0,0,0-1.6-1.49l1.38-.45a2.9,2.9,0,0,1,1.6,1.49Z"/></clipPath><clipPath id="clip-path-3"><path class="cls-1" d="M207.25,233.8l1.38-.46a2.83,2.83,0,0,0-.4.17l-1.38.45A2,2,0,0,1,207.25,233.8Z"/></clipPath><clipPath id="clip-path-4"><path class="cls-1" d="M208.8,234.88a2.61,2.61,0,0,0-1.7,0l1.38-.45a2.54,2.54,0,0,1,1.7.05Z"/></clipPath><clipPath id="clip-path-5"><path class="cls-1" d="M207.1,234.83l1.38-.45a3.08,3.08,0,0,0-.38.16l-1.38.45Z"/></clipPath><clipPath id="clip-path-6"><path class="cls-1" d="M207,235.9l-1.38.45a.77.77,0,0,0,.39-.77l1.38-.45A.77.77,0,0,1,207,235.9Z"/></clipPath><clipPath id="clip-path-7"><path class="cls-1" d="M212.79,265.12l.38-.16,1.37-.46a2.59,2.59,0,0,1-.38.17Z"/></clipPath><clipPath id="clip-path-8"><path class="cls-1" d="M203.25,237.86l-1.38.45.1,0,1.38-.46Z"/></clipPath><clipPath id="clip-path-9"><path class="cls-1" d="M214.16,264.67l-1.37.45a2.76,2.76,0,0,1-3.3-1.54l1.38-.45A2.76,2.76,0,0,0,214.16,264.67Z"/></clipPath><clipPath id="clip-path-10"><path class="cls-1" d="M203.25,237.86l-1.38.45a.75.75,0,0,1-.73-.18l1.38-.45A.75.75,0,0,0,203.25,237.86Z"/></clipPath><clipPath id="clip-path-11"><path class="cls-2" d="M214,265.7l-1.38.46a3,3,0,0,1-3.56-1.7l1.38-.45A3,3,0,0,0,214,265.7Z"/></clipPath><clipPath id="clip-path-12"><path class="cls-1" d="M200.53,241.79l-1.38.45a2.91,2.91,0,0,1,1.13-3.88l1.38-.46A2.92,2.92,0,0,0,200.53,241.79Z"/></clipPath><clipPath id="clip-path-13"><path class="cls-2" d="M199.6,241.61l-1.38.45a3.18,3.18,0,0,1,1.18-4.21l1.38-.45A3.18,3.18,0,0,0,199.6,241.61Z"/></clipPath><linearGradient id="linear-gradient-90" x1="272.41" y1="569.13" x2="294.19" y2="569.13" xlink:href="#linear-gradient-13"/><linearGradient id="linear-gradient-91" x1="345.88" y1="568.94" x2="371.29" y2="568.94" xlink:href="#linear-gradient-13"/><linearGradient id="linear-gradient-92" x1="110.49" y1="566.99" x2="317.12" y2="476.73" xlink:href="#linear-gradient-46"/><linearGradient id="linear-gradient-93" x1="102.23" y1="548.08" x2="308.86" y2="457.81" xlink:href="#linear-gradient-46"/><linearGradient id="linear-gradient-94" x1="233.34" y1="36.79" x2="555.04" y2="36.79" xlink:href="#linear-gradient-51"/><linearGradient id="linear-gradient-95" x1="337.27" y1="165.6" x2="462.26" y2="165.6" xlink:href="#linear-gradient-51"/><linearGradient id="linear-gradient-96" x1="371.3" y1="187.3" x2="393.34" y2="187.3" xlink:href="#linear-gradient-13"/><linearGradient id="linear-gradient-97" x1="325.92" y1="237.08" x2="389.99" y2="237.08" xlink:href="#linear-gradient-46"/><linearGradient id="linear-gradient-98" x1="269.4" y1="229.27" x2="297.88" y2="229.27" xlink:href="#linear-gradient-13"/><linearGradient id="linear-gradient-99" x1="259.07" y1="209.71" x2="301.47" y2="209.71" xlink:href="#linear-gradient-13"/><linearGradient id="linear-gradient-100" x1="252.21" y1="204.9" x2="296.49" y2="204.9" gradientTransform="matrix(1, 0, 0, 1, 0, 0)" xlink:href="#linear-gradient-9"/><linearGradient id="linear-gradient-101" x1="2696.34" y1="-640.99" x2="2702.75" y2="-640.99" gradientTransform="matrix(-0.78, 0.63, 0.63, 0.78, 2798.68, -986.33)" xlink:href="#linear-gradient-13"/><linearGradient id="linear-gradient-102" x1="242.7" y1="310.3" x2="335.11" y2="310.3" xlink:href="#linear-gradient-28"/><linearGradient id="linear-gradient-103" x1="269.95" y1="238.15" x2="303.6" y2="238.15" xlink:href="#linear-gradient-28"/><linearGradient id="linear-gradient-104" x1="201.58" y1="298.46" x2="265.34" y2="298.46" xlink:href="#linear-gradient-46"/><linearGradient id="linear-gradient-105" x1="196.08" y1="273.72" x2="222.29" y2="231.18" xlink:href="#linear-gradient-13"/><linearGradient id="linear-gradient-106" x1="200.07" y1="276.18" x2="226.28" y2="233.64" xlink:href="#linear-gradient-13"/><linearGradient id="linear-gradient-107" x1="721.79" y1="326.85" x2="722.46" y2="135.51" gradientTransform="matrix(1, 0, 0, 1, 0, 0)" xlink:href="#linear-gradient-3"/><linearGradient id="linear-gradient-108" x1="1809.17" y1="-1337.47" x2="2020.1" y2="-1337.47" gradientTransform="translate(1720.99 2211.81) rotate(-80.67)" xlink:href="#linear-gradient-9"/><linearGradient id="linear-gradient-109" x1="841.49" y1="282.34" x2="846.99" y2="282.34" xlink:href="#linear-gradient-27"/><linearGradient id="linear-gradient-110" x1="487.51" y1="236.77" x2="515.43" y2="236.77" xlink:href="#linear-gradient-27"/><linearGradient id="linear-gradient-111" x1="506.25" y1="519.29" x2="532.29" y2="519.29" gradientUnits="userSpaceOnUse"><stop offset="0" stop-color="#bd7b57"/><stop offset="1" stop-color="#b8683d"/></linearGradient><linearGradient id="linear-gradient-112" x1="511.02" y1="577.23" x2="536.72" y2="577.23" xlink:href="#linear-gradient-27"/><linearGradient id="linear-gradient-113" x1="444.04" y1="520.42" x2="478" y2="520.42" xlink:href="#linear-gradient-111"/><linearGradient id="linear-gradient-114" x1="422.93" y1="576.39" x2="455.24" y2="576.39" xlink:href="#linear-gradient-27"/><linearGradient id="linear-gradient-115" x1="496.4" y1="534.77" x2="485.92" y2="332.25" gradientUnits="userSpaceOnUse"><stop offset="0" stop-color="#a587f7"/><stop offset="1" stop-color="#e6efff"/></linearGradient><linearGradient id="linear-gradient-116" x1="-1000.48" y1="279.62" x2="-1067.03" y2="286.23" gradientTransform="matrix(-1, 0, 0, 1, -597.5, 0)" xlink:href="#linear-gradient-111"/><linearGradient id="linear-gradient-117" x1="-1013.42" y1="256.72" x2="-989.14" y2="256.72" gradientTransform="matrix(-1, 0, 0, 1, -597.5, 0)" xlink:href="#linear-gradient-111"/><linearGradient id="linear-gradient-118" x1="524.92" y1="254.37" x2="523.98" y2="236.33" xlink:href="#linear-gradient-27"/><linearGradient id="linear-gradient-119" x1="-1141.87" y1="303.71" x2="-1056.13" y2="303.71" gradientTransform="matrix(-1, 0, 0, 1, -597.5, 0)" xlink:href="#linear-gradient-13"/><linearGradient id="linear-gradient-120" x1="-1114.77" y1="247.07" x2="-1093.94" y2="247.07" gradientTransform="matrix(-1, 0, 0, 1, -597.5, 0)" gradientUnits="userSpaceOnUse"><stop offset="0" stop-color="#fab6b6"/><stop offset="1" stop-color="#e8caae"/></linearGradient><linearGradient id="linear-gradient-121" x1="-1123.48" y1="288.56" x2="-1162.54" y2="325.55" gradientTransform="matrix(-1, 0, 0, 1, -597.5, 0)" xlink:href="#linear-gradient-111"/><linearGradient id="linear-gradient-122" x1="498.04" y1="348.46" x2="492.74" y2="245.93" xlink:href="#linear-gradient-27"/><linearGradient id="linear-gradient-123" x1="493.35" y1="227.89" x2="529.65" y2="227.89" xlink:href="#linear-gradient-111"/><linearGradient id="linear-gradient-124" x1="-1121.9" y1="230.9" x2="-1118.05" y2="229.42" gradientTransform="matrix(-1, 0, 0, 1, -597.5, 0)" xlink:href="#linear-gradient-13"/><linearGradient id="linear-gradient-125" x1="500.31" y1="355.49" x2="494.39" y2="283.44" xlink:href="#linear-gradient-115"/><linearGradient id="linear-gradient-126" x1="-1119.33" y1="354.83" x2="-1140.1" y2="341.91" gradientTransform="matrix(-1, 0, 0, 1, -597.5, 0)" xlink:href="#linear-gradient-111"/><linearGradient id="linear-gradient-127" x1="-1114.77" y1="225.23" x2="-1106.78" y2="225.23" gradientTransform="matrix(-1, 0, 0, 1, -597.5, 0)" xlink:href="#linear-gradient-27"/><linearGradient id="linear-gradient-128" x1="-1099.96" y1="225.23" x2="-1091.97" y2="225.23" gradientTransform="matrix(-1, 0, 0, 1, -597.5, 0)" xlink:href="#linear-gradient-27"/><linearGradient id="linear-gradient-129" x1="-1110.88" y1="239.32" x2="-1100.32" y2="239.32" gradientTransform="matrix(-1, 0, 0, 1, -597.5, 0)" xlink:href="#linear-gradient-27"/><linearGradient id="linear-gradient-130" x1="-1108.8" y1="240.74" x2="-1103.9" y2="240.74" gradientTransform="matrix(-1, 0, 0, 1, -597.5, 0)" xlink:href="#linear-gradient-28"/><linearGradient id="linear-gradient-131" x1="501.22" y1="228.23" x2="495.9" y2="228.23" xlink:href="#linear-gradient-27"/><linearGradient id="linear-gradient-132" x1="509.83" y1="228.23" x2="515.15" y2="228.23" xlink:href="#linear-gradient-27"/><linearGradient id="linear-gradient-133" x1="490.96" y1="227.65" x2="539.26" y2="227.65" xlink:href="#linear-gradient-27"/><linearGradient id="linear-gradient-134" x1="553.82" y1="192.89" x2="557.19" y2="192.89" xlink:href="#linear-gradient-51"/><linearGradient id="linear-gradient-135" x1="561.65" y1="192.89" x2="565.02" y2="192.89" xlink:href="#linear-gradient-51"/><linearGradient id="linear-gradient-136" x1="569.48" y1="192.89" x2="572.86" y2="192.89" xlink:href="#linear-gradient-51"/></defs><title>TEAM</title><g class="cls-3"><g id="Layer_2" data-name="Layer 2"><g id="team"><path class="cls-4" d="M765.43,562C739.37,547.55,723,551.59,717,572.21c-5.91,20.25,24.69,35.93,55.56,29.45,62.17-13.06,50.18-34.91,42-40.41C795,548.05,785.35,573,765.43,562Z"/><path class="cls-5" d="M889.75,310.52a225.34,225.34,0,0,1-7.86,49C852.74,464.47,751.13,521.31,665.16,532.16a230.25,230.25,0,0,1-39.61,1.69c-13.7-.65-26.75-2-39.33-3.65h0c-9.05-1.21-17.85-2.65-26.47-4.21-78.7-14.23-142.24-38.82-238.2-8.22a250,250,0,0,1-88.4,11.44,245.77,245.77,0,0,1-31-3.54c-37.79-6.8-72.42-22.35-99.1-45.13-18.8-16-33.65-35.68-42.87-58.36a142.92,142.92,0,0,1-9.64-38.11c-3.1-27.74-2.39-55.09,4-81.41A181.59,181.59,0,0,1,64,274.18q1-2.28,2-4.56c.59-1.3,1.21-2.6,1.85-3.89a183,183,0,0,1,10.44-18.52Q80,244.59,81.8,242a203.71,203.71,0,0,1,23.38-28,267,267,0,0,1,43.16-34.84c24.4-16,54.1-30.82,90-44.07,19.76-7.29,41.39-14.11,65-20.43q12.84-3.43,26.49-6.66a211.61,211.61,0,0,0,23.55-7.13c20.66-7.5,41.28-17.93,63.4-28.87,36.54-18,77.17-37.46,128.77-47.24,6.88-1.3,14-2.44,21.27-3.37q11.76-1.53,24.28-2.31Q597,18.69,603,18.5l2.28-.07c26.88-.68,59.15,3.15,92.19,13.36q6.75,2.09,13.51,4.53c2.19.78,4.38,1.61,6.57,2.45l3,1.18C764.41,57.54,807.74,87.1,839.76,133c.47.67.93,1.34,1.39,2q4.29,6.27,8.28,12.95A277.81,277.81,0,0,1,879,218.62q2.31,8.55,4.2,17.52,2.41,11.37,4.11,23.48c.1.74.2,1.48.31,2.22q.86,6.56,1.42,13A260.92,260.92,0,0,1,889.75,310.52Z"/><polygon class="cls-6" points="400.28 446.61 371.82 302.9 411.61 443.12 400.28 446.61"/><circle class="cls-7" cx="406.15" cy="445.54" r="15.86"/><circle class="cls-8" cx="406.15" cy="445.54" r="5.97"/><path class="cls-9" d="M409.42,434.13,409,434a11.79,11.79,0,0,0-9.33,1.55,10.18,10.18,0,0,0-1.4,1.07,11.85,11.85,0,1,0,19.24,12.14A11.88,11.88,0,0,0,409.42,434.13Zm1.45,17.1A7.4,7.4,0,0,1,399,443.5a6.34,6.34,0,0,1,.41-1.08,7.18,7.18,0,0,1,3.26-3.42,7.28,7.28,0,0,1,5.48-.57,7.38,7.38,0,0,1,5.07,9.14A7.28,7.28,0,0,1,410.87,451.23Z"/><path class="cls-9" d="M409.79,436.68c-.33-.13-.66-.25-1-.35a9.55,9.55,0,0,0-7.52,1,9.18,9.18,0,0,0-2.43,2.05,9.36,9.36,0,0,0-1.88,3.54,9.56,9.56,0,1,0,12.83-6.23Zm.39,13.25a6,6,0,0,1-9.76-6,6,6,0,1,1,9.76,6Z"/><polygon class="cls-10" points="670.29 108.05 604.37 182.38 663.75 103.37 670.29 108.05"/><circle class="cls-7" cx="667.3" cy="105.33" r="10.76"/><circle class="cls-8" cx="667.3" cy="105.33" r="4.05"/><path class="cls-9" d="M659.8,108.24a1.75,1.75,0,0,0,.11.24,7.94,7.94,0,0,0,4.66,4.4,6.31,6.31,0,0,0,1.15.32,8,8,0,1,0-5.92-5Zm8.63-7.8a5,5,0,0,1,.68,9.56,3.81,3.81,0,0,1-.75.22,4.88,4.88,0,0,1-3.18-.35,4.94,4.94,0,0,1-2.56-2.73,4.8,4.8,0,0,1-.33-1.82,5,5,0,0,1,6.14-4.88Z"/><path class="cls-9" d="M661,107c.07.23.14.45.23.68a6.45,6.45,0,0,0,3.61,3.65,6.11,6.11,0,0,0,2.11.47,6.27,6.27,0,0,0,2.68-.43A6.49,6.49,0,1,0,661,107Zm7-5.65a4,4,0,0,1,2.26,6.7,4.14,4.14,0,0,1-1.52,1,4,4,0,0,1-2.93-7.55A3.94,3.94,0,0,1,668,101.35Z"/><circle class="cls-11" cx="266.68" cy="451.51" r="62.18"/><circle class="cls-11" cx="612.85" cy="202.7" r="12.06"/><circle class="cls-11" cx="412.13" cy="306.5" r="38.44"/><path class="cls-11" d="M157.24,217.41A86.77,86.77,0,0,1,54.57,302.65,181.59,181.59,0,0,1,64,274.18q1-2.28,2-4.56c.59-1.3,1.21-2.6,1.85-3.89a183,183,0,0,1,10.44-18.52Q80,244.59,81.8,242a203.71,203.71,0,0,1,23.38-28,267,267,0,0,1,43.16-34.84A86.21,86.21,0,0,1,157.24,217.41Z"/><path class="cls-11" d="M887.66,261.84h-100a23.16,23.16,0,0,1-23.16-23.16V171.14A23.16,23.16,0,0,1,787.7,148h61.73q-4-6.67-8.28-12.95H772.07a28.42,28.42,0,0,0-28.42,28.42v82.91a28.42,28.42,0,0,0,28.42,28.43h117Q888.51,268.39,887.66,261.84Z"/><path class="cls-12" d="M148.71,400.69s8.72-42.85-2-47.27-12.24,24-30.45,16.71-42.06-41.3-6.75-49.9,83.57,23.42,69,99.55l-15.18,8-13.34-18.13Z"/><path class="cls-13" d="M94.81,393.5c-.43.46-11.62,13.88,4.71,28.63s27.93-21.22,33-18.38,5.81,23.09,5.81,23.09l21.81-1S156.47,410,143.62,393.5C133.89,381,110.5,376.51,94.81,393.5Z"/><path class="cls-8" d="M160.42,447.68q1.47-8.88,2.48-17.81c.7-5.95,1.27-11.92,1.66-17.89a215.63,215.63,0,0,0-.21-35.85,94.1,94.1,0,0,0-3.3-17.56c-1.74-5.66-4.26-11.22-8.37-15.5a20.72,20.72,0,0,0-7.29-4.89,22.34,22.34,0,0,0-8.7-1.45,36.67,36.67,0,0,0-8.81,1.37,66.89,66.89,0,0,0-8.43,3.07c5.39-2.58,11.17-4.64,17.23-4.93a22.89,22.89,0,0,1,8.94,1.35,21.42,21.42,0,0,1,7.61,4.94,29.78,29.78,0,0,1,5.29,7.37,50.42,50.42,0,0,1,3.4,8.4A94.13,94.13,0,0,1,165.34,376a207.09,207.09,0,0,1,0,36A309.82,309.82,0,0,1,160.42,447.68Z"/><path class="cls-14" d="M165.66,425.87s-29.59-122.5,23.47-118.07,5.66,42.21-12.55,120Z"/><path class="cls-8" d="M150.06,425.87a72.54,72.54,0,0,0-1.69-7.46,62.52,62.52,0,0,0-2.47-7.21c-2-4.65-4.47-9.2-8.23-12.53a18.07,18.07,0,0,0-6.37-3.8,19.77,19.77,0,0,0-7.38-.9,26.09,26.09,0,0,0-3.73.59,29.2,29.2,0,0,0-3.65,1.05c-1.21.38-2.36.94-3.55,1.41l-3.43,1.69c1.1-.65,2.2-1.31,3.32-1.93s2.29-1.17,3.49-1.63a30.6,30.6,0,0,1,7.48-1.95,18.66,18.66,0,0,1,14.49,4.72,27.61,27.61,0,0,1,4.9,6,40.24,40.24,0,0,1,3.37,7A57.59,57.59,0,0,1,150.06,425.87Z"/><path class="cls-8" d="M173.13,425.87c-.49-9.29-.55-18.61-.37-27.91s.72-18.62,1.62-27.89a172.69,172.69,0,0,1,4.85-27.53,59.69,59.69,0,0,1,5.15-13,22.91,22.91,0,0,1,4.29-5.55,13.08,13.08,0,0,1,2.86-2,10.91,10.91,0,0,1,3.33-1,10.94,10.94,0,0,0-3.26,1.16,13.05,13.05,0,0,0-2.75,2.09,22.48,22.48,0,0,0-4,5.58,59.8,59.8,0,0,0-4.84,13,180,180,0,0,0-4.59,27.42c-1,9.24-1.5,18.52-1.86,27.81q-.26,7-.34,13.94T173.13,425.87Z"/><path class="cls-15" d="M185.54,559.56H139.68L128.39,430.17a9.56,9.56,0,0,1,9.53-10.39H187.3a9.56,9.56,0,0,1,9.53,10.39Z"/><path class="cls-16" d="M91.87,288.16c13.91-22.62,49.46-38.94,43.72-54.67s-37.38.95-31.19-35.51c2.48-14.6,17.28-10,11.22-25.46S84,168.25,63.76,187.76s-1.63,51.85-38.37,77.7C11.85,275,4.67,290.23,1.86,307.12c-4.81,29-.84,53.77,18.48,62.39,18.41,8.22,4.39,26.54,4.91,33.12,2.75,34.16,27.39,27.84,41.32,41.09,16.25,15.46,30.14,48.7,39.5,12.44,7.68-29.73-34.33-27-34.91-49.56S53.43,375.82,40.79,357,70.21,323.37,91.87,288.16ZM63.82,259.35c19.12-10.78,6.93-39.68,17.74-41.42s17.27,2.13,12.89,16.61c-1.37,4.53,11.86,9,10.3,15.87-2.67,11.72-23.37,14.48-28.49,31.21S44.7,270.13,63.82,259.35Z"/><ellipse class="cls-17" cx="416.53" cy="600.09" rx="241.87" ry="19.59"/><ellipse class="cls-17" cx="719.23" cy="537.26" rx="197.18" ry="11.69"/><path class="cls-18" d="M738.1,349.21a6.5,6.5,0,0,1-1,2l-5.71.61-.64.06-.78.09h0l-.18,0-1.21.13h0l-7,.74-6.51.68h0l-5.7.6-2.74.29-2.74.29-9.17,1s.1-.83.13-1.95a12.22,12.22,0,0,0-.5-4.15c-.87-2.35.24-3.09,2.09-5.8s-.49-5.43,1.11-8.33,3.54-3.06,3.54-3.06v0l3.61-11.73,13.4-.57,8.78-.37.55,1.27,3.5,8.14c4.71,1.85,4.24,4.66,4,6.75s1.36,4.63,2.28,6.42-.77,2,.5,3.2S738.65,347.72,738.1,349.21Z"/><path class="cls-19" d="M773,399.08h-.16l-32.36,4-55.07-3.38-8.28.92-13.24,1.48a1.12,1.12,0,0,1-.42-.56,7.63,7.63,0,0,1-.42-3.36c.12-3.46,3.7-2.43,3.7-2.43s-2.51-2.43-1.44-3.66,3.12,0,3.12,0c-1.6-5.63,3.42-3.83,3.42-3.83-.34-2.71,8.71-19.9,14.55-27.71a25.72,25.72,0,0,1,8.4-6.78,48.56,48.56,0,0,1,10.66-4.14h24a71.55,71.55,0,0,1,7.66,1.61c13.32,3.64,15.69,9.68,19.55,15.24,4.52,6.49,10.53,21.5,10.53,21.5s3.08-.7,4,1a2.42,2.42,0,0,1-.9,3c.16,0,2.92-.84,3.44,1.11s-1.63,2.53-1.87,2.59c.27,0,3-.3,3.6,1.78S773,399.08,773,399.08Z"/><path class="cls-20" d="M705.47,349.58s-2.68,2.34.83,3.14S705.47,349.58,705.47,349.58Z"/><path class="cls-21" d="M729.31,349.58s-3.18,2.34.38,2.86C732.15,352.8,729.43,349.3,729.31,349.58Z"/><path class="cls-22" d="M704.93,340.45s1.25,10.67.26,12,3.18,2.72,3.18,2.72L719,358.83l11-6s-2.25-10.38-2.42-12.94l-13.24-1.54Z"/><polygon class="cls-23" points="713.61 354.51 716.64 354.51 718.17 356.18 719.69 354.51 723.48 354.63 723.14 365.94 709.33 365.08 713.61 354.51"/><path class="cls-24" d="M704,332.24s-2.59-.06-2.22,3.77a4.85,4.85,0,0,0,3.73,4.44Z"/><path class="cls-25" d="M703.94,334s-1.48,0-1.27,2.15a2.77,2.77,0,0,0,2.14,2.54Z"/><path class="cls-26" d="M728.33,331.9s2.59-.06,2.22,3.76a4.83,4.83,0,0,1-3.73,4.44Z"/><path class="cls-25" d="M728.18,334s1.49,0,1.27,2.15a2.76,2.76,0,0,1-2.13,2.54Z"/><path class="cls-27" d="M703.22,329.9l2.59-6.78,19.92.8,3.64,4.38-2.51,15.57a4.67,4.67,0,0,1-4.61,3.92H710.08a4.67,4.67,0,0,1-4.6-3.92Z"/><path class="cls-28" d="M704.64,324.33l.9,2.09s-.16,12.3,1.69,13.25,3.62-3.13,9.25-2.76,9.54,6.13,9.87-2.18.29-12.5.29-12.5Z"/><circle class="cls-29" cx="711.75" cy="331.69" r="1.32"/><circle class="cls-8" cx="712.29" cy="331.02" r="0.39"/><circle class="cls-29" cx="720.26" cy="331.69" r="1.32"/><circle class="cls-8" cx="720.76" cy="331.02" r="0.39"/><path class="cls-30" d="M708.37,328.11s2.87-2.06,5.49-1.63l.4,1.63s-2.13-.14-5.21,1.82Z"/><path class="cls-31" d="M723.47,327.91s-2.87-2.07-5.49-1.63l-.4,1.63a9.5,9.5,0,0,1,5.21,1.82Z"/><path class="cls-32" d="M730.87,329.1c-.54-.32-1.07-.62-1.59-.91s-1.21-.64-1.8-.93l-.89-.43c-.9-.41-1.22-1.49-2.88-1.35-1.46.12-2.09-.36-3.35-.7a7.8,7.8,0,0,0-3-.2c-2.09.28-2.75,1-4.25.72-4.18-.89-5,0-7.53,1.92a16.12,16.12,0,0,0-1.95,1.72h0a15.28,15.28,0,0,0-2.55,3.42l-.95.65c-2.59-10.12,1-14.12,2.95-17s7.71-6.87,12.61-6.46c2.34.19,4.83,1.38,9.51,4.25a5.92,5.92,0,0,1,1.45,1.31C730.06,319.36,730.87,329.1,730.87,329.1Z"/><path class="cls-33" d="M720.52,340.45a8.67,8.67,0,0,1-2.3,2.75,2.56,2.56,0,0,1-3.43-.17,7.86,7.86,0,0,1-1.72-2.4S718,341.93,720.52,340.45Z"/><path class="cls-8" d="M705.47,349.58s-3.24,1.11-2.25,4.07,9.85,8.14,9.85,8.14.51-10.4,5.11-5.62c0,0-.47-2.93-6.3-3.08S702.69,352.5,705.47,349.58Z"/><path class="cls-8" d="M729.31,349.58a3.32,3.32,0,0,1,2,4.07c-.86,3-8.63,8.14-8.63,8.14s-.45-10.4-4.47-5.62c0,0,.4-2.93,5.51-3.08S731.74,352.5,729.31,349.58Z"/><path class="cls-34" d="M767.61,412.57H767c-1.91,0-6.53.12-12.81.25-19.17.38-53.73,1-73.17.66-7.38-.13-12.58-.41-13.93-.91-.68-.25-1.29-.47-1.84-.69-4.58-1.75-5.14-2.57-3.29-7.7a9.93,9.93,0,0,1,1.45-2.68,12.5,12.5,0,0,1,6.72-4.39c1.95-.45,10-.63,20.54-.7,13.11-.07,29.08,4.52,42.63,4.52,7.69,0,15.23-4.53,19.45-4.64,9.7-.27,14.4.95,17.14,2.79,2.24,1.5,3.18,3.42,4.48,5.26C777.22,408.45,773.53,412.57,767.61,412.57Z"/><rect class="cls-35" x="690.68" y="410.15" width="54.19" height="3.45" rx="1.72" ry="1.72"/><path class="cls-36" d="M671.83,388.22a9.6,9.6,0,0,1,1.23,1.71,8.24,8.24,0,0,1,.8,2,7.85,7.85,0,0,1-1.23-1.72A8.16,8.16,0,0,1,671.83,388.22Z"/><path class="cls-36" d="M668.41,392.05a3.63,3.63,0,0,1,1.26.58,3.52,3.52,0,0,1,1,1,3.46,3.46,0,0,1-1.26-.58A3.65,3.65,0,0,1,668.41,392.05Z"/><path class="cls-36" d="M666.73,395.71a4.06,4.06,0,0,1,1.4-.25,3.84,3.84,0,0,1,1.4.25,3.84,3.84,0,0,1-1.4.25A4.06,4.06,0,0,1,666.73,395.71Z"/><path class="cls-37" d="M718.22,343.2a2.56,2.56,0,0,1-3.43-.17,3.51,3.51,0,0,1,1.58-.35A3.1,3.1,0,0,1,718.22,343.2Z"/><path class="cls-36" d="M767.14,387.94a4.58,4.58,0,0,1-.91,1.21A4,4,0,0,1,765,390a4.2,4.2,0,0,1,.9-1.21A4.6,4.6,0,0,1,767.14,387.94Z"/><path class="cls-36" d="M770.19,391.92a7,7,0,0,1-1.84.71,6.64,6.64,0,0,1-2,.24,6.94,6.94,0,0,1,1.83-.71A7.52,7.52,0,0,1,770.19,391.92Z"/><path class="cls-36" d="M771.76,395.62a6.64,6.64,0,0,1-1.84.35,6.29,6.29,0,0,1-1.88-.14,6.3,6.3,0,0,1,1.85-.35A6.59,6.59,0,0,1,771.76,395.62Z"/><path class="cls-38" d="M726.89,330.22c-.19-.18-.26,0-.8-.68a6.1,6.1,0,0,0-5.38-1.18,7.09,7.09,0,0,0-2.41,1h0a3.55,3.55,0,0,0-3.51,0l0,0a5.94,5.94,0,0,0-2.73-1.21c-2.41-.58-4.84.54-5.37,1.25s-.6.5-.79.68-.08.5.35.77-.18.75.89,2.65c1.33,2.38,3.87,2,5,1.84s2.57-1.54,3.12-3.67a2.26,2.26,0,0,0-.28-2.12h0a3.05,3.05,0,0,1,3.11,0h0a2.2,2.2,0,0,0-.48,2.36c.58,2.12,2,3.44,3.16,3.63s3.66.5,5-1.89c1-1.91.3-2.3.85-2.66S727.18,330.49,726.89,330.22Zm-12.29,2.24a3.63,3.63,0,0,1-2.51,2.64,4.12,4.12,0,0,1-4.19-1.29,5.33,5.33,0,0,1-.8-3,2.21,2.21,0,0,1,2.15-2.27,8.58,8.58,0,0,1,4.69.57C715.12,329.77,714.84,331.85,714.6,332.46ZM724.9,334a4.15,4.15,0,0,1-4.17,1.34,3.63,3.63,0,0,1-2.54-2.62c-.26-.6-.56-2.68.62-3.31a8.49,8.49,0,0,1,4.68-.62,2.2,2.2,0,0,1,2.18,2.24A5.39,5.39,0,0,1,724.9,334Z"/><path class="cls-39" d="M707.1,330.85a2.21,2.21,0,0,1,2.15-2.27,8.58,8.58,0,0,1,4.69.57c1.18.62.9,2.7.66,3.31a3.63,3.63,0,0,1-2.51,2.64,4.12,4.12,0,0,1-4.19-1.29A5.33,5.33,0,0,1,707.1,330.85Z"/><path class="cls-39" d="M725.67,331a2.2,2.2,0,0,0-2.18-2.24,8.49,8.49,0,0,0-4.68.62c-1.18.63-.88,2.71-.62,3.31a3.63,3.63,0,0,0,2.54,2.62A4.15,4.15,0,0,0,724.9,334,5.39,5.39,0,0,0,725.67,331Z"/><circle class="cls-40" cx="861.35" cy="257.48" r="4.96"/><path class="cls-41" d="M841,295.26s-13.64,14.54-1.85,15.88S857,308.93,857,308.93l1.58-20.49.7-4.81-3.41-1.45-14.4,6.26Z"/><path class="cls-42" d="M855.6,522.16c3.76,2.82,11.77-.35,11.77-.35,2-16.58,3.16-63.4,3.16-63.4l-16-.94C852.89,462.51,855,510,855.6,522.16Z"/><path class="cls-43" d="M832.06,520.41a9.55,9.55,0,0,0,5.46,2,16.46,16.46,0,0,0,7.51-2.43c2.25-25.13,2.37-61.52,2.37-61.52l-15.33-3.49C831.46,464.91,832,512.6,832.06,520.41Z"/><path class="cls-44" d="M875.83,382.63s2.63,24,1.91,34.54c-.57,8.41-.16,30.2,0,38.78a3.78,3.78,0,0,1-3.48,3.85c-9.76.79-37.19,2.6-51.71-.55a5.08,5.08,0,0,1-4-5.24c.83-15.11,3.89-67.64,7-72.7Z"/><path class="cls-45" d="M866.31,294.16l7.18,9a25.14,25.14,0,0,1,5.44,17.41c-1.29,18.4-3.78,56.76-2.61,60.77,1.55,5.29-37.58,7.11-45.11,3.78s-6.73-3.33-7.26-6.56,1.61-36.44,0-43.17-5.56-24.56-5.56-24.56,4.3-7.49,11.11-11.61,20.55-13.27,20.55-13.27l7.56-1.1Z"/><path class="cls-46" d="M845.24,338.81c-.18,4-.42,8-.64,12l-.68,12c-.25,4-.44,8-.6,12-.07,2-.15,4-.15,6a59.82,59.82,0,0,0,.14,6,77.45,77.45,0,0,1-.6-12c0-4,.23-8,.42-12s.51-8,.86-12S844.73,342.78,845.24,338.81Z"/><path class="cls-47" d="M866.31,294.16s16.81,4.13,21.47,15.52,13.45,37.92,4.84,41.51-36.23-18.47-36.23-18.47v-16A75.54,75.54,0,0,1,877.86,329l-.49-3.32a78.05,78.05,0,0,0-6.45-21.54Z"/><path class="cls-48" d="M826.23,337.51S821,345,813.73,344s-8.21-3.27-7.54-7.22,8.75-19.84,8.75-19.84Z"/><path class="cls-49" d="M860.81,256.87c-4.39-2.63-17.1-6.18-22.48,2s-1.38,9.85-3.63,18.37-.44,11-2.6,15.15-9.32,10.31-6.09,14.08,5.47,4.93,8.69,3.23,9.78-7.49,9.78-19,11.34-5,11.34-5-.85,6.26-3,10.3-1.16,17.57,5.65,19.81,13.9,1.17,11.3-13.09-1.62-15.93-.91-22.74S867.55,260.9,860.81,256.87Z"/><path class="cls-50" d="M857.84,276.62c-.36,3.41,1.25,3.83,1.25,3.83-2.42,7.08-13.17,14.34-18.91,6.36a19.67,19.67,0,0,1-3.14-7,15.66,15.66,0,0,1-.34-1.71,24.26,24.26,0,0,1,.25-9l3.13-3.85,6.1-5.83,14.25,14.8S858.2,273.21,857.84,276.62Z"/><path class="cls-8" d="M848.51,277.89l5.68,1.43a1.19,1.19,0,0,1,.84,1.57l-.79,2.2-1.84-2.41S847.77,279.72,848.51,277.89Z"/><path class="cls-8" d="M837,279.84a15.66,15.66,0,0,1-.34-1.71l3-.74C840.13,278.58,838.35,279.41,837,279.84Z"/><path class="cls-51" d="M839.84,272.65a1.49,1.49,0,0,0,1.12-.45,1.6,1.6,0,0,1-1.1.75Z"/><path class="cls-52" d="M840.36,272.84a1.41,1.41,0,0,0,1.11-.44,1.6,1.6,0,0,1-1.09.75Z"/><circle class="cls-53" cx="839.99" cy="273.75" r="1.17"/><circle class="cls-8" cx="840.57" cy="273.4" r="0.39"/><path class="cls-54" d="M848.23,273.27a1.41,1.41,0,0,0,1.11-.44,1.6,1.6,0,0,1-1.09.75Z"/><path class="cls-55" d="M848.74,273.47a1.43,1.43,0,0,0,1.12-.44,1.6,1.6,0,0,1-1.1.75Z"/><circle class="cls-56" cx="848.43" cy="274.38" r="1.17"/><circle class="cls-8" cx="848.84" cy="274.02" r="0.39"/><path class="cls-57" d="M851.4,273.05h0a.59.59,0,0,1-.9.05,3.31,3.31,0,0,0-2.09-1.09.69.69,0,0,1-.6-.85h0a.69.69,0,0,1,.8-.51,4.26,4.26,0,0,1,2.84,1.74A.59.59,0,0,1,851.4,273.05Z"/><path class="cls-58" d="M837.86,272.17h0a.59.59,0,0,0,.9,0,3.31,3.31,0,0,1,2.09-1.08.69.69,0,0,0,.6-.85h0a.67.67,0,0,0-.8-.51,4.26,4.26,0,0,0-2.84,1.74A.59.59,0,0,0,837.86,272.17Z"/><path class="cls-49" d="M845.14,263.32s.86,5.11,7,8.07,3.83,13,4.12,15.87c.63,6.21,2.74-5.72,4.22-13,.58-2.87-6.37-14.25-6.37-14.25l-9-2.69s-7.17,2.33-7.53,6.45a30.44,30.44,0,0,1-1.61,7.4S843.48,269.54,845.14,263.32Z"/><path class="cls-59" d="M853.56,310.69s-1.33-3.79-3.61-4.15-4.71,2.08-4.71,4.15S853.56,310.69,853.56,310.69Z"/><path class="cls-60" d="M846.07,304.34s-1-1.57-1.64-.54-.4,4.8.45,5.7S846.07,304.34,846.07,304.34Z"/><rect class="cls-8" x="840.44" y="305.47" width="11.27" height="1.34" transform="translate(349.84 1056.68) rotate(-76.42)"/><path class="cls-8" d="M819.89,340.86h38.74a2.52,2.52,0,0,0,2.5-2.94l-4.39-26.4a2.53,2.53,0,0,0-2.49-2.12H815.5a2.54,2.54,0,0,0-2.5,3l4.39,26.4A2.53,2.53,0,0,0,819.89,340.86Z"/><path class="cls-61" d="M817.43,321.64c.24,1.68-1,2.63-3.36,2.29s-3.43-.81-3.29-2.29S817.1,319.29,817.43,321.64Z"/><path class="cls-62" d="M816.42,322.18s2,1.53,1.75,3.21-1.53,2.83-4.06,2-3.8-1.23-3.67-3S814.27,320.92,816.42,322.18Z"/><path class="cls-63" d="M817.07,326.48a2.67,2.67,0,0,1,1.12,3c-.42,2.25-7.32.12-7.46-1.31s-.72-2.93,0-3.54S817.07,326.48,817.07,326.48Z"/><path class="cls-64" d="M816.78,330.36s.72,2.2-1.07,2.06-4.16-1-4.37-3.13S816.78,330.36,816.78,330.36Z"/><circle class="cls-46" cx="841" cy="351.05" r="1.38"/><circle class="cls-46" cx="840.53" cy="362.76" r="1.38"/><circle class="cls-46" cx="840.07" cy="374.48" r="1.38"/><path class="cls-65" d="M838.53,535.61a21.67,21.67,0,0,0,.27,2.55h31.73s0-1,0-2.55c0-3.43,0-9.42,0-12.28.07-4.14-2.92-3.66-2.92-3.66s-10.73-.54-12.15-.54-2.07,1.62-3.62,4.2-8.2,3.87-11.3,5.58C838.63,530,838.42,533.25,838.53,535.61Z"/><path class="cls-8" d="M838.53,535.61a21.67,21.67,0,0,0,.27,2.55h31.73s0-1,0-2.55Z"/><path class="cls-66" d="M815.4,535.61a23.21,23.21,0,0,0,.26,2.55H847.4s0-1,0-2.55c0-3.43,0-9.42,0-12.28.07-4.14-2.92-3.66-2.92-3.66s-10.73-.54-12.15-.54-2.07,1.62-3.62,4.2-8.2,3.87-11.3,5.58C815.5,530,815.28,533.25,815.4,535.61Z"/><path class="cls-8" d="M815.4,535.61a23.21,23.21,0,0,0,.26,2.55H847.4s0-1,0-2.55Z"/><path class="cls-67" d="M617.07,512.41l.61,14.28s-6.45,5.62-9.45-.49l-.5-19.33Z"/><path class="cls-68" d="M579.85,512.41l-1.2,14.38s-6.26,5.92-9.25-.19l1.12-19.73Z"/><path class="cls-69" d="M565.3,388c.73,22.2,5.29,64.85,5.29,64.85l-2.77,67.34H583.1s12.12-49.78,13.47-66.72c1.28-16,.75-46.9.73-47.74l2.74,28.4,1.65,17,4.95,69.46h13.75s7.93-52.13,7.94-69.67c0-12-3.8-61.46-9.49-88.65-.29-1.37-.57-2.66-.88-3.87-.08-.36-.17-.71-.26-1.05-2.85-11.09-45.49-2.52-45.49-2.52a25.88,25.88,0,0,0-3.08,5.71,55.53,55.53,0,0,0-3.87,19.14C565.17,381.91,565.19,384.73,565.3,388Z"/><path class="cls-70" d="M603.15,538.93H568.76c-.12-.45-.28-1.32-.46-2.47-.6-4-2.18-15.72,2.05-17,2.94-.86,8.69.4,11-.31,1.93-.59,2.25.87,3.38,2.54,1.57,2.34,2.12,4.14,3.82,5.06,2.68,1.44,12.52,6.48,14.57,9.66a2.6,2.6,0,0,1,.28.55C603.72,538,603,538.48,603.15,538.93Z"/><path class="cls-8" d="M603.15,538.93H568.76c-.12-.45-.28-1.32-.46-2.47h34.82a2.6,2.6,0,0,1,.28.55C603.72,538,603,538.48,603.15,538.93Z"/><path class="cls-71" d="M640.56,538.93H606.17c-.12-.45-.29-1.32-.47-2.47-.59-4-1.33-14.74,2.89-16,2.95-.85,7.86-.58,10.17-1.29,1.93-.59,2.24.87,3.38,2.54,1.57,2.34,2.12,4.14,3.81,5.06,2.68,1.44,12.53,6.48,14.58,9.66a3.18,3.18,0,0,1,.28.55C641.13,538,640.4,538.48,640.56,538.93Z"/><path class="cls-8" d="M640.56,538.93H606.17c-.12-.45-.29-1.32-.47-2.47h34.83a3.18,3.18,0,0,1,.28.55C641.13,538,640.4,538.48,640.56,538.93Z"/><path class="cls-72" d="M691.71,327.5c-.83-.9-7.5-.74-12.67-.12-3.89.47-4.33,2.27-4.33,2.27s.09.16-2.18.36a9.09,9.09,0,0,1-4-1L651,323.08l-2.16,11.19,15.57,3.23s7.46,1.08,12,1.81a41.26,41.26,0,0,0,9.16.45c2.61-.31,1.67-2.48,1.67-2.48,2.35.33,2.6-.69,2.66-1.44.09-1-2.22-1.9-2.22-1.9a23.42,23.42,0,0,0,3.17.62c1,.06,1.43-1.49.41-2.56s-6.69-2.41-6.69-2.41,1,0,4.15,0S692.9,328.79,691.71,327.5Z"/><path class="cls-73" d="M613.29,279c5.62-2.29,13,.26,16.19,10.06,2.61,8,9.61,30,9.61,30l17.31,4.72-2.63,12.47-24.29-3.2s-17.4-37.29-18.68-41.41S609.25,280.66,613.29,279Z"/><path class="cls-74" d="M655.33,323.19l-.14.6L653,334.13l-.72,3.21,4.11.46c.65.15,2-2.67,2.15-3.33l1.93-9a1.22,1.22,0,0,0-1-1.45Z"/><path class="cls-75" d="M582.37,238.91s-7.75,3-8.62,7.81c-.53,2.95,1.34,8.13,6.34,7.67,16.44-1.49,2.58-8.54,2.58-8.54Z"/><path class="cls-76" d="M612.87,252.75c.14,9.8-9.75,17.24-15.27,15.24-5.89-2.12-12.61-9.06-11.72-24.31s14.71-12,14.71-12,9.86.75,11.95,16.78c.06.48.12,1,.16,1.49a1.64,1.64,0,0,1,0,.22c.07.67.09,1.31.13,1.93C612.87,252.32,612.87,252.54,612.87,252.75Z"/><path class="cls-8" d="M594.53,256.47s.49-2.33,3.92-3.64a1.15,1.15,0,0,1,1.41.48h0c.32.53-.89.75-1.41,1.09-.67.43-.53,1.53-1.28,2.21a1.88,1.88,0,0,1-2.64-.14Z"/><circle class="cls-77" cx="602.03" cy="249.31" r="1.41"/><circle class="cls-8" cx="602.69" cy="248.84" r="0.47"/><circle class="cls-77" cx="610.22" cy="248.46" r="1.41"/><circle class="cls-8" cx="610.59" cy="247.91" r="0.47"/><path class="cls-78" d="M598.35,247.8h0a5.69,5.69,0,0,1,4.89-.76,1.13,1.13,0,0,0,1.48-.85h0a1.13,1.13,0,0,0-.85-1.31,8.14,8.14,0,0,0-3.72-.08A2.49,2.49,0,0,0,598.35,247.8Z"/><path class="cls-79" d="M613.41,245.58h0a5.68,5.68,0,0,0-4.87.88,1.12,1.12,0,0,1-1.67-.33h0a1.12,1.12,0,0,1,.37-1.51,8.12,8.12,0,0,1,3.49-1.29A2.49,2.49,0,0,1,613.41,245.58Z"/><path class="cls-8" d="M604,273s14.26,5.18,16.39,8.42.75,32.45-.47,42.9-.38,41.43.43,44.47L579,376.69s-6.63-47.83-6.93-54-8.12-35-4.37-37.32,20.09-11.46,20.09-11.46Z"/><path class="cls-80" d="M558.6,286.94c-1.81,3.92-2.74,7.66.33,23.76,4.42,23.16,5.81,35.82,1.23,50s-3.44,20.4-3.44,20.4,14.35,2.7,26.65,4a8.28,8.28,0,0,0,9.17-8.13c.22-16.73.53-54-.91-63.48-1.79-11.81-4.12-32-6-38.83a.82.82,0,0,0-1-.56C580.18,275.4,561.76,280.11,558.6,286.94Z"/><path class="cls-81" d="M604.3,273a312.43,312.43,0,0,1,8.57,36.24c2.82,17.11-5.55,64.67,11.84,62.85,4.22-.45,3.5-.15,3.5-.15s-1.4-29.92-1.79-36.65c-.84-15,1.79-48.7.12-52.12S613.93,274.38,604.3,273Z"/><path class="cls-82" d="M604,264.47s-.78,6.24,0,8.51c0,0-1.82,7.1-16.22.91,0,0,2.83-10.6,0-19.5Z"/><path class="cls-83" d="M588.39,271.07s5.28,4.71,11,5.23l-2.4,4-9.17-6.37Z"/><path class="cls-84" d="M599.38,276.3s4.37-3.28,4.34-5.23l.54,1.95-1.62,6.25Z"/><path class="cls-85" d="M610.66,241a23.29,23.29,0,0,0-2.69-7.31c-2.73-5.16-17.17-7.07-23.08-1.58-7.9,7.32-4.64,14.33-.19,22.42s5,8.69,5,8.69-.73-8.54.14-10.15c1-1.88,5.28-3.2,5.28-3.2s-2.35-4.78-.62-6.19C597.3,241.35,604.52,244.22,610.66,241Z"/><path class="cls-86" d="M590.68,248.48c-.55-1.25-2.86-2.52-3.73,0s2.34,6.51,3.89,6.37S592,251.35,590.68,248.48Z"/><path class="cls-87" d="M566.71,285.35c6.71.46,12.68,6.09,16.13,14.71s12.44,29.67,12.44,29.67L614.46,335l-3,14.34-23.76-4.38a7.93,7.93,0,0,1-6.11-3.53c-6.23-9.38-23.71-35.86-24.88-39.6C555.27,297.21,552,284.34,566.71,285.35Z"/><path class="cls-88" d="M604.87,256.44c-1.07.31-2.7,4.05-3.37,4.94l-.55.74-5.87-12.27-2.65.08-.8,1.45s.53,13.27,2.92,15.48c1.16,1.07,11,.17,15.81-.34a3.4,3.4,0,0,0,3-3.06,62.12,62.12,0,0,0-.56-8.75C611,255.32,606.76,255.89,604.87,256.44Z"/><polygon class="cls-89" points="652.28 335.76 629.5 341.35 633.51 344.09 645.83 346.46 652.28 336.17 652.28 335.76"/><polygon class="cls-90" points="644.51 348.09 628.79 343.25 629.5 341.35 644.74 345.6 644.51 348.09"/><path class="cls-91" d="M648.05,310.49l47.26-8.23-2.57,36.55L643,348.38l2.49-35.56A3.75,3.75,0,0,1,648.05,310.49Z"/><path class="cls-92" d="M648.73,310.24l46.48-8.95a1.24,1.24,0,0,1,1.47,1.32l-2.44,35.91-49.73,9.57L647,312.22A2.19,2.19,0,0,1,648.73,310.24Z"/><path class="cls-8" d="M674.55,321.43a4.18,4.18,0,1,1-8.2,1.58,4.85,4.85,0,0,1-.07-.63,4.26,4.26,0,0,0,1.28-.05,4.16,4.16,0,0,0,3.37-4.26A4.17,4.17,0,0,1,674.55,321.43Z"/><path class="cls-93" d="M657.94,341.82c-.83-.9-7.5-.74-12.67-.12-3.89.47-4.32,2.27-4.32,2.27s.08.16-2.19.36a9,9,0,0,1-4-1l-17.58-5.93-2.15,11.18,15.57,3.24s7.46,1.07,11.94,1.81a41.35,41.35,0,0,0,9.17.44c2.61-.31,1.67-2.48,1.67-2.48,2.35.34,2.6-.69,2.66-1.44.08-1-2.23-1.89-2.23-1.89a25.16,25.16,0,0,0,3.17.62c1,.05,1.43-1.49.42-2.57s-6.7-2.4-6.7-2.4l4.16,0C658,344,659.13,343.11,657.94,341.82Z"/><path class="cls-94" d="M614.61,334.28l-.15.67L612,346.47,611,351l4.69.72c.73.17,2.34-4.13,2.5-4.86l2.16-10.06a1.35,1.35,0,0,0-1.08-1.61Z"/><path class="cls-95" d="M610.66,257.85s-1.85,3.87-4.81,1.41"/><path class="cls-96" d="M717.22,406.88v-4.39l-20.71,2a1.46,1.46,0,0,0-1.32,1.45v1Z"/><path class="cls-97" d="M717.22,402.49h34.57a1.46,1.46,0,0,1,1.46,1.46v2.93h-36Z"/><path class="cls-98" d="M728.3,388.76H785a3.54,3.54,0,0,0,3.47-3.17l3.82-43a2.87,2.87,0,0,0-2.91-3.17H732.68a3.55,3.55,0,0,0-3.48,3.17l-3.81,43A2.86,2.86,0,0,0,728.3,388.76Z"/><path class="cls-99" d="M730.49,388.76h56.74a3.54,3.54,0,0,0,3.47-3.17l3.82-43a2.87,2.87,0,0,0-2.92-3.17H734.86a3.54,3.54,0,0,0-3.47,3.17l-3.81,43A2.86,2.86,0,0,0,730.49,388.76Z"/><path class="cls-8" d="M767,357.46a3.88,3.88,0,0,1-7.62,1.47,4.12,4.12,0,0,1-.07-.59,4,4,0,0,0,1.19,0,3.88,3.88,0,0,0,3.14-4A3.88,3.88,0,0,1,767,357.46Z"/><path class="cls-100" d="M781.2,406.88H750.3l2.32-2.39a1.9,1.9,0,0,1,1.18-.58l12-1.29-9.16-17.78,1.91-11.5A2.57,2.57,0,0,1,761,371.2H770l5.09,31.43,4.26,1.08a1.94,1.94,0,0,1,1.38,1.35Z"/><path class="cls-101" d="M775.73,406.88l-5.52-34.12a1.86,1.86,0,0,0-1.83-1.56h-7a1.86,1.86,0,0,0-1.77,2.41L770,406.88Z"/><polygon class="cls-102" points="835.43 538.16 644.31 537.15 633.04 537.09 640.63 411.27 808.8 410.59 809.46 413.74 811.02 421.21 835.43 538.16"/><polygon class="cls-103" points="835.43 538.16 644.31 537.15 651.27 414.37 809.46 413.74 811.02 421.21 835.43 538.16"/><path class="cls-49" d="M674.84,392.67s-5.69-5.58-3.85-11c0,0,7.77,1.53,7.77,9.61Z"/><path class="cls-49" d="M676.25,393.1s-3.16-15.72,5.29-22.12c0,0,8.26,13.39,2.64,21.56Z"/><path class="cls-49" d="M683.42,392.79s-.13-9.19,6.73-11c0,0,2.45,6.85-2.69,11.39Z"/><path class="cls-8" d="M691.51,392.69l-.39,2.37-.26,1.52-.17,1-.26,1.54-.91,5.41a2.34,2.34,0,0,1-2.3,2H674.85a2.35,2.35,0,0,1-2.31-2l-.91-5.41-.26-1.54-.17-1-.26-1.52-.39-2.37a2.33,2.33,0,0,1,2.3-2.72h16.36A2.33,2.33,0,0,1,691.51,392.69Z"/><polygon class="cls-104" points="691.12 395.06 690.86 396.58 671.2 396.58 670.94 395.06 691.12 395.06"/><polygon class="cls-105" points="690.68 397.62 690.43 399.16 671.63 399.16 671.38 397.62 690.68 397.62"/><rect class="cls-106" x="617.31" y="405.77" width="213.91" height="8.22"/><path class="cls-107" d="M863.85,277.67c-.26,2.39-2.51,2.79-3.82,2.82a.67.67,0,0,1-.64-.9h0a17.37,17.37,0,0,0,1-4.55l0-.38a.41.41,0,0,1,.45-.37C861.82,274.41,864.13,275,863.85,277.67Z"/><path class="cls-108" d="M862.85,277.54a1.89,1.89,0,0,1-2.12,1.57.37.37,0,0,1-.35-.5h0a9.84,9.84,0,0,0,.54-2.53l0-.21a.21.21,0,0,1,.25-.2A1.66,1.66,0,0,1,862.85,277.54Z"/><path class="cls-109" d="M220.73,259.58l-.24,1.17-.54,2.59-.43,2.08-1,4.77-.88,4.25-11.49,3.72-7.35-23.29a8.82,8.82,0,0,1,1.9-8.76l6.36-6.57,7.27,18.39,1.92.49,2.84.73Z"/><path class="cls-110" d="M220.49,260.75l-.54,2.59c-1.48.79-3.69,2-6.12,3.31-4.36,2.42-6.32-4.32-6.32-4.32l1.32-6.65,9,2,1.25,1.44Z"/><path class="cls-111" d="M212.74,238.54l3.11,1.67a5,5,0,0,1,1.08,1.26c.61,1,1.76,3,2.8,5,1.59,3.14,3,5.74,3,6.59,0,1.06-1.86,2.81-1.86,2.81Z"/><g class="cls-3"><g class="cls-3"><g class="cls-112"><g class="cls-3"><path class="cls-113" d="M221,261.14l-1.38.45.13-.07,1.38-.45-.13.07"/><path class="cls-114" d="M221.12,261.07l-1.38.45a2.63,2.63,0,0,0,.95-1l1.38-.46a2.66,2.66,0,0,1-.95,1"/><path class="cls-115" d="M222.07,260.08l-1.38.46a3.22,3.22,0,0,0,.32-.9l1.38-.45a3.05,3.05,0,0,1-.32.89"/><path class="cls-116" d="M222.39,259.19l-1.38.45a3.12,3.12,0,0,0-.27-1.93l1.38-.45a3.18,3.18,0,0,1,.27,1.93"/></g></g></g><polygon class="cls-117" points="222.12 257.26 220.74 257.71 210.4 236.37 211.78 235.92 222.12 257.26"/><g class="cls-3"><g class="cls-118"><g class="cls-3"><path class="cls-116" d="M211.78,235.92l-1.38.45a2.76,2.76,0,0,0-3.3-1.54l1.38-.45a2.76,2.76,0,0,1,3.3,1.54"/></g></g></g><g class="cls-3"><g class="cls-119"><g class="cls-3"><path class="cls-113" d="M208.23,233.51l-1.38.45a2,2,0,0,1,.4-.16l1.38-.46a2.83,2.83,0,0,0-.4.17"/></g></g></g><g class="cls-3"><g class="cls-120"><g class="cls-3"><path class="cls-116" d="M211.78,235.92l-1.38.45a2.76,2.76,0,0,0-3.3-1.54l1.38-.45a2.76,2.76,0,0,1,3.3,1.54"/></g></g></g><g class="cls-3"><g class="cls-121"><g class="cls-3"><path class="cls-122" d="M208.1,234.54l-1.38.45.38-.16,1.38-.45a3.08,3.08,0,0,0-.38.16"/></g></g></g><polygon class="cls-123" points="207.39 234.91 206.01 235.37 206.72 235 208.1 234.54 207.39 234.91"/><polygon class="cls-124" points="207.39 234.91 206.01 235.37 205.98 235.06 207.36 234.61 207.39 234.91"/><polygon class="cls-125" points="207.41 235.13 206.03 235.58 206.01 235.37 207.39 234.91 207.41 235.13"/><g class="cls-3"><g class="cls-126"><g class="cls-3"><path class="cls-122" d="M207,235.9l-1.38.45,0,0,1.38-.45,0,0"/><path class="cls-127" d="M207.06,235.88l-1.38.45a.69.69,0,0,0,.25-.26l1.38-.46a.72.72,0,0,1-.25.27"/><path class="cls-128" d="M207.31,235.61l-1.38.46a.58.58,0,0,0,.09-.25l1.38-.45a1,1,0,0,1-.09.24"/><path class="cls-129" d="M207.4,235.37l-1.38.45a.65.65,0,0,0,0-.24l1.38-.45a1,1,0,0,1,0,.24"/></g></g></g><polygon class="cls-130" points="214.54 264.5 213.17 264.96 219.61 261.6 220.99 261.14 214.54 264.5"/><g class="cls-3"><g class="cls-131"><g class="cls-3"><path class="cls-113" d="M214.16,264.67l-1.37.45.38-.16,1.37-.46a2.59,2.59,0,0,1-.38.17"/></g></g></g><polygon class="cls-123" points="203.35 237.81 201.97 238.26 205.64 236.35 207.02 235.9 203.35 237.81"/><g class="cls-3"><g class="cls-132"><g class="cls-3"><path class="cls-122" d="M203.25,237.86l-1.38.45.1,0,1.38-.46-.1.05"/></g></g></g><g class="cls-3"><g class="cls-133"><g class="cls-3"><path class="cls-129" d="M214.16,264.67l-1.37.45a2.76,2.76,0,0,1-3.3-1.54l1.38-.45a2.76,2.76,0,0,0,3.29,1.54"/></g></g></g><g class="cls-3"><g class="cls-134"><g class="cls-3"><path class="cls-116" d="M203.25,237.86l-1.38.45a.75.75,0,0,1-.73-.18l1.38-.45a.75.75,0,0,0,.73.18"/></g></g></g><polygon class="cls-135" points="202.52 237.68 201.14 238.13 200.99 237.99 202.37 237.53 202.52 237.68"/><polygon class="cls-130" points="202.15 237.33 200.77 237.78 205.98 235.06 207.36 234.61 202.15 237.33"/><path class="cls-136" d="M207.36,234.61l0,.3,0,.22a.77.77,0,0,1-.39.77l-3.67,1.91a.72.72,0,0,1-.83-.13l-.15-.15-.22-.2Z"/><polygon class="cls-135" points="202.37 237.53 200.99 237.99 200.77 237.78 202.15 237.33 202.37 237.53"/><path class="cls-2" d="M214,265.7l-1.38.46a3,3,0,0,1-3.56-1.7l1.38-.45A3,3,0,0,0,214,265.7Z"/><g class="cls-137"><g class="cls-3"><path class="cls-2" d="M214,265.7l-1.38.46a3,3,0,0,1-3.56-1.7l1.38-.45A3,3,0,0,0,214,265.7"/></g></g><polygon class="cls-123" points="201.66 237.9 200.28 238.36 200.99 237.99 202.37 237.53 201.66 237.9"/><polygon class="cls-2" points="200.78 237.4 199.4 237.85 206.85 233.96 208.23 233.51 200.78 237.4"/><polygon class="cls-138" points="210.87 263.13 209.49 263.58 199.15 242.24 200.53 241.79 210.87 263.13"/><g class="cls-3"><g class="cls-139"><g class="cls-3"><path class="cls-129" d="M200.53,241.79l-1.38.45a3.12,3.12,0,0,1-.27-1.93l1.38-.45a3.05,3.05,0,0,0,.27,1.93"/><path class="cls-128" d="M200.26,239.86l-1.38.45a3.05,3.05,0,0,1,.32-.89l1.38-.46a2.85,2.85,0,0,0-.32.9"/><path class="cls-127" d="M200.58,239l-1.38.46a2.58,2.58,0,0,1,1-1l1.38-.46a2.65,2.65,0,0,0-.95,1"/><path class="cls-122" d="M201.53,238l-1.38.46.13-.07,1.38-.46-.13.07"/></g></g></g><path class="cls-140" d="M208.1,234.54a2.73,2.73,0,0,1,3.68,1.38l10.34,21.34a2.92,2.92,0,0,1-1.13,3.88l-6.44,3.36a2.72,2.72,0,0,1-3.68-1.37l-10.34-21.34a2.92,2.92,0,0,1,1.13-3.89l.71-.37.15.15a.72.72,0,0,0,.83.13L207,235.9a.77.77,0,0,0,.39-.77l0-.22Z"/><polygon class="cls-2" points="210.46 264.01 209.08 264.46 198.22 242.06 199.6 241.61 210.46 264.01"/><path class="cls-136" d="M208.23,233.51a3,3,0,0,1,4,1.53L223,257.44a3.17,3.17,0,0,1-1.17,4.21l-7.45,3.89a3,3,0,0,1-4-1.53l-10.86-22.4a3.18,3.18,0,0,1,1.18-4.21Zm13.89,23.75-10.34-21.34a2.73,2.73,0,0,0-3.68-1.38l-.71.37,0-.3-5.21,2.72.22.2-.71.37a2.94,2.94,0,0,0-1.14,3.89l10.35,21.34a2.71,2.71,0,0,0,3.67,1.37l6.45-3.36a2.92,2.92,0,0,0,1.13-3.88Z"/><path class="cls-2" d="M199.6,241.61l-1.38.45a3.18,3.18,0,0,1,1.18-4.21l1.38-.45A3.18,3.18,0,0,0,199.6,241.61Z"/><g class="cls-141"><g class="cls-3"><path class="cls-2" d="M199.6,241.61l-1.38.45a3.46,3.46,0,0,1-.29-2.13l1.38-.45a3.46,3.46,0,0,0,.29,2.13"/><path class="cls-2" d="M199.31,239.48l-1.38.45a3.29,3.29,0,0,1,.34-1l1.38-.45a3.29,3.29,0,0,0-.34,1"/><path class="cls-2" d="M199.65,238.51l-1.38.45a2.77,2.77,0,0,1,1-1l1.38-.45a2.77,2.77,0,0,0-1,1"/><path class="cls-2" d="M200.65,237.47l-1.38.45.13-.07,1.38-.45-.13.07"/></g></g></g><path class="cls-142" d="M273.35,582.19s-31.61,12-32.5,21.73h57l-.62-13.78s-.11-7.85-4.25-8.87S273.35,582.19,273.35,582.19Z"/><path class="cls-143" d="M272.41,562.53l2.62,20s10.68,10.82,17.57-.5l1.59-31Z"/><path class="cls-142" d="M377.19,582.2c5.42,4,17.92,14.12,18.61,21.72h-44l.61-13.78s.11-7.85,4.25-8.87c2.94-.72,10.81-.85,15.14-.86A9,9,0,0,1,377.19,582.2Z"/><path class="cls-144" d="M367.66,562.29l3.63,19.82s-9.05,11.21-16-.11l-9.46-31.19Z"/><rect class="cls-8" x="351.77" y="603.92" width="44.03" height="3.09" transform="translate(747.57 1210.93) rotate(-180)"/><path class="cls-145" d="M372.34,564.06s-22.81,14-30.82,7L309.29,459.87l-20.75-71.59,23.55-17.13L327.39,360Z"/><path class="cls-146" d="M321.39,387.92c-1.77,8.57-4.68,15.72-12.28,28.88-4.19,7.26,6.55,41.14,2.66,51.62l-23.23-80.14,23.55-17.13h12S322.79,381.11,321.39,387.92Z"/><path class="cls-147" d="M328.88,358c-2.11,20.48-28.23,41.09-28.23,41.09a332.44,332.44,0,0,0-.87,56.42c1.11,14,1,24.27,1.48,40.82.16,6.56-1,15.89-1.85,26l-.19,1.75c-.56,5.09-1.38,44.2-2.71,46.4-1.12,1.86-8.56,6.12-17,6.12-12.4,0-14.39-8.86-14.39-8.86s-6.17-80.23-9-117.38c-3.25-42.65-3.86-76.33-3.86-76.33l76.16-25.11A29.78,29.78,0,0,1,328.88,358Z"/><path class="cls-8" d="M233.54,224.75H222.41a9.61,9.61,0,0,1-9.74-11.1L234.08,39.33a12.91,12.91,0,0,1,12.46-11.1H545.21A9.62,9.62,0,0,1,555,39.33l-21.4,174.32a12.92,12.92,0,0,1-12.47,11.1H233.54Z"/><path class="cls-148" d="M323.59,174.13H240.44a.28.28,0,0,1-.28-.32l.11-.87a.37.37,0,0,1,.36-.32h83.15a.27.27,0,0,1,.28.32l-.11.87A.37.37,0,0,1,323.59,174.13Z"/><path class="cls-148" d="M323.07,178.2H239.92a.28.28,0,0,1-.28-.32l.11-.87a.37.37,0,0,1,.36-.32h83.15a.27.27,0,0,1,.28.32l-.11.87A.37.37,0,0,1,323.07,178.2Z"/><path class="cls-148" d="M322.58,182.27H239.43a.28.28,0,0,1-.28-.32l.11-.87a.37.37,0,0,1,.36-.32h83.15a.28.28,0,0,1,.28.32l-.11.87A.37.37,0,0,1,322.58,182.27Z"/><path class="cls-148" d="M322.06,186.34H238.91a.28.28,0,0,1-.28-.32l.11-.87a.37.37,0,0,1,.36-.32h83.15a.27.27,0,0,1,.28.32l-.11.87A.37.37,0,0,1,322.06,186.34Z"/><path class="cls-148" d="M321.57,190.41H238.42a.27.27,0,0,1-.28-.32l.11-.87a.37.37,0,0,1,.36-.32h83.15a.28.28,0,0,1,.28.32l-.11.87A.37.37,0,0,1,321.57,190.41Z"/><path class="cls-148" d="M261.45,194.48H237.88a.23.23,0,0,1-.23-.26l.13-1a.29.29,0,0,1,.29-.26h23.57a.23.23,0,0,1,.23.26l-.13,1A.3.3,0,0,1,261.45,194.48Z"/><path class="cls-149" d="M327.21,137.11H323a3.62,3.62,0,0,1-3.67-4.18l8.06-65.65a4.88,4.88,0,0,1,4.7-4.19h112.5a3.64,3.64,0,0,1,3.67,4.19l-8.07,65.65a4.85,4.85,0,0,1-4.69,4.18H327.21Z"/><path class="cls-148" d="M331.45,134.34h-3.88a3.34,3.34,0,0,1-3.39-3.86l7.45-60.75A4.52,4.52,0,0,1,336,65.86H440.06a3.36,3.36,0,0,1,3.39,3.87L436,130.48a4.5,4.5,0,0,1-4.34,3.86H331.45Z"/><polygon class="cls-150" points="404.11 88.91 384.73 100.19 365.36 88.91 384.73 77 404.11 88.91"/><polygon class="cls-8" points="384.73 100.19 384.73 123.22 365.36 111.7 365.36 88.91 384.73 100.19"/><polygon class="cls-49" points="404.11 88.91 384.73 100.19 384.73 123.22 404.11 111.84 404.11 88.91"/><path class="cls-149" d="M476,137.11h-4.19a3.62,3.62,0,0,1-3.67-4.18l8.06-65.65a4.87,4.87,0,0,1,4.7-4.19H593.35A3.63,3.63,0,0,1,597,67.28L589,132.93a4.86,4.86,0,0,1-4.7,4.18H476Z"/><path class="cls-148" d="M480.19,134.34h-3.87a3.35,3.35,0,0,1-3.4-3.86l7.46-60.75a4.51,4.51,0,0,1,4.35-3.87H588.8a3.36,3.36,0,0,1,3.4,3.87l-7.46,60.75a4.5,4.5,0,0,1-4.34,3.86H480.19Z"/><path class="cls-149" d="M175.91,137.11h-4.19a3.62,3.62,0,0,1-3.67-4.18l8.06-65.65a4.88,4.88,0,0,1,4.7-4.19h112.5A3.62,3.62,0,0,1,297,67.28l-8.06,65.65a4.85,4.85,0,0,1-4.69,4.18H175.91Z"/><path class="cls-148" d="M180.15,134.34h-3.88a3.34,3.34,0,0,1-3.39-3.86l7.45-60.75a4.52,4.52,0,0,1,4.35-3.87H288.76a3.36,3.36,0,0,1,3.39,3.87l-7.46,60.75a4.5,4.5,0,0,1-4.34,3.86H180.15Z"/><path class="cls-151" d="M555,39.33l-.73,6H233.34l.74-6a12.91,12.91,0,0,1,12.46-11.1H545.21A9.62,9.62,0,0,1,555,39.33Z"/><ellipse class="cls-148" cx="248.53" cy="36.79" rx="2.9" ry="2.56" transform="translate(42.28 180.26) rotate(-43.24)"/><ellipse class="cls-148" cx="259.34" cy="36.79" rx="2.9" ry="2.56" transform="translate(45.22 187.67) rotate(-43.24)"/><ellipse class="cls-148" cx="270.16" cy="36.79" rx="2.9" ry="2.56" transform="translate(48.16 195.08) rotate(-43.24)"/><path class="cls-148" d="M499.33,177.44H344.48a10.26,10.26,0,0,1-10.4-11.85h0a13.8,13.8,0,0,1,13.31-11.85H502.24a10.26,10.26,0,0,1,10.39,11.85h0A13.78,13.78,0,0,1,499.33,177.44Z"/><path class="cls-152" d="M509.38,165.6a9.82,9.82,0,0,1-3.24,6,9.66,9.66,0,0,1-6.35,2.5h-155a7.4,7.4,0,0,1-7.49-8.54,9.79,9.79,0,0,1,3.24-6,9.61,9.61,0,0,1,6.35-2.5h155A7.4,7.4,0,0,1,509.38,165.6Z"/><path class="cls-153" d="M462.26,157.06l-2.53,17.08H344.82a7.4,7.4,0,0,1-7.49-8.54,9.79,9.79,0,0,1,3.24-6,9.61,9.61,0,0,1,6.35-2.5Z"/><path class="cls-154" d="M371.3,207.15,375,193.84s-3.34-7.61-2.89-9.64a36.47,36.47,0,0,1,3.35-5.63,2.42,2.42,0,0,1,1.34-.7l1,0,2.55-12.72a1.44,1.44,0,0,1,1.24-1,1.28,1.28,0,0,1,1.26,1.46l-1.1,11.81,2.61.5a7.37,7.37,0,0,1,3.19,1.27l1.88,1.53a5.7,5.7,0,0,1,2.54,2.81,13.67,13.67,0,0,1,1.31,7.17c-.26,1.86-5.37,6.4-5.37,6.4l-4.24,13.3Z"/><path class="cls-155" d="M390,202.93l-11.47,56.75a20.8,20.8,0,0,1-.65,2.41l0,.06a2.22,2.22,0,0,1-.1.31,20.29,20.29,0,0,1-22.18,13.19l-26.87-4.13-.29-1.75-2.48-32.18,31.62,8L369,198.28Z"/><ellipse class="cls-156" cx="293.62" cy="214.06" rx="2.84" ry="2.51" transform="translate(-66.92 259.29) rotate(-43.24)"/><path class="cls-157" d="M289.54,220.77c.29,4.83,12.35,13.38,6.94,19.53-4.34,4.93-27.42,11.25-27.07,5.12.19-.65.36-1.22.49-1.71.57-1.93,2.55.56,3.37-2.05.26-.88,1-4.52,1.13-5.41a141.5,141.5,0,0,0,.29-19.73S288.83,214,296,210.91C300.73,208.86,289.34,217.35,289.54,220.77Z"/><path class="cls-158" d="M301.47,218.4v.12c0,2.51-1.63,8.86-6.33,10.6a4.58,4.58,0,0,1-.49.15c-8.51,2.43-21.1-.6-28.85-7.15-6.09-5.14-7.65-14.86-6.26-19.28,3.71-11.78,19.37-17.17,28.18-10.86,6.19,4.44,11.58,13.92,13.33,22.48a23.73,23.73,0,0,1,.4,3.5h0c0,.13,0,.24,0,.36A.19.19,0,0,1,301.47,218.4Z"/><path class="cls-159" d="M295.18,206.43a30.33,30.33,0,0,0-3-7.44l.19-.16c5.21-4.42,5.64-13.2.06-17-7.36-5-12.89-1.06-18.31,3-.83.62-5.31-2.54-9.55,1.33-4.85,4.45-6.65,9.56-9.81,10.24-5.25,1.14-1.78,14,3.72,20.85,11.93,14.91,22.65,13,22.65,13,.77-.24,1.48-.5,2.14-.76,3.38-1.33,5.59-2.12,7.59-3.68C290.9,225.76,297.88,220,295.18,206.43Z"/><path class="cls-160" d="M292,203.46a3.66,3.66,0,0,1,4.6,2.07c1.4,3.2-2.94,6.31-2.94,6.31a26.4,26.4,0,0,0-.47-5.14A14.18,14.18,0,0,0,292,203.46Z"/><path class="cls-161" d="M377.74,262.46a20.29,20.29,0,0,1-22.18,13.19l-26.87-4.13-.29-1.75c.88-1.14.89-5.43.89-5.43,4.6,0,9.42,6.24,16.61,4.94s17.82,3.49,23.07.12C373.9,266.25,377.07,264.17,377.74,262.46Z"/><path class="cls-162" d="M332.81,363.55s-9.48,14.66-26.54,19.77c-22.09,6.61-54.61-8-56.23-8.47v0c.09-.6,1.77-10.35,4.73-21.85,2.1-8.17,2-10.12,3.15-20,.55-4.48,1.12-12.48-.32-18.13-1.24-4.89-4.6-12.1-3.42-20.22a35.45,35.45,0,0,0-.32-11,59.88,59.88,0,0,0-11.17-25.23s10.83-9.47,19.4-14c2.49-1.31,11.17-4.21,11.17-4.21l12.5-.17,15.43-4.36s16.15,1.48,22,1.52c3.51,0,5.51,2.54,8.58,10.53,7.42,19.31.56,25.66-3.17,55S330.59,341.84,332.81,363.55Z"/><path class="cls-163" d="M303.6,236.56a9.1,9.1,0,0,1-.58,1.3c-1.27,2.36-5,3.22-13.64,5-11.54,2.42-19.43,0-19.43,0l4.4-6.3s12.48,4.39,21.25-4.26C295.9,232.05,303.6,236.56,303.6,236.56Z"/><path class="cls-164" d="M261.34,337.54c.35,8.21-10.9,36.32-11.29,37.29.09-.6,1.77-10.35,4.73-21.85,2.1-8.17,2-10.12,3.15-20,.55-4.48,1.12-12.48-.32-18.13-1.24-4.89-4.6-12.1-3.42-20.22a35.45,35.45,0,0,0-.32-11l10.52-11.65s1.76,17.3,2.71,31S261,329.19,261.34,337.54Z"/><path class="cls-165" d="M264,282.34c-4.93,20.87-16.9,63.85-34.78,60.2-8.36-1.71-26.44-55.11-27.6-64l19.3-8.78,1.78,4,9.12,20.61s1.61-30.82,14-38.74C252.41,251.42,270.42,255,264,282.34Z"/><polyline class="cls-166" points="310.4 90.11 302.23 97.95 307.74 107.01"/><polyline class="cls-166" points="455.29 89.22 461.12 98.92 453.44 106.22"/><ellipse class="cls-166" cx="374.94" cy="55.87" rx="1.7" ry="1.5" transform="translate(63.54 272.05) rotate(-43.24)"/><ellipse class="cls-166" cx="384.73" cy="55.87" rx="1.7" ry="1.5" transform="translate(66.2 278.75) rotate(-43.24)"/><ellipse class="cls-166" cx="394.52" cy="55.87" rx="1.7" ry="1.5" transform="translate(68.86 285.46) rotate(-43.24)"/><path class="cls-148" d="M321.47,167.91H245.19a3.83,3.83,0,0,1-3.88-4.42l1.16-9.46a5.14,5.14,0,0,1,5-4.42h76.27a3.83,3.83,0,0,1,3.88,4.42l-1.16,9.46A5.14,5.14,0,0,1,321.47,167.91Z"/><path class="cls-167" d="M204,255l1.57-3.73a2.05,2.05,0,0,1,3.2-.79h0a2.06,2.06,0,0,1,.72,2l-2,9.91Z"/><path class="cls-168" d="M214.33,239.37l-.25.16c-.67.43.22,3.81.39,4.58a33.85,33.85,0,0,0,1.81,6,43.07,43.07,0,0,0,2.49,4.52,1.87,1.87,0,0,0,3.08.15h0Z"/><rect class="cls-8" x="240.85" y="603.92" width="57.04" height="3.09"/><path class="cls-161" d="M231.78,294.4l-1.94,19.47s-8.36-15.66-6.47-19.9-3-9.09-2.24-15.66c.2-1.67,1.36-3.27,1.53-4.52Z"/><path class="cls-161" d="M364.85,224.36C366.7,221,369,198.28,369,198.28l-11.43,47.36,2.68.78,4.27,1.34c-1.24-.93-1.53-9.31-1.71-12a26.28,26.28,0,0,1,2.07-11.37Z"/><path class="cls-110" d="M219.52,265.42l-1,4.77a5,5,0,0,1-3.54.6C217.47,270.52,219.11,266.52,219.52,265.42Z"/><polygon class="cls-8" points="202.8 100.11 199.98 123.06 194.77 123.06 197.59 100.11 202.8 100.11"/><polygon class="cls-8" points="217.46 85.17 212.81 123.06 207.6 123.06 212.25 85.17 217.46 85.17"/><polygon class="cls-8" points="227.6 107.01 225.63 123.06 220.42 123.06 222.39 107.01 227.6 107.01"/><polygon class="cls-8" points="242.73 88.25 238.46 123.06 233.25 123.06 237.52 88.25 242.73 88.25"/><polygon class="cls-8" points="251.29 123.05 246.08 123.05 251.52 78.72 256.73 78.72 251.29 123.05"/><polygon class="cls-8" points="266.68 102.22 264.12 123.06 258.9 123.06 261.46 102.22 266.68 102.22"/><path class="cls-169" d="M565.88,106.12H551.42a1,1,0,0,1-1-1.1l.28-2.23a1.28,1.28,0,0,1,1.24-1.11h14.46a1,1,0,0,1,1,1.11l-.27,2.23A1.28,1.28,0,0,1,565.88,106.12Z"/><path class="cls-169" d="M564.85,114.45H550.39a1,1,0,0,1-1-1.11l.28-2.23a1.29,1.29,0,0,1,1.24-1.11H565.4a1,1,0,0,1,1,1.11l-.27,2.23A1.29,1.29,0,0,1,564.85,114.45Z"/><path class="cls-169" d="M563.83,122.78H549.37a1,1,0,0,1-1-1.11l.27-2.23a1.3,1.3,0,0,1,1.25-1.11h14.46a1,1,0,0,1,1,1.11l-.27,2.23A1.3,1.3,0,0,1,563.83,122.78Z"/><path class="cls-169" d="M544,91.76C541.57,81.39,532.44,75,522,75.33a26.51,26.51,0,0,0-7.78,1.45,29.43,29.43,0,0,0-17.27,15.94,25,25,0,0,0-1.6,15.73c.12.52.26,1,.42,1.54a21.24,21.24,0,0,0,3.08,6.17c5.55,7.62,15.91,10.84,26.33,7.27C538.59,118.82,547,104.64,544,91.76Zm-20.24,25.83c-7.82,2.68-15.58.26-19.74-5.45a15.76,15.76,0,0,1-2.31-4.62c-.12-.38-.23-.77-.32-1.16a18.76,18.76,0,0,1,1.21-11.79,22.05,22.05,0,0,1,12.94-12,20.06,20.06,0,0,1,5.83-1.08c7.86-.23,14.71,4.54,16.54,12.32C540.19,103.51,533.85,114.14,523.77,117.59Z"/><path class="cls-8" d="M502.61,94.57l-5.7-1.85a29.43,29.43,0,0,1,17.27-15.94A26.51,26.51,0,0,1,522,75.33l-.58,6.2a20.06,20.06,0,0,0-5.83,1.08A22.05,22.05,0,0,0,502.61,94.57Z"/><path class="cls-170" d="M501.72,107.52l-6,2.47c-.16-.5-.3-1-.42-1.54a25,25,0,0,1,1.6-15.73l5.7,1.85a18.76,18.76,0,0,0-1.21,11.79C501.49,106.75,501.6,107.14,501.72,107.52Z"/><path class="cls-171" d="M498.81,116.16a21.24,21.24,0,0,1-3.08-6.17l6-2.47a15.76,15.76,0,0,0,2.31,4.62Z"/><path class="cls-11" d="M720.52,40l-3-1.18c-2.19-.84-4.38-1.67-6.57-2.45q-6.76-2.45-13.51-4.53A60.7,60.7,0,1,1,591.13,19.05q-12.52.78-24.28,2.31A80.82,80.82,0,1,0,720.52,40Z"/><path class="cls-172" d="M717.54,38.77V184.21H711V36.32C713.16,37.1,715.35,37.93,717.54,38.77Z"/><path class="cls-172" d="M754.64,204.86v7.76a7,7,0,0,1-7,7H680.87a7,7,0,0,1-7-7v-7.76A39.35,39.35,0,0,1,711,165.58c.74-.05,1.49-.07,2.24-.07h2.09c.75,0,1.5,0,2.24.07a39.37,39.37,0,0,1,37.1,39.28Z"/><polygon class="cls-173" points="679.87 219.62 648.81 361.38 794.53 361.38 748.64 219.62 709.33 213.59 679.87 219.62"/><path class="cls-174" d="M754.64,207.57v6.05a6,6,0,0,1-6,6H679.87a6,6,0,0,1-6-6v-6.05Z"/><path class="cls-175" d="M747.53,10.15c-20.4,8.73-24.79,3.57-32.68-4.88S697.74-1,688.73,8.57s-8.87-5-20.53,9.5-4.5,19.66-10.75,21.74S644.31,52,637,50.61c-5.07-1-9.27,4.45-12.51,8.72a25.61,25.61,0,0,1-3.76,4.38c-3.43,2.54-12.21,5.26-7.87,10.09,3.36,3.73,7.24-5.57,13.58-6,5.87-.43,7.29-7.46,13.05-8.6A7.82,7.82,0,0,1,641,59a66.59,66.59,0,0,1,7.07.42l.23,0c1,.08,2,.14,2.94.14a11.9,11.9,0,0,0,7.36-2.12c5.19-3.68,7.94,4.45,22,3.24S695.84,50,708.33,50.08s26.91,11.31,27.61,17.84c.37,3.41,2.84,7.51,6.33,12.12,3.19,4.24,7.24,8.9,11.28,13.85,8.46,10.35.68,15.88-7.43,9.55s-12.11,2.17-6,9.23c5,5.76,20.54,9.34,29,16.57a17.13,17.13,0,0,1,4.46,5.46c5.46,11.2,1.73,14.67,4.61,25s11.36,16.95,8.36,28.22a45.78,45.78,0,0,0-1.24,7.92c-.94,12,1.25,27.83,7.92,30,8.31,2.71-3.07-32.5,1.38-38.59,2.13-2.91,1.54-6.49.44-10-1.19-3.85-3-7.63-2.48-10.41.95-5.32,10.37-10.72,9.1-21s10.77-9,12.61-21c0-.14,0-.29.05-.43s0,0,0,0c1.46-11.65-11.36-14.16-9.21-25.36s3.51-12.32-2.57-22-8.07-46.53-21.12-55.82S767.93,1.43,747.53,10.15Zm-64.41,24.7c-9.16-1.05-7,7-11.68,6.83s-2.26-2.9-2.16-6.89c.2-8.24,10.63-11.42,15-10.33S692.29,35.91,683.12,34.85Zm77-12.59c1.83,4.33,8.65,4.13,14,9.49s6.68,19.68-4.67,22.72S765,43.85,753.26,41.84c-7.15-1.23-9.61-9.22-6-15.34S758.26,17.93,760.11,22.26Z"/><path class="cls-176" d="M841.71,282.07a5.5,5.5,0,0,0,2.55.26,10,10,0,0,0,1.25-.27l1.29-.4c-.15.18-.33.33-.5.5a6,6,0,0,1-.59.39,3.81,3.81,0,0,1-1.37.45A2.85,2.85,0,0,1,841.71,282.07Z"/><path class="cls-177" d="M515.43,240.55l-.44,2.2-.46,2.3-.16.74-.12.61-.27,1.37-.07.31-.6,3-1.76,8.74s-16.92,2.5-23.58-4.38c-.16-.16-.31-.33-.46-.51.09-.17.17-.34.26-.5.66-1.31,1.25-2.48,1.78-3.58h0l.12-.24c2.57-5.42,3.41-9,2.21-17.44a56.3,56.3,0,0,1-.61-11.22c.39-6.6,2.31-8.68,2.31-8.68l1,1.22,1.16,1.45,2.12,2.64,7.91,9.89,2.95,3.68,4,5,.41.5Z"/><polygon class="cls-178" points="506.25 474.53 517.39 569.5 528.38 571.68 532.29 467.68 508.67 466.9 506.25 474.53"/><path class="cls-179" d="M536.65,586.22l-25.63,0V582.9c0-3.78,4.77-10.63,4.78-13.15,0-2.06,9.07-1.5,12.37-1.22a1.32,1.32,0,0,1,1.21,1.25c.12,2.13.77,6.72,4.08,9.38a8.49,8.49,0,0,1,3.08,4.76A5.84,5.84,0,0,1,536.65,586.22Z"/><polygon class="cls-180" points="451.32 469.92 444.04 566.72 453.52 570.92 478 469.92 451.32 469.92"/><path class="cls-181" d="M423.24,586.22h30.42c.11-.43.26-1.24.43-2.3.55-3.74,2.82-13.71-1.11-14.86-2.75-.8-5.71-1.7-7.87-2.36-1.79-.55-2.09.8-3.14,2.36-1.45,2.17-3.57,5-5.14,5.87-2.5,1.34-11.66,6-13.56,9a2.36,2.36,0,0,0-.27.52C422.7,585.3,423.39,585.79,423.24,586.22Z"/><path class="cls-182" d="M535.87,419.94c-.22,17.1-1.69,35.73-2.78,53.74l-4.28.07-38.69.6-42.95-1c.05-.68,9.22-86.59,14.46-118.58l6.54.65L514.44,360l3.73.37,12.58,1.25C533.43,369.91,536.18,396.62,535.87,419.94Z"/><path class="cls-183" d="M535.87,419.94c-.22,17.1-1.69,35.73-2.78,53.74l-4.28.07c3.92-25.13-9.58-107-10.64-113.34l12.58,1.25C533.43,369.91,536.18,396.62,535.87,419.94Z"/><path class="cls-8" d="M536.55,583.92a5.84,5.84,0,0,1,.1,2.3l-25.63,0v-2.26Z"/><path class="cls-8" d="M423.24,586.22h30.42c.11-.43.26-1.24.43-2.3H423.27a2.36,2.36,0,0,0-.27.52C422.7,585.3,423.39,585.79,423.24,586.22Z"/><path class="cls-184" d="M408.81,267.13h0l0,.05c.76,1.54,14.92,30.27,25.41,45.49A9.5,9.5,0,0,0,448.92,314l17.36-17.64.13-.13,1.81-1.83,12.06-12.27-4.78-20.63-.33-1.43-1.6-6.86L471,256.5l-29.19,37.44-.08.1c-2,.61-25.8-32.56-25.8-32.56l0,0Z"/><path class="cls-185" d="M394.14,255a7.18,7.18,0,0,0,2.35,7.13s6.8,4.43,12.3,5a7.18,7.18,0,0,0,4-.54c5.35-2.68,2.55-8.67,1-10.64a51,51,0,0,1-3.79-6.53s-1.05-.86-1.23.86a30.81,30.81,0,0,0,.25,5.17v0s-.58-.14-1.44-.38c-.64-.19-1.43-.45-2.27-.76h0c-1.44-.54-4.45-1.16-5.54-2-4.51-3.52-4.16-7.44-8.12-5.6l1.85,3.32S392.43,253.56,394.14,255Z"/><path class="cls-186" d="M524.05,236.33s15.17,3.16,13.63,10.13c-.21,1-7.43,4-14,6.15-4,1.31-8.82,2.28-8.82,2.28l-3.69-9.39Z"/><path class="cls-187" d="M458.69,353.86a1.35,1.35,0,0,0,.19.46,5.75,5.75,0,0,0,2.53,1.79c6.51,2.88,22.38,4.31,26.1,4.95a179.68,179.68,0,0,0,22.89,2.66c1.18.06,2.36.1,3.54.13h.32c1.36,0,3.4.18,5.69.28l.69,0c1.16,0,2.37.08,3.58.08.48,0,1,0,1.46,0l.61,0,.61,0a26.25,26.25,0,0,0,3.39-.37h0c.34-.07.68-.14,1-.23a8.36,8.36,0,0,0,1.58-.54,4.57,4.57,0,0,0,1.2-.76c2-1.85-.2-6.75-1.71-11-.73-2.08-1.29-4-1.11-5.38.24-1.83.43-3.5.59-5,.23-2.37.36-4.44.45-6.38l0-.56h0c.21-5.48,0-10,.46-17h0c.07-1.27.17-2.6.29-4.05a32.25,32.25,0,0,1,1.15-5.58c.67-2.35,1.57-5,2.54-7.75.79-2.21,1.62-4.48,2.42-6.72.62-1.72,1.23-3.42,1.78-5.07.41-1.2.79-2.38,1.13-3.5a34.32,34.32,0,0,0,1.64-7.46c.41-6.62,1.51-10.15-.79-13.1l-.69-.77a18.24,18.24,0,0,0-4.79-3l0,0c-1-.48-2.06-.93-3.11-1.36l-.48-.19c-2.51-1-5.2-.92-7.84-1.67-.27-.07-.42.3-.69.22l-.38-.34c-1.86-.51-4.53-.13-6.43-.53-1.48-1.77-1.78-6.51-1.46-8.22.07-.31.12-.59.18-.8s.11-.49.19-.79h0l.21-.74-.36.05-2.72.38-.37-.07-1.31-.24-7.45-1.33-.13,0-2.75-.5-1.91-.34-.85-.15c0,.11,0,.22-.07.34s-.07.34-.11.49a2.72,2.72,0,0,1-.07.33,9.35,9.35,0,0,1-.62,1.85c0,.14-.12.28-.18.41-.73,1.45-1.08,3.25-2.07,4-.6.47-1.26,1.71-1.79,2-1.3-.06-3.27-1-4.54-1.06-.23,0-.39-.69-.62-.7l-3.94-.1c-1.13,0-2.21,0-3.24,0h0c-3.6.06-6.59.54-8.92,2.48A10.55,10.55,0,0,0,471,256.5l-.16.31a33.76,33.76,0,0,0-2.62,8.8c-.3,1.67-.54,3.38-.76,5.06-.33,2.63-.6,5.2-.94,7.5a66.84,66.84,0,0,0-.44,12.74c.08,1.76.19,3.55.32,5.33v0s0,.07,0,.11,0,.18,0,.27,0,.44.05.66c0,0,0,0,0,.05.08,1.06.16,2.11.25,3.17s.15,1.87.23,2.8a104.22,104.22,0,0,1,.37,17.12c-.58,6.72-.49,11-3.33,19.69C463.77,343,458,350.93,458.69,353.86Z"/><path class="cls-188" d="M496.44,250.07a17.22,17.22,0,0,0,3.81.78,22.21,22.21,0,0,0,12.46-2.39,21.86,21.86,0,0,0,4.55-3l-15.77-2.27-.87.15-.92.19c0,.16-.07.34-.11.49a2.72,2.72,0,0,1-.07.33,9.35,9.35,0,0,1-.62,1.85c0,.14-.12.28-.18.41A10.11,10.11,0,0,1,496.44,250.07Z"/><path class="cls-189" d="M557.11,305.63a4.57,4.57,0,0,1,.62,5.66l-13.35,25.28v0L541,343l6,6.61,12.72-16.45h0v0l.25-.32,16.38-21.19a9.08,9.08,0,0,0,.2-10.8l-27.31-30.2-.23-.26-.06-.08h0l-6-6.64-.69-.77-2.71,23.58-.7,6.07.34.25Z"/><path class="cls-190" d="M580.56,308.68c-2,3.79-11.18,16.19-18.56,25.92l-.13.18-.22.29c-2.85,3.75-5.39,7.07-7.1,9.29a3.39,3.39,0,0,1-4.23.94,3.51,3.51,0,0,1-.69-.47l-5.82-5.14a3,3,0,0,1-.66-.8,3.37,3.37,0,0,1,0-3.43L556,313.19a7.61,7.61,0,0,0-1.42-9.39,7.73,7.73,0,0,0-1.28-.95l-.31-.18-13.24-7.9-3,6.27-.43-.32-5.88-4.41L527.32,294l-44.43-12.69-1-3.44-1.31-4.66-1.43-5.08-1.39,3.37-9.35,22.73-1,2.46-.19.44-.17.42-.34.83-.15.16-17.54,18.37a11,11,0,0,1-17.64-2.46l-21.9-41.5h0a.39.39,0,0,0,0-.09,2.87,2.87,0,0,1,.5-3.35,3.07,3.07,0,0,1,.34-.29l6.35-4.64a2.77,2.77,0,0,1,1.13-.49,2.85,2.85,0,0,1,2.83,1.06l20.17,26.44,26.8-35.17.35-.46a14.4,14.4,0,0,1,12.39-5.65l2.41.16,6.83.44h.15l.06,0,.46.1h0c1.43.28,5.34.8,6.46-1.66.29-.63.57-3.57,1.26-3.63l.22,0,1-.07,1,0a77.37,77.37,0,0,1,11.14.37h0c1.06.13,2.06.29,3,.48.47.11.92.22,1.33.35a6,6,0,0,1,.64.21,7.6,7.6,0,0,1,.9.39,2.59,2.59,0,0,1,1.33,1.28,1.05,1.05,0,0,1,0,.19c.46,2.32-.79,3.94.46,5.12.82.79,2.76,1.39,7.06,1.88.72.08,1.51.17,2.37.24l.88.08a16.58,16.58,0,0,1,4.24,1c4.57,1.64,9.9,5.36,15.74,11.53C557,276.84,583.93,302.17,580.56,308.68Z"/><path class="cls-183" d="M528.39,256.06l-6,11.3s-16.25,14.86-17.49,15.53c-1,.56-17.63-3.68-23-5.07l-1.65-.43a9.3,9.3,0,0,1,.34-4.23c1-3.22,4.33-7,14.37-6,13.38,1.24,20.87-12.57,23.46-18.5a1.05,1.05,0,0,1,0,.19c.46,2.32-.79,3.94.46,5.12.82.79,2.76,1.39,7.06,1.88C526.74,255.9,527.53,256,528.39,256.06Z"/><path class="cls-183" d="M409.45,272.8s0,.06.06.1h0A.39.39,0,0,0,409.45,272.8Z"/><path class="cls-183" d="M466.41,296.25l.67,1.25-.34.83-17.69,18.53a11,11,0,0,1-17.64-2.46l-21.9-41.5c1.63,2.67,25,38.14,32.31,37.08,7.62-1.1,24.27-19.07,24.27-19.07l2.12,3.51Z"/><path class="cls-191" d="M524.14,236.74a23,23,0,0,1-6.73,9.4h0a12.75,12.75,0,0,1-4.56,2.26l-.14.05a11.8,11.8,0,0,1-3.72.33c-4.42-.27-7.72-1.11-10.09-2.62l-.54-.35c-2.42-1.75-3.74-4.31-4.15-7.82a21.82,21.82,0,0,1-.14-2.21c0-.1,0-.2,0-.3,0-.25,0-.5,0-.75,0-.72-.05-1.47-.09-2.23-.2-3.7-.63-7.73-.61-11.19a26.62,26.62,0,0,1,.15-3c.32-2.87,1.23-5,3.26-5.71A67.7,67.7,0,0,0,508.21,207l12.57,9.95,3,11.35.1.33s3.42-3.45,5-1a5.79,5.79,0,0,1,.72,2.59C530.2,236.88,524.14,236.74,524.14,236.74Z"/><path class="cls-192" d="M524.8,234.08l.28-5.63a2.13,2.13,0,0,1,2.46,2.5A3.33,3.33,0,0,1,524.8,234.08Z"/><path class="cls-193" d="M536.77,299.49c-.15.41-.29.82-.43,1.23s-.19.54-.28.81-.23.67-.34,1c-.2.58-.39,1.16-.57,1.72-.3.92-.57,1.8-.82,2.66,0,.11-.07.22-.1.33-.09.32-.17.64-.26.95-.12.47-.24.92-.33,1.36a22.2,22.2,0,0,0-.56,3.27c-.12,1.44-.22,2.78-.29,4.05-.42,7-.25,11.53-.47,17h0c0,.18,0,.37,0,.55-.09,1.94-.22,4-.46,6.38-.15,1.55-.34,3.22-.58,5a12.91,12.91,0,0,0,1.06,5.24l0,.14h0c1.51,4.29,3.73,9.18,1.71,11a4.76,4.76,0,0,1-1.2.77,9.13,9.13,0,0,1-1.58.54c-.32.09-.66.15-1,.22l-.88.14-.68.08-.15,0-.78.07c-.4,0-.8.06-1.21.07s-.6,0-.91,0c-1,0-2,0-3.08,0l-.7,0c-.53,0-1.06,0-1.57-.06-.85,0-1.67-.08-2.44-.12-1,0-2-.11-2.76-.14l-.46,0h-.73c-1.18,0-2.36-.07-3.55-.12a181.56,181.56,0,0,1-22.88-2.66c-3.72-.65-19.57-2.07-26.09-5h0a5.77,5.77,0,0,1-2.54-1.79,1.85,1.85,0,0,1-.19-.45,1.54,1.54,0,0,1-.05-.31,1,1,0,0,1,0-.24,2.88,2.88,0,0,1,0-.65c.42-3.52,4.57-10.1,5.38-12.53,2.84-8.65,2.75-13,3.33-19.68.15-1.77.22-3.57.22-5.41,0-.71,0-1.43,0-2.15l0-1.07c0-.85-.07-1.71-.12-2.57q0-.74-.09-1.47c-.06-1-.13-2-.21-3-.13-1.74-.27-3.48-.41-5.23l-.09-1.11c0-.36-.06-.71-.08-1.07,0,0,0,0,0-.06a.12.12,0,0,0,0-.05.66.66,0,0,0-.05-.66l-.16-.27c0-.08-.08-.13-.12-.21h0a19.15,19.15,0,0,1-1.65-3.6c-1.3-3.94-.82-8.09,2.06-14.71a159.73,159.73,0,0,1,8-15.18,10.59,10.59,0,0,1,.91-1.16c.36-.47.7-.93,1-1.38l0,0h0c.33-.45.66-.9,1-1.34,1.08-1.52,2-2.95,2.81-4.3.36-.6.7-1.18,1-1.75.44-.77.82-1.41,1.13-2a0,0,0,0,0,0,0,3.62,3.62,0,0,1,.22-.32,3.18,3.18,0,0,1,3.65-1.06l3.3,1.26.72.27a.6.6,0,0,0-.16.1h0c-.06.06-.13.12-.22.22a9.13,9.13,0,0,0-1.37,2.53c-.09.23-.19.47-.28.71s-.26.67-.38,1c-.28.76-.54,1.55-.77,2.36-2.06,7-2.08,15.47,9.29,18,13.52,3,22-7.3,26.66-14.89.94-1.53,1.72-2.95,2.35-4.13l.52-1,.09-.17c.7-1.31,3.75-.54,6,.23a2.54,2.54,0,0,1,1.42,1.23,2.59,2.59,0,0,1,.33,1.16,2.83,2.83,0,0,1-.15,1c-.36,1-.77,2.16-1.1,3.05-2.23,5.83-5.53,15.88-5.28,23a10.55,10.55,0,0,0,1.62,5.83l.29.39c.44.58.9,1.15,1.37,1.71.32.39.65.77,1,1.14A63.63,63.63,0,0,0,536.77,299.49Z"/><path class="cls-183" d="M466.17,296.17c.39.32,13.23,11.73,28.26,12.26,15.26.54,31.92-2.2,31.92-2.2s-4.44,20.83-1.55,25.91-1,19.17,0,28.92a9.54,9.54,0,0,0,.88,3.16,29.49,29.49,0,0,0,4.61-.41c.35-.07.69-.14,1-.23a8.36,8.36,0,0,0,1.58-.54,4.57,4.57,0,0,0,1.2-.76c2-1.85-.2-6.75-1.71-11-.73-2.08-1.29-4-1.11-5.38.24-1.83.43-3.5.59-5,.23-2.37.36-4.44.45-6.38l0-.56h0c.21-5.48,0-10,.46-17,.07-1.26.17-2.6.29-4.05.27-3.22,1.83-8.08,3.69-13.33a63.59,63.59,0,0,1-5.2-5.11c-.82-.91-1.61-1.86-2.34-2.84-6.82,10.37-24.26,12.8-34.76,12.18C485.5,303.17,466.68,296.41,466.17,296.17Z"/><path class="cls-183" d="M529.65,293.94l4.58,13.29c.67-2.35,1.57-5,2.54-7.75.79-2.21,1.62-4.48,2.42-6.72l17.92,12.87a4.57,4.57,0,0,1,.62,5.66l-13.35,25.28,16.43-27a4,4,0,0,0-.77-5.08l-18.12-16a3.87,3.87,0,0,0-4.9-.17Z"/><path class="cls-194" d="M522.41,352.65a2.14,2.14,0,0,0,2.7-1.47,24.6,24.6,0,0,1,2-3.67l-2.35,6.82s2.42-.19,3.89-5.3l2.49-.37-2.1.92a48.64,48.64,0,0,0-2.19,5.22s1.65-.14,3.11-3.42a.92.92,0,0,1,.81-.55h0a1.33,1.33,0,0,1,.28,0l.08,0,8.36,2.41a5.76,5.76,0,0,0,3.5-.51,14.09,14.09,0,0,0,4-3.2l1.43-1.85L541,343s-.74,2.27-6.77-.9-5.33-3.24-8.47-.38-2.92,3.55-2.92,3.55a16.69,16.69,0,0,0,5.84-3.55l2.71,2.35s-4.23.29-5.34,1.09S524.2,351.22,522.41,352.65Z"/><path class="cls-195" d="M517.27,226.65l-3.51-2.39a2.55,2.55,0,0,0-3,.1l-1.49,1.17,1.67-.28a6.28,6.28,0,0,1,3.07.26Z"/><path class="cls-196" d="M494.47,226.65l3.51-2.39a2.55,2.55,0,0,1,3,.1l1.48,1.17-1.66-.28a6.27,6.27,0,0,0-3.07.26Z"/><path class="cls-197" d="M502.88,239.81a8.63,8.63,0,0,0,3.52,1.87,5.08,5.08,0,0,0,4.9-1.57,11.56,11.56,0,0,0,2.07-3,.18.18,0,0,0-.25-.23c-1.45.87-5.69,3.16-10.1,2.63A.18.18,0,0,0,502.88,239.81Z"/><path class="cls-198" d="M506.4,241.68a5.08,5.08,0,0,0,4.9-1.57,3.84,3.84,0,0,0-1.78-.43A3.1,3.1,0,0,0,506.4,241.68Z"/><path class="cls-199" d="M458.64,352.66c3.43-5.7,10.57-18.17,11.82-24.79,1.61-8.52-3.67-29.38-4-30.51.6,7.89,1.48,15.86.85,23.09-.58,6.72-.49,11-3.33,19.69C463.22,342.57,459.06,349.14,458.64,352.66Z"/><path d="M559.73,333.12v0h0Z"/><path class="cls-199" d="M580.56,308.68c-2,3.81-11.29,16.34-18.69,26.1,2.55-3.53,14.11-21.7,14.18-27.14.1-8.23-23.75-35.59-26.8-39C557,276.84,583.93,302.17,580.56,308.68Z"/><path d="M549,270.27l.07.08-.06-.08Z"/><path class="cls-183" d="M408.76,259.51a5.46,5.46,0,0,1,.26-4s-.58-.14-1.44-.38A13.38,13.38,0,0,0,408.76,259.51Z"/><path class="cls-183" d="M396.49,262.13s6.8,4.43,12.3,5h0s-10.63-3.34-12.44-6.65a21.5,21.5,0,0,1-2.23-5.48A7.18,7.18,0,0,0,396.49,262.13Z"/><path class="cls-183" d="M531.1,350.89l8.36,2.41a5.76,5.76,0,0,0,3.5-.51,9.71,9.71,0,0,1-4.76-.28A60.05,60.05,0,0,0,531.1,350.89Z"/><path class="cls-200" d="M500.86,229.24c-.45-.19-.84-.39-1.21-.57a6.66,6.66,0,0,0-1.11-.43,3,3,0,0,0-1.07-.12,4.87,4.87,0,0,0-1.23.32,1.92,1.92,0,0,1,1-1.05,2.39,2.39,0,0,1,1.54-.08,3.25,3.25,0,0,1,1.27.75A2.94,2.94,0,0,1,500.86,229.24Z"/><path class="cls-201" d="M510.2,229.24a2.94,2.94,0,0,1,.78-1.18,3.18,3.18,0,0,1,1.27-.75,2.39,2.39,0,0,1,1.54.08,1.91,1.91,0,0,1,1,1.05,4.71,4.71,0,0,0-1.22-.32,3,3,0,0,0-1.08.12,6.92,6.92,0,0,0-1.1.43C511,228.85,510.64,229.05,510.2,229.24Z"/><path class="cls-8" d="M496,234.28l-1.91.46c0-.72-.05-1.47-.09-2.23l1.49-.36Z"/><path class="cls-8" d="M495.64,237.66l-1.43.34a21.82,21.82,0,0,1-.14-2.21l1.06-.27Z"/><rect class="cls-8" x="514.83" y="232.65" width="4.86" height="2.09" transform="translate(965.34 582.13) rotate(-166.44)"/><rect class="cls-8" x="515.68" y="235.8" width="4.86" height="2.09" transform="translate(966.27 588.53) rotate(-166.44)"/><path class="cls-202" d="M537.68,246.47a1.64,1.64,0,0,1-.14.22,9.62,9.62,0,0,1-3.73,3.22,25.53,25.53,0,0,1-10.18,2.71,35.29,35.29,0,0,1-3-9.66c-.18-1-.33-1.9-.45-2.75,0-.33-.1-.66-.18-1a9.18,9.18,0,0,0-.19-.91,16.53,16.53,0,0,0-.67-2.31,8.14,8.14,0,0,0-.31-.87,19.64,19.64,0,0,0-1.12-2.42,20.66,20.66,0,0,0-1.28-2.1l-.35-.49c-.41-.58-.84-1.17-1.29-1.75-.66-.87-1.35-1.71-2-2.47-.24-.26-.47-.51-.71-.74s-.69-.66-1-.93a6.47,6.47,0,0,0-2.34-1.36c-8.16-2.14-10.07-5.52-10.07-5.52a7.4,7.4,0,0,1-.71,1.22A32.45,32.45,0,0,1,495,221.9c-.61.64-1.18,1.21-1.61,1.63l-.78.74a4.43,4.43,0,0,1-1.35-2.32c-1.21-4.41,1-12.8,8.94-16.88a21.82,21.82,0,0,1,8.41-2.27c17.24-1.35,20.11,11,22.11,19.53A33.65,33.65,0,0,0,537,234.66,10.12,10.12,0,0,1,537.68,246.47Z"/><g class="cls-203"><path class="cls-8" d="M494.84,225.91h6.66a2.58,2.58,0,0,1,2.58,2.58v2a1.71,1.71,0,0,1-1.71,1.71h-5.19a3.82,3.82,0,0,1-3.82-3.82v-.92a1.49,1.49,0,0,1,1.49-1.49Z"/><path class="cls-8" d="M509.58,225.91h5.19a1.71,1.71,0,0,1,1.71,1.71v2a2.58,2.58,0,0,1-2.58,2.58h-6.66a1.49,1.49,0,0,1-1.49-1.49v-.92a3.82,3.82,0,0,1,3.82-3.82Z" transform="translate(1022.23 458.06) rotate(-180)"/></g><path class="cls-204" d="M494.84,225.91h6.66a2.58,2.58,0,0,1,2.58,2.58v2a1.71,1.71,0,0,1-1.71,1.71h-5.19a3.82,3.82,0,0,1-3.82-3.82v-.92a1.49,1.49,0,0,1,1.49-1.49Z"/><path class="cls-204" d="M509.58,225.91h5.19a1.71,1.71,0,0,1,1.71,1.71v2a2.58,2.58,0,0,1-2.58,2.58h-6.66a1.49,1.49,0,0,1-1.49-1.49v-.92a3.82,3.82,0,0,1,3.82-3.82Z" transform="translate(1022.23 458.06) rotate(-180)"/><line class="cls-204" x1="504.08" y1="229.03" x2="505.75" y2="229.03"/><path class="cls-183" d="M500.26,250.85a3.73,3.73,0,0,1-1.11,2.37c-1.28,1.06-5.66,1.2-10.8,1.22h-.58c-2.41,0-5,0-7.44,0-2.26,0-4.45.12-6.4.3-.6.06-1.17.12-1.71.2l-.28,0a11.24,11.24,0,0,0-4.37,1.37l.35-.46a14.4,14.4,0,0,1,12.39-5.65l2.41.16a3.18,3.18,0,0,1,3.65-1.06l3.3,1.26c2.57-5.42,3.41-9,2.21-17.44a56.3,56.3,0,0,1-.61-11.22c-1.21-4.41,1-12.8,8.94-16.88a41.34,41.34,0,0,0-3.52,7.52,32,32,0,0,0-1,3.35,24.94,24.94,0,0,0-.71,6,18.89,18.89,0,0,0,.45,4,.08.08,0,0,0,0,.05,1.55,1.55,0,0,0,.07.31c0,.13.06.25.09.38.49,1.79,1,3.64,1.5,5.5,1,3.82,2,7.68,2.62,11a2.5,2.5,0,0,0,.05.29c.12.71.23,1.4.32,2.06q.09.72.15,1.38A15.84,15.84,0,0,1,500.26,250.85Z"/><path class="cls-8" d="M563.75,173.32a19.61,19.61,0,0,0-16.68,30l-11.29,18.33,18.93-11.24a19.64,19.64,0,1,0,9-37.08Z"/><circle class="cls-205" cx="555.5" cy="192.89" r="1.69"/><circle class="cls-206" cx="563.34" cy="192.89" r="1.69"/><circle class="cls-207" cx="571.17" cy="192.89" r="1.69"/></g></g></g></svg>