<svg xmlns="http://www.w3.org/2000/svg" xmlns:xlink="http://www.w3.org/1999/xlink" viewBox="0 0 975.97 706.7"><defs><style>.cls-1{isolation:isolate;}.cls-2{fill:url(#linear-gradient);}.cls-14,.cls-3,.cls-5,.cls-55,.cls-6,.cls-69,.cls-70,.cls-71,.cls-73{fill:#fff;}.cls-4{fill:url(#linear-gradient-2);}.cls-5{opacity:0.13;}.cls-6{opacity:0.33;}.cls-10,.cls-7,.cls-8,.cls-9{opacity:0.09;}.cls-7{fill:url(#linear-gradient-3);}.cls-8{fill:url(#linear-gradient-4);}.cls-9{fill:url(#linear-gradient-5);}.cls-10{fill:url(#linear-gradient-6);}.cls-11{fill:url(#linear-gradient-7);}.cls-12{fill:url(#linear-gradient-8);}.cls-13{fill:url(#linear-gradient-9);}.cls-14,.cls-27{opacity:0.1;}.cls-14,.cls-15,.cls-27,.cls-55,.cls-66{mix-blend-mode:overlay;}.cls-15,.cls-55{opacity:0.15;}.cls-16{fill:url(#linear-gradient-10);}.cls-17{fill:url(#linear-gradient-11);}.cls-18{fill:url(#linear-gradient-12);}.cls-19{fill:url(#linear-gradient-13);}.cls-20,.cls-32,.cls-34,.cls-36,.cls-37{opacity:0.3;}.cls-20{fill:url(#linear-gradient-14);}.cls-21{fill:url(#linear-gradient-15);}.cls-22{fill:url(#linear-gradient-16);}.cls-23{fill:url(#linear-gradient-17);}.cls-24{fill:url(#linear-gradient-18);}.cls-25{fill:url(#linear-gradient-19);}.cls-26{fill:url(#linear-gradient-20);}.cls-28{fill:url(#linear-gradient-21);}.cls-29{fill:#737bd5;}.cls-30{fill:#8188da;}.cls-31{fill:url(#linear-gradient-22);}.cls-32{fill:url(#linear-gradient-23);}.cls-33{fill:url(#linear-gradient-24);}.cls-34{fill:url(#linear-gradient-25);}.cls-35{fill:url(#linear-gradient-26);}.cls-36{fill:url(#linear-gradient-27);}.cls-37{fill:url(#linear-gradient-28);}.cls-38{fill:url(#linear-gradient-29);}.cls-39{fill:url(#linear-gradient-30);}.cls-40{fill:url(#linear-gradient-31);}.cls-41{fill:url(#linear-gradient-32);}.cls-42{fill:url(#linear-gradient-33);}.cls-43{opacity:0.68;fill:url(#linear-gradient-34);}.cls-44{fill:url(#linear-gradient-35);}.cls-45{fill:url(#linear-gradient-36);}.cls-46{fill:url(#linear-gradient-37);}.cls-47{fill:url(#linear-gradient-38);}.cls-48{fill:url(#linear-gradient-39);}.cls-49{fill:url(#linear-gradient-40);}.cls-50{fill:url(#linear-gradient-41);}.cls-51{fill:url(#linear-gradient-42);}.cls-52{fill:url(#linear-gradient-43);}.cls-53{fill:url(#linear-gradient-44);}.cls-54{fill:url(#linear-gradient-45);}.cls-56{fill:url(#linear-gradient-46);}.cls-57{fill:url(#linear-gradient-47);}.cls-58,.cls-67{fill:#f2f2f2;}.cls-59{fill:#2800a2;}.cls-60{fill:url(#linear-gradient-48);}.cls-61{fill:url(#linear-gradient-49);}.cls-62{fill:#dbc2b3;}.cls-63{fill:#f2d6c6;}.cls-64{fill:url(#linear-gradient-50);}.cls-65{fill:url(#linear-gradient-51);}.cls-66{opacity:0.11;}.cls-67,.cls-68{opacity:0.5;}.cls-69{opacity:0.28;}.cls-70{opacity:0.24;}.cls-71{opacity:0.26;}.cls-72{fill:url(#linear-gradient-52);}.cls-73{opacity:0.25;}.cls-74{fill:url(#linear-gradient-53);}.cls-75{fill:#f27271;}.cls-76{fill:#4ed800;}.cls-77{fill:#378909;}.cls-78{fill:url(#linear-gradient-54);}.cls-79{fill:url(#linear-gradient-55);}.cls-80{fill:url(#linear-gradient-56);}.cls-81{fill:url(#linear-gradient-57);}.cls-82{fill:url(#linear-gradient-58);}.cls-83{fill:url(#linear-gradient-59);}.cls-84{fill:url(#linear-gradient-60);}.cls-85{fill:url(#linear-gradient-61);}.cls-86{fill:url(#linear-gradient-62);}.cls-87{fill:url(#linear-gradient-63);}.cls-88{fill:url(#linear-gradient-64);}.cls-89{opacity:0.63;}.cls-90{fill:#c0aaf7;}.cls-91,.cls-93{fill:#a587f7;}.cls-92{fill:#baa3f7;}.cls-93{opacity:0.64;}.cls-94{fill:url(#linear-gradient-65);}.cls-95{fill:url(#linear-gradient-66);}.cls-96{fill:url(#linear-gradient-67);}.cls-97{fill:#e6ff45;}.cls-98{fill:url(#linear-gradient-68);}.cls-99{opacity:0.58;fill:url(#linear-gradient-69);}.cls-100{fill:url(#linear-gradient-70);}.cls-101{fill:#e6e6e6;}.cls-102{fill:url(#linear-gradient-71);}</style><linearGradient id="linear-gradient" x1="1008.1" y1="69.65" x2="-75.69" y2="687.33" gradientUnits="userSpaceOnUse"><stop offset="0" stop-color="#b2a2ff"/><stop offset="1" stop-color="#5c79ff"/></linearGradient><linearGradient id="linear-gradient-2" x1="837.81" y1="314.78" x2="816.27" y2="501.06" gradientTransform="translate(67.48 913.17) rotate(-64.68)" gradientUnits="userSpaceOnUse"><stop offset="0" stop-color="#fff" stop-opacity="0"/><stop offset="1" stop-color="#fff"/></linearGradient><linearGradient id="linear-gradient-3" x1="457.64" y1="26.96" x2="566.56" y2="303.46" gradientTransform="matrix(1, 0, 0, 1, 0, 0)" xlink:href="#linear-gradient-2"/><linearGradient id="linear-gradient-4" x1="90.79" y1="391.74" x2="349.23" y2="391.74" gradientTransform="matrix(1, 0, 0, 1, 0, 0)" xlink:href="#linear-gradient-2"/><linearGradient id="linear-gradient-5" x1="90.79" y1="405.05" x2="277.34" y2="405.05" gradientTransform="matrix(1, 0, 0, 1, 0, 0)" xlink:href="#linear-gradient-2"/><linearGradient id="linear-gradient-6" x1="732.14" y1="491.35" x2="850.76" y2="413.79" gradientTransform="matrix(1, 0, 0, 1, 0, 0)" xlink:href="#linear-gradient-2"/><linearGradient id="linear-gradient-7" x1="850.19" y1="514.69" x2="975.97" y2="514.69" gradientUnits="userSpaceOnUse"><stop offset="0" stop-color="#ff8900"/><stop offset="1" stop-color="#ffd865"/></linearGradient><linearGradient id="linear-gradient-8" x1="457.82" y1="768.89" x2="435.08" y2="666.57" gradientUnits="userSpaceOnUse"><stop offset="0" stop-color="#4286ff"/><stop offset="1" stop-color="#6637b0"/></linearGradient><linearGradient id="linear-gradient-9" x1="393.49" y1="640.74" x2="370.75" y2="364.11" gradientUnits="userSpaceOnUse"><stop offset="0" stop-color="#a587f7"/><stop offset="1" stop-color="#e6efff"/></linearGradient><linearGradient id="linear-gradient-10" x1="493.88" y1="360.66" x2="503.65" y2="360.66" xlink:href="#linear-gradient-8"/><linearGradient id="linear-gradient-11" x1="489.7" y1="409.61" x2="501.87" y2="409.61" gradientUnits="userSpaceOnUse"><stop offset="0" stop-color="#e4e4e4"/><stop offset="1" stop-color="#fafafa"/></linearGradient><linearGradient id="linear-gradient-12" x1="335.75" y1="246.75" x2="373.42" y2="246.75" xlink:href="#linear-gradient-8"/><linearGradient id="linear-gradient-13" x1="159.95" y1="473.64" x2="338.05" y2="325.85" gradientUnits="userSpaceOnUse"><stop offset="0" stop-color="#0080e8"/><stop offset="1" stop-color="#cfc2fe"/></linearGradient><linearGradient id="linear-gradient-14" x1="174.47" y1="416.13" x2="224.08" y2="416.13" xlink:href="#linear-gradient-8"/><linearGradient id="linear-gradient-15" x1="174.47" y1="417.1" x2="220.72" y2="417.1" gradientUnits="userSpaceOnUse"><stop offset="0" stop-color="#e5eeff"/><stop offset="1" stop-color="#b2c4ff"/></linearGradient><linearGradient id="linear-gradient-16" x1="347.88" y1="225.06" x2="388.02" y2="225.06" gradientUnits="userSpaceOnUse"><stop offset="0" stop-color="#fab6b6"/><stop offset="1" stop-color="#ffead6"/></linearGradient><linearGradient id="linear-gradient-17" x1="388.84" y1="334.64" x2="493.88" y2="334.64" xlink:href="#linear-gradient-8"/><linearGradient id="linear-gradient-18" x1="393.05" y1="334.04" x2="491.22" y2="334.04" xlink:href="#linear-gradient-16"/><linearGradient id="linear-gradient-19" x1="393.05" y1="332.02" x2="470.67" y2="332.02" gradientUnits="userSpaceOnUse"><stop offset="0" stop-color="#ffdcd0"/><stop offset="1" stop-color="#d9bab1"/></linearGradient><linearGradient id="linear-gradient-20" x1="507.56" y1="553.72" x2="657.03" y2="405.51" xlink:href="#linear-gradient-13"/><linearGradient id="linear-gradient-21" x1="583.6" y1="349.89" x2="583.18" y2="378.1" gradientUnits="userSpaceOnUse"><stop offset="0" stop-color="#e5eeff"/><stop offset="1" stop-color="#1d23b6"/></linearGradient><linearGradient id="linear-gradient-22" x1="583.14" y1="374.24" x2="583.56" y2="347.71" xlink:href="#linear-gradient-15"/><linearGradient id="linear-gradient-23" x1="574.74" y1="575.72" x2="641.7" y2="575.72" xlink:href="#linear-gradient-8"/><linearGradient id="linear-gradient-24" x1="577.97" y1="576.31" x2="639.81" y2="576.31" xlink:href="#linear-gradient-15"/><linearGradient id="linear-gradient-25" x1="574.74" y1="571.69" x2="641.7" y2="571.69" xlink:href="#linear-gradient-8"/><linearGradient id="linear-gradient-26" x1="586.3" y1="586.48" x2="630.38" y2="586.48" xlink:href="#linear-gradient-15"/><linearGradient id="linear-gradient-27" x1="607.14" y1="445.77" x2="634.47" y2="445.77" xlink:href="#linear-gradient-8"/><linearGradient id="linear-gradient-28" x1="621.28" y1="491.73" x2="644.77" y2="491.73" xlink:href="#linear-gradient-8"/><linearGradient id="linear-gradient-29" x1="598.15" y1="495.04" x2="565.3" y2="401.57" xlink:href="#linear-gradient-8"/><linearGradient id="linear-gradient-30" x1="389.55" y1="363.66" x2="399.33" y2="363.66" xlink:href="#linear-gradient-8"/><linearGradient id="linear-gradient-31" x1="384.84" y1="412.67" x2="397.01" y2="412.67" xlink:href="#linear-gradient-11"/><linearGradient id="linear-gradient-32" x1="384.59" y1="466.85" x2="398.87" y2="466.85" xlink:href="#linear-gradient-8"/><linearGradient id="linear-gradient-33" x1="489.07" y1="465.75" x2="503.3" y2="465.75" xlink:href="#linear-gradient-8"/><linearGradient id="linear-gradient-34" x1="174.46" y1="418.47" x2="216.25" y2="418.47" xlink:href="#linear-gradient-8"/><linearGradient id="linear-gradient-35" x1="445.53" y1="412.34" x2="443.42" y2="366.45" gradientUnits="userSpaceOnUse"><stop offset="0" stop-color="#002bc9"/><stop offset="1" stop-color="#e6efff"/></linearGradient><linearGradient id="linear-gradient-36" x1="372.31" y1="369.91" x2="356.73" y2="335.8" xlink:href="#linear-gradient-35"/><linearGradient id="linear-gradient-37" x1="362.22" y1="365.88" x2="386.22" y2="323.35" xlink:href="#linear-gradient-35"/><linearGradient id="linear-gradient-38" x1="520.8" y1="355.41" x2="499.32" y2="318.36" xlink:href="#linear-gradient-35"/><linearGradient id="linear-gradient-39" x1="538.17" y1="359.45" x2="512.06" y2="327.45" xlink:href="#linear-gradient-35"/><linearGradient id="linear-gradient-40" x1="260.64" y1="359.03" x2="288.85" y2="387.66" xlink:href="#linear-gradient-35"/><linearGradient id="linear-gradient-41" x1="266.11" y1="362.51" x2="287.17" y2="397.88" xlink:href="#linear-gradient-35"/><linearGradient id="linear-gradient-42" x1="369.13" y1="209.93" x2="527.54" y2="209.93" gradientUnits="userSpaceOnUse"><stop offset="0" stop-color="#2800a2"/><stop offset="1" stop-color="#895bec"/></linearGradient><linearGradient id="linear-gradient-43" x1="365.81" y1="267.35" x2="507.84" y2="267.35" xlink:href="#linear-gradient-16"/><linearGradient id="linear-gradient-44" x1="597.36" y1="238.69" x2="593.73" y2="332.75" gradientUnits="userSpaceOnUse"><stop offset="0.17" stop-color="#fff" stop-opacity="0"/><stop offset="1" stop-color="#e6efff" stop-opacity="0.3"/></linearGradient><linearGradient id="linear-gradient-45" x1="596.02" y1="401.1" x2="671.8" y2="383.84" xlink:href="#linear-gradient-16"/><linearGradient id="linear-gradient-46" x1="551.05" y1="417.24" x2="470.63" y2="365.02" xlink:href="#linear-gradient-16"/><linearGradient id="linear-gradient-47" x1="557.41" y1="445.12" x2="585.63" y2="369.75" xlink:href="#linear-gradient-16"/><linearGradient id="linear-gradient-48" x1="397.09" y1="236.12" x2="424.23" y2="236.12" gradientUnits="userSpaceOnUse"><stop offset="0" stop-color="#0b3d77"/><stop offset="1" stop-color="#895bec"/></linearGradient><linearGradient id="linear-gradient-49" x1="448.16" y1="236.12" x2="475.3" y2="236.12" xlink:href="#linear-gradient-48"/><linearGradient id="linear-gradient-50" x1="423.4" y1="294.57" x2="450.92" y2="294.57" gradientUnits="userSpaceOnUse"><stop offset="0" stop-color="#f27271"/><stop offset="1" stop-color="#e73c84"/></linearGradient><linearGradient id="linear-gradient-51" x1="607.31" y1="546.06" x2="652.78" y2="389.43" xlink:href="#linear-gradient-35"/><linearGradient id="linear-gradient-52" x1="638.76" y1="634.55" x2="777.99" y2="634.55" gradientTransform="translate(120.06 -112.02) rotate(9.99)" xlink:href="#linear-gradient"/><linearGradient id="linear-gradient-53" x1="731.47" y1="10.17" x2="419.47" y2="137.75" gradientUnits="userSpaceOnUse"><stop offset="0" stop-color="#edf7ff"/><stop offset="1" stop-color="#fff"/></linearGradient><linearGradient id="linear-gradient-54" x1="667.65" y1="95.6" x2="695.35" y2="95.6" gradientUnits="userSpaceOnUse"><stop offset="0" stop-color="#0080e8"/><stop offset="1" stop-color="#2800a2"/></linearGradient><linearGradient id="linear-gradient-55" x1="703.16" y1="87.52" x2="735.77" y2="87.52" xlink:href="#linear-gradient-54"/><linearGradient id="linear-gradient-56" x1="653.7" y1="73.54" x2="663.63" y2="73.54" xlink:href="#linear-gradient-54"/><linearGradient id="linear-gradient-57" x1="739.28" y1="51.06" x2="749.95" y2="51.06" xlink:href="#linear-gradient-54"/><linearGradient id="linear-gradient-58" x1="690.9" y1="49.35" x2="698.16" y2="49.35" xlink:href="#linear-gradient-54"/><linearGradient id="linear-gradient-59" x1="673.43" y1="104.78" x2="679.44" y2="104.78" xlink:href="#linear-gradient-54"/><linearGradient id="linear-gradient-60" x1="700.98" y1="97.47" x2="706.99" y2="97.47" xlink:href="#linear-gradient-54"/><linearGradient id="linear-gradient-61" x1="731.94" y1="88.85" x2="737.96" y2="88.85" xlink:href="#linear-gradient-54"/><linearGradient id="linear-gradient-62" x1="753.54" y1="168.49" x2="836.39" y2="168.49" xlink:href="#linear-gradient-54"/><linearGradient id="linear-gradient-63" x1="840.56" y1="153.58" x2="850.19" y2="153.58" xlink:href="#linear-gradient-54"/><linearGradient id="linear-gradient-64" x1="811.89" y1="183.4" x2="817.51" y2="183.4" xlink:href="#linear-gradient-54"/><linearGradient id="linear-gradient-65" x1="844.45" y1="238.81" x2="820.77" y2="224.92" xlink:href="#linear-gradient-7"/><linearGradient id="linear-gradient-66" x1="832.82" y1="245.32" x2="839.83" y2="245.32" xlink:href="#linear-gradient-7"/><linearGradient id="linear-gradient-67" x1="833.31" y1="246.27" x2="840.31" y2="246.27" xlink:href="#linear-gradient-7"/><linearGradient id="linear-gradient-68" x1="525.23" y1="122.24" x2="663.07" y2="122.24" gradientUnits="userSpaceOnUse"><stop offset="0" stop-color="#e73c84"/><stop offset="1" stop-color="#f27271"/></linearGradient><linearGradient id="linear-gradient-69" x1="762.99" y1="99.23" x2="896.87" y2="99.23" gradientUnits="userSpaceOnUse"><stop offset="0" stop-color="#4286ff"/><stop offset="1" stop-color="#2800a2"/></linearGradient><linearGradient id="linear-gradient-70" x1="567.68" y1="204.87" x2="657.66" y2="204.87" xlink:href="#linear-gradient-7"/><linearGradient id="linear-gradient-71" x1="0" y1="309.95" x2="191.96" y2="309.95" xlink:href="#linear-gradient-7"/></defs><title>ASK</title><g class="cls-1"><g id="Layer_2" data-name="Layer 2"><g id="ASK"><path class="cls-2" d="M930.34,443.38a142.92,142.92,0,0,1-9.64,38.11c-9.22,22.68-24.07,42.31-42.87,58.36-53.68,45.83-139.56,62.41-218.51,37.23-121.09-38.61-190.56,10.66-304,16.09a230.25,230.25,0,0,1-39.61-1.69C205.58,577.58,69.79,488.21,93.52,318.94q1.7-12.1,4.11-23.48,1.89-9,4.2-17.52c9-33.38,22.61-61.71,39.28-85.61C202.9,103.72,306.87,76,375.6,77.75l2.28.07a367.65,367.65,0,0,1,57.41,6.23c82.86,15.71,137.42,56.22,192.17,76.11A211.61,211.61,0,0,0,651,167.29q13.65,3.22,26.49,6.66c96.23,25.69,159,59.88,198.19,99.34a201.54,201.54,0,0,1,26.86,33.24A183,183,0,0,1,913,325.05q2.07,4.2,3.87,8.45C931.71,368.32,934.57,405.49,930.34,443.38Z"/><path class="cls-3" d="M291.87,172.8A12.73,12.73,0,0,1,294,166a16.52,16.52,0,0,1,6.29-5.71A19.75,19.75,0,0,1,310,158a20.58,20.58,0,0,1,9,1.89,14.58,14.58,0,0,1,6.06,5.14,12.58,12.58,0,0,1,2.14,7.07,10.81,10.81,0,0,1-1.22,5.26,16.33,16.33,0,0,1-2.89,3.91c-1.12,1.09-3.13,2.94-6,5.53a24.89,24.89,0,0,0-1.93,1.93,7.52,7.52,0,0,0-1.07,1.52,6.88,6.88,0,0,0-.55,1.37c-.13.46-.33,1.27-.59,2.42-.44,2.46-1.85,3.68-4.2,3.68a4.28,4.28,0,0,1-3.09-1.2,4.71,4.71,0,0,1-1.26-3.57,12.55,12.55,0,0,1,3.36-9,54.77,54.77,0,0,1,4.1-3.91c1.51-1.31,2.6-2.31,3.27-3a9.76,9.76,0,0,0,1.69-2.25,5.4,5.4,0,0,0,.69-2.68,6.23,6.23,0,0,0-2.1-4.77,7.65,7.65,0,0,0-5.42-2c-2.6,0-4.51.66-5.73,2a15.66,15.66,0,0,0-3.11,5.78q-1.2,4-4.56,4a4.49,4.49,0,0,1-3.34-1.4A4.26,4.26,0,0,1,291.87,172.8Zm17.25,38.73a5.58,5.58,0,0,1-3.77-1.39,4.9,4.9,0,0,1-1.6-3.91,5,5,0,0,1,1.55-3.74,5.23,5.23,0,0,1,3.82-1.52,5.19,5.19,0,0,1,5.26,5.26,4.94,4.94,0,0,1-1.59,3.89A5.36,5.36,0,0,1,309.12,211.53Z"/><path class="cls-3" d="M332.24,181a8.31,8.31,0,0,1,1.4-4.42,10.82,10.82,0,0,1,4.08-3.7,12.84,12.84,0,0,1,6.26-1.47,13.33,13.33,0,0,1,5.87,1.23,9.58,9.58,0,0,1,3.93,3.34,8.19,8.19,0,0,1,1.39,4.58,7.19,7.19,0,0,1-.79,3.42,10.82,10.82,0,0,1-1.88,2.53c-.73.71-2,1.9-3.91,3.59a14.61,14.61,0,0,0-1.25,1.25,4.41,4.41,0,0,0-.7,1,5.93,5.93,0,0,0-.36.89c-.08.3-.21.83-.37,1.57a2.56,2.56,0,0,1-2.73,2.39,2.78,2.78,0,0,1-2-.78,3.07,3.07,0,0,1-.81-2.32,8.65,8.65,0,0,1,.59-3.33,8.5,8.5,0,0,1,1.59-2.48,34.64,34.64,0,0,1,2.66-2.53c1-.85,1.68-1.5,2.12-1.94a6.76,6.76,0,0,0,1.1-1.45,3.63,3.63,0,0,0,.44-1.74,4,4,0,0,0-1.36-3.1,5,5,0,0,0-3.52-1.26,4.88,4.88,0,0,0-3.71,1.27,10.1,10.1,0,0,0-2,3.75c-.52,1.73-1.51,2.59-3,2.59a2.91,2.91,0,0,1-2.16-.9A2.79,2.79,0,0,1,332.24,181Zm11.19,25.12a3.57,3.57,0,0,1-2.44-.91,3.15,3.15,0,0,1-1-2.53,3.27,3.27,0,0,1,1-2.43,3.42,3.42,0,0,1,2.48-1,3.38,3.38,0,0,1,3.42,3.42,3.19,3.19,0,0,1-1,2.52A3.47,3.47,0,0,1,343.43,206.09Z"/><polygon class="cls-4" points="867.72 398.39 695 283.87 875.49 383.53 867.72 398.39"/><circle class="cls-5" cx="872.49" cy="391.42" r="22.43"/><circle class="cls-3" cx="872.49" cy="391.42" r="8.45"/><path class="cls-6" d="M864.28,376.78l-.47.29A16.68,16.68,0,0,0,856.08,388a15.73,15.73,0,0,0-.33,2.48,16.76,16.76,0,1,0,8.53-13.68Zm18.62,15.57a10.46,10.46,0,0,1-19.54,4.19,9,9,0,0,1-.68-1.49,10.22,10.22,0,0,1-.2-6.68,10.34,10.34,0,0,1,4.89-6.07,10,10,0,0,1,3.66-1.23,10.45,10.45,0,0,1,11.87,11.28Z"/><path class="cls-6" d="M867.2,379a11.74,11.74,0,0,0-1.33.66,13.46,13.46,0,0,0-6.5,8.53,13,13,0,0,0-.36,4.48,13.22,13.22,0,0,0,1.68,5.42A13.53,13.53,0,1,0,867.2,379Zm13.71,12.81a8.44,8.44,0,0,1-15.79,3.78,8.44,8.44,0,1,1,15.79-3.78Z"/><path class="cls-3" d="M537,403.79c-10.27,3.84-25.06-18-35.09-26.69a30.84,30.84,0,0,1-10-15.71c4.1-2.11,11.11-.34,17.89,14.1,10.56,22.48,25.63,22.89,25.63,22.89Z"/><path class="cls-7" d="M651,167.29a211.61,211.61,0,0,1-23.55-7.13A109.21,109.21,0,1,1,435.29,84.05a367.65,367.65,0,0,0-57.41-6.23A160.26,160.26,0,1,0,677.5,174Q664.66,170.52,651,167.29Z"/><path class="cls-8" d="M315.71,591.48a281.48,281.48,0,0,1-54.43-12.61C166,546.72,73.61,461,93.52,318.94q1.7-12.1,4.11-23.48,1.89-9,4.2-17.52a287.09,287.09,0,0,1,16.94-46.71,258.05,258.05,0,0,1,22.34-38.9c51.36-3.23,121.37,16.5,162.2,99.73C386,460.57,335.75,529.64,315.71,591.48Z"/><path class="cls-9" d="M261.28,578.87C166,546.72,73.61,461,93.52,318.94q1.7-12.1,4.11-23.48,1.89-9,4.2-17.52a287.09,287.09,0,0,1,16.94-46.71c40.9,9.85,84,37,112.66,95.43C294.18,454.6,280.35,525.22,261.28,578.87Z"/><path class="cls-10" d="M873.39,504.07a42.81,42.81,0,0,1-57.1-20.18L778.62,405a42.85,42.85,0,0,1,20.21-57.11l78.9-37.66a42.51,42.51,0,0,1,24.82-3.69,201.54,201.54,0,0,0-26.86-33.24L768.48,324.46a59.76,59.76,0,0,0-28.16,79.67l52.54,110.08a59.79,59.79,0,0,0,79.67,28.17l5.3-2.53c18.8-16.05,33.65-35.68,42.87-58.36Z"/><path class="cls-11" d="M969.56,495.35c11.93-10.77,5.56-47.45-5.61-47s-3.31,35-15.27,47.1S930,504.28,926,514.66s-9.07,6-20.22,12.3-25.5,12.75-28-8-21.11-36.22-26.54-29.11c-4.53,5.93,7.42,8.27,3.55,32.29S875,570.43,892.14,575,906,552.9,926,572.52s42.95,2,45.44-19.38S957.62,506.13,969.56,495.35Zm-8.36,55.52c-.43,8.52-5.72,13.25-14.19,13.07s-4.63,5.41-11.51,2.93c-7.57-2.72-4.79-8.49,1.45-11s8.53-2.73,10.47-12.69S961.64,542.35,961.2,550.87Z"/><path class="cls-12" d="M576.51,688.47c-29.07,25.76-182.57,20-249.76,8.27-18.62-3.26-30.61-7-31.5-10.65-4.11-16.86,4.52-25.09,4.52-25.09s7.48-.26,20-.62c61.21-1.81,242.74-6.3,255.79,3.36C586.3,671.69,576.51,688.47,576.51,688.47Z"/><path class="cls-13" d="M578.05,583.73c0,1.3-.06,2.58-.09,3.86h0c-.51,23.49-1.16,43.61-1.66,57.25-.44,11.91-.75,18.89-.75,18.89q-27.94,4.68-52.84,7.57C415.43,684,350,674.23,319.79,667c-13.55-3.25-20-6-20-6-5.92-39.48-4.31-126.17-2.94-171.59.35-11.82.69-20.85.88-25.52.07-1.84.12-3,.14-3.4a.76.76,0,0,0,0-.15s-56.62,1-83.85-2.35l-2.12-.27-.14,0-.59-.09-.48-.07-1-.16-.59-.1-.39-.07-.15,0-.26-.05-.5-.09h0l-.9-.18-.42-.09h0l-.21,0-.21-.05c-.58-.13-1.13-.27-1.64-.41l-1.11-.33-.76-.27c-.69-.26-1.41-.53-2.15-.83h0l-.47-.18c-.36-.13-.72-.28-1.09-.43l-.57-.23-1.7-.72a56.88,56.88,0,0,1-5.27-2.59L190,450l-.44-.27-.14-.08-.43-.27-.91-.61c-.32-.21-.64-.43-1-.66a34.28,34.28,0,0,1-2.87-2.32c-.31-.28-.61-.56-.91-.86l-.51-.51c-.44-.45-.88-.93-1.29-1.42l-.17-.21a5.07,5.07,0,0,1-.37-.44l-.1-.12,0,0-.42-.54h0a27.75,27.75,0,0,1-2.46-3.9c-.24-.47-.47-.94-.7-1.43a29.24,29.24,0,0,1-1.15-3s0-.1-.05-.14h0c-.09-.27-.17-.55-.25-.82a2.68,2.68,0,0,1-.07-.27c0-.12-.07-.24-.1-.36a1.87,1.87,0,0,1-.07-.22,38.44,38.44,0,0,1-1.17-10.1c0-.25,0-.51,0-.76s0-.54,0-.81v-.1h0a54.65,54.65,0,0,1,.6-6.2c.13-.88.29-1.78.46-2.71l.12-.63s0,0,0-.08c.06-.29.12-.59.19-.89s.18-.86.28-1.29.2-.87.31-1.32l0-.11c.1-.41.21-.83.32-1.25.27-1,.58-2.13.91-3.24.16-.52.31-1,.49-1.57q.76-2.43,1.72-5l.35-1c.1-.26.19-.52.3-.78s.1-.29.16-.44.11-.28.17-.43.19-.47.28-.71l0-.08.24-.59c.18-.46.37-.93.57-1.39.37-.92.77-1.84,1.18-2.79l.05-.1c0-.06,0-.12.08-.19.18-.42.37-.83.56-1.27a.06.06,0,0,1,0,0h0c.69-1.55,1.43-3.15,2.22-4.78l.17-.35c.06-.13.12-.26.19-.39.35-.73.72-1.48,1.1-2.24l.68-1.34c.39-.76.79-1.54,1.2-2.32,33.21-62.75,140.13-141.18,140.13-141.18a.91.91,0,0,1,.53-.24c.75-.13,2.47.09,6,2.51a80.65,80.65,0,0,1,10.45,9,109.7,109.7,0,0,1,11.62,13.24A60.92,60.92,0,0,1,364,266.8a18,18,0,0,1,.75,1.71c-22.2,47.22-89.64,98.89-89.64,98.89,8.23.56,2.88,7.82,2.88,7.82a169.7,169.7,0,0,1,16.63-10.37c1-.55,2-1.08,3-1.6l.21-.11c1.09-.57,2.18-1.13,3.27-1.67,3.88-1.94,7.73-3.7,11.49-5.29l1.61-.67q2.4-1,4.74-1.9c2.73-1.06,5.39-2,8-2.91l1.12-.38,1.37-.46.08,0,.14-.05.2-.07c5.39-1.77,10.36-3.2,14.69-4.32a174.4,174.4,0,0,1,17.39-3.69c.82-7.81,11.3-9.45,11.3-9.45-1-12.64,10.47-22.73,14.39-25.78.8-.62,1.28-1,1.28-1s6.47-3,25.05-1c.95.1,1.93.22,2.94.35,13.88,1.83,31.9-3.16,48.62-5.54,8.38-1.19,16.43-1.73,23.48-.42.62.12,1.23.25,1.81.4a23.32,23.32,0,0,1,13.07,8.75h0c6.53,8.69,6.77,20.1,6.77,20.1a20.73,20.73,0,0,1,9,1.37,8.77,8.77,0,0,1,5.5,9.05,140.76,140.76,0,0,1,20.4,4.46h0a79.09,79.09,0,0,1,8.36,3,54.7,54.7,0,0,1,5.66,2.77,35.85,35.85,0,0,1,4.41,2.91h0l0,0a3.7,3.7,0,0,1,.29.24l.18.14.22.18a20.76,20.76,0,0,1,1.53,1.42,9.34,9.34,0,0,1,1.46,1.83c.16.51.31,1,.46,1.58.72,2.52,1.38,5.31,2,8.34l0,.12q.8,3.85,1.5,8.22.77,4.74,1.43,10,.36,2.81.69,5.76c1,9.28,1.89,19.56,2.57,30.54q.28,4.65.53,9.45c.14,2.68.27,5.41.39,8.16.07,1.51.13,3,.19,4.56.59,14.69.95,30.16,1.15,45.8C579,521.06,578.65,554.76,578.05,583.73Z"/><path class="cls-14" d="M578.05,583.73c0,1.3-.06,2.58-.09,3.86h0c-1,44-2.41,76.14-2.41,76.14q-27.94,4.68-52.84,7.57c29.41-123.3-36.94-103.8-61-166.94-36.09-94.82,32.81-149.48,57.88-174.8a8.77,8.77,0,0,1,5.5,9.05,140.76,140.76,0,0,1,20.4,4.46h0a79.09,79.09,0,0,1,8.36,3,54.7,54.7,0,0,1,5.66,2.77,35.85,35.85,0,0,1,4.41,2.91h0l0,0a3.7,3.7,0,0,1,.29.24l.18.14.22.18a20.76,20.76,0,0,1,1.53,1.42,9.34,9.34,0,0,1,1.46,1.83c.16.51.31,1,.46,1.58.72,2.52,1.38,5.31,2,8.34l0,.12q.8,3.85,1.5,8.22.77,4.74,1.43,10,.36,2.81.69,5.76c1,9.28,1.89,19.56,2.57,30.54q.28,4.65.53,9.45c.14,2.68.27,5.41.39,8.16.07,1.51.13,3,.19,4.56C579.32,487.93,578.94,541,578.05,583.73Z"/><path class="cls-15" d="M578.05,583.73c0,1.3-.06,2.58-.09,3.86h0c-.51,23.49-1.16,43.61-1.66,57.25a42.64,42.64,0,0,1-1.79-18c3.22-32.84-44.57-76.2-51.8-121.49-4-25.17,12-74.42,12-74.42,20.07-6.36,34.12,20,43.92,57.18C579,521.06,578.65,554.76,578.05,583.73Z"/><circle class="cls-16" cx="498.76" cy="360.66" r="4.89"/><path class="cls-17" d="M500.51,458.14l-2.42-.49c.05-.26,5.06-26-4.81-49.86-10.29-24.81,4.86-46.49,5-46.71l2,1.44c-.15.2-14.51,20.8-4.75,44.32C505.72,431.37,500.56,457.87,500.51,458.14Z"/><path class="cls-18" d="M373.42,254.59a18.08,18.08,0,0,1-2,6s0,0,0,0a12.88,12.88,0,0,1-4.8,5.05A11.1,11.1,0,0,1,364,266.8a13.77,13.77,0,0,1-3.56.55l-24.68-29.88a13.52,13.52,0,0,1,.45-2.12c1-3.49,4.16-10,13.53-9.12l19.21,23,4.09,4.89Z"/><path class="cls-19" d="M328,350.32l1.37-.46c-1.62.65-7.77,3.8-14.23,15.86-7.33,13.68-15.06,38.87-17,85-.13,3.12-.24,6.34-.31,9.66,0,0-56.62,1-83.85-2.35l-2.12-.27-.14,0-.59-.09-.48-.07-1-.16-.59-.1H209l-.3-.06-.15,0-.26-.05-.5-.09h0l-.9-.18-.27-.05-.16,0h0l-.21,0-.21-.05c-.58-.13-1.13-.27-1.64-.41l-1.11-.33-.76-.27c-.69-.26-1.41-.53-2.15-.83h0l-.47-.18c-.36-.13-.72-.28-1.09-.43l-.57-.23-1.7-.72a56.88,56.88,0,0,1-5.27-2.59L190,450l-.44-.27-.14-.08-.43-.27-.91-.61c-.32-.21-.64-.43-1-.66a34.28,34.28,0,0,1-2.87-2.32c-.31-.28-.61-.56-.91-.86l-.51-.51c-.44-.45-.88-.93-1.29-1.42l-.17-.21a5.07,5.07,0,0,1-.37-.44l-.1-.12,0,0-.42-.54h0a27.75,27.75,0,0,1-2.46-3.9c-.24-.47-.47-.94-.7-1.43a29.24,29.24,0,0,1-1.15-3s0-.1-.05-.14h0c-.09-.27-.17-.55-.25-.82a2.68,2.68,0,0,1-.07-.27c0-.12-.07-.24-.1-.36a1.87,1.87,0,0,1-.07-.22,38.44,38.44,0,0,1-1.17-10.1c0-.25,0-.51,0-.76s0-.54,0-.81v-.1h0a54.65,54.65,0,0,1,.6-6.2c.13-.88.29-1.78.46-2.71l.12-.63s0,0,0-.08c.06-.29.12-.59.19-.89s.18-.86.28-1.29.2-.87.31-1.32l0-.11c.1-.41.21-.83.32-1.25.27-1,.58-2.13.91-3.24.16-.52.31-1,.49-1.57q.76-2.43,1.72-5l.35-1c.1-.26.19-.52.3-.78s.1-.29.16-.44.11-.28.17-.43.19-.47.28-.71l0-.08.24-.59c.18-.46.37-.93.57-1.39.37-.92.77-1.84,1.18-2.79l.05-.1c0-.06,0-.12.08-.19.18-.42.37-.83.56-1.27a.06.06,0,0,1,0,0h0c.69-1.55,1.43-3.15,2.22-4.78l.17-.35c.06-.13.12-.26.19-.39.35-.73.72-1.48,1.1-2.24l.68-1.34c.39-.76.79-1.54,1.2-2.32,33.21-62.75,140.13-141.18,140.13-141.18a.91.91,0,0,1,.53-.24c.75-.13,2.47.09,6,2.51a80.65,80.65,0,0,1,10.45,9,109.7,109.7,0,0,1,11.62,13.24A60.92,60.92,0,0,1,364,266.8a18,18,0,0,1,.75,1.71c-22.2,47.22-89.64,98.89-89.64,98.89,8.23.56,2.88,7.82,2.88,7.82a169.7,169.7,0,0,1,16.63-10.37c1-.55,2-1.08,3-1.6l.21-.11c1.09-.57,2.18-1.13,3.27-1.67,3.88-1.94,7.73-3.7,11.49-5.29l1.61-.67q2.4-1,4.74-1.9c2.73-1.06,5.39-2,8-2.91Z"/><path class="cls-20" d="M223.57,440,214,458l-2.12-.27-.14,0-.59-.09-.48-.07-1-.16-.59-.1H209l-.45-.08-.26-.05-.5-.09h0c-.41-.07-.8-.15-1.17-.23l-.16,0-.21,0-.21-.05c-.58-.13-1.13-.27-1.64-.41l-1.11-.33-.76-.27c-.69-.26-1.41-.53-2.15-.83h0l-.47-.18c-.36-.13-.72-.28-1.09-.43l-.57-.23-1.7-.72a56.88,56.88,0,0,1-5.27-2.59L190,450l-.44-.27-.14-.09c-.15-.08-.29-.17-.43-.26l-.91-.61c-.32-.21-.64-.43-1-.66a35.17,35.17,0,0,1-3.78-3.18l-.51-.51c-.44-.46-.87-.93-1.28-1.42l-.18-.21c-.13-.14-.25-.29-.37-.44l-.1-.12,0,0-.42-.54h0a27.75,27.75,0,0,1-2.46-3.9c-.24-.47-.47-.94-.7-1.43a29.24,29.24,0,0,1-1.15-3s0-.1-.05-.14,0,0,0,0c-.09-.27-.17-.55-.25-.82a2.68,2.68,0,0,1-.07-.27c0-.12-.07-.24-.1-.36a1.87,1.87,0,0,1-.07-.22,38.44,38.44,0,0,1-1.17-10.1c0-.52,0-1,0-1.57v-.1h0a54.65,54.65,0,0,1,.6-6.2c.13-.88.29-1.78.46-2.71l.12-.63s0,0,0-.08,0-.05,0-.08c.05-.27.11-.54.17-.81q.27-1.28.6-2.61l0-.11c.1-.41.21-.83.32-1.25.27-1,.58-2.13.91-3.24.16-.52.31-1,.49-1.57q.76-2.43,1.72-5l.35-1c.15-.4.3-.81.46-1.22.06-.14.11-.28.17-.43s.17-.44.27-.66a.38.38,0,0,1,0-.13l.24-.59c.18-.46.37-.93.57-1.39.37-.92.77-1.84,1.18-2.79a1,1,0,0,0,0-.1h0c0-.06,0-.12.08-.19.18-.42.37-.84.56-1.27,0,0,0,0,0,0,.69-1.55,1.43-3.15,2.22-4.78l.17-.35c.06-.13.12-.26.19-.39.35-.73.72-1.48,1.1-2.24l.68-1.34c.39-.76.79-1.54,1.2-2.32l16.08,9.3a3.72,3.72,0,0,1,1.37,5c-4.69,8.38-14.25,31.71,14.63,45.47A4.32,4.32,0,0,1,223.57,440Z"/><path class="cls-21" d="M220.28,440.43l-9.12,17.18-.48-.07-1-.16-.59-.1H209l-.3-.06-.15,0-.26-.05-.5-.09h0l-.9-.18-.27-.05-.16,0h0l-.21,0-.21-.05c-.58-.13-1.13-.27-1.64-.41l-1.11-.33-.76-.27c-.69-.26-1.41-.53-2.15-.83h0l-.47-.18c-.36-.13-.72-.28-1.09-.43l-.57-.23-1.7-.72a56.88,56.88,0,0,1-5.27-2.59L190,450l-.44-.27-.14-.08-.43-.27-.91-.61c-.32-.21-.64-.43-1-.66a33,33,0,0,1-3.78-3.18l-.51-.51c-.44-.45-.88-.93-1.29-1.42-.19-.21-.37-.43-.54-.65l-.1-.12,0,0-.42-.54h0a27.75,27.75,0,0,1-2.46-3.9c-.24-.47-.47-.94-.7-1.43a29.24,29.24,0,0,1-1.15-3s0-.1-.05-.14,0,0,0,0c-.09-.27-.17-.55-.25-.82a2.68,2.68,0,0,1-.07-.27c-.06-.19-.12-.39-.17-.58a38.44,38.44,0,0,1-1.17-10.1c0-.52,0-1,0-1.57v-.1h0a54.65,54.65,0,0,1,.6-6.2c.13-.88.29-1.78.46-2.71l.12-.63s0,0,0-.08c.06-.29.12-.59.19-.89.18-.85.37-1.72.59-2.61l0-.11c.1-.41.21-.83.32-1.25.27-1,.58-2.13.91-3.24.16-.52.31-1,.49-1.57q.76-2.43,1.72-5l.35-1c.1-.26.19-.52.3-.78s.11-.29.16-.44.11-.28.17-.43.21-.52.31-.79l.24-.59c.18-.46.37-.93.57-1.39.37-.92.77-1.84,1.18-2.79l.05-.1c0-.06,0-.12.08-.19.18-.42.37-.84.56-1.27,0,0,0,0,0,0h0c.69-1.55,1.43-3.15,2.22-4.78l.17-.35c.06-.13.12-.26.19-.39.35-.73.72-1.48,1.1-2.24l.68-1.34,13.31,7.7a4.17,4.17,0,0,1,1.58,5.61c-4.77,8.71-13.76,31.83,15.35,45.37A3.76,3.76,0,0,1,220.28,440.43Z"/><path class="cls-22" d="M377.18,245c-1.17,3.12-2.17,5.68-2.85,7.37-.57,1.42-.91,2.23-.91,2.23l-.43-.41-4.56-4.34-20.55-19.57,1.85-4s-.4-9.47,19.77-23.6c2.13-1.49,4.5-3,7.13-4.64C397.73,185.16,384.41,225.71,377.18,245Z"/><path class="cls-23" d="M493.86,320.53a56.38,56.38,0,0,1-2.64,13.34c-4.48,13.12-16,26.15-46.43,27.78-28.46,1.52-44.71-8.78-51.74-19.64-3.13-4.82-4.44-9.75-4.18-13.81.56-9.08,7.28-11.9,11.38-12.76a16.73,16.73,0,0,1,3.15-.39c2.4-2.53,8.35-4.45,16.13-5.71a177.8,177.8,0,0,1,33.07-1.74,146.13,146.13,0,0,1,25.61,2.88h0C487.83,312.64,494.26,316,493.86,320.53Z"/><path class="cls-24" d="M491.22,333.87c-4.48,13.11-16,26.15-46.43,27.78-13.39.71-24.08-1.19-32.37-4.54-9.34-3.76-15.65-9.35-19.37-15.1l.21-.1c8.12-3.77,7.79-18.57,7-26.47-.32-3-.69-5.05-.69-5.05l20-1.06,33.07-1.73,12.81-.67,12.27-.65c.16,1.48.34,2.87.53,4.2h0C481,329.4,487,333.5,491.22,333.87Z"/><path class="cls-25" d="M470.67,307.47s-19.21,43.23-58.25,49.64c-9.34-3.76-15.65-9.35-19.37-15.1l.21-.1c8.12-3.77,7.79-18.57,7-26.47-.32-3-.69-5.05-.69-5.05l20-1.06,33.07-1.73,12.81-.67Z"/><path class="cls-26" d="M643.55,547.55a81.17,81.17,0,0,1-1.85,8.21h0q-.84,2.93-1.9,5.71c-.61,1.62-1.3,3.19-2,4.72-.52,1.1-1.08,2.18-1.68,3.23a52.31,52.31,0,0,1-3.16,4.94c-.8,1.12-1.64,2.21-2.54,3.27a51.39,51.39,0,0,1-5.3,5.46,57.39,57.39,0,0,1-5.56,4.42,68.1,68.1,0,0,1-8.06,4.81A28.75,28.75,0,0,1,598,595.68a25.75,25.75,0,0,1-4.12-.36,27.28,27.28,0,0,1-5.44-1.48c-.73-.27-1.46-.58-2.17-.92-1-.47-2-1-3-1.59l-.33-.2a39.42,39.42,0,0,1-3.8-2.6c-.39-.3-.79-.61-1.17-.93h0c-1.1-.89-2.16-1.84-3.22-2.87a63.64,63.64,0,0,1-4.38-4.67l-.19-.23c-23.06-27.39-37.72-85.87-32.31-140.46l10.6-8.38,22-17.37-3.64-34.72L564,351.78s0,0,0,0a3.7,3.7,0,0,1,.29.24l.18.14.22.18c5.74,4.65,43.2,36.08,62.35,78.09a133.4,133.4,0,0,1,7.43,20.36c.81,3,1.51,6,2.08,9.1q.53,2.88,1,5.72c3.4,18.6,6.28,36.19,7.18,52.18A131.23,131.23,0,0,1,643.55,547.55Z"/><path class="cls-27" d="M570.17,579.82c-23.06-27.39-37.72-85.87-32.31-140.46l10.6-8.38,9.78,4.41s-7,98.13,9,127A25.47,25.47,0,0,1,570.17,579.82Z"/><path class="cls-28" d="M525.3,373.88H641.48a7.14,7.14,0,0,0,6.64-4.43l1.09-2.73a7,7,0,0,0-6.64-9.52H524.21a7,7,0,0,0-6.64,9.52l1.09,2.73A7.13,7.13,0,0,0,525.3,373.88Z"/><polygon class="cls-29" points="517.21 365.54 515.93 361.41 519.41 363.48 517.21 365.54"/><polygon class="cls-30" points="650.78 361.55 649.49 365.86 648.54 362.82 650.78 361.55"/><path class="cls-31" d="M523.74,348.87H643a7.32,7.32,0,0,1,6.82,4.43L651,356c1.88,4.58-1.66,9.52-6.82,9.52H522.62c-5.16,0-8.7-4.94-6.82-9.52l1.12-2.72A7.31,7.31,0,0,1,523.74,348.87Z"/><path class="cls-32" d="M641.7,555.76h0c-.55,2-1.19,3.86-1.89,5.72q-.93,2.41-2,4.72c-.53,1.09-1.09,2.17-1.69,3.22a51.05,51.05,0,0,1-3.16,4.94c-.8,1.12-1.64,2.22-2.54,3.28a54.32,54.32,0,0,1-5.29,5.46,57.78,57.78,0,0,1-5.57,4.41,70.22,70.22,0,0,1-8,4.82,27.55,27.55,0,0,1-23,1.51c-.73-.28-1.45-.59-2.17-.92-1-.48-2-1-3-1.6l-.32-.2h0a39.17,39.17,0,0,1-3.79-2.59c-.4-.31-.79-.61-1.18-.93q-1.63-1.33-3.23-2.88l3.16-1,1.5-.47.08,0,1.66-.52a2.33,2.33,0,0,0,.32-.1l1-.32,1.42-.46,1.8-.58.12,0,1.47-.49,1.49-.49,1.11-.38,2.11-.72,2.16-.76c1.1-.38,2.21-.78,3.33-1.19l.18-.07c1.07-.39,2.14-.78,3.22-1.19l2.3-.87,2.17-.85c1.22-.47,2.45-1,3.67-1.46l1.73-.71c3.35-1.39,6.69-2.86,10-4.4,1.16-.54,2.31-1.1,3.44-1.66s2.26-1.12,3.37-1.7l.16-.08c1-.55,2.09-1.1,3.1-1.67q2.12-1.17,4.11-2.36c.71-.43,1.4-.85,2.08-1.29l1-.63c.65-.41,1.29-.83,1.9-1.25S641.11,556.19,641.7,555.76Z"/><path class="cls-33" d="M639.81,561.49q-.93,2.41-2,4.72c-.53,1.09-1.09,2.17-1.69,3.22-18.36,13.18-40.31,19.16-53.13,21.7h0a39.17,39.17,0,0,1-3.79-2.59c-.4-.31-.79-.61-1.18-.93C592.72,583.16,621.2,573.63,639.81,561.49Z"/><path class="cls-34" d="M641.7,555.77q-.84,2.93-1.9,5.71c-18.61,12.15-47.09,21.67-61.83,26.12-1.1-.89-2.17-1.85-3.23-2.88l3.15-.94,1.51-.47.08,0,1.65-.52.32-.1,1-.32,1.43-.46c.59-.18,1.19-.38,1.8-.59a.28.28,0,0,0,.12,0l1.47-.48c.49-.16,1-.32,1.48-.5l1.11-.37c.7-.24,1.4-.47,2.12-.73s1.43-.49,2.16-.76c1.09-.37,2.2-.78,3.32-1.19a1.06,1.06,0,0,0,.19-.06c1.06-.39,2.14-.78,3.22-1.2l2.3-.87c.72-.27,1.45-.55,2.17-.84,1.22-.47,2.44-1,3.67-1.47l1.73-.71c3.34-1.39,6.69-2.85,10-4.4,1.16-.54,2.31-1.09,3.44-1.65s2.25-1.13,3.36-1.7l.17-.08c1-.55,2.09-1.11,3.1-1.67q2.12-1.17,4.11-2.36c.71-.43,1.4-.86,2.08-1.29.33-.2.66-.41,1-.63.65-.41,1.28-.83,1.9-1.26S641.1,556.2,641.7,555.77Z"/><path class="cls-35" d="M630.38,577.65a54.32,54.32,0,0,1-5.29,5.46,57.78,57.78,0,0,1-5.57,4.41,131.37,131.37,0,0,1-25.6,7.8,27.84,27.84,0,0,1-5.45-1.47c-.73-.28-1.45-.59-2.17-.92C597.53,590.58,615.75,585.85,630.38,577.65Z"/><path class="cls-36" d="M634.47,450.82l-20.74,10.25c-3.47-9.44-6.59-20.18-6.59-20.18L627,430.46c.61,1.33,1.19,2.66,1.75,4l-15.61,7.93s1.59,5.05,4.42,12.73l15.9-7.67C633.84,448.57,634.16,449.69,634.47,450.82Z"/><path class="cls-37" d="M644.77,517.83a27,27,0,0,1-8-1.33,87.63,87.63,0,0,0-8.84-23.88c-2.46-4.6-4.68-9.09-6.63-13.34a26.63,26.63,0,0,1,16.31-13.64C641,484.25,643.87,501.83,644.77,517.83Z"/><path class="cls-38" d="M530.05,426s-1.65,10.08,7.81,13.37,33.51,5.14,45.85,1.85,18.09,6.78,23.44,5.14,14.8-17.48,11.1-23l-34.75,6.58-20.35-.82S535,416.34,530.05,426Z"/><circle class="cls-39" cx="394.44" cy="363.66" r="4.89"/><path class="cls-40" d="M395.65,461.2l-2.42-.49c0-.25,5.06-26-4.81-49.86-10.29-24.81,4.86-46.49,5-46.7l2,1.43c-.14.2-14.5,20.81-4.75,44.33C400.86,434.44,395.7,460.94,395.65,461.2Z"/><path class="cls-41" d="M393,456.85l2.48.44a4.09,4.09,0,0,1,3.33,4.53l-1.47,11.52a4.08,4.08,0,0,1-4.87,3.48l-4.66-1a4.07,4.07,0,0,1-3-5.28l3.64-11A4.08,4.08,0,0,1,393,456.85Z"/><path class="cls-42" d="M497.59,455.77l2.24.4a4.2,4.2,0,0,1,3.43,4.68l-1.43,11.26a4.2,4.2,0,0,1-5,3.59l-4.38-.9a4.22,4.22,0,0,1-3.15-5.45l3.57-10.76A4.22,4.22,0,0,1,497.59,455.77Z"/><path class="cls-43" d="M216.25,439.2l-9.85,17.57h0l-.21,0-.21-.05c-.58-.13-1.13-.27-1.64-.41a10.14,10.14,0,0,1,1.42,0l9.37-16.71c-1.42-.76-2.77-1.56-4-2.38-2.55,5.19-8.07,13.63-10.79,17.69h0l-.47-.19c-.36-.13-.72-.28-1.09-.43,2.66-4,8.53-12.93,11-18l-.06,0a41.86,41.86,0,0,1-4.51-3.7c-2.58,6.86-11.31,14.07-15.56,17.27l-.14-.08h0c-.15-.08-.29-.17-.43-.26l-.91-.61c4-3,13.73-10.81,15.76-17.57l-.17-.18a33.51,33.51,0,0,1-2.31-2.68c-4.19,7.23-14,12.21-19.8,14.66h0l-.17-.21c-.13-.14-.25-.29-.37-.44l-.1-.12,0,0-.43-.54h0c5.73-2.38,16.07-7.51,19.83-14.78l-.12-.16-.08-.12c-.59-.86-1.15-1.78-1.67-2.73-2.66,3.18-7,5.74-12.89,7.51a57.73,57.73,0,0,1-9.39,2h0a.74.74,0,0,1,0-.14s0,0,0,0c-.09-.27-.17-.55-.25-.82a2.68,2.68,0,0,1-.07-.27c0-.12-.07-.24-.1-.36,5-.62,17-2.79,21.94-9.48l-.09-.19a32.55,32.55,0,0,1-1.61-4.2c-3.47,2.51-8.29,3.87-14.21,4H181a49.51,49.51,0,0,1-6.49-.44h0c0-.51,0-1,0-1.57v-.1h0c4.95.68,14.87,1.26,21-3.56,0-.06,0-.12,0-.17a34.48,34.48,0,0,1-.78-4.45,23,23,0,0,1-7.17,1,45.51,45.51,0,0,1-11.91-1.75h0c0-.21.08-.42.13-.63l0-.16c.05-.27.11-.54.17-.81h0c3.19.93,12.31,2.95,18.6.63,0,0,0-.07,0-.11a42.09,42.09,0,0,1,0-4.5c-4.6,0-12-1.89-16.71-3.23.16-.52.31-1,.49-1.57,5.17,1.47,12.3,3.19,16.34,3.16,0,0,0,0,0-.05a43.36,43.36,0,0,1,.75-5.14v-.05l-14.73-4.67c0-.15.11-.29.16-.44s.11-.28.17-.43.17-.44.27-.66l14.5,4.59c.3-1.26.63-2.49,1-3.65v0l-13.44-5.9h0l.09-.19c.19-.43.38-.86.57-1.31h0l13.3,5.84a39.68,39.68,0,0,1,1.64-4l-12.72-6.63.17-.35c.06-.13.12-.26.19-.39l13.45,7-.19.36a35.89,35.89,0,0,0-1.77,4.28c-.18.48-.34,1-.51,1.55-.38,1.15-.72,2.37-1,3.62-.13.52-.24,1.06-.36,1.6a46,46,0,0,0-.73,5.06c0,.53-.09,1.08-.12,1.63a38.46,38.46,0,0,0,0,4.43q0,.84.15,1.68a32,32,0,0,0,.77,4.43c.13.56.28,1.13.45,1.69a34.22,34.22,0,0,0,1.61,4.21c.25.55.52,1.08.81,1.62a30,30,0,0,0,1.77,2.91l.07.1c.32.46.65.92,1,1.38a32.85,32.85,0,0,0,2.35,2.74c.4.44.84.87,1.29,1.29a40.54,40.54,0,0,0,4.55,3.74c.43.31.89.62,1.36.93a49.08,49.08,0,0,0,4.36,2.57Z"/><path class="cls-44" d="M408.74,387.42a84.34,84.34,0,0,0,8.82,2.68c3,.76,6,1.39,9,1.9a96.69,96.69,0,0,0,18.2,1.33,80.23,80.23,0,0,0,18-2.46,73,73,0,0,0,8.71-2.81,83.92,83.92,0,0,0,8.39-3.79,60.47,60.47,0,0,1-16.67,8.1L461,393l-2.28.55c-.75.19-1.52.34-2.28.48s-1.53.31-2.31.42a76.31,76.31,0,0,1-9.31.84,79.57,79.57,0,0,1-18.54-1.81A71.75,71.75,0,0,1,408.74,387.42Z"/><path class="cls-45" d="M361.87,341.71c.06,1.82,0,3.57-.08,5.32a42.28,42.28,0,0,0,.08,5.27,7.49,7.49,0,0,1-.9-2.58,13.82,13.82,0,0,1-.18-2.72,17.17,17.17,0,0,1,.3-2.69A12.55,12.55,0,0,1,361.87,341.71Z"/><path class="cls-46" d="M373.18,332.25c.61,3.44,1.1,6.85,1.74,10.24.3,1.69.68,3.37,1.11,5a17.35,17.35,0,0,0,1.87,4.78,12.05,12.05,0,0,1-2.62-4.55,33,33,0,0,1-1.34-5.08A45.54,45.54,0,0,1,373.18,332.25Z"/><path class="cls-47" d="M510.58,328.2a27.45,27.45,0,0,1,.69,8.08,19.34,19.34,0,0,1-.66,4.05,6.51,6.51,0,0,1-2.08,3.5,8.64,8.64,0,0,0,1.32-3.68c.21-1.3.35-2.61.43-3.93C510.44,333.57,510.45,330.91,510.58,328.2Z"/><path class="cls-48" d="M525.11,338.62a6.25,6.25,0,0,1,.12,1.87,9.74,9.74,0,0,1-.33,1.84,6.34,6.34,0,0,1-.78,1.72,3.17,3.17,0,0,1-1.4,1.29,9.1,9.1,0,0,0,.7-1.63c.19-.55.36-1.1.52-1.67A29.46,29.46,0,0,1,525.11,338.62Z"/><path class="cls-49" d="M275.1,367.41c-1.49.67-3,1.2-4.38,1.81-.72.29-1.42.62-2.13.95s-1.38.7-2.12,1.08a8.72,8.72,0,0,1,3.86-2.95,12.13,12.13,0,0,1,2.34-.71A8.62,8.62,0,0,1,275.1,367.41Z"/><path class="cls-50" d="M278,375.22a.53.53,0,0,1,.09.52,1.71,1.71,0,0,1-.21.5,4,4,0,0,1-.67.79,7.91,7.91,0,0,1-1.64,1.14,10.08,10.08,0,0,1-3.74,1.16,12.52,12.52,0,0,1,1.61-1.11c.55-.33,1.11-.63,1.66-.93s1.1-.59,1.65-.88a8.25,8.25,0,0,0,.76-.49C277.71,375.74,278,375.55,278,375.22Z"/><path class="cls-51" d="M519.36,228.69c-8.78,4.29-14.05,12.59-15.94,16-.53,1-.79,1.54-.79,1.54l-6,.82L493,269.81l-7.13,1.65-4.11-4.11-2.19-44.69-12.61,0-41.61.14-31.31.1,2.19,44.41-12.61,4.11-5.21-8.58-5-8.29-.34-.56-3.39-5.58-.56-.93V208a39.73,39.73,0,0,1,.37-5.38A39,39,0,0,1,408.64,169l5.53.07c19.55.23,40.17.13,49.81-1a27.4,27.4,0,0,0,13.55-5.53c9.84-7.32,14.87-18.38,30.31-12.56,21.11,7.95,1.65,39.47,1.65,39.47C532.79,193.33,530.59,223.21,519.36,228.69Z"/><path class="cls-52" d="M507.84,258.3c0,22.48-15.35,15.35-15.35,15.35v16.52a24.86,24.86,0,0,1-11.53,21,22.2,22.2,0,0,1-2.43,1.36,24.69,24.69,0,0,1-10.92,2.53H406.34a23.19,23.19,0,0,1-2.78-.16,24.26,24.26,0,0,1-3.44-.62,24.93,24.93,0,0,1-18.65-24.1v-14.6c-7.94,1-13-2.95-14.83-9.88a27.5,27.5,0,0,1-.8-8.21,12.86,12.86,0,0,1,2.59-7.64,4.85,4.85,0,0,1,.51-.61,9.27,9.27,0,0,1,.75-.78,15.07,15.07,0,0,1,6.66-3.42,2.12,2.12,0,0,1,.83,0,2.27,2.27,0,0,1,1.88,1.65L383.5,263a5.92,5.92,0,0,0,5.71,4.37h2.4V226.1a6.45,6.45,0,0,1,6.45-6.45h76.58a9.63,9.63,0,0,1,9.63,9.62v38.62h1.51a5.07,5.07,0,0,0,5-4.17l2.49-13.85a7,7,0,0,1,4.84-5.5,6.65,6.65,0,0,1,5.32.33C505.88,246.11,507.84,249.87,507.84,258.3Z"/><path class="cls-53" d="M516.36,361.63,262.88,235.89l669.33-3.77L651.23,360c-.77,3.21-3.67,6.22-7,6.2l-123.32-.93A4.75,4.75,0,0,1,516.36,361.63Z"/><path class="cls-14" d="M643.55,547.55a81.17,81.17,0,0,1-1.85,8.21h0q-.84,2.93-1.9,5.71c-.61,1.62-1.3,3.19-2,4.72-.52,1.1-1.08,2.18-1.68,3.23a52.31,52.31,0,0,1-3.16,4.94c-.8,1.12-1.64,2.21-2.54,3.27a51.39,51.39,0,0,1-5.3,5.46,57.39,57.39,0,0,1-5.56,4.42,68.1,68.1,0,0,1-8.06,4.81A28.75,28.75,0,0,1,598,595.68a44.53,44.53,0,0,1,2.47-4.2c32.36-49.31-.15-99.43-6.35-163.59-2-20.39-9.91-34.12-21-44a72.1,72.1,0,0,0-6.31-5C542.83,362,508.49,358,485,345.34c-11.68-6.27-16.86-17.33-18.7-30.29-.37-2.64-.61-5.36-.73-8.13-.11-2.48-.13-5-.08-7.56.5-25.71,8.17-54.08,3.43-67.25A27,27,0,0,1,467,222.7a13.92,13.92,0,0,1,.37-3c2.45-10.59,16.71-13.18,23.85-33.44,4.57-13-3.9-19.93-13.69-23.63,9.84-7.32,14.87-18.38,30.31-12.56,21.11,7.95,1.65,39.47,1.65,39.47,23.3,3.84,21.1,33.72,9.87,39.2-8.78,4.29-14.05,12.59-15.94,16,2.46,1.41,4.42,5.17,4.42,13.6,0,22.48-15.35,15.35-15.35,15.35v16.52a24.73,24.73,0,0,1-1.75,9.17,23.32,23.32,0,0,1,13.07,8.75h0c6.53,8.69,6.77,20.1,6.77,20.1,16.18-.54,14.53,10.42,14.53,10.42a140.76,140.76,0,0,1,20.4,4.46h0a79.09,79.09,0,0,1,8.36,3,54.7,54.7,0,0,1,5.66,2.77,35.85,35.85,0,0,1,4.41,2.91l0,0a3.7,3.7,0,0,1,.29.24l.18.14.22.18c5.74,4.65,43.2,36.08,62.35,78.09a133.4,133.4,0,0,1,7.43,20.36c.81,3,1.51,6,2.08,9.1q.53,2.88,1,5.72c3.4,18.6,6.28,36.19,7.18,52.18A131.23,131.23,0,0,1,643.55,547.55Z"/><path class="cls-54" d="M666.84,381a4.19,4.19,0,0,0-1.38,3.29c.14,4.91,7,11.06,0,14.81-8.63,4.66-11.86,5.61-20.39,6.17s-15,8.63-21.62,8.36c-2.75-.12-9,1.52-15.44,3.49-9.13,2.79-18.56,6.24-18.56,6.24l-35.15-8.43-6.58-20.37s13.49-7.33,19.95-4.51,26.92-12.34,36.79-7.4,31.67-1.83,38.66,5.45c0,0,12.74-24.78,22.61-23.13a11,11,0,0,1,2.55.71c4.22,1.74,4.43,5.63,2.77,9.4A18.84,18.84,0,0,1,666.84,381Z"/><path class="cls-55" d="M666.84,381a4.19,4.19,0,0,0-1.38,3.29c.14,4.91,7,11.06,0,14.81-8.63,4.66-11.86,5.61-20.39,6.17s-15,8.63-21.62,8.36c-2.75-.12-9,1.52-15.44,3.49,4.71-12.78,27.63-12,47.91-28.62,13.08-10.72,14-18.31,12.36-22.82,4.22,1.74,4.43,5.63,2.77,9.4A18.84,18.84,0,0,1,666.84,381Z"/><path class="cls-56" d="M544,428.4c-23.44-.86-21.66-15.49-30.57-22.07-5.7-4.21-14.39-16.79-19.93-26.81a76.57,76.57,0,0,1-4.3-8.84,12.41,12.41,0,0,1-1-3.69,6.51,6.51,0,0,1,3.63-5.6c4.1-2.11,11.11-.34,17.89,14.1,10.56,22.48,25.63,22.89,25.63,22.89l1.56,5.41Z"/><path class="cls-55" d="M537,403.79c-10.27,3.84-25.06-18-35.09-26.69a30.84,30.84,0,0,1-10-15.71c4.1-2.11,11.11-.34,17.89,14.1,10.56,22.48,25.63,22.89,25.63,22.89Z"/><path class="cls-57" d="M624.21,415.52c-.68,7.74-12.47,20.14-19.74,21-5.55.63-10.09-2.83-13.75-4.13a6,6,0,0,0-3.14-.4c-2.57.52-4.94,3-7.7,4.65l-5.37,1.52c-5.4-.41-34.59-3.43-39.53-18.91s-3.29-57.71.82-66.21,7.68-10.28,11.93-10c10.7.69,8.77,14.8,6.58,21.24s-1.73,39.89,1.67,43.59a21.86,21.86,0,0,0,6.55,5.07s1.39-54,5.15-66.75C571,334.79,574,332.8,578,332.79c.48,0,1,0,1.5.07,4.79.41,10.41.69,10.28,26.32s1.38,55.92,1.1,60.17v-.07c.14-.64,1.32-5.89,4.92-9.11,3.84-3.43,3.7-44.68,9.18-53.32,2.82-4.45,7.83-7.69,12.36-7.37,4.27.3,8.1,3.75,9.3,12.32C629.15,379.47,624.89,407.77,624.21,415.52Z"/><path class="cls-58" d="M671.07,375.06a19.15,19.15,0,0,1-4.23,5.92,4.12,4.12,0,0,0-1.37,3.29,8.55,8.55,0,0,1-2.92-1.14c-3-1.95-2.36-10.47,1.76-8.63A11.44,11.44,0,0,0,671.07,375.06Z"/><path class="cls-58" d="M609.1,357.75s3.19-4.22,11.21,0c0,0,.41,14.39-4.32,15.11S607.35,371.62,609.1,357.75Z"/><path class="cls-58" d="M498.45,379.4a3.85,3.85,0,0,1-4.92.12,77.44,77.44,0,0,1-4.3-8.84l4.65-2.45S503.39,375.84,498.45,379.4Z"/><path class="cls-58" d="M571.92,341.23s6.44-4.11,12.34,0c0,0,3.42,15.21-3.5,16.86S571.1,352.88,571.92,341.23Z"/><path class="cls-58" d="M543.14,351.77s2.74,2.34,9,1.66c0,0-.28,11.79-5.9,11.79S539.44,356.83,543.14,351.77Z"/><circle class="cls-59" cx="414.5" cy="251.76" r="5.76"/><circle class="cls-3" cx="417.21" cy="249.85" r="1.9"/><circle class="cls-59" cx="455.98" cy="251.76" r="5.76"/><circle class="cls-3" cx="457.88" cy="249.85" r="1.9"/><path class="cls-60" d="M397.09,239.66l4.39,6.34s7.68-12.64,22.75-9.9l-1.92-9.87S403.67,226.23,397.09,239.66Z"/><path class="cls-61" d="M475.3,239.66,470.92,246s-7.68-12.64-22.76-9.9l1.92-9.87S468.72,226.23,475.3,239.66Z"/><path class="cls-3" d="M384.28,281.47s4.21-8.78,19.11-10.6a4.7,4.7,0,0,1,5,3.28h0a4.68,4.68,0,0,1-3,5.8c-5.18,1.78-13.62,5.13-17.07,9.12Z"/><path class="cls-3" d="M463.57,273.06h0a5.11,5.11,0,0,0,4.75,5.73c4.58.3,11.05,1.61,15.31,6.25l4.11-11.11a40,40,0,0,0-18.87-5.39A5.15,5.15,0,0,0,463.57,273.06Z"/><path class="cls-59" d="M456,281.47s-.17,7.18-5.05,12.33c-2.73,2.89-6.94,5.14-13.42,5.14-7,0-11.4-2.46-14.1-5.47A18.55,18.55,0,0,1,419,282.7Z"/><path class="cls-62" d="M376.39,250.44l3.27,19.68s-7-2-8.13-8.77S376.39,250.44,376.39,250.44Z"/><path class="cls-63" d="M498.37,249.65l-3.12,19.7s7-2,8.06-8.82S498.37,249.65,498.37,249.65Z"/><path class="cls-64" d="M450.92,293.8c-2.73,2.89-6.94,5.14-13.42,5.14-7,0-11.4-2.46-14.1-5.47a27.14,27.14,0,0,1,13.49-3.27A26.69,26.69,0,0,1,450.92,293.8Z"/><path class="cls-65" d="M637.78,536.82a53.45,53.45,0,0,0,0-12.06,75.57,75.57,0,0,0-2.23-11.84,91.68,91.68,0,0,0-3.89-11.4c-1.56-3.71-3.39-7.27-5.29-10.85a234.6,234.6,0,0,1-10.07-22.07,188.33,188.33,0,0,1-7.57-23c1.17,3.86,2.47,7.69,3.87,11.47s2.85,7.55,4.41,11.27c3.09,7.44,6.48,14.77,10.25,21.89,1.86,3.57,3.7,7.22,5.24,11a81.36,81.36,0,0,1,3.79,11.56C638.16,520.59,639.09,528.82,637.78,536.82Z"/><path class="cls-55" d="M624.21,415.52c-.68,7.74-12.47,20.14-19.74,21-5.55.63-10.09-2.83-13.75-4.13.6-3.45,2.21-5.71,5.84-4,9.47,4.56,15.79-12.14,22.53-28.24,5.39-12.89.47-40.26-1.71-50.68,4.27.3,8.1,3.75,9.3,12.32C629.15,379.47,624.89,407.77,624.21,415.52Z"/><path class="cls-55" d="M590.91,419.35s-6.23,11.43-11,17.26l-5.37,1.52c-1.21-9.08,1.21-15.24,8.88-24.4s-2.3-48,0-60.63c1.5-8.24-2.44-16-5.36-20.31.48,0,1,0,1.5.07,4.79.41,10.41.69,10.28,26.32S591.19,415.1,590.91,419.35Z"/><path class="cls-14" d="M330.06,349.62l-.27.09-.2.07-.14.05-.08,0-1.37.46-1.12.38c-2.58.89-5.24,1.85-8,2.91q-2.34.9-4.74,1.9l-1.61.67c-3.76,1.59-7.61,3.35-11.49,5.29-1.09.54-2.18,1.1-3.27,1.67l-.21.11c-1,.52-2,1.05-3,1.6A169.7,169.7,0,0,0,278,375.22s5.35-7.26-2.88-7.82c0,0,67.44-51.67,89.64-98.89a18,18,0,0,0-.75-1.71,60.92,60.92,0,0,0-5.72-9.24c-5.7,15.23-20.88,50.92-43.39,67.5-29.06,21.41-69.1,46.21-50,55.29,10.33,4.91,32.31-4.74,50.28-14.63,15.2-8.35,27.53-16.86,27.53-16.86l6.3-4.59Z"/><path class="cls-66" d="M307.3,466.84c-2.5,7.59-6.57,15-10.47,22.57.35-11.82.69-20.85.88-25.52.07-1.84.12-3,.14-3.4a.76.76,0,0,0,0-.15s-56.62,1-83.85-2.35l-2.12-.27-.14,0-.59-.09-.48-.07-1-.16-.59-.1H209l-.3-.06-.15,0-.26-.05-.5-.09h0l-.9-.18-.27-.05-.16,0h0l-.21,0-.21-.05c-.58-.13-1.13-.27-1.64-.41l-1.11-.33-.76-.27c-.69-.26-1.41-.53-2.15-.83h0l-.47-.18c-.36-.13-.72-.28-1.09-.43l-.57-.23-1.7-.72a56.88,56.88,0,0,1-5.27-2.59L190,450l-.44-.27-.14-.08-.43-.27-.91-.61c-.32-.21-.64-.43-1-.66a34.28,34.28,0,0,1-2.87-2.32c-.31-.28-.61-.56-.91-.86l-.51-.51c-.44-.45-.88-.93-1.29-1.42l-.17-.21a5.07,5.07,0,0,1-.37-.44l-.1-.12,0,0-.42-.54h0a27.75,27.75,0,0,1-2.46-3.9c-.24-.47-.47-.94-.7-1.43a29.24,29.24,0,0,1-1.15-3s0-.1-.05-.14h0c-.09-.27-.17-.55-.25-.82a2.68,2.68,0,0,1-.07-.27c0-.12-.07-.24-.1-.36a1.87,1.87,0,0,1-.07-.22,38.44,38.44,0,0,1-1.17-10.1c0-.25,0-.51,0-.76s0-.54,0-.81v-.1h0a54.65,54.65,0,0,1,.6-6.2c.13-.88.29-1.78.46-2.71l.12-.63s0,0,0-.08c.06-.29.12-.59.19-.89s.18-.86.28-1.29.2-.87.31-1.32l0-.11c.1-.41.21-.83.32-1.25.27-1,.58-2.13.91-3.24.16-.52.31-1,.49-1.57q.76-2.43,1.72-5l.35-1c.1-.26.19-.52.3-.78s.1-.29.16-.44.11-.28.17-.43.19-.47.28-.71l0-.08.24-.59c.18-.46.37-.93.57-1.39.37-.92.77-1.84,1.18-2.79l.05-.1c0-.06,0-.12.08-.19.18-.42.37-.83.56-1.27a.06.06,0,0,1,0,0h0c.69-1.55,1.43-3.15,2.22-4.78l.17-.35c.06-.13.12-.26.19-.39.35-.73.72-1.48,1.1-2.24l.68-1.34c.39-.76.79-1.54,1.2-2.32,33.21-62.75,140.13-141.18,140.13-141.18a.91.91,0,0,1,.53-.24c-23.95,20.1-117.7,100.36-130.91,136.47-15.17,41.47-22.71,81.37,41.08,80.74,29.86-.29,47.82-.84,57.82.63C309.55,452.35,310.66,456.63,307.3,466.84Z"/><path class="cls-27" d="M425.39,222.84c-.1-1.07-.22-2.14-.34-3.19a271.75,271.75,0,0,0-10.88-50.55l-5.53-.07a39,39,0,0,0-39.14,33.6c-20.17,14.13-19.77,23.6-19.77,23.6-9.37-.86-12.52,5.63-13.53,9.12-5.39-3.68-6.55-2.27-6.55-2.27S222.73,311.51,189.52,374.26c-.41.78-.81,1.56-1.2,2.32l-.68,1.34c-.38.76-.75,1.51-1.1,2.24-.07.13-.13.26-.19.39l-.17.35c-.79,1.63-1.53,3.23-2.22,4.78h0a.06.06,0,0,0,0,0c-.19.44-.38.85-.56,1.27l-.09.19a1,1,0,0,1,0,.1c-.41,1-.81,1.87-1.18,2.79-.2.46-.39.93-.57,1.39l-.24.59,0,.08c-.09.24-.19.48-.28.71s-.11.29-.17.43-.11.3-.16.44-.2.52-.3.78l-.35,1q-1,2.58-1.72,5c-.18.52-.33,1.05-.49,1.57-.33,1.11-.64,2.19-.91,3.24-.11.42-.22.84-.32,1.25l0,.11c-.11.45-.21.89-.31,1.32s-.2.87-.29,1.29c-.06.27-.12.54-.17.81,0,0,0,.05,0,.08s0,.05,0,.08c0,.21-.09.42-.13.63h0c-.17.93-.33,1.83-.46,2.71a54.65,54.65,0,0,0-.6,6.2h0v.1q0,.4,0,.81c0,.25,0,.51,0,.76h0a38.44,38.44,0,0,0,1.17,10.1,1.87,1.87,0,0,0,.07.22c0,.12.06.24.1.36a2.68,2.68,0,0,0,.07.27c.08.27.16.55.25.82h0a.74.74,0,0,0,0,.14h0a29.24,29.24,0,0,0,1.15,3c.23.49.46,1,.7,1.43a27.75,27.75,0,0,0,2.46,3.9h0l.43.54,0,0,.1.12a5.07,5.07,0,0,0,.37.44l.17.21c.41.49.85,1,1.29,1.42l.51.51c.3.3.6.58.91.86a34.28,34.28,0,0,0,2.87,2.32c.31.23.63.45,1,.66l.91.61.43.27.14.08.44.27,1.16.68a56.88,56.88,0,0,0,5.27,2.59l1.7.72.57.23c.37.15.73.3,1.09.43l.47.19h0c.74.3,1.46.57,2.15.83l.76.27,1.11.33c.51.14,1.06.28,1.64.41l.21.05.21,0,.16,0c.37.08.76.16,1.17.23h0l.5.09.26.05.45.08h.09l.59.1,1,.16.48.07.59.09.14,0L214,458c27.23,3.32,83.85,2.35,83.85,2.35a.76.76,0,0,1,0,.15c0,.4-.07,1.56-.14,3.4-.9,22.63-5.4,147.35,2.06,197.11,0,0-8.63,8.23-4.52,25.09.89,3.65,12.88,7.39,31.5,10.65-3.18-8.07-6.41-17.91-7-29.75q-.17-3.21,0-6.61c.48-12.14,3.92-26.18,12.77-42.33,37.19-67.86-45-211.48,42.83-270.09l.67-.45a111,111,0,0,0,14.22-11,103.32,103.32,0,0,0,10.32-10.91h0a102.33,102.33,0,0,0,7.53-10.51c.75-1.18,1.47-2.38,2.16-3.59h0c.32-.56.64-1.12.94-1.68.95-1.73,1.84-3.46,2.69-5.22a116.8,116.8,0,0,0,6.35-16.35c.56-1.85,1.09-3.72,1.57-5.59C427,262.59,427.26,241.74,425.39,222.84ZM373.17,332.25s-10.48,1.64-11.3,9.45a204,204,0,0,0-32.08,8l-.2.07-.14.05-.08,0-1.37.46-1.12.38c-2.58.89-5.24,1.85-8,2.91q-2.34.9-4.74,1.9l-1.61.67c-3.76,1.59-7.61,3.35-11.49,5.29-1.09.54-2.18,1.1-3.27,1.67l-.21.11c-1,.52-2,1.05-3,1.6A169.7,169.7,0,0,0,278,375.22s5.35-7.26-2.88-7.82c0,0,67.44-51.67,89.64-98.89a18,18,0,0,0-.75-1.71,11.1,11.1,0,0,0,2.65-1.11c1.87,6.93,6.89,10.9,14.83,9.88v14.6a24.71,24.71,0,0,0,6.09,16.3C383.64,309.52,372.15,319.61,373.17,332.25Z"/><path class="cls-67" d="M589.54,325.88c2.85.35,2.05-11.17,0-11.17S587.34,325.6,589.54,325.88Z"/><path class="cls-67" d="M626.27,313c2.24.88,4-8.65,2.29-9.07S624.54,312.28,626.27,313Z"/><path class="cls-67" d="M611.36,339.05c2.26.28,1.63-8.83,0-8.83S609.63,338.83,611.36,339.05Z"/><path class="cls-67" d="M559.09,340.67c2.26.28,1.63-8.84,0-8.84S557.36,340.45,559.09,340.67Z"/><path class="cls-67" d="M525.61,330.56c4.12-1.54-1.92-11.48-4.77-10.14S522.45,331.75,525.61,330.56Z"/><path class="cls-67" d="M633.33,333.17c4,3.55,11.82-9.56,8.71-11.84S630.23,330.44,633.33,333.17Z"/><g class="cls-68"><path class="cls-3" d="M539.23,333.21a.43.43,0,0,1-.38-.25l-4.11-9.52a.41.41,0,0,1,.22-.54.4.4,0,0,1,.54.21l4.11,9.52a.41.41,0,0,1-.22.54A.29.29,0,0,1,539.23,333.21Z"/></g><g class="cls-68"><path class="cls-3" d="M548.28,333.21a.42.42,0,0,1-.4-.32L546.16,326a.4.4,0,0,1,.3-.49.41.41,0,0,1,.5.3l1.72,6.91a.4.4,0,0,1-.3.49Z"/></g><g class="cls-68"><path class="cls-3" d="M569.93,333.21a.41.41,0,0,1-.4-.34l-2.25-12.5a.42.42,0,0,1,.33-.48.41.41,0,0,1,.48.33l2.25,12.5a.41.41,0,0,1-.33.48Z"/></g><g class="cls-68"><path class="cls-3" d="M557.83,312.72a.41.41,0,0,1-.4-.34l-2.26-12.5a.42.42,0,0,1,.33-.48.41.41,0,0,1,.48.33l2.26,12.5a.41.41,0,0,1-.34.48Z"/></g><g class="cls-68"><path class="cls-3" d="M599.27,335.05h0a.41.41,0,0,1-.37-.45l.82-8.75a.41.41,0,0,1,.45-.37.41.41,0,0,1,.37.44l-.82,8.76A.41.41,0,0,1,599.27,335.05Z"/></g><g class="cls-68"><path class="cls-3" d="M622,335.08h-.06a.41.41,0,0,1-.34-.48l1.51-9.19a.42.42,0,0,1,.47-.34.41.41,0,0,1,.34.48l-1.51,9.19A.42.42,0,0,1,622,335.08Z"/></g><g class="cls-68"><path class="cls-3" d="M637.71,344.86a.39.39,0,0,1-.21-.06.41.41,0,0,1-.13-.57l7.36-11.65a.41.41,0,0,1,.7.43l-7.37,11.66A.42.42,0,0,1,637.71,344.86Z"/></g><g class="cls-68"><path class="cls-3" d="M610.64,318.37h-.06a.4.4,0,0,1-.34-.47l.82-5.65a.41.41,0,0,1,.47-.35.4.4,0,0,1,.34.47l-.82,5.65A.41.41,0,0,1,610.64,318.37Z"/></g><g class="cls-68"><path class="cls-3" d="M515.29,344.86a.4.4,0,0,1-.37-.23L512,338.81a.42.42,0,0,1,.18-.56.41.41,0,0,1,.55.19l2.93,5.83a.41.41,0,0,1-.19.55A.39.39,0,0,1,515.29,344.86Z"/></g><g class="cls-68"><path class="cls-3" d="M517.82,335.08a.39.39,0,0,1-.37-.23l-2.53-5.17a.41.41,0,0,1,.74-.36l2.52,5.17a.41.41,0,0,1-.18.55A.39.39,0,0,1,517.82,335.08Z"/></g><g class="cls-68"><path class="cls-3" d="M574.79,310.75a.42.42,0,0,1-.41-.37l-.56-5.73a.41.41,0,0,1,.37-.45.41.41,0,0,1,.45.37l.56,5.73a.4.4,0,0,1-.37.45Z"/></g><rect class="cls-69" x="174.58" y="235.89" width="180.56" height="127.84" rx="13.81" ry="13.81"/><rect class="cls-70" x="703.6" y="393.38" width="112.36" height="79.55" rx="8.6" ry="8.6"/><rect class="cls-70" x="659.91" y="492.17" width="63.62" height="45.04" rx="8.6" ry="8.6"/><rect class="cls-71" x="332.53" y="85.6" width="90.74" height="64.24" rx="6.94" ry="6.94"/><rect class="cls-70" x="229.35" y="162.63" width="45.96" height="32.54" rx="3.52" ry="3.52"/><path class="cls-72" d="M707.81,615.16c-29.2-26.51-51.52-26.28-65.54-1.52C628.51,638,663.18,667.46,705,668.48c84.11,2.06,75.29-29.74,66.43-39.33C750.17,606.2,730.15,635.43,707.81,615.16Z"/><path class="cls-73" d="M932.21,26.07V279.45a26.07,26.07,0,0,1-26.07,26.07H526.74a26.07,26.07,0,0,1-26.07-26.07V26.07c0-.66,0-1.31.07-2A26.07,26.07,0,0,1,526.74,0h379.4a26.07,26.07,0,0,1,26,24.11C932.18,24.76,932.21,25.41,932.21,26.07Z"/><path class="cls-74" d="M932.13,24.11H500.74A26.07,26.07,0,0,1,526.74,0h379.4A26.07,26.07,0,0,1,932.13,24.11Z"/><circle class="cls-75" cx="526.73" cy="12.06" r="3.09"/><circle class="cls-76" cx="542.63" cy="12.06" r="3.09"/><circle class="cls-77" cx="558.52" cy="12.06" r="3.09"/><path class="cls-78" d="M694.53,55.72a.82.82,0,0,0-.82.82v20.1h-4.66v-3.1a.83.83,0,0,0-.83-.83H668.47a.83.83,0,0,0,0,1.65H687.4V89.69h-11a.83.83,0,0,0-.83.83v8.71a.83.83,0,0,0,1.65,0V91.34H687.4v43.33a.83.83,0,0,0,1.65,0V78.29h5.48a.83.83,0,0,0,.82-.83V56.54A.82.82,0,0,0,694.53,55.72Z"/><path class="cls-79" d="M735,94.05a.83.83,0,0,0-.83.82v8.41H721.67V51.88h11.79a.83.83,0,0,0,0-1.65H720.85a.83.83,0,0,0-.83.83V81.62H704a.83.83,0,0,0-.83.83v8.63a.83.83,0,0,0,1.65,0V83.27H720V124a.83.83,0,0,0,1.65,0V104.92H735a.82.82,0,0,0,.82-.82V94.87A.82.82,0,0,0,735,94.05Z"/><path class="cls-80" d="M658.66,78.5a5,5,0,1,1,5-5A5,5,0,0,1,658.66,78.5Zm0-9.1a4.14,4.14,0,1,0,4.14,4.14A4.14,4.14,0,0,0,658.66,69.4Z"/><path class="cls-81" d="M744.61,56.39A5.34,5.34,0,1,1,750,51.06,5.33,5.33,0,0,1,744.61,56.39Zm0-9.85a4.52,4.52,0,1,0,4.52,4.52A4.52,4.52,0,0,0,744.61,46.54Z"/><path class="cls-82" d="M694.53,53a3.63,3.63,0,1,1,3.63-3.63A3.64,3.64,0,0,1,694.53,53Zm0-6.44a2.81,2.81,0,1,0,2.81,2.81A2.81,2.81,0,0,0,694.53,46.54Z"/><path class="cls-83" d="M676.44,107.79a3,3,0,1,1,3-3A3,3,0,0,1,676.44,107.79Zm0-5.2a2.19,2.19,0,1,0,2.18,2.19A2.19,2.19,0,0,0,676.44,102.59Z"/><path class="cls-84" d="M704,100.48a3,3,0,1,1,3-3A3,3,0,0,1,704,100.48Zm0-5.2a2.19,2.19,0,1,0,2.18,2.19A2.19,2.19,0,0,0,704,95.28Z"/><path class="cls-85" d="M735,91.86a3,3,0,1,1,3-3A3,3,0,0,1,735,91.86Zm0-5.2a2.19,2.19,0,1,0,2.18,2.19A2.19,2.19,0,0,0,735,86.66Z"/><path class="cls-3" d="M646.83,293.31a5,5,0,1,1,5-5A5,5,0,0,1,646.83,293.31Zm0-9.11a4.14,4.14,0,1,0,4.14,4.14A4.15,4.15,0,0,0,646.83,284.2Z"/><path class="cls-3" d="M696.79,270.62a4.25,4.25,0,0,1-1.1-8.35h0a4.25,4.25,0,0,1,2.2,8.21A4.2,4.2,0,0,1,696.79,270.62Zm-.89-7.55a3.42,3.42,0,1,0,4.2,2.42,3.44,3.44,0,0,0-4.2-2.42Z"/><path class="cls-3" d="M640.08,239.34a4.25,4.25,0,1,1,4.24-4.25A4.26,4.26,0,0,1,640.08,239.34Zm0-7.67a3.42,3.42,0,1,0,3.42,3.42A3.43,3.43,0,0,0,640.08,231.67Z"/><path class="cls-3" d="M696.79,239.42H686.72V208.61a.83.83,0,0,0-1.65,0v43.76H660.19v-17a.81.81,0,0,0-.82-.82H647.86a.82.82,0,1,0,0,1.64h10.69v16.14H646.83a.82.82,0,0,0-.82.82v23.35a.82.82,0,1,0,1.64,0V254h38.24a.83.83,0,0,0,.83-.83V241.07H696V256a.82.82,0,1,0,1.64,0V240.25A.83.83,0,0,0,696.79,239.42Z"/><path class="cls-3" d="M752.71,252.37H740.38V237.46h11.1a.82.82,0,1,0,0-1.64h-17.2V212.06a.83.83,0,0,0-1.65,0v24.58a.82.82,0,0,0,.83.82h5.27v14.91H730.3a.83.83,0,0,0,0,1.65h15.22v14.9a.82.82,0,0,0,1.64,0V254h5.55a.83.83,0,1,0,0-1.65Z"/><path class="cls-86" d="M835.57,152.76H796.3a.82.82,0,0,0-.82.82v13.57H754.36a.83.83,0,0,0,0,1.65H782.5v14.6a.83.83,0,0,0,.83.82h23.3a.83.83,0,0,0,0-1.65H784.15V168.8H796.3a.82.82,0,0,0,.82-.82V154.41h38.45a.83.83,0,0,0,0-1.65Z"/><path class="cls-3" d="M720.69,257.12a4.25,4.25,0,0,1-1.11-8.35h0a4.25,4.25,0,0,1,2.2,8.21A4.53,4.53,0,0,1,720.69,257.12Zm-.89-7.55A3.42,3.42,0,1,0,724,252a3.42,3.42,0,0,0-4.19-2.42Z"/><path class="cls-3" d="M760.93,256a3.12,3.12,0,0,1-.8-6.14h0a3.11,3.11,0,0,1,3.82,2.21,3,3,0,0,1-.31,2.36,3.08,3.08,0,0,1-1.89,1.46A3.24,3.24,0,0,1,760.93,256Zm0-5.42a2,2,0,0,0-.59.08h0a2.22,2.22,0,0,0-1.4,1.07,2.26,2.26,0,0,0-.23,1.74,2.28,2.28,0,0,0,2.81,1.62,2.22,2.22,0,0,0,1.4-1.07,2.26,2.26,0,0,0,.23-1.74,2.27,2.27,0,0,0-2.22-1.7Z"/><path class="cls-3" d="M746.34,280.24a3.12,3.12,0,0,1-.81-6.13h0a3.12,3.12,0,0,1,3.82,2.2,3.07,3.07,0,0,1-.31,2.37,3.12,3.12,0,0,1-1.89,1.46A3.21,3.21,0,0,1,746.34,280.24Zm-.59-5.34a2.3,2.3,0,1,0,2.58,3.37,2.26,2.26,0,0,0,.23-1.74,2.3,2.3,0,0,0-2.81-1.63Z"/><path class="cls-3" d="M759.81,240.62a4.26,4.26,0,0,1-2.14-.57,4.29,4.29,0,1,1,3.26.43A4.77,4.77,0,0,1,759.81,240.62Zm0-7.77a3.46,3.46,0,1,0,1.73.46A3.53,3.53,0,0,0,759.82,232.85Z"/><path class="cls-87" d="M845.36,158.4a4.81,4.81,0,1,1,4.66-6.06,4.81,4.81,0,0,1-3.4,5.89A5,5,0,0,1,845.36,158.4Zm0-8.81a4.07,4.07,0,0,0-1,.14h0a4,4,0,0,0-2.42,1.86,4,4,0,0,0,1.46,5.45,4,4,0,1,0,4-6.91A3.94,3.94,0,0,0,845.38,149.59Z"/><path class="cls-88" d="M814.7,186.21a2.81,2.81,0,0,1-.73-5.53h0a2.81,2.81,0,1,1,1.46,5.43A2.62,2.62,0,0,1,814.7,186.21Zm-.51-4.74a2,2,0,1,0,2.43,1.41,2,2,0,0,0-2.43-1.41Z"/><g class="cls-89"><polygon class="cls-90" points="754.75 144.74 712.79 169.18 670.83 144.74 712.79 118.95 754.75 144.74"/><polygon class="cls-91" points="712.79 169.18 712.79 219.03 670.83 194.1 670.83 144.74 712.79 169.18"/><polygon class="cls-92" points="754.75 144.74 712.79 169.18 712.79 219.03 754.75 194.39 754.75 144.74"/></g><polygon class="cls-90" points="749.95 147.51 712.79 169.16 675.63 147.51 712.79 124.67 749.95 147.51"/><polygon class="cls-91" points="712.79 169.16 712.79 213.31 675.63 191.23 675.63 147.51 712.79 169.16"/><polygon class="cls-92" points="749.95 147.51 712.79 169.16 712.79 213.31 749.95 191.49 749.95 147.51"/><path class="cls-93" d="M860.54,200.26H798.43a6.38,6.38,0,0,0-6.38,6.37v10.44l-34.39-15,34.39,35.06v22.4a6.38,6.38,0,0,0,6.38,6.37h62.11a6.37,6.37,0,0,0,6.37-6.37V206.63A6.37,6.37,0,0,0,860.54,200.26Z"/><path class="cls-94" d="M838.73,222.93A12.15,12.15,0,1,0,824.13,240a13.93,13.93,0,0,1,6,3.84l2.52,2.79L839.7,243l-.72-3.48a13.67,13.67,0,0,1,.45-7.23A12.15,12.15,0,0,0,838.73,222.93Z"/><path class="cls-3" d="M839.78,247.73l-3.46,1.76a2.06,2.06,0,0,1-2.71-.69l-2.1-3.4,7.82-4,1.49,3.77A2.07,2.07,0,0,1,839.78,247.73Z"/><path class="cls-95" d="M833,247.2a.24.24,0,0,1-.19-.12.21.21,0,0,1,.1-.28c1.13-.53,2.24-1.12,3.32-1.69s2.16-1.14,3.27-1.66a.22.22,0,0,1,.28.11.22.22,0,0,1-.1.28c-1.1.51-2.2,1.09-3.25,1.65s-2.21,1.16-3.34,1.69Z"/><path class="cls-96" d="M833.52,248.15a.2.2,0,0,1-.19-.12.2.2,0,0,1,.1-.28c1.12-.53,2.23-1.11,3.31-1.68s2.16-1.14,3.27-1.66a.2.2,0,0,1,.28.1.21.21,0,0,1-.1.28c-1.1.51-2.19,1.09-3.26,1.65s-2.19,1.16-3.32,1.69Z"/><path class="cls-97" d="M820.47,211.65c.35.7,1.26,3.4.8,3.63s-2.1-2.09-2.46-2.78-.27-1.46.19-1.69S820.11,211,820.47,211.65Z"/><path class="cls-97" d="M811,220.29c.77.15,3.45,1.1,3.35,1.61s-2.94.37-3.71.22-1.31-.69-1.21-1.19S810.2,220.14,811,220.29Z"/><path class="cls-97" d="M810.93,233.2c.74-.27,3.25-1.61,3.08-2.09s-3,.07-3.7.34-1.2.87-1,1.35S810.2,233.46,810.93,233.2Z"/><path class="cls-97" d="M831,210.12c-.33.71-1.14,3.44-.68,3.66s2-2.16,2.37-2.87.22-1.47-.25-1.68S831.28,209.41,831,210.12Z"/><path class="cls-97" d="M841.4,217.69c-.64.44-3.21,1.68-3.49,1.25s1.8-2.35,2.45-2.79,1.41-.45,1.69,0S842.05,217.25,841.4,217.69Z"/><path class="cls-3" d="M828.28,224.38a29.86,29.86,0,0,1-.13,3.55c-.08,1.18-.23,2.34-.39,3.5l-.89-1c2-.31,4-.55,6-.69l1.11-.08-.2,1c-.24,1.19-.5,2.37-.82,3.55a35.35,35.35,0,0,1-1.1,3.5,32.27,32.27,0,0,1,0-3.68c0-1.21.15-2.42.29-3.62l.9.94c-2,.32-4,.53-6,.67l-1.14.08.25-1c.28-1.14.58-2.28.93-3.4A30.42,30.42,0,0,1,828.28,224.38Z"/><path class="cls-3" d="M814.33,245.86a17.07,17.07,0,0,1-2.15.65c-.73.19-1.45.34-2.18.48l.39-.73c.6,1.14,1.15,2.29,1.65,3.47l.27.65-.65.09c-.76.1-1.53.18-2.3.23a17.93,17.93,0,0,1-2.32.05,21.86,21.86,0,0,1,2.2-.74c.74-.22,1.49-.4,2.23-.57l-.38.74c-.59-1.14-1.13-2.3-1.63-3.48l-.28-.67.68-.06c.73-.07,1.48-.12,2.22-.14A21.11,21.11,0,0,1,814.33,245.86Z"/><path class="cls-3" d="M857.93,220.51a33.83,33.83,0,0,1-3.44,1c-1.15.3-2.31.54-3.48.76l.63-1.16q1.43,2.72,2.63,5.53l.43,1-1,.14c-1.22.16-2.43.29-3.66.37a32.72,32.72,0,0,1-3.71.08,35.37,35.37,0,0,1,3.51-1.19c1.18-.35,2.37-.64,3.57-.9l-.61,1.17c-1-1.81-1.81-3.66-2.6-5.54l-.45-1.07,1.08-.1c1.17-.1,2.36-.19,3.55-.22S856.72,220.43,857.93,220.51Z"/><path class="cls-98" d="M663.07,141.35l-35.63-14.89V86.16a8.7,8.7,0,0,0-8.7-8.7H533.93a8.71,8.71,0,0,0-8.7,8.7v72.17a8.7,8.7,0,0,0,8.7,8.69h84.81a8.69,8.69,0,0,0,8.7-8.69v-17Z"/><path class="cls-99" d="M889.84,62.55h-119a7,7,0,0,0-7,7v30.78a7,7,0,0,0,7,7H786L763,135.9l42.51-28.53h84.34a7,7,0,0,0,7-7V69.57A7,7,0,0,0,889.84,62.55Z"/><path class="cls-100" d="M657.66,195.39H627V184a5,5,0,0,0-5-5H572.73a5,5,0,0,0-5.05,5V225.8a5,5,0,0,0,5.05,5h49.19a5,5,0,0,0,5-5V210.49Z"/><path class="cls-3" d="M876.53,78.29h-93.2a.83.83,0,1,1,0-1.65h93.2a.83.83,0,0,1,0,1.65Z"/><path class="cls-3" d="M829.93,92.54h-46.6a.82.82,0,1,1,0-1.64h46.6a.82.82,0,1,1,0,1.64Z"/><circle class="cls-3" cx="577.8" cy="90.52" r="4.27"/><rect class="cls-3" x="554.61" y="114.24" width="14.91" height="11" transform="translate(122.13 -250.01) rotate(28.02)"/><rect class="cls-58" x="556.24" y="114.65" width="14.91" height="4.07" transform="translate(120.89 -251.13) rotate(28.02)"/><path class="cls-101" d="M568.16,116.72l-.71-.43a3.33,3.33,0,0,0,.36-2.35,3,3,0,0,0-1.65-1.83,3.07,3.07,0,0,0-2.45-.35,3.49,3.49,0,0,0-1.82,1.64l-.74-.36a4.28,4.28,0,0,1,2.3-2.06,4.43,4.43,0,0,1,5.16,2.75A4.2,4.2,0,0,1,568.16,116.72Z"/><path class="cls-3" d="M572.81,96.94H581l2.68,3.44a5.64,5.64,0,0,0,4.44,2.16h5.68A2.48,2.48,0,0,1,596.3,105h0a1.85,1.85,0,0,1-1.85,1.85h-7.2a7.71,7.71,0,0,1-5.19-2h0v8.53l5.82,4.78a7,7,0,0,1,2.56,5.42v7.23a2.46,2.46,0,0,1-2.46,2.46h0a2.17,2.17,0,0,1-2.17-2.17v-5.53a7,7,0,0,0-3.13-5.84l-4.1-2.73-.12,7a7.77,7.77,0,0,1-2.11,5.22l-7.69,8.54a2.33,2.33,0,0,1-3.26.14h0a2.32,2.32,0,0,1-.23-3.2l6-7.25a7.84,7.84,0,0,0,1.81-5V103.21L570.12,105a4.76,4.76,0,0,0-2.24,4.4l.08,1a1.79,1.79,0,0,1-1.56,1.89h0a2.27,2.27,0,0,1-2.57-2.13l-.12-2a8,8,0,0,1,3.57-7.2Z"/><polygon class="cls-3" points="591.41 127.05 591.41 133.28 578.46 133.28 578.46 138.47 565.5 138.47 565.5 143.99 552.55 143.99 552.55 157.38 565.5 157.38 578.46 157.38 591.41 157.38 604.36 157.38 604.36 127.05 591.41 127.05"/><path class="cls-3" d="M594.48,216.8a2,2,0,0,1-1.3-.48l-11-9.22a2,2,0,1,1,2.61-3.1l9.6,8.07,19.84-18.58a2,2,0,0,1,2.77,3l-21.15,19.8A2.06,2.06,0,0,1,594.48,216.8Z"/><path class="cls-102" d="M128.72,267.13c20.07-30.84,69.9-52.18,62.5-74.18s-51.81,0-41.94-50.29c3.95-20.14,24.29-13.2,16.44-34.87s-43.58-7-72.37,19.26-4.11,71.77-55.92,106.27C18.35,246,7.85,266.9,3.36,290.2c-7.7,40-3.08,74.45,23.38,87.08,25.22,12,5.13,36.92,5.63,46.05,2.59,47.43,36.95,39.55,55.77,58.39,22,22,40,68.54,54.28,18.64,11.69-40.91-46.6-38.65-46.6-69.9s-23.47-43.27-40.3-69.8S97.46,315.13,128.72,267.13Zm-37.83-40.9c26.86-14.26,11-54.73,26-56.75s23.85,3.57,17.27,23.47c-2.06,6.22,16.11,12.91,13.71,22.35-4.12,16.14-32.9,19.22-40.58,42.21S64,240.48,90.89,226.23Z"/></g></g></g></svg>