<svg xmlns="http://www.w3.org/2000/svg" viewBox="0 0 180 183" width="180" height="183">
	<defs>
		<clipPath clipPathUnits="userSpaceOnUse" id="cp1">
			<path d="M-1125 -2809L315 -2809L315 5491L-1125 5491Z" />
		</clipPath>
	</defs>
	<style>
		tspan { white-space:pre }
		.shp0 { fill: #47d7cd } 
	</style>
	<g id="Landing Page" clip-path="url(#cp1)">
		<path id="Combined Shape" class="shp0" d="M2.5 6.03C3.88 6.03 5 4.9 5 3.51C5 2.13 3.88 1 2.5 1C1.12 1 0 2.13 0 3.51C0 4.9 1.12 6.03 2.5 6.03ZM2.5 41.22C3.88 41.22 5 40.1 5 38.71C5 37.32 3.88 36.19 2.5 36.19C1.12 36.19 0 37.32 0 38.71C0 40.1 1.12 41.22 2.5 41.22ZM37.5 6.03C38.88 6.03 40 4.9 40 3.51C40 2.13 38.88 1 37.5 1C36.12 1 35 2.13 35 3.51C35 4.9 36.12 6.03 37.5 6.03ZM37.5 41.22C38.88 41.22 40 40.1 40 38.71C40 37.32 38.88 36.19 37.5 36.19C36.12 36.19 35 37.32 35 38.71C35 40.1 36.12 41.22 37.5 41.22ZM72.5 6.03C73.88 6.03 75 4.9 75 3.51C75 2.13 73.88 1 72.5 1C71.12 1 70 2.13 70 3.51C70 4.9 71.12 6.03 72.5 6.03ZM72.5 41.22C73.88 41.22 75 40.1 75 38.71C75 37.32 73.88 36.19 72.5 36.19C71.12 36.19 70 37.32 70 38.71C70 40.1 71.12 41.22 72.5 41.22ZM107.5 6.03C108.88 6.03 110 4.9 110 3.51C110 2.13 108.88 1 107.5 1C106.12 1 105 2.13 105 3.51C105 4.9 106.12 6.03 107.5 6.03ZM107.5 41.22C108.88 41.22 110 40.1 110 38.71C110 37.32 108.88 36.19 107.5 36.19C106.12 36.19 105 37.32 105 38.71C105 40.1 106.12 41.22 107.5 41.22ZM142.5 6.03C143.88 6.03 145 4.9 145 3.51C145 2.13 143.88 1 142.5 1C141.12 1 140 2.13 140 3.51C140 4.9 141.12 6.03 142.5 6.03ZM142.5 41.22C143.88 41.22 145 40.1 145 38.71C145 37.32 143.88 36.19 142.5 36.19C141.12 36.19 140 37.32 140 38.71C140 40.1 141.12 41.22 142.5 41.22ZM177.5 6.03C178.88 6.03 180 4.9 180 3.51C180 2.13 178.88 1 177.5 1C176.12 1 175 2.13 175 3.51C175 4.9 176.12 6.03 177.5 6.03ZM177.5 41.22C178.88 41.22 180 40.1 180 38.71C180 37.32 178.88 36.19 177.5 36.19C176.12 36.19 175 37.32 175 38.71C175 40.1 176.12 41.22 177.5 41.22ZM2.5 76.42C3.88 76.42 5 75.29 5 73.9C5 72.51 3.88 71.39 2.5 71.39C1.12 71.39 0 72.51 0 73.9C0 75.29 1.12 76.42 2.5 76.42ZM37.5 76.42C38.88 76.42 40 75.29 40 73.9C40 72.51 38.88 71.39 37.5 71.39C36.12 71.39 35 72.51 35 73.9C35 75.29 36.12 76.42 37.5 76.42ZM72.5 76.42C73.88 76.42 75 75.29 75 73.9C75 72.51 73.88 71.39 72.5 71.39C71.12 71.39 70 72.51 70 73.9C70 75.29 71.12 76.42 72.5 76.42ZM107.5 76.42C108.88 76.42 110 75.29 110 73.9C110 72.51 108.88 71.39 107.5 71.39C106.12 71.39 105 72.51 105 73.9C105 75.29 106.12 76.42 107.5 76.42ZM142.5 76.42C143.88 76.42 145 75.29 145 73.9C145 72.51 143.88 71.39 142.5 71.39C141.12 71.39 140 72.51 140 73.9C140 75.29 141.12 76.42 142.5 76.42ZM177.5 76.42C178.88 76.42 180 75.29 180 73.9C180 72.51 178.88 71.39 177.5 71.39C176.12 71.39 175 72.51 175 73.9C175 75.29 176.12 76.42 177.5 76.42ZM2.5 111.61C3.88 111.61 5 110.49 5 109.1C5 107.71 3.88 106.58 2.5 106.58C1.12 106.58 0 107.71 0 109.1C0 110.49 1.12 111.61 2.5 111.61ZM37.5 111.61C38.88 111.61 40 110.49 40 109.1C40 107.71 38.88 106.58 37.5 106.58C36.12 106.58 35 107.71 35 109.1C35 110.49 36.12 111.61 37.5 111.61ZM72.5 111.61C73.88 111.61 75 110.49 75 109.1C75 107.71 73.88 106.58 72.5 106.58C71.12 106.58 70 107.71 70 109.1C70 110.49 71.12 111.61 72.5 111.61ZM107.5 111.61C108.88 111.61 110 110.49 110 109.1C110 107.71 108.88 106.58 107.5 106.58C106.12 106.58 105 107.71 105 109.1C105 110.49 106.12 111.61 107.5 111.61ZM142.5 111.61C143.88 111.61 145 110.49 145 109.1C145 107.71 143.88 106.58 142.5 106.58C141.12 106.58 140 107.71 140 109.1C140 110.49 141.12 111.61 142.5 111.61ZM177.5 111.61C178.88 111.61 180 110.49 180 109.1C180 107.71 178.88 106.58 177.5 106.58C176.12 106.58 175 107.71 175 109.1C175 110.49 176.12 111.61 177.5 111.61ZM2.5 146.81C3.88 146.81 5 145.68 5 144.29C5 142.9 3.88 141.78 2.5 141.78C1.12 141.78 0 142.9 0 144.29C0 145.68 1.12 146.81 2.5 146.81ZM37.5 146.81C38.88 146.81 40 145.68 40 144.29C40 142.9 38.88 141.78 37.5 141.78C36.12 141.78 35 142.9 35 144.29C35 145.68 36.12 146.81 37.5 146.81ZM72.5 146.81C73.88 146.81 75 145.68 75 144.29C75 142.9 73.88 141.78 72.5 141.78C71.12 141.78 70 142.9 70 144.29C70 145.68 71.12 146.81 72.5 146.81ZM107.5 146.81C108.88 146.81 110 145.68 110 144.29C110 142.9 108.88 141.78 107.5 141.78C106.12 141.78 105 142.9 105 144.29C105 145.68 106.12 146.81 107.5 146.81ZM142.5 146.81C143.88 146.81 145 145.68 145 144.29C145 142.9 143.88 141.78 142.5 141.78C141.12 141.78 140 142.9 140 144.29C140 145.68 141.12 146.81 142.5 146.81ZM177.5 146.81C178.88 146.81 180 145.68 180 144.29C180 142.9 178.88 141.78 177.5 141.78C176.12 141.78 175 142.9 175 144.29C175 145.68 176.12 146.81 177.5 146.81ZM2.5 182C3.88 182 5 180.87 5 179.49C5 178.1 3.88 176.97 2.5 176.97C1.12 176.97 0 178.1 0 179.49C0 180.87 1.12 182 2.5 182ZM37.5 182C38.88 182 40 180.87 40 179.49C40 178.1 38.88 176.97 37.5 176.97C36.12 176.97 35 178.1 35 179.49C35 180.87 36.12 182 37.5 182ZM72.5 182C73.88 182 75 180.87 75 179.49C75 178.1 73.88 176.97 72.5 176.97C71.12 176.97 70 178.1 70 179.49C70 180.87 71.12 182 72.5 182ZM107.5 182C108.88 182 110 180.87 110 179.49C110 178.1 108.88 176.97 107.5 176.97C106.12 176.97 105 178.1 105 179.49C105 180.87 106.12 182 107.5 182ZM142.5 182C143.88 182 145 180.87 145 179.49C145 178.1 143.88 176.97 142.5 176.97C141.12 176.97 140 178.1 140 179.49C140 180.87 141.12 182 142.5 182ZM177.5 182C178.88 182 180 180.87 180 179.49C180 178.1 178.88 176.97 177.5 176.97C176.12 176.97 175 178.1 175 179.49C175 180.87 176.12 182 177.5 182Z" />
	</g>
</svg>