<svg xmlns="http://www.w3.org/2000/svg" viewBox="0 0 47 51" width="47" height="51">
	<defs>
		<clipPath clipPathUnits="userSpaceOnUse" id="cp1">
			<path d="M-246 -1494L1194 -1494L1194 5962L-246 5962Z" />
		</clipPath>
	</defs>
	<style>
		tspan { white-space:pre }
		.shp0 { fill: #ffffff;stroke: #6980ff;stroke-linejoin:round;stroke-width: 1.5 } 
		.shp1 { fill: #6980ff } 
		.shp2 { fill: #ffffff } 
		.shp3 { fill: none;stroke: #6980ff;stroke-linecap:round;stroke-width: 2 } 
	</style>
	<g id="Become Advisor" clip-path="url(#cp1)">
		<g id="01_BIG_IMPACT">
			<path id="Path" class="shp0" d="M27.68 39.48C27.68 39.48 31.91 35.89 33.06 36.34C34.22 36.79 33.06 39.16 33.06 39.16L29.16 40.31L27.68 39.48Z" />
			<path id="Path" class="shp0" d="M29.15 40.31C29.15 40.31 33.83 36.87 35.43 37.23C37.03 37.6 33.58 40.49 33.58 40.49L27.49 44.86L21.37 43.93L20.47 41.95L29.15 40.31Z" />
			<path id="Path" class="shp0" d="M7.43 39.54C7.43 39.54 7.75 42.49 7.43 43.65C7.11 44.81 9.03 46.73 9.03 46.73C9.03 46.73 13.07 44.23 18.58 46.73C24.09 49.23 25.44 50.51 32.36 45.51C39.28 40.51 38.25 39.04 37.29 38.78C36.33 38.52 30.69 42.32 28.13 43.85C25.57 45.38 21.4 42.93 21.4 42.93C21.4 42.93 25.25 43.57 28.19 42.16C31.14 40.75 30.63 39.54 29.54 39.08C28.45 38.63 23.96 39.85 22.36 39.08C20.75 38.32 17.37 36.34 14.48 37.69C11.59 39.03 7.94 39.74 7.43 39.54Z" />
			<path id="Path" class="shp1" d="M35.99 23.23C35.9 29.86 30.48 35.18 23.85 35.14C17.21 35.09 11.86 29.7 11.86 23.07C11.86 16.44 17.21 11.05 23.85 11C30.48 10.96 35.9 16.28 35.99 22.91C35.99 23.02 35.99 23.12 35.99 23.23Z" />
			<path id="Path" class="shp2" d="M19.71 31.64C19.61 31.58 19.39 31.38 18.94 30.75C18.27 29.81 18.2 28.62 18.14 27.57C18.08 26.54 18.03 25.67 17.47 25.16L17.28 25C16.3 24.14 15.28 23.24 15.37 22.11C15.58 21.85 16.48 20.7 16.43 19.47C16.42 19.34 16.46 19.2 16.55 19.1C16.65 19.01 16.79 18.96 16.94 18.97C17.64 19.03 18.27 19.45 18.58 20.09C18.89 20.86 19.48 20.89 20 20.91C20.42 20.93 20.78 20.95 21.06 21.3C21.42 21.75 22.14 21.91 22.84 22.08C23.79 22.31 24.36 22.48 24.29 22.96C24.19 23.42 24 23.85 23.71 24.23C23.38 24.72 23.05 25.23 23.23 25.93C23.27 26.02 23.27 26.12 23.23 26.2C23.18 26.29 22.96 26.32 22.75 26.36C22.3 26.43 21.7 26.52 21.55 27.23C21.45 27.7 21.03 28.16 20.63 28.6C20.1 29.18 19.54 29.8 19.62 30.52L19.62 30.55C19.69 30.91 19.71 31.28 19.71 31.64Z" />
			<path id="Shape" fill-rule="evenodd" class="shp1" d="M16.93 19.18C17.56 19.23 18.11 19.6 18.39 20.17C18.75 21.06 19.47 21.09 19.99 21.12C20.44 21.14 20.7 21.16 20.9 21.42C21.31 21.93 22.06 22.11 22.79 22.28C23.73 22.5 24.13 22.64 24.09 22.93C24 23.36 23.81 23.76 23.54 24.11C23.21 24.61 22.83 25.19 23.04 25.98C23.05 26.02 23.05 26.05 23.06 26.08C22.95 26.12 22.84 26.14 22.72 26.15C22.28 26.22 21.53 26.34 21.35 27.18C21.27 27.59 20.87 28.03 20.48 28.45C19.92 29.06 19.33 29.71 19.43 30.53L19.43 30.56C19.45 30.73 19.47 30.95 19.49 31.14C19.39 31.01 19.26 30.85 19.11 30.63C18.46 29.74 18.4 28.58 18.34 27.55C18.28 26.52 18.23 25.56 17.6 25L17.41 24.84C16.49 24.02 15.53 23.18 15.57 22.17C15.85 21.81 16.68 20.67 16.63 19.45C16.62 19.37 16.64 19.29 16.69 19.22C16.76 19.17 16.84 19.14 16.93 19.15M16.93 18.74C16.52 18.74 16.21 18.95 16.22 19.46C16.27 20.76 15.17 22.01 15.17 22.01C15.02 23.35 16.27 24.36 17.33 25.29C18.39 26.22 17.42 28.97 18.77 30.84C19.29 31.57 19.59 31.85 19.75 31.85C20 31.85 19.91 31.16 19.83 30.46C19.69 29.31 21.51 28.39 21.75 27.24C21.99 26.09 23.72 26.95 23.43 25.85C23.14 24.74 24.29 24.2 24.49 22.97C24.68 21.74 21.95 22.08 21.22 21.18C20.5 20.27 19.25 21.22 18.77 20.02C18.43 19.3 17.72 18.82 16.93 18.77L16.93 18.74Z" />
			<path id="Path" class="shp2" d="M32.75 28.53C33.22 27.68 33.72 25.04 33.54 24.14C33.52 23.97 33.43 23.82 33.28 23.73C33.15 23.67 33.2 22.9 33.22 22.57C33.27 21.88 33.29 21.45 33.08 21.23C33.01 21.16 32.91 21.11 32.81 21.12C32.62 21.09 32.44 21.01 32.3 20.88C31.76 20.49 31.12 20.27 30.45 20.25C29.51 20.19 29.4 20.06 29.08 19.67C28.84 19.38 28.58 19.1 28.29 18.85C27.94 18.56 27.91 18.43 27.91 18.39C27.91 18.36 27.95 18.31 28.02 18.24C28.18 18.09 28.48 17.81 28.05 17.29C27.78 16.97 28.54 16.31 28.99 15.92C29.44 15.53 29.63 15.37 29.55 15.15C29.51 15.03 29.39 14.95 29.25 14.96C29.14 14.96 29.03 14.91 28.95 14.81C28.83 14.66 28.71 14.28 28.87 13.38C28.9 13.21 28.86 13.04 28.76 12.9C28.53 12.59 28 12.52 27.43 12.44C26.99 12.39 26.54 12.33 26.27 12.16C25.96 12 25.6 11.93 25.25 11.96C24.96 11.96 24.65 11.98 24.35 12C24.05 12.03 23.76 12.05 23.5 12.05C23.26 12.07 23.01 12.02 22.78 11.92C22.69 11.87 22.58 11.84 22.47 11.84C22.03 11.84 21.63 12.28 21.24 12.71C21.03 12.94 20.72 13.29 20.59 13.29C20.51 13.22 20.41 13.18 20.31 13.17C19.71 13.17 18.58 14.08 17.27 15.18C17.02 15.38 16.8 15.58 16.63 15.71C16.46 15.83 16.35 16.02 16.32 16.22C16.28 16.62 16.59 17 16.88 17.36C17.18 17.73 17.39 18 17.27 18.15C17.24 18.19 17.19 18.22 17.13 18.22C16.93 18.18 16.74 18.09 16.58 17.97C16.38 17.81 16.13 17.7 15.88 17.67C15.64 17.67 15.44 17.83 15.37 18.05C15.17 18.48 15.25 18.99 15.32 19.45C15.36 19.74 15.41 20.1 15.33 20.2C15.29 20.23 15.24 20.24 15.19 20.24L15.17 20.24C14.8 20.22 14.03 19.52 13.09 18.37C15.36 13.32 20.81 10.5 26.24 11.58C31.66 12.66 35.63 17.35 35.78 22.88C35.41 24.37 34.84 25.81 34.08 27.15C33.96 27.38 33.87 27.56 33.82 27.67C33.66 28.06 33.11 28.39 32.75 28.53Z" />
			<path id="Shape" fill-rule="evenodd" class="shp1" d="M23.92 11.57C25.34 11.56 26.74 11.82 28.06 12.32C27.87 12.28 27.67 12.26 27.47 12.23C27.07 12.18 26.62 12.12 26.39 11.98C26.04 11.79 25.65 11.71 25.26 11.74C24.96 11.74 24.64 11.76 24.34 11.78C24.04 11.81 23.77 11.83 23.52 11.83C23.31 11.85 23.1 11.81 22.9 11.73C22.83 11.69 22.75 11.66 22.66 11.64C23.09 11.59 23.51 11.57 23.93 11.57M22.07 11.72C21.72 11.88 21.42 12.23 21.11 12.56C20.97 12.74 20.8 12.9 20.63 13.05C20.53 12.99 20.42 12.97 20.31 12.97C19.64 12.97 18.53 13.86 17.14 15.02C16.89 15.22 16.67 15.42 16.5 15.55C16.29 15.7 16.15 15.94 16.12 16.2C16.06 16.68 16.42 17.11 16.73 17.49C16.87 17.65 17 17.82 17.1 18.01C16.96 17.95 16.83 17.88 16.7 17.8C16.46 17.62 16.18 17.5 15.88 17.47C15.56 17.48 15.28 17.68 15.18 17.97C14.98 18.46 15.05 19.03 15.12 19.49C15.15 19.67 15.17 19.85 15.17 20.04C14.98 20.02 14.39 19.64 13.34 18.34C14.96 14.82 18.23 12.33 22.06 11.71M28.82 12.64C32.82 14.5 35.44 18.45 35.58 22.86C35.21 24.33 34.64 25.74 33.9 27.06C33.77 27.3 33.68 27.47 33.63 27.6C33.52 27.8 33.36 27.97 33.16 28.08C33.57 26.9 33.89 24.84 33.74 24.1C33.72 23.89 33.6 23.69 33.42 23.57C33.39 23.24 33.39 22.9 33.42 22.57C33.47 21.91 33.51 21.38 33.23 21.09C33.12 20.97 32.97 20.9 32.81 20.9C32.71 20.9 32.6 20.83 32.42 20.7C31.85 20.28 31.18 20.05 30.48 20.03C29.62 19.98 29.55 19.89 29.25 19.53C29 19.22 28.72 18.94 28.43 18.69C28.32 18.6 28.23 18.51 28.15 18.4L28.17 18.38C28.32 18.24 28.76 17.81 28.22 17.15C28.15 17.07 28.26 16.82 29.13 16.07C29.58 15.68 29.87 15.43 29.75 15.08C29.67 14.88 29.48 14.75 29.27 14.75C29.21 14.75 29.16 14.73 29.12 14.68C29.06 14.6 28.91 14.31 29.07 13.4C29.12 13.18 29.07 12.95 28.93 12.77C28.9 12.72 28.86 12.68 28.81 12.64M23.92 11.15C19.11 11.16 14.77 14 12.85 18.4C13.5 19.22 14.56 20.42 15.15 20.46L15.19 20.46C16.03 20.46 15.17 19 15.55 18.15C15.63 17.96 15.76 17.89 15.87 17.89C16.24 17.89 16.73 18.44 17.13 18.44C17.24 18.44 17.35 18.39 17.42 18.29C17.95 17.68 15.84 16.61 16.75 15.89C17.59 15.22 19.59 13.38 20.31 13.38C20.37 13.37 20.42 13.39 20.47 13.42C20.51 13.45 20.56 13.47 20.61 13.47C21.09 13.47 21.84 12.02 22.48 12.02C22.55 12.02 22.62 12.04 22.68 12.08C22.94 12.2 23.22 12.25 23.51 12.23C24.05 12.23 24.69 12.14 25.25 12.14C25.56 12.11 25.88 12.18 26.17 12.32C26.94 12.8 28.81 12.46 28.67 13.33C28.52 14.19 28.52 15.11 29.24 15.16C29.96 15.2 27.22 16.59 27.9 17.41C28.57 18.23 26.97 17.99 28.16 19C29.34 20.01 28.91 20.35 30.44 20.44C31.98 20.52 32.22 21.3 32.8 21.3C33.38 21.3 32.66 23.66 33.18 23.9C33.71 24.14 32.99 27.98 32.46 28.56C32.31 28.72 32.34 28.79 32.46 28.79C32.79 28.79 33.75 28.33 33.99 27.74C34.2 27.25 35.33 25.56 35.97 22.9C35.8 16.36 30.45 11.14 23.91 11.14L23.92 11.15Z" />
			<path id="Path" class="shp3" d="M3 23.23L9.22 23.23" />
			<path id="Path" class="shp3" d="M6.91 25.53L9.22 23.23L6.91 20.92" />
			<path id="Path" class="shp3" d="M44.84 23.23L38.63 23.23" />
			<path id="Path" class="shp3" d="M40.93 25.53L38.63 23.23L40.93 20.92" />
			<path id="Path" class="shp3" d="M23.92 2.5L23.92 8.72" />
			<path id="Path" class="shp3" d="M26.22 6.41L23.92 8.72L21.62 6.41" />
		</g>
	</g>
</svg>