<svg xmlns="http://www.w3.org/2000/svg" viewBox="0 0 46 52" width="46" height="52">
	<defs>
		<clipPath clipPathUnits="userSpaceOnUse" id="cp1">
			<path d="M-247 -1494L1193 -1494L1193 3640L-247 3640Z" />
		</clipPath>
	</defs>
	<style>
		tspan { white-space:pre }
		.shp0 { fill: #ffffff } 
		.shp1 { fill: #6980ff } 
	</style>
	<g id="Become Partner Advisor" clip-path="url(#cp1)">
		<g id="01_exceed">
			<path id="Path" class="shp0" d="M5.87 50.81C5.69 50.81 5.53 50.72 5.42 50.58C5.32 50.43 5.29 50.25 5.34 50.08L10.56 34.33C10.63 34.11 10.84 33.96 11.07 33.96L17.18 33.96C17.35 33.95 17.52 34.04 17.63 34.18C17.73 34.33 17.76 34.51 17.7 34.68L12.49 50.43C12.42 50.65 12.21 50.8 11.97 50.81L5.87 50.81Z" />
			<path id="Shape" fill-rule="evenodd" class="shp1" d="M17.18 34.51L11.97 50.25L5.87 50.25L11.07 34.51L17.18 34.51ZM11.07 33.4C10.59 33.4 10.17 33.71 10.02 34.16L4.82 49.9C4.7 50.24 4.76 50.62 4.97 50.91C5.18 51.2 5.52 51.37 5.87 51.37L11.97 51.37C12.45 51.37 12.87 51.06 13.02 50.61L18.23 34.86C18.34 34.52 18.28 34.15 18.07 33.86C17.87 33.57 17.53 33.4 17.18 33.4L11.07 33.4Z" />
			<path id="Path" class="shp0" d="M29.54 50.81C29.31 50.8 29.09 50.65 29.02 50.43L23.82 34.68C23.77 34.51 23.8 34.33 23.9 34.18C24 34.04 24.17 33.95 24.35 33.96L30.43 33.96C30.67 33.96 30.88 34.11 30.96 34.33L36.17 50.08C36.22 50.25 36.19 50.43 36.09 50.58C35.98 50.72 35.82 50.81 35.64 50.81L29.54 50.81Z" />
			<path id="Shape" fill-rule="evenodd" class="shp1" d="M30.43 34.51L35.64 50.25L29.54 50.25L24.34 34.51L30.43 34.51ZM30.43 33.4L24.34 33.4C23.98 33.4 23.65 33.57 23.44 33.86C23.22 34.15 23.17 34.53 23.29 34.87L28.49 50.61C28.64 51.06 29.07 51.37 29.54 51.37L35.64 51.37C36 51.37 36.33 51.2 36.54 50.91C36.75 50.62 36.8 50.25 36.69 49.91L31.49 34.16C31.34 33.71 30.91 33.4 30.43 33.4Z" />
			<path id="Path" class="shp0" d="M20.76 43.11C12.58 43.11 5.22 38.19 2.09 30.64C-1.04 23.09 0.69 14.4 6.47 8.62C12.25 2.85 20.94 1.12 28.49 4.25C36.04 7.37 40.96 14.74 40.96 22.91C40.94 34.06 31.91 43.1 20.76 43.11Z" />
			<path id="Shape" fill-rule="evenodd" class="shp1" d="M20.76 3.26C31.61 3.26 40.4 12.05 40.4 22.91C40.4 33.76 31.61 42.55 20.76 42.55C9.9 42.55 1.11 33.76 1.11 22.91C1.11 12.05 9.9 3.26 20.76 3.26ZM0 22.91C0 34.37 9.29 43.66 20.76 43.66C32.22 43.66 41.51 34.37 41.51 22.91C41.5 11.45 32.21 2.16 20.76 2.15C9.29 2.15 0 11.44 0 22.91Z" />
			<path id="Path" class="shp1" d="M20.76 37.83C14.72 37.83 9.27 34.2 6.96 28.62C4.65 23.04 5.93 16.61 10.2 12.34C14.47 8.07 20.89 6.8 26.47 9.11C32.05 11.42 35.69 16.87 35.69 22.91C35.68 31.15 29 37.83 20.76 37.83Z" />
			<path id="Shape" fill-rule="evenodd" class="shp1" d="M20.76 8.53C28.7 8.53 35.13 14.97 35.13 22.91C35.13 30.85 28.69 37.28 20.75 37.28C12.81 37.28 6.37 30.85 6.37 22.91C6.37 19.09 7.89 15.44 10.59 12.74C13.28 10.04 16.94 8.53 20.76 8.53ZM20.76 7.42C14.49 7.42 8.85 11.19 6.45 16.98C4.05 22.76 5.37 29.43 9.8 33.85C14.23 38.28 20.89 39.61 26.68 37.21C32.46 34.82 36.24 29.17 36.24 22.91C36.23 14.36 29.3 7.43 20.76 7.42Z" />
			<path id="Path" class="shp0" d="M20.76 32.42C15.5 32.42 11.24 28.16 11.24 22.91C11.24 17.65 15.5 13.39 20.76 13.39C26.01 13.39 30.27 17.65 30.27 22.91C30.27 28.16 26.01 32.42 20.76 32.42Z" />
			<path id="Shape" fill-rule="evenodd" class="shp1" d="M20.76 13.94C25.71 13.94 29.72 17.96 29.72 22.91C29.72 27.86 25.71 31.87 20.76 31.87C15.81 31.87 11.79 27.86 11.79 22.91C11.79 17.96 15.81 13.94 20.76 13.94ZM20.76 12.84C15.2 12.84 10.69 17.34 10.69 22.9C10.69 28.46 15.2 32.97 20.76 32.97C26.31 32.97 30.82 28.46 30.82 22.9C30.82 17.34 26.31 12.84 20.76 12.84Z" />
			<path id="Path" class="shp1" d="M20.76 27.09C19.06 27.09 17.53 26.07 16.88 24.51C16.24 22.94 16.59 21.14 17.79 19.94C18.99 18.74 20.8 18.38 22.36 19.03C23.93 19.68 24.95 21.21 24.95 22.91C24.94 25.22 23.07 27.09 20.76 27.09L20.76 27.09Z" />
			<path id="Shape" fill-rule="evenodd" class="shp1" d="M20.76 19.29C22.23 19.29 23.55 20.18 24.11 21.54C24.67 22.9 24.35 24.47 23.31 25.5C22.26 26.54 20.7 26.84 19.34 26.27C17.98 25.71 17.1 24.38 17.11 22.91C17.12 20.9 18.75 19.28 20.76 19.29ZM20.76 18.18C18.84 18.18 17.1 19.34 16.37 21.11C15.64 22.89 16.05 24.93 17.41 26.28C18.77 27.64 20.81 28.04 22.58 27.3C24.36 26.56 25.51 24.83 25.5 22.91C25.5 20.29 23.38 18.16 20.76 18.16L20.76 18.18Z" />
			<path id="Path" class="shp1" d="M20.76 23.72C20.41 23.73 20.11 23.51 19.99 23.19C19.87 22.87 19.96 22.51 20.22 22.29L38.42 6.49C38.57 6.36 38.76 6.29 38.95 6.29C39.19 6.29 39.42 6.39 39.57 6.57C39.87 6.91 39.83 7.43 39.49 7.73L21.29 23.52C21.14 23.65 20.95 23.73 20.76 23.72Z" />
			<path id="Shape" fill-rule="evenodd" class="shp0" d="M38.95 6.56C39.11 6.55 39.27 6.62 39.37 6.75C39.47 6.86 39.52 7 39.51 7.15C39.5 7.3 39.43 7.43 39.32 7.53L21.12 23.32C21.02 23.41 20.89 23.45 20.76 23.45C20.52 23.45 20.32 23.31 20.24 23.09C20.15 22.88 20.22 22.63 20.39 22.48L38.59 6.69C38.69 6.6 38.82 6.56 38.95 6.56M38.95 6.02C38.69 6.02 38.44 6.12 38.24 6.29L20.04 22.09C19.59 22.48 19.55 23.16 19.94 23.62C20.33 24.07 21.01 24.12 21.47 23.72L39.67 7.93C40.01 7.63 40.13 7.15 39.97 6.73C39.81 6.31 39.41 6.02 38.95 6.02L38.95 6.02Z" />
			<path id="Path" class="shp0" d="M40.91 8.55C40.87 8.55 40.83 8.55 40.78 8.54L38.33 7.95C38.1 7.89 37.93 7.68 37.91 7.44L37.71 4.92C37.7 4.74 37.77 4.57 37.9 4.46L41.73 1.19C41.83 1.1 41.96 1.05 42.09 1.05C42.15 1.05 42.21 1.06 42.27 1.08C42.45 1.15 42.59 1.31 42.63 1.51L43.04 3.49L44.93 4.19C45.12 4.26 45.25 4.42 45.28 4.61C45.32 4.81 45.25 5 45.1 5.13L41.27 8.4C41.17 8.49 41.05 8.55 40.91 8.55L40.91 8.55Z" />
			<path id="Shape" fill-rule="evenodd" class="shp1" d="M42.09 1.61L42.55 3.89L44.74 4.71L40.91 7.98L38.46 7.39L38.26 4.88L42.09 1.61ZM42.09 0.5C41.82 0.5 41.56 0.59 41.36 0.76L37.54 4.03C37.27 4.26 37.13 4.61 37.16 4.97L37.36 7.48C37.4 7.96 37.74 8.35 38.2 8.47L40.66 9.06C40.74 9.08 40.83 9.09 40.91 9.09C41.18 9.09 41.43 8.99 41.64 8.82L45.46 5.56C45.76 5.3 45.9 4.91 45.83 4.52C45.76 4.13 45.49 3.81 45.12 3.68L43.51 3.07L43.18 1.39C43.07 0.87 42.61 0.5 42.09 0.5Z" />
		</g>
	</g>
</svg>