<svg xmlns="http://www.w3.org/2000/svg" viewBox="0 0 56 51" width="56" height="51">
	<defs>
		<clipPath clipPathUnits="userSpaceOnUse" id="cp1">
			<path d="M-1143 -1493L297 -1493L297 3641L-1143 3641Z" />
		</clipPath>
	</defs>
	<style>
		tspan { white-space:pre }
		.shp0 { fill: #6980ff } 
		.shp1 { fill: #ffffff } 
		.shp2 { fill: none;stroke: #6980ff;stroke-width: 2.61 } 
	</style>
	<g id="Become Partner Advisor" clip-path="url(#cp1)">
		<g id="04_flexible">
			<path id="Oval" class="shp0" d="M27.97 39.44C37.77 39.44 45.72 31.49 45.72 21.69C45.72 11.89 37.77 3.94 27.97 3.94C18.17 3.94 10.22 11.89 10.22 21.69C10.22 31.49 18.17 39.44 27.97 39.44Z" />
			<path id="Path" class="shp0" d="M16.62 49.96L16.62 37.94C16.62 37.11 16.45 36.29 16.12 35.53C15.16 33.25 12.93 31.78 10.46 31.77L9.62 31.77L9.62 38.48L0.85 29.71L9.62 20.94L9.62 27.65L10.45 27.65C10.8 27.65 11.15 27.67 11.51 27.7C16.64 28.24 20.59 32.49 20.74 37.66C20.74 37.75 20.74 37.85 20.74 37.94L20.74 49.96L16.62 49.96Z" />
			<path id="Shape" fill-rule="evenodd" class="shp1" d="M9.1 22.19L9.1 28.16L10.45 28.16C10.78 28.16 11.12 28.18 11.45 28.21C16.33 28.72 20.08 32.77 20.22 37.67C20.22 37.76 20.22 37.85 20.22 37.94L20.22 49.44L17.13 49.44L17.13 37.94C17.13 34.25 14.14 31.26 10.45 31.26L9.1 31.26L9.1 37.23L1.58 29.71L9.1 22.19ZM10.13 19.69L8.39 21.43L0.85 28.98L0.12 29.71L0.85 30.44L8.39 37.96L10.13 39.7L10.13 32.29L10.45 32.29C11.36 32.28 12.25 32.5 13.06 32.92C14.23 33.52 15.15 34.52 15.67 35.73C15.96 36.43 16.11 37.18 16.11 37.94L16.11 50.47L21.26 50.47C21.26 50.37 21.26 37.73 21.26 37.61C21.09 32.2 16.94 27.74 11.55 27.19C11.19 27.15 10.82 27.13 10.45 27.13L10.13 27.13L10.13 19.69Z" />
			<path id="Path" class="shp0" d="M35.2 49.96L35.2 37.94C35.2 37.83 35.2 37.72 35.2 37.62C35.36 32.47 39.3 28.23 44.42 27.7C44.77 27.67 45.13 27.65 45.48 27.65L46.31 27.65L46.31 20.94L55.09 29.71L46.32 38.48L46.32 31.79L45.49 31.79C44.51 31.79 43.54 32.02 42.66 32.47C41.39 33.13 40.39 34.21 39.82 35.52C39.49 36.28 39.32 37.11 39.32 37.94L39.32 49.96L35.2 49.96Z" />
			<path id="Shape" fill-rule="evenodd" class="shp1" d="M46.83 22.19L54.35 29.71L46.83 37.23L46.83 31.26L45.49 31.26C44.43 31.26 43.38 31.51 42.44 32C40.22 33.15 38.83 35.44 38.83 37.94L38.83 49.44L35.71 49.44C35.71 49.35 35.71 37.76 35.71 37.67C35.85 32.77 39.6 28.72 44.48 28.21C44.81 28.18 45.15 28.16 45.48 28.16L46.83 28.16L46.83 22.19M45.82 27.13L45.5 27.13C45.13 27.13 44.76 27.15 44.39 27.19C39 27.75 34.86 32.2 34.69 37.61C34.69 37.73 34.69 37.84 34.69 37.94L34.69 50.47L39.84 50.47L39.84 37.94C39.83 37.18 39.98 36.43 40.27 35.73C40.79 34.52 41.72 33.53 42.88 32.92C43.69 32.5 44.59 32.28 45.49 32.29L45.82 32.29L45.82 39.72L47.56 37.98L55.09 30.44L55.83 29.71L55.09 28.98L47.56 21.46L45.82 19.71L45.82 27.13Z" />
			<path id="Path" class="shp0" d="M26.21 49.96L26.21 20.45L19.51 20.45L28.27 11.68L37.05 20.45L30.34 20.45L30.34 49.96L26.21 49.96L26.21 49.96Z" />
			<path id="Shape" fill-rule="evenodd" class="shp1" d="M28.27 12.41L35.81 19.93L29.82 19.93L29.82 49.44L26.72 49.44L26.72 19.93L20.75 19.93L28.27 12.41ZM28.27 10.95L27.54 11.68L20.02 19.2L18.28 20.94L25.69 20.94L25.69 50.45L30.85 50.45L30.85 20.96L38.29 20.96L36.55 19.22L29.01 11.68L28.27 10.95Z" />
			<path id="Path" class="shp2" d="M8.09 3.5L8.09 7.76" />
			<path id="Path" class="shp2" d="M10.22 5.63L5.96 5.63" />
			<path id="Path" class="shp2" d="M49.97 14.21L49.97 18.47" />
			<path id="Path" class="shp2" d="M52.1 16.34L47.84 16.34" />
		</g>
	</g>
</svg>