<svg xmlns="http://www.w3.org/2000/svg" viewBox="0 0 49 50" width="49" height="50">
	<defs>
		<clipPath clipPathUnits="userSpaceOnUse" id="cp1">
			<path d="M-1145 -1495L295 -1495L295 5961L-1145 5961Z" />
		</clipPath>
	</defs>
	<style>
		tspan { white-space:pre }
		.shp0 { fill: none;stroke: #6980ff;stroke-linecap:round;stroke-linejoin:round;stroke-width: 2 } 
		.shp1 { fill: #ffffff;stroke: #6980ff;stroke-linecap:round;stroke-linejoin:round;stroke-width: 2 } 
		.shp2 { fill: #ffffff;stroke: #6980ff;stroke-linejoin:round;stroke-width: 2 } 
		.shp3 { fill: #6980ff;stroke: #ffffff;stroke-linecap:round;stroke-linejoin:round;stroke-width: 2 } 
		.shp4 { fill: #6980ff } 
		.shp5 { fill: none;stroke: #6980ff;stroke-linecap:round;stroke-linejoin:round } 
		.shp6 { fill: #ffffff;stroke: #6980ff;stroke-linecap:round;stroke-linejoin:round } 
		.shp7 { fill: none;stroke: #ffffff;stroke-linecap:round;stroke-linejoin:round } 
	</style>
	<g id="Become Advisor" clip-path="url(#cp1)">
		<g id="04_FUN">
			<path id="Path" class="shp0" d="M32.2 46.33C29.8 47.27 27.25 47.74 24.68 47.74C23.7 47.74 22.71 47.67 21.74 47.53" />
			<path id="Path" class="shp0" d="M35.07 9.16C37.36 10.49 39.37 12.25 41 14.33" />
			<path id="Path" class="shp0" d="M5.14 20.24C6.55 16.23 9.14 12.76 12.58 10.28" />
			<path id="Oval" class="shp1" d="M24.68 45.06C34.62 45.06 42.68 37 42.68 27.06C42.68 17.11 34.62 9.06 24.68 9.06C14.74 9.06 6.68 17.11 6.68 27.06C6.68 37 14.74 45.06 24.68 45.06Z" />
			<path id="Path" class="shp2" d="M30.42 6.22C27.42 3.57 23 3.31 19.7 5.59C16.41 7.87 15.09 12.1 16.51 15.85C16.68 16.29 16.88 16.71 17.11 17.12C17.34 17.5 17.74 17.73 18.18 17.73L18.18 17.73C18.51 17.7 18.82 17.54 19.04 17.28C19.59 16.71 19.72 15.86 19.39 15.15C19.32 15 19.26 14.84 19.2 14.68C18.53 12.81 18.88 10.73 20.11 9.17C21.21 10.57 22.89 11.39 24.67 11.39C26.45 11.39 28.13 10.57 29.23 9.17C30.46 10.74 30.8 12.82 30.14 14.7C30.07 14.89 29.99 15.07 29.91 15.24C29.57 15.92 29.67 16.72 30.14 17.3C30.26 17.46 30.42 17.58 30.61 17.65L30.62 17.65C31.29 17.83 31.99 17.52 32.31 16.91C32.5 16.56 32.66 16.19 32.8 15.82C34.08 12.44 33.13 8.62 30.42 6.22Z" />
			<path id="Oval" class="shp3" d="M24.71 9.16C26.37 9.16 27.71 7.56 27.71 5.58C27.71 3.6 26.37 2 24.71 2C23.05 2 21.71 3.6 21.71 5.58C21.71 7.56 23.05 9.16 24.71 9.16Z" />
			<path id="Path" class="shp2" d="M40.03 42.41C43.78 41.02 46.1 37.25 45.66 33.28C45.22 29.3 42.13 26.14 38.16 25.6C37.7 25.54 37.23 25.51 36.76 25.53C36.32 25.54 35.93 25.79 35.72 26.17L35.72 26.17C35.59 26.48 35.59 26.84 35.72 27.15C35.96 27.89 36.64 28.4 37.42 28.44C37.59 28.44 37.76 28.47 37.92 28.5C39.88 28.8 41.55 30.09 42.34 31.92C40.59 32.22 39.07 33.31 38.22 34.88C37.38 36.45 37.3 38.32 38.01 39.95C36.05 40.29 34.05 39.59 32.72 38.12C32.59 37.97 32.47 37.82 32.34 37.66C31.91 37.04 31.16 36.74 30.42 36.89C30.23 36.92 30.05 37.01 29.9 37.14L29.9 37.14C29.42 37.64 29.35 38.4 29.74 38.98C30.53 40.2 31.62 41.2 32.9 41.89C35.09 43.07 37.69 43.26 40.03 42.41Z" />
			<path id="Oval" class="shp3" d="M46.45 39.38C47.24 37.92 46.47 35.98 44.73 35.04C42.99 34.1 40.94 34.52 40.15 35.98C39.36 37.44 40.13 39.38 41.87 40.32C43.61 41.26 45.66 40.84 46.45 39.38Z" />
			<path id="Path" class="shp2" d="M3.87 32.33C3.22 35.61 4.5 38.97 7.17 40.99C9.84 43.01 13.43 43.32 16.41 41.79C17.47 41.24 18.41 40.48 19.17 39.56C19.46 39.2 19.73 38.81 19.96 38.4C20.18 38.02 20.18 37.56 19.96 37.18L19.96 37.18C19.77 36.9 19.47 36.71 19.13 36.65C18.38 36.48 17.59 36.79 17.15 37.43C17.05 37.57 16.95 37.7 16.84 37.83C16.35 38.4 15.76 38.87 15.1 39.22C14.03 39.77 12.81 39.98 11.62 39.8C12.28 38.15 12.14 36.28 11.25 34.74C10.36 33.2 8.81 32.16 7.05 31.91C7.78 30.06 9.41 28.71 11.36 28.34C11.56 28.3 11.75 28.28 11.95 28.26C12.7 28.21 13.35 27.72 13.61 27.02C13.69 26.84 13.71 26.64 13.67 26.45C13.67 26.44 13.67 26.44 13.67 26.43C13.5 25.76 12.88 25.3 12.18 25.33C11.79 25.34 11.39 25.38 11 25.45C7.42 26.04 4.59 28.78 3.87 32.33Z" />
			<path id="Oval" class="shp3" d="M7.69 40.19C9.4 39.2 10.12 37.24 9.29 35.8C8.46 34.37 6.4 34.01 4.68 35C2.97 35.99 2.26 37.95 3.09 39.39C3.92 40.82 5.98 41.18 7.69 40.19Z" />
			<path id="Path" class="shp4" d="M29.39 24.18C29.4 21.96 27.86 20.03 25.69 19.55C23.52 19.07 21.31 20.16 20.38 22.18C19.45 24.2 20.05 26.59 21.83 27.93L21.83 30.02C21.83 30.67 22.36 31.2 23.01 31.2L26.34 31.2C26.66 31.2 26.96 31.08 27.18 30.86C27.4 30.63 27.53 30.33 27.52 30.02L27.52 27.93C28.7 27.04 29.39 25.65 29.39 24.18Z" />
			<path id="Path" class="shp5" d="M22.46 32.02L26.9 32.02" />
			<path id="Path" class="shp5" d="M22.93 32.83L26.43 32.83" />
			<path id="Path" class="shp6" d="M25.77 33.55C25.77 34.16 25.28 34.65 24.68 34.65C24.08 34.65 23.59 34.16 23.59 33.55L25.77 33.55Z" />
			<path id="Oval" class="shp7" d="M23.2 26.29C23.74 26.29 24.19 25.84 24.19 25.3C24.19 24.75 23.74 24.31 23.2 24.31C22.65 24.31 22.21 24.75 22.21 25.3C22.21 25.84 22.65 26.29 23.2 26.29Z" />
			<path id="Oval" class="shp7" d="M26.3 26.29C26.84 26.29 27.28 25.84 27.28 25.3C27.28 24.75 26.84 24.31 26.3 24.31C25.75 24.31 25.31 24.75 25.31 25.3C25.31 25.84 25.75 26.29 26.3 26.29Z" />
			<path id="Path" class="shp7" d="M23.2 26.29L26.3 26.29" />
			<path id="Path" class="shp7" d="M24.19 25.3L24.19 29.85" />
			<path id="Path" class="shp7" d="M25.31 25.3L25.31 29.85" />
		</g>
	</g>
</svg>