<svg xmlns="http://www.w3.org/2000/svg" viewBox="0 0 46 46" width="46" height="46">
	<defs>
		<clipPath clipPathUnits="userSpaceOnUse" id="cp1">
			<path d="M-845 -1497L595 -1497L595 5959L-845 5959Z" />
		</clipPath>
	</defs>
	<style>
		tspan { white-space:pre }
		.shp0 { fill: none;stroke: #6980ff;stroke-linecap:round;stroke-linejoin:round;stroke-width: 2 } 
		.shp1 { fill: #6980ff } 
	</style>
	<g id="Become Advisor" clip-path="url(#cp1)">
		<g id="03_IMPROVED">
			<path id="Path" class="shp0" d="M2.89 21.83C3.43 12.16 10.72 4.2 20.31 2.82" />
			<path id="Path" class="shp1" d="M4.63 19.92L2.91 21.54L1.29 19.81L1.24 21.23L2.86 22.96L4.59 21.34L4.63 19.92L4.63 19.92Z" />
			<path id="Path" class="shp0" d="M22.07 43.27C12.33 42.73 4.34 35.34 3.04 25.67" />
			<path id="Path" class="shp1" d="M20.16 41.53L21.78 43.25L20.06 44.87L21.48 44.92L23.2 43.3L21.58 41.57L20.16 41.53L20.16 41.53Z" />
			<path id="Path" class="shp0" d="M43.51 24.09C42.98 33.7 35.79 41.62 26.27 43.08" />
			<path id="Path" class="shp1" d="M41.77 26L43.5 24.38L45.12 26.1L45.16 24.68L43.54 22.96L41.82 24.58L41.77 26L41.77 26Z" />
			<path id="Path" class="shp0" d="M24.33 2.65C34.25 3.2 42.32 10.83 43.42 20.7" />
			<path id="Path" class="shp1" d="M26.24 4.39L24.62 2.66L26.35 1.04L24.93 1L23.2 2.62L24.82 4.34L26.24 4.39L26.24 4.39Z" />
			<path id="Path" class="shp1" d="M13.46 25.51L13.46 31.43L9.65 31.43L9.65 25.84C10.93 25.83 12.2 25.72 13.46 25.51L13.46 25.51Z" />
			<path id="Path" class="shp1" d="M20.12 23.69L20.12 31.42L16.31 31.42L16.31 24.93C17.6 24.59 18.87 24.18 20.12 23.69L20.12 23.69Z" />
			<path id="Path" class="shp1" d="M26.78 20.16L26.78 31.42L22.97 31.42L22.97 22.42C23.44 22.19 23.89 21.92 24.35 21.68C24.86 21.37 25.38 21.08 25.88 20.75C26.19 20.56 26.48 20.37 26.78 20.16Z" />
			<path id="Path" class="shp1" d="M33.44 14.32L33.44 31.42L29.63 31.42L29.63 17.97C30.94 16.84 32.17 15.62 33.31 14.32L33.44 14.32Z" />
			<path id="Path" class="shp1" d="M9.03 24.68C11.39 24.6 13.73 24.21 15.99 23.53C18.25 22.86 20.42 21.95 22.48 20.81C22.99 20.54 23.49 20.23 23.99 19.93C24.5 19.63 24.98 19.3 25.45 18.95C26.41 18.28 27.32 17.56 28.2 16.79C29.95 15.24 31.54 13.53 32.96 11.68L33.92 12.45C32.38 14.29 30.66 15.98 28.8 17.49C27.86 18.24 26.89 18.94 25.88 19.59C25.39 19.92 24.86 20.21 24.35 20.52C23.84 20.82 23.3 21.1 22.76 21.35C20.63 22.42 18.39 23.24 16.07 23.82C13.77 24.41 11.41 24.7 9.03 24.68L9.03 24.68Z" />
			<path id="Path" class="shp1" d="M35.61 9.34L34.12 14.43L33.27 12.27L30.98 11.93L35.61 9.34L35.61 9.34Z" />
		</g>
	</g>
</svg>