<svg xmlns="http://www.w3.org/2000/svg" viewBox="0 0 42 45" width="42" height="45">
	<defs>
		<clipPath clipPathUnits="userSpaceOnUse" id="cp1">
			<path d="M-548 -1497L892 -1497L892 3637L-548 3637Z" />
		</clipPath>
	</defs>
	<style>
		tspan { white-space:pre }
		.shp0 { fill: #6980ff } 
		.shp1 { fill: #ffffff } 
		.shp2 { fill: none;stroke: #6980ff;stroke-linecap:round;stroke-linejoin:round;stroke-width: 1.8 } 
	</style>
	<g id="Become Partner Advisor" clip-path="url(#cp1)">
		<g id="02_improve_revisi">
			<path id="_Rectangle_" class="shp0" d="M25.85 1L26.28 1L26.28 11.91L25.85 11.91L25.85 1Z" />
			<path id="_Path_" class="shp0" d="M26.26 1.46C26.26 1.46 30.16 1.06 29.91 1.82C29.65 2.58 32.4 2.65 33.72 2.29C33.72 2.29 33.42 3.45 33.14 5.05C32.86 6.65 28.42 5.7 28.78 5.05C29.14 4.39 26.29 4.68 26.29 4.68L26.26 1.46Z" />
			<path id="Path" class="shp0" d="M0.64 44.67C0.56 44.67 0.47 44.62 0.43 44.55C0.39 44.47 0.38 44.37 0.42 44.3L13.84 17.63C13.89 17.54 13.98 17.49 14.07 17.49C14.17 17.49 14.26 17.54 14.31 17.63L27.74 44.3C27.78 44.38 27.78 44.47 27.73 44.55C27.68 44.63 27.59 44.68 27.5 44.67L0.64 44.67Z" />
			<path id="Shape" fill-rule="evenodd" class="shp1" d="M14.07 17.75L27.5 44.41L0.64 44.41L14.07 17.75ZM14.07 17.23C13.89 17.23 13.71 17.33 13.62 17.5L0.18 44.18C0.1 44.34 0.1 44.53 0.2 44.69C0.29 44.84 0.46 44.93 0.64 44.93L27.5 44.93C27.68 44.94 27.85 44.84 27.95 44.69C28.04 44.53 28.05 44.34 27.97 44.18L14.54 17.5C14.45 17.33 14.27 17.21 14.07 17.21L14.07 17.23Z" />
			<path id="Path" class="shp0" d="M11.19 44.64C11.11 44.64 11.03 44.6 10.99 44.54C10.95 44.47 10.94 44.39 10.97 44.31L25.84 9.17C25.88 9.08 25.97 9.02 26.06 9.02L26.06 9.02C26.16 9.02 26.25 9.08 26.28 9.17L41.16 44.31C41.19 44.39 41.18 44.47 41.14 44.54C41.09 44.6 41.02 44.64 40.94 44.64L11.19 44.64Z" />
			<path id="Shape" fill-rule="evenodd" class="shp1" d="M26.06 9.26L26.1 9.36L40.94 44.41L11.19 44.41L26.06 9.26ZM26.06 8.79C25.87 8.79 25.7 8.91 25.62 9.09L10.75 44.22C10.68 44.37 10.7 44.54 10.79 44.67C10.88 44.8 11.03 44.88 11.19 44.88L40.94 44.88C41.1 44.88 41.25 44.8 41.33 44.67C41.42 44.54 41.44 44.37 41.38 44.22L26.54 9.17L26.5 9.08C26.43 8.9 26.26 8.78 26.06 8.78L26.06 8.79Z" />
			<path id="Path" class="shp1" d="M28.25 27.48C27.38 27.48 26.57 27.9 26.06 28.6C25.38 27.65 24.15 27.25 23.04 27.62C21.93 27.98 21.17 29.02 21.18 30.19C21.18 32.46 26.06 36.12 26.06 36.12C26.06 36.12 30.95 32.46 30.95 30.19C30.95 29.47 30.67 28.78 30.16 28.28C29.65 27.77 28.96 27.48 28.25 27.48Z" />
			<path id="Path" class="shp2" d="M3.35 29.54L13.04 10.77L16.07 17.79L20.79 7.48" />
			<path id="Path" class="shp0" d="M22.91 9.32L22.41 3.95L18.01 7.07L22.91 9.32L22.91 9.32Z" />
		</g>
	</g>
</svg>