<svg xmlns="http://www.w3.org/2000/svg" xmlns:xlink="http://www.w3.org/1999/xlink" viewBox="0 0 911.23 640.18"><defs><style>.cls-1,.cls-104,.cls-16,.cls-17,.cls-18,.cls-87{fill:none;}.cls-2{isolation:isolate;}.cls-3{fill:url(#linear-gradient);}.cls-4{fill:url(#linear-gradient-2);}.cls-5{fill:url(#linear-gradient-3);}.cls-102,.cls-45,.cls-6,.cls-7,.cls-8,.cls-93{fill:#fff;}.cls-6{opacity:0.13;}.cls-8{opacity:0.33;}.cls-9{fill:url(#linear-gradient-4);}.cls-10{fill:url(#linear-gradient-5);}.cls-11{fill:url(#linear-gradient-6);}.cls-12{fill:url(#linear-gradient-7);}.cls-13{fill:url(#linear-gradient-8);}.cls-14{fill:url(#linear-gradient-9);}.cls-15{opacity:0.09;fill:url(#linear-gradient-10);}.cls-16,.cls-17,.cls-18{stroke:#fff;stroke-width:2px;}.cls-104,.cls-16,.cls-17,.cls-18{stroke-linecap:round;stroke-linejoin:round;}.cls-17{stroke-dasharray:11.37 11.37;}.cls-18{stroke-dasharray:12.07 12.07;}.cls-19{fill:#a78bf7;}.cls-20{fill:#d6d6fd;}.cls-21{fill:url(#linear-gradient-11);}.cls-22{fill:url(#linear-gradient-12);}.cls-23{fill:url(#linear-gradient-13);}.cls-24{fill:url(#linear-gradient-14);}.cls-25{fill:url(#linear-gradient-15);}.cls-26{fill:url(#linear-gradient-16);}.cls-27{fill:#a587f7;opacity:0.64;}.cls-28{fill:url(#linear-gradient-17);}.cls-29{fill:url(#linear-gradient-18);}.cls-30{fill:url(#linear-gradient-19);}.cls-31{fill:url(#linear-gradient-20);}.cls-32{fill:url(#linear-gradient-21);}.cls-33{fill:url(#linear-gradient-22);}.cls-34{fill:url(#linear-gradient-23);}.cls-35{fill:url(#linear-gradient-24);}.cls-36{fill:url(#linear-gradient-25);}.cls-37{fill:url(#linear-gradient-26);}.cls-38{fill:url(#linear-gradient-27);}.cls-39,.cls-45{opacity:0.1;}.cls-39,.cls-45,.cls-79,.cls-93{mix-blend-mode:overlay;}.cls-40{fill:url(#linear-gradient-28);}.cls-41{fill:url(#linear-gradient-29);}.cls-42{clip-path:url(#clip-path);}.cls-43{fill:url(#linear-gradient-30);}.cls-44{fill:url(#linear-gradient-31);}.cls-46{fill:url(#linear-gradient-32);}.cls-47{fill:url(#linear-gradient-33);}.cls-48{fill:url(#linear-gradient-34);}.cls-49{fill:url(#linear-gradient-35);}.cls-50,.cls-52,.cls-56{opacity:0.68;}.cls-50{fill:url(#linear-gradient-36);}.cls-51{fill:url(#linear-gradient-37);}.cls-53{fill:url(#linear-gradient-38);}.cls-54{fill:url(#linear-gradient-39);}.cls-55{fill:url(#linear-gradient-40);}.cls-56{fill:url(#linear-gradient-41);}.cls-57{fill:url(#linear-gradient-42);}.cls-58{fill:url(#linear-gradient-43);}.cls-104,.cls-59,.cls-60{opacity:0.3;}.cls-59{fill:url(#linear-gradient-44);}.cls-60{fill:url(#linear-gradient-45);}.cls-61{fill:url(#linear-gradient-46);}.cls-62{fill:url(#linear-gradient-47);}.cls-63{opacity:0.53;fill:url(#linear-gradient-48);}.cls-64{fill:url(#linear-gradient-49);}.cls-65{fill:#e6cbbc;}.cls-66{fill:#2800a2;}.cls-67{fill:url(#linear-gradient-50);}.cls-68{fill:url(#linear-gradient-51);}.cls-69{fill:#666;}.cls-70{fill:url(#linear-gradient-52);}.cls-71{fill:url(#linear-gradient-53);}.cls-72{fill:url(#linear-gradient-54);}.cls-73{fill:url(#linear-gradient-55);}.cls-74{fill:url(#linear-gradient-56);}.cls-75{fill:url(#linear-gradient-57);}.cls-76{fill:url(#linear-gradient-58);}.cls-77{fill:url(#linear-gradient-59);}.cls-78{fill:url(#linear-gradient-60);}.cls-79{opacity:0.15;}.cls-80{fill:url(#linear-gradient-61);}.cls-81{fill:url(#linear-gradient-62);}.cls-82{fill:#f5f2ff;}.cls-83{fill:#fafafa;}.cls-84{fill:url(#linear-gradient-63);}.cls-85{fill:url(#linear-gradient-64);}.cls-86{fill:url(#linear-gradient-65);}.cls-87{stroke:#ccc;stroke-miterlimit:10;}.cls-88{fill:url(#linear-gradient-66);}.cls-89{clip-path:url(#clip-path-2);}.cls-90{fill:url(#linear-gradient-67);}.cls-91{fill:#ebe5fc;}.cls-92{fill:url(#linear-gradient-68);}.cls-93{opacity:0.16;}.cls-94{fill:url(#linear-gradient-69);}.cls-95{fill:url(#linear-gradient-70);}.cls-96{fill:url(#linear-gradient-71);}.cls-97{fill:url(#linear-gradient-72);}.cls-98{fill:#999;}.cls-99{fill:url(#linear-gradient-73);}.cls-100{fill:url(#linear-gradient-74);}.cls-101{fill:url(#linear-gradient-75);}.cls-102{fill-rule:evenodd;}.cls-103{fill:#f2f2f2;}.cls-104{stroke:#5e8bff;}.cls-105{fill:#fbfaff;}.cls-106,.cls-107{opacity:0.71;}.cls-106{fill:url(#linear-gradient-76);}.cls-107{fill:url(#linear-gradient-77);}.cls-108{fill:url(#linear-gradient-78);}.cls-109{fill:url(#linear-gradient-79);}.cls-110{fill:url(#linear-gradient-80);}</style><linearGradient id="linear-gradient" x1="461.25" y1="3.26" x2="417.78" y2="337.05" gradientUnits="userSpaceOnUse"><stop offset="0" stop-color="#b2a2ff"/><stop offset="1" stop-color="#5c79ff"/></linearGradient><linearGradient id="linear-gradient-2" x1="140.26" y1="33.26" x2="837.52" y2="594.1" xlink:href="#linear-gradient"/><linearGradient id="linear-gradient-3" x1="186.85" y1="-339.83" x2="172.91" y2="-219.23" gradientTransform="translate(855.66 688.13) rotate(-46.31)" gradientUnits="userSpaceOnUse"><stop offset="0" stop-color="#fff" stop-opacity="0"/><stop offset="1" stop-color="#fff"/></linearGradient><linearGradient id="linear-gradient-4" x1="398" y1="113.22" x2="384.05" y2="233.82" gradientTransform="matrix(-0.78, 0.62, -0.62, -0.78, 857.43, 104.03)" xlink:href="#linear-gradient-3"/><linearGradient id="linear-gradient-5" x1="447.75" y1="217.93" x2="713.01" y2="628.46" gradientTransform="matrix(1, 0, 0, 1, 0, 0)" xlink:href="#linear-gradient-3"/><linearGradient id="linear-gradient-6" x1="738.57" y1="207.04" x2="863.62" y2="-48.12" gradientTransform="matrix(1, 0, 0, 1, 0, 0)" xlink:href="#linear-gradient-3"/><linearGradient id="linear-gradient-7" x1="152.63" y1="305.42" x2="8.63" y2="587.11" gradientTransform="matrix(1, 0, 0, 1, 0, 0)" xlink:href="#linear-gradient-3"/><linearGradient id="linear-gradient-8" y1="324.11" x2="238.57" y2="324.11" gradientUnits="userSpaceOnUse"><stop offset="0" stop-color="#ff8900"/><stop offset="1" stop-color="#ffd865"/></linearGradient><linearGradient id="linear-gradient-9" x1="372" y1="183.57" x2="486.8" y2="183.57" gradientTransform="translate(795.04 158.08) rotate(172.67)" xlink:href="#linear-gradient-8"/><linearGradient id="linear-gradient-10" x1="118.98" y1="424.42" x2="284.1" y2="236.96" gradientTransform="matrix(1, 0, 0, 1, 0, 0)" xlink:href="#linear-gradient-3"/><linearGradient id="linear-gradient-11" x1="936.99" y1="242.52" x2="754.68" y2="158.73" gradientUnits="userSpaceOnUse"><stop offset="0" stop-color="#a587f7"/><stop offset="1" stop-color="#e6efff"/></linearGradient><linearGradient id="linear-gradient-12" x1="904.97" y1="305.95" x2="805.18" y2="134.8" xlink:href="#linear-gradient-11"/><linearGradient id="linear-gradient-13" x1="812.43" y1="209.63" x2="838.96" y2="163.21" gradientTransform="matrix(1, 0, 0, 1, 0, 0)" xlink:href="#linear-gradient-3"/><linearGradient id="linear-gradient-14" x1="862.23" y1="212.65" x2="863.49" y2="181.23" gradientTransform="matrix(1, 0, 0, 1, 0, 0)" xlink:href="#linear-gradient-3"/><linearGradient id="linear-gradient-15" x1="861.75" y1="223.52" x2="863.81" y2="205.36" gradientTransform="matrix(1, 0, 0, 1, 0, 0)" xlink:href="#linear-gradient-3"/><linearGradient id="linear-gradient-16" x1="841.17" y1="242.84" x2="848.28" y2="225.31" gradientTransform="matrix(1, 0, 0, 1, 0, 0)" xlink:href="#linear-gradient-3"/><linearGradient id="linear-gradient-17" x1="179.85" y1="249.39" x2="211.55" y2="259.83" xlink:href="#linear-gradient-11"/><linearGradient id="linear-gradient-18" x1="171.62" y1="244.67" x2="184.32" y2="244.67" gradientUnits="userSpaceOnUse"><stop offset="0" stop-color="#0080e8"/><stop offset="1" stop-color="#2800a2"/></linearGradient><linearGradient id="linear-gradient-19" x1="171.62" y1="250.95" x2="184.32" y2="250.95" xlink:href="#linear-gradient-18"/><linearGradient id="linear-gradient-20" x1="772.66" y1="528.66" x2="890.95" y2="528.66" xlink:href="#linear-gradient"/><linearGradient id="linear-gradient-21" x1="368.03" y1="76.69" x2="489.59" y2="76.69" gradientUnits="userSpaceOnUse"><stop offset="0" stop-color="#2800a2"/><stop offset="1" stop-color="#895bec"/></linearGradient><linearGradient id="linear-gradient-22" x1="459.09" y1="98.24" x2="515.29" y2="98.24" xlink:href="#linear-gradient-11"/><linearGradient id="linear-gradient-23" x1="185.15" y1="341.51" x2="200.83" y2="341.51" gradientUnits="userSpaceOnUse"><stop offset="0" stop-color="#4286ff"/><stop offset="1" stop-color="#6637b0"/></linearGradient><linearGradient id="linear-gradient-24" x1="180.49" y1="330.97" x2="192.99" y2="330.97" gradientUnits="userSpaceOnUse"><stop offset="0" stop-color="#fab6b6"/><stop offset="1" stop-color="#ffead6"/></linearGradient><linearGradient id="linear-gradient-25" x1="228.42" y1="412.9" x2="278.78" y2="383.8" gradientUnits="userSpaceOnUse"><stop offset="0" stop-color="#0080e8"/><stop offset="1" stop-color="#cfc2fe"/></linearGradient><linearGradient id="linear-gradient-26" x1="295.89" y1="621.65" x2="475.92" y2="621.65" xlink:href="#linear-gradient-23"/><linearGradient id="linear-gradient-27" x1="551.44" y1="606" x2="224.68" y2="341.9" xlink:href="#linear-gradient-11"/><linearGradient id="linear-gradient-28" x1="322.61" y1="323.94" x2="418.4" y2="323.94" xlink:href="#linear-gradient-23"/><linearGradient id="linear-gradient-29" x1="135.95" y1="343.51" x2="154.75" y2="331.8" gradientUnits="userSpaceOnUse"><stop offset="0" stop-color="#e5eeff"/><stop offset="1" stop-color="#b2c4ff"/></linearGradient><clipPath id="clip-path"><polygon class="cls-1" points="171.21 364.41 139.14 307.78 161.33 306.61 193.4 363.25 171.21 364.41"/></clipPath><linearGradient id="linear-gradient-30" x1="139.72" y1="335.51" x2="192.82" y2="335.51" xlink:href="#linear-gradient-29"/><linearGradient id="linear-gradient-31" x1="145.91" y1="347.78" x2="199.5" y2="347.78" xlink:href="#linear-gradient-24"/><linearGradient id="linear-gradient-32" x1="174.21" y1="385.26" x2="224.41" y2="385.26" xlink:href="#linear-gradient-23"/><linearGradient id="linear-gradient-33" x1="340.98" y1="352.28" x2="348.44" y2="352.28" xlink:href="#linear-gradient-23"/><linearGradient id="linear-gradient-34" x1="431.47" y1="350.11" x2="234.23" y2="503.7" xlink:href="#linear-gradient-25"/><linearGradient id="linear-gradient-35" x1="291.96" y1="530.23" x2="382.91" y2="530.23" xlink:href="#linear-gradient-23"/><linearGradient id="linear-gradient-36" x1="295.89" y1="533.5" x2="379.42" y2="533.5" xlink:href="#linear-gradient-23"/><linearGradient id="linear-gradient-37" x1="342.06" y1="531.33" x2="297.67" y2="594.37" xlink:href="#linear-gradient-29"/><linearGradient id="linear-gradient-38" x1="302.22" y1="536.63" x2="314.27" y2="536.63" xlink:href="#linear-gradient-23"/><linearGradient id="linear-gradient-39" x1="316.06" y1="541.4" x2="325.42" y2="541.4" xlink:href="#linear-gradient-23"/><linearGradient id="linear-gradient-40" x1="329.63" y1="542.69" x2="336.95" y2="542.69" xlink:href="#linear-gradient-23"/><linearGradient id="linear-gradient-41" x1="345.31" y1="540.52" x2="349.28" y2="540.52" xlink:href="#linear-gradient-23"/><linearGradient id="linear-gradient-42" x1="354.01" y1="536.95" x2="360.92" y2="536.95" xlink:href="#linear-gradient-23"/><linearGradient id="linear-gradient-43" x1="361.61" y1="531.07" x2="373.34" y2="531.07" xlink:href="#linear-gradient-23"/><linearGradient id="linear-gradient-44" x1="345.16" y1="427.52" x2="362.69" y2="413.35" xlink:href="#linear-gradient-23"/><linearGradient id="linear-gradient-45" x1="338.6" y1="473.01" x2="377.77" y2="444.66" xlink:href="#linear-gradient-23"/><linearGradient id="linear-gradient-46" x1="287.15" y1="230.96" x2="418.57" y2="230.96" xlink:href="#linear-gradient-21"/><linearGradient id="linear-gradient-47" x1="428.97" y1="319.88" x2="330.21" y2="298.06" xlink:href="#linear-gradient-24"/><linearGradient id="linear-gradient-48" x1="420.95" y1="314.67" x2="353.77" y2="287.24" gradientUnits="userSpaceOnUse"><stop offset="0" stop-color="#ffdcd0"/><stop offset="1" stop-color="#eb7b7e"/></linearGradient><linearGradient id="linear-gradient-49" x1="433.12" y1="259.87" x2="343.88" y2="271.34" xlink:href="#linear-gradient-24"/><linearGradient id="linear-gradient-50" x1="317.16" y1="252.14" x2="333.58" y2="229.95" gradientUnits="userSpaceOnUse"><stop offset="0" stop-color="#0b3d77"/><stop offset="1" stop-color="#895bec"/></linearGradient><linearGradient id="linear-gradient-51" x1="339.3" y1="246.79" x2="362.14" y2="246.79" xlink:href="#linear-gradient-50"/><linearGradient id="linear-gradient-52" x1="299.57" y1="423.66" x2="310.39" y2="423.66" xlink:href="#linear-gradient-23"/><linearGradient id="linear-gradient-53" x1="302.28" y1="473.57" x2="320.55" y2="454.36" gradientUnits="userSpaceOnUse"><stop offset="0" stop-color="#002bc9"/><stop offset="1" stop-color="#e6efff"/></linearGradient><linearGradient id="linear-gradient-54" x1="316.77" y1="473.71" x2="341.39" y2="444.43" xlink:href="#linear-gradient-53"/><linearGradient id="linear-gradient-55" x1="266.14" y1="406.55" x2="284.61" y2="405.06" xlink:href="#linear-gradient-53"/><linearGradient id="linear-gradient-56" x1="268.83" y1="415.65" x2="293.63" y2="389.35" xlink:href="#linear-gradient-53"/><linearGradient id="linear-gradient-57" x1="564.59" y1="296.7" x2="622.86" y2="296.7" gradientUnits="userSpaceOnUse"><stop offset="0" stop-color="#ffead6"/><stop offset="1" stop-color="#fab6b6"/></linearGradient><linearGradient id="linear-gradient-58" x1="792.04" y1="207.89" x2="800.09" y2="213.5" xlink:href="#linear-gradient-57"/><linearGradient id="linear-gradient-59" x1="791.97" y1="199.37" x2="810.52" y2="210.74" xlink:href="#linear-gradient-57"/><linearGradient id="linear-gradient-60" x1="798.86" y1="197.58" x2="808.09" y2="205.24" xlink:href="#linear-gradient-57"/><linearGradient id="linear-gradient-61" x1="761.28" y1="212.74" x2="829.18" y2="212.74" xlink:href="#linear-gradient-57"/><linearGradient id="linear-gradient-62" x1="748.41" y1="246.06" x2="788.02" y2="246.06" gradientUnits="userSpaceOnUse"><stop offset="0" stop-color="#cfdfff"/><stop offset="1" stop-color="#91abff"/></linearGradient><linearGradient id="linear-gradient-63" x1="498.06" y1="453.66" x2="687.79" y2="453.66" xlink:href="#linear-gradient-29"/><linearGradient id="linear-gradient-64" x1="623.88" y1="345.67" x2="665.33" y2="345.67" xlink:href="#linear-gradient-62"/><linearGradient id="linear-gradient-65" x1="634.68" y1="428.53" x2="497.31" y2="340.43" xlink:href="#linear-gradient-62"/><linearGradient id="linear-gradient-66" x1="730.95" y1="319.64" x2="725.48" y2="317.12" xlink:href="#linear-gradient-29"/><clipPath id="clip-path-2"><polygon class="cls-1" points="699.26 357.93 735.46 294.01 710.4 292.7 674.21 356.62 699.26 357.93"/></clipPath><linearGradient id="linear-gradient-67" x1="726.98" y1="334.36" x2="699.4" y2="323.1" xlink:href="#linear-gradient-29"/><linearGradient id="linear-gradient-68" x1="675.93" y1="338.55" x2="723.68" y2="338.55" xlink:href="#linear-gradient-57"/><linearGradient id="linear-gradient-69" x1="661.7" y1="364.81" x2="702.85" y2="364.81" xlink:href="#linear-gradient-62"/><linearGradient id="linear-gradient-70" x1="517.43" y1="272.77" x2="516.48" y2="139.2" gradientUnits="userSpaceOnUse"><stop offset="0" stop-color="#001456"/><stop offset="1" stop-color="#5800a2"/></linearGradient><linearGradient id="linear-gradient-71" x1="527.89" y1="297.74" x2="624.52" y2="199.21" xlink:href="#linear-gradient-70"/><linearGradient id="linear-gradient-72" x1="550.21" y1="254.04" x2="648.72" y2="254.04" xlink:href="#linear-gradient-57"/><linearGradient id="linear-gradient-73" x1="607.42" y1="279.95" x2="630.49" y2="279.95" gradientUnits="userSpaceOnUse"><stop offset="0" stop-color="#f27271"/><stop offset="1" stop-color="#e73c84"/></linearGradient><linearGradient id="linear-gradient-74" x1="593.51" y1="236.42" x2="615.91" y2="236.42" xlink:href="#linear-gradient-70"/><linearGradient id="linear-gradient-75" x1="621.87" y1="234.7" x2="644.38" y2="234.7" xlink:href="#linear-gradient-70"/><linearGradient id="linear-gradient-76" x1="589.89" y1="424.12" x2="569.26" y2="434.85" xlink:href="#linear-gradient-62"/><linearGradient id="linear-gradient-77" x1="603.32" y1="428.02" x2="586.69" y2="435.07" xlink:href="#linear-gradient-62"/><linearGradient id="linear-gradient-78" x1="841.89" y1="346.69" x2="627.15" y2="723.11" gradientTransform="matrix(1, 0, 0, 1, 0, 0)" xlink:href="#linear-gradient-3"/><linearGradient id="linear-gradient-79" x1="735.64" y1="497.38" x2="911.39" y2="497.38" gradientTransform="translate(217.41 1390.98) rotate(-91.94)" xlink:href="#linear-gradient-8"/><linearGradient id="linear-gradient-80" x1="302.8" y1="43.01" x2="409.32" y2="151.64" gradientTransform="matrix(1, 0, 0, 1, 0, 0)" xlink:href="#linear-gradient-3"/></defs><title>INTELIGENT</title><g class="cls-2"><g id="Layer_2" data-name="Layer 2"><g id="INTELIGENT"><path class="cls-3" d="M616,177.5A177.49,177.49,0,1,1,288.3,83q4.65-7.39,10-14.28A177.72,177.72,0,0,1,328,38.61q6.81-5.43,14.14-10.18A177.51,177.51,0,0,1,616,177.5Z"/><path class="cls-4" d="M881.81,321c0,.2,0,.39,0,.59q-.27,11.5-1.28,22.45-.79,8.83-2,17.3-1.43,9.66-3.4,18.83-2,9.42-4.61,18.33c-15.15,52.6-44,92.17-78.05,121a262.72,262.72,0,0,1-22.42,17,292.51,292.51,0,0,1-96.39,42.23c-8.36,2-16.51,3.5-24.33,4.59q-5.71.81-11.2,1.31a354.45,354.45,0,0,1-70.53-.39,369.31,369.31,0,0,1-41.66-6.91h0c-64.36-14.41-113-41.86-162.59-47.56-46.74-5.39-86.64-13.41-120.58-23.66a388.07,388.07,0,0,1-62-24.23,279.89,279.89,0,0,1-25.6-14.5c-27.3-17.46-47.24-37.56-61.39-59.54Q91.21,404,89,400.17C70.78,368.4,63.83,333,63.6,296.11c0-1.7,0-3.38.06-5.06a137.23,137.23,0,0,1,5-32.88c8.69-31.28,28.17-58.26,54.45-79.1C170.64,141.33,240.5,123.7,308.9,137c120.72,23.4,181.9-31.81,290.29-49.87q5.76-1,11.77-1.6C720,73.83,885.76,141.59,881.81,321Z"/><polygon class="cls-5" points="813.69 416.65 730.93 311.06 821.49 409.11 813.69 416.65"/><circle class="cls-6" cx="818.04" cy="413.34" r="14.52"/><circle class="cls-7" cx="818.04" cy="413.34" r="5.47"/><path class="cls-8" d="M816,402.68l-.35.08a10.79,10.79,0,0,0-7,5.12,10.94,10.94,0,0,0-.71,1.46,10.85,10.85,0,1,0,8-6.66ZM824.25,416a6.77,6.77,0,0,1-12.87-1.42,6.24,6.24,0,0,1-.11-1.05,6.62,6.62,0,0,1,1.24-4.14,6.75,6.75,0,0,1,4.24-2.74,6.57,6.57,0,0,1,2.5,0,6.72,6.72,0,0,1,5.43,5.37A6.62,6.62,0,0,1,824.25,416Z"/><path class="cls-8" d="M817.34,404.6c-.32,0-.64.08-1,.14a8.69,8.69,0,0,0-5.73,3.91,8.25,8.25,0,0,0-1.14,2.68,8.6,8.6,0,0,0-.07,3.68,8.76,8.76,0,1,0,7.9-10.41Zm5.8,10.67a5.46,5.46,0,1,1-9.4-5.29,5.45,5.45,0,0,1,9.4,5.29Z"/><polygon class="cls-9" points="414.94 156.29 482.78 272.04 406.19 162.72 414.94 156.29"/><circle class="cls-6" cx="410.19" cy="158.99" r="14.52"/><circle class="cls-7" cx="410.19" cy="158.99" r="5.47"/><path class="cls-8" d="M410.79,169.84l.36,0a10.74,10.74,0,0,0,7.6-4.14,9.55,9.55,0,0,0,.89-1.35,10.85,10.85,0,1,0-20.29-4.72A10.88,10.88,0,0,0,410.79,169.84Zm-6.39-14.35A6.77,6.77,0,0,1,417,158.62a5.25,5.25,0,0,1,0,1,6.58,6.58,0,0,1-1.78,3.94,6.77,6.77,0,0,1-10.74-8.12Z"/><path class="cls-8" d="M409.71,167.75c.32,0,.64,0,1,0a8.66,8.66,0,0,0,6.2-3.11,8.46,8.46,0,0,0,1.49-2.5,8.76,8.76,0,1,0-8.66,5.62Zm-4.32-11.35a5.47,5.47,0,0,1,10.26,2.29,5.51,5.51,0,0,1-5.16,5.76,5.45,5.45,0,0,1-4.29-1.73,5.38,5.38,0,0,1-1.47-3.42A5.31,5.31,0,0,1,405.39,156.4Z"/><path class="cls-10" d="M479.58,195.88a71.32,71.32,0,1,0,71.32,71.31A71.31,71.31,0,0,0,479.58,195.88Zm0,113.38a42.07,42.07,0,1,1,42.07-42.07A42.06,42.06,0,0,1,479.58,309.26Z"/><path class="cls-11" d="M881.81,321c0,.2,0,.39,0,.59-45.16-19.76-101.29-56-112.5-116.57C750,100.53,594.1,202,582.82,136.34,579,114.23,592,97.69,611,85.48,720,73.83,885.76,141.59,881.81,321Z"/><path class="cls-12" d="M194.65,387.31a100.61,100.61,0,0,1-39.59,80.09c-27.3-17.46-47.24-37.56-61.39-59.54Q91.21,404,89,400.17C70.78,368.4,63.83,333,63.6,296.11c0-1.7,0-3.38.06-5.06a100.93,100.93,0,0,1,131,96.26Z"/><path class="cls-13" d="M238.42,465.56c-1.25-6.83-12.54,1.31-20.35-2.74s-15.08,4.74-23.46-.23-13.06-11.52-21.84-10.94-6.12-11-23.55-19.75-25.73,1.52-40.38-7.62-23.48-32.8-19.58-41,.54-25-1.91-43.33,10.71-19.17,15.68-5.86,15.81,6.23,13.76-6.48-25.16-33.08-23.48-50.23,8.59-18.52,12.7-32.79-1.08-28.18,10.61-39.28,27.44-40.25,19.62-49.47-19.94,40.48-29.59,44.43-7.42,20-12.4,25.52-20,5.11-25.91,18.11-19.21,2.79-30.08,15.62,2.85,25.22-7.92,37-13.06,12-12.9,27.74-24.21,60.62-15.59,81,1.58,33.12,31.92,37.63,31.76,13.76,34.92,29.44,15.6,19.79,33.15,15,6.83,12.28,31,3.69,19.54-19.88,28.41-17.8,24.27-4.79,31.92,2.13,22.77-3.11,28.64-3.62S240,474.4,238.42,465.56ZM45.94,423.84c-8.66,4.59-19.17,2.11-18.2-4.32s-7.2-11.14-9.66-21.34,6.4-28,22-23.37S37.64,390.59,50,401.44C57.5,408.06,54.61,419.26,45.94,423.84Zm97.78,46.75c-6.2,9.56-20.78,5.74-25.13,1.29s-1.14-19.29,8.88-11.4,13.33-3.13,18.7.43S146.73,466,143.72,470.59Z"/><path class="cls-14" d="M291.09,53.53c3.38,5.94,10.62,4.22,20.83-6.88s20.21-15.83,32.3-5.43,17.18-15.49,30-11.88,29.56,1.9,28.05-9.09-16.42-8.47-26.78-4.08-11.66,2.94-20-.34-29.09-6.08-37.52,2.3-2.43,11.63-13,18.08S288.67,49.28,291.09,53.53Z"/><path class="cls-15" d="M170,172.69a174.62,174.62,0,0,0-46.93,6.38c-26.28,20.84-45.76,47.82-54.45,79.1A135,135,0,1,1,180.66,481.9a388.07,388.07,0,0,0,62,24.23A174.65,174.65,0,0,0,170,172.69Z"/><path class="cls-16" d="M200.44,212.74s1.06-1.87,3.1-5.14"/><path class="cls-17" d="M209.8,198.1c19.66-28.6,69.22-90.18,138.31-102"/><path class="cls-16" d="M353.75,95.3c2-.25,4-.47,6-.64"/><path class="cls-16" d="M748.61,209.05s-1.38-1.61-4-4.47"/><path class="cls-18" d="M736.32,195.83C706.18,164.92,624.49,90.1,534.82,83.76"/><path class="cls-16" d="M528.79,83.44q-3-.1-6-.1"/><polygon class="cls-19" points="905.41 293.9 891.95 298.82 891.95 294.51 899.58 290.34 905.41 293.9"/><polygon class="cls-20" points="821.87 123.24 810.66 127.54 816.92 130.68 821.87 123.24"/><path class="cls-21" d="M897.77,293.35,820.1,250a9,9,0,0,1-4.64-7.9V131.9A9.05,9.05,0,0,1,828.92,124l77.67,43.33a9.07,9.07,0,0,1,4.64,7.91V285.45A9,9,0,0,1,897.77,293.35Z"/><path class="cls-22" d="M885.35,297.94l-77.67-43.33A9.05,9.05,0,0,1,803,246.7V136.48a9,9,0,0,1,13.46-7.9l77.67,43.33a9.06,9.06,0,0,1,4.64,7.9V290A9.06,9.06,0,0,1,885.35,297.94Z"/><path class="cls-23" d="M833.36,210.59l-20.14-11.24a2.34,2.34,0,0,1-1.21-2V168.71a2.35,2.35,0,0,1,3.49-2.05l20.15,11.24a2.36,2.36,0,0,1,1.21,2v28.59A2.35,2.35,0,0,1,833.36,210.59Z"/><path class="cls-24" d="M878.64,207.2l-33.26-16.86a2,2,0,0,1-1.1-1.79v-2.87a2,2,0,0,1,2.91-1.79l33.26,16.87a2,2,0,0,1,1.09,1.78v2.88A2,2,0,0,1,878.64,207.2Z"/><path class="cls-25" d="M878.64,224.91l-33.26-16.86a2,2,0,0,1-1.1-1.79v-2.87a2,2,0,0,1,2.91-1.79l33.26,16.87a2,2,0,0,1,1.09,1.78v2.88A2,2,0,0,1,878.64,224.91Z"/><path class="cls-26" d="M871,249.91,817.9,221.19a2,2,0,0,1-1-1.76v-2.82a2,2,0,0,1,2.95-1.76l53.11,28.73a2,2,0,0,1,1.05,1.76v2.81A2,2,0,0,1,871,249.91Z"/><path class="cls-27" d="M185.89,218.37A33.35,33.35,0,0,0,166.74,279L162,301.18l18.78-16.5a32.88,32.88,0,0,0,5.09.39,33.35,33.35,0,1,0,0-66.7Z"/><path class="cls-28" d="M189,242.47h13.86a5,5,0,0,1,5,5v11.91a5,5,0,0,1-5,5h-2.36a5.52,5.52,0,0,0,2.49,6.57s-6,1.55-8.91-6.57H189a5,5,0,0,1-5-5V247.43A5,5,0,0,1,189,242.47Z"/><path class="cls-7" d="M201.89,250.78h-12a.34.34,0,0,1,0-.67h12a.34.34,0,0,1,0,.67Z"/><path class="cls-7" d="M201.89,257.06h-12a.33.33,0,1,1,0-.66h12a.33.33,0,1,1,0,.66Z"/><path class="cls-7" d="M184.9,236.69H171a5,5,0,0,0-5,5v11.9a5,5,0,0,0,5,5h2.35a5.53,5.53,0,0,1-2.48,6.58s6,1.55,8.9-6.58h5.09a5,5,0,0,0,5-5v-11.9A5,5,0,0,0,184.9,236.69Z"/><path class="cls-29" d="M184,245H172a.34.34,0,1,1,0-.67h12a.34.34,0,0,1,0,.67Z"/><path class="cls-30" d="M184,251.28H172a.33.33,0,1,1,0-.66h12a.33.33,0,0,1,0,.66Z"/><path class="cls-31" d="M875.76,453.79c33.41,7.47,9.68,117.89-51.37,144.42s-64.84-40.42-28.21-57.69,42.11-3.36,52.21-27.78S843.76,446.63,875.76,453.79Z"/><path class="cls-7" d="M412.18,29.53c34.61,0,50.85,15.24,69.1,30.48,30.54,25.51,9.21,59.17-2.13,56.3s-31.18-6.29-59.53,5c-24.28,9.68-41.65-.61-54.57-22.59C347.86,69.51,384.18,29.53,412.18,29.53Z"/><path class="cls-32" d="M414,34.66c30.84,0,45.31,13.42,61.58,26.84,27.22,22.47,8.21,52.11-1.9,49.58s-27.78-5.54-53.05,4.42C399,124,383.5,115,372,95.61,356.67,69.87,389,34.66,414,34.66Z"/><path class="cls-33" d="M468,121.38l-8-11.19a5,5,0,0,1,1.06-6.86l2.42-1.82a5,5,0,0,1,7.13,1.22l.65,1,32.34-28.15a7.1,7.1,0,0,1,10.15.85h0a6.7,6.7,0,0,1-.72,9.26l-40.53,36.23A3.07,3.07,0,0,1,468,121.38Z"/><path class="cls-7" d="M468.52,115.48l-5.3-7.45a2.51,2.51,0,0,1,.59-3.49h0a2.5,2.5,0,0,1,3.49.59l2.54,3.58a2.12,2.12,0,0,0,3.14.35L506.7,78.92a2.5,2.5,0,0,1,3.53.2h0a2.51,2.51,0,0,1-.19,3.53L472.77,116A2.86,2.86,0,0,1,468.52,115.48Z"/><path class="cls-7" d="M429.59,90.64h-23A4.63,4.63,0,0,1,401.94,86V61.66A4.63,4.63,0,0,1,406.56,57h23a4.63,4.63,0,0,1,4.62,4.62V86A4.63,4.63,0,0,1,429.59,90.64Zm-23-31.6a2.63,2.63,0,0,0-2.62,2.62V86a2.62,2.62,0,0,0,2.62,2.62h23A2.62,2.62,0,0,0,432.21,86V61.66A2.63,2.63,0,0,0,429.59,59Z"/><path class="cls-7" d="M425.37,86.05H410.78a4.44,4.44,0,0,1-4.44-4.44V66.07a4.44,4.44,0,0,1,4.44-4.44h14.59a4.44,4.44,0,0,1,4.44,4.44V81.61A4.44,4.44,0,0,1,425.37,86.05ZM410.78,63.63a2.44,2.44,0,0,0-2.44,2.44V81.61a2.44,2.44,0,0,0,2.44,2.44h14.59a2.44,2.44,0,0,0,2.44-2.44V66.07a2.44,2.44,0,0,0-2.44-2.44Z"/><polygon class="cls-7" points="456.58 68.79 433.21 68.79 433.21 66.79 455.57 66.79 460.53 60.04 462.14 61.22 456.58 68.79"/><rect class="cls-7" x="443.39" y="47.58" width="2" height="20.21"/><rect class="cls-7" x="438.18" y="52.16" width="6.21" height="2"/><polygon class="cls-7" points="467.85 91.4 455.73 77.74 433.21 77.74 433.21 75.74 456.63 75.74 469.35 90.07 467.85 91.4"/><polygon class="cls-7" points="453.77 92.06 444.49 82.37 433.21 82.37 433.21 80.37 445.34 80.37 455.22 90.68 453.77 92.06"/><rect class="cls-7" x="459.76" y="77.51" width="12.34" height="2" transform="translate(101.93 379.78) rotate(-49.18)"/><path class="cls-7" d="M386.65,85.89h-2V66.78h1c6.13.08,16.19.15,17.07,0l.09.61.42,1.32c-.52.17-6.11.19-16.6.06Z"/><path class="cls-7" d="M391,80.59h-2V70.52l1,0c4.51.07,11.95.15,12.72,0l.11.68.52,1.21c-.24.1-.67.28-12.37.09Z"/><rect class="cls-7" x="409.81" y="51.05" width="2" height="6.99"/><rect class="cls-7" x="417.08" y="51.05" width="2" height="6.99"/><rect class="cls-7" x="424.34" y="51.05" width="2" height="6.99"/><rect class="cls-7" x="422.44" y="89.64" width="2" height="10.88"/><polygon class="cls-7" points="414.18 108.86 412.5 107.77 417.39 100.23 417.39 89.64 419.39 89.64 419.39 100.82 414.18 108.86"/><polygon class="cls-7" points="409.86 104.19 408.18 103.1 411.81 97.51 411.81 89.64 413.81 89.64 413.81 98.1 409.86 104.19"/><path class="cls-7" d="M444.39,48.83a2.54,2.54,0,1,1,2.54-2.54A2.54,2.54,0,0,1,444.39,48.83Zm0-3.08a.54.54,0,0,0-.54.54.54.54,0,1,0,1.08,0A.54.54,0,0,0,444.39,45.75Z"/><path class="cls-7" d="M461.9,62.12a2.54,2.54,0,1,1,2.54-2.54A2.54,2.54,0,0,1,461.9,62.12Zm0-3.08a.54.54,0,1,0,.54.54A.54.54,0,0,0,461.9,59Z"/><path class="cls-7" d="M470.8,75.61a2.54,2.54,0,1,1,2.54-2.54A2.54,2.54,0,0,1,470.8,75.61Zm0-3.07a.54.54,0,1,0,0,1.07.54.54,0,1,0,0-1.07Z"/><path class="cls-7" d="M469.26,94.11a2.54,2.54,0,1,1,2.54-2.54A2.54,2.54,0,0,1,469.26,94.11Zm0-3.08a.54.54,0,0,0,0,1.08.54.54,0,1,0,0-1.08Z"/><path class="cls-7" d="M455.4,94.82a2.54,2.54,0,1,1,2.54-2.54A2.54,2.54,0,0,1,455.4,94.82Zm0-3.08a.54.54,0,0,0-.54.54.55.55,0,0,0,.54.54.54.54,0,0,0,.54-.54A.54.54,0,0,0,455.4,91.74Z"/><path class="cls-7" d="M423.44,104.6a2.54,2.54,0,1,1,2.54-2.53A2.54,2.54,0,0,1,423.44,104.6Zm0-3.07a.54.54,0,1,0,0,1.07.54.54,0,1,0,0-1.07Z"/><path class="cls-7" d="M412.81,111.9a2.54,2.54,0,1,1,2.54-2.54A2.54,2.54,0,0,1,412.81,111.9Zm0-3.08a.54.54,0,1,0,.54.54A.54.54,0,0,0,412.81,108.82Z"/><path class="cls-7" d="M408.44,107.08a2.54,2.54,0,1,1,2.54-2.54A2.54,2.54,0,0,1,408.44,107.08Zm0-3.08a.54.54,0,1,0,.54.54A.54.54,0,0,0,408.44,104Z"/><path class="cls-7" d="M437,55.7a2.54,2.54,0,1,1,2.54-2.54A2.54,2.54,0,0,1,437,55.7Zm0-3.08a.54.54,0,0,0-.54.54.55.55,0,0,0,.54.54.54.54,0,0,0,.54-.54A.54.54,0,0,0,437,52.62Z"/><path class="cls-34" d="M200.77,343.56s-4.75-10.57-13.64-6S202.17,351.4,200.77,343.56Z"/><path class="cls-35" d="M193,336.42s-2.23-11.24-12.5-14.12l.84,15.53,5.41,1.82Z"/><path class="cls-36" d="M320.09,352.29l-21,107.51-25.74-8.39-33.29-26L196.43,370l-1.78-25.34a26.54,26.54,0,0,1,14.56,2.1,33.62,33.62,0,0,1,10.17,6.8c12,11.55,56.51,46.65,56.51,46.65,1.68-4.48,7.55-4.2,7.55-4.2,4.76-12,28.8-48.23,28.8-48.23l1.59.91Z"/><path class="cls-37" d="M475.91,612a19.28,19.28,0,0,1-17.22,18.58c-6.25.68-13.68,1.46-21.87,2.27-27.56,2.76-63.59,6-91,7-19.42.72-34.54.35-39.32-2.05-13.19-6.62-11-22.53-9.19-29.86a37.2,37.2,0,0,1,1.13-3.81l26-.15,111.44-.63,39.13-.22.76,5.73A19.92,19.92,0,0,1,475.91,612Z"/><path class="cls-38" d="M475.91,612c-3.43,2.59-9.6,3.63-19.85,3.34-4.74-.14-11.76-.23-20.21-.29-27.72-.19-70.82,0-98.89.13-16.48.08-27.78.16-27.78.16s-6,0-11.91-7.42c-5.71-7.18-11.34-21.31-11.43-49.12,0-7,.29-14.94,1.06-23.84.08-.89.16-1.79.25-2.72q.64-6.78,1.24-13.48c1.93-21.43,3.58-42,5.2-60.77q.57-6.36,1.1-12.44c4.4-48.45,9.13-83.25,19.53-88.72a40.7,40.7,0,0,1-2.09-8.89c-1-8.26.13-20.11,13-25.66,1.11-.48,2.32-1,3.64-1.47,2.09-.81,4.42-1.64,6.93-2.5s5-1.67,7.76-2.52c.68-.22,1.38-.43,2.08-.64l2.26-.69c3.25-1,6.61-2,10-3,2.94-.85,5.89-1.67,8.83-2.49,3.44-.94,6.85-1.87,10.16-2.74,4.18-1.12,8.18-2.16,11.82-3.09l4.52-1.16,3.43-.87c1.72-.44,3.27-.83,4.63-1.15,3.59-.9,5.81-1.44,6.07-1.5h.06c1-.17,26.17-4.22,36.41,15.17,10.44,19.76,0,38.79,0,38.79s26.58,50.55,24.9,102.58.84,99,6.71,125.05C479.19,597,482.3,607.21,475.91,612Z"/><path class="cls-39" d="M422.89,323.39c-15.87,19-101,19-98.25,4.3.41-2.25,1.87-4.57,4.13-6.86,2.09-.81,4.42-1.64,6.93-2.5s5-1.67,7.76-2.52c.68-.22,1.38-.43,2.08-.64l2.26-.69c3.25-1,6.61-2,10-3,2.94-.85,5.89-1.67,8.83-2.49,3.44-.94,6.85-1.87,10.16-2.74,4.18-1.12,8.18-2.16,11.82-3.09l4.52-1.16a21.42,21.42,0,0,1,2.42.78S438.75,304.38,422.89,323.39Z"/><path class="cls-39" d="M427.93,408.93c-5.42,40.55-1.42,143-73.93,152.61-28.55,3.8-51.19,1.48-68.16-2.72,0-7,.29-14.94,1.06-23.84.08-.89.16-1.79.25-2.72q.64-6.78,1.24-13.48l13.82-7.57,86-156S433.35,368.39,427.93,408.93Z"/><path class="cls-40" d="M407.68,327.57c-21.32,8.92-68,15.87-80.31,8.86-.21-.11-.41-.24-.6-.35-11.4-6.95,3.92-11.7,7-12.55l.51-.13s14.92-22.78,69.25-11.87a2.71,2.71,0,0,1,.41.09C424.32,315.8,420.86,322.06,407.68,327.57Z"/><path class="cls-41" d="M139.73,308.22v1.68a6.59,6.59,0,0,0,.87,3.27L155,338.6l10.12,19.68-2.1-15.2Z"/><g class="cls-2"><g class="cls-42"><path class="cls-43" d="M170.81,362.07,141.33,310l20.4-1.07L191.2,361l-20.39,1.07m-10.62-55.4-19.91,1.05c-.63,0-.74.76-.25,1.63l30.29,53.49a2.79,2.79,0,0,0,2,1.51l19.91-1.05c.63,0,.74-.76.25-1.63l-30.29-53.49a2.79,2.79,0,0,0-2-1.51"/><polyline class="cls-7" points="161.73 308.95 141.33 310.02 170.81 362.07 191.21 361 161.73 308.95"/></g></g><path class="cls-44" d="M199.45,363.49h0c0,.66-.08,1.33-.14,2-1.18,12.57-14.14,15.25-18.82,15.81-1.05.12-1.68.14-1.68.14s-49-34.13-27.42-49.24c0,0,.7,1,1.86,2.36,3.55,4.17,11.41,11.72,16.89,4.71,7.27-9.3-5.6-23.48,4.84-25.16h0c7.3-1.14,9.5,22.1,9.5,22.1S200.47,342,199.45,363.49Z"/><path class="cls-39" d="M199.45,363.49c-.79-1.52-10.64-20.41-16-22.56-5.6-2.23-3.68-15-4.43-20.14a11.62,11.62,0,0,0-4-6.65c7.3-1.14,9.5,22.1,9.5,22.1S200.47,342,199.45,363.49Z"/><path class="cls-45" d="M180.49,381.33c-1.05.12-1.68.14-1.68.14s-49-34.13-27.42-49.24c0,0,.7,1,1.86,2.36-1.66,2.76-2.82,7.47,1.06,14.37C161,360.89,180.49,381.33,180.49,381.33Z"/><path class="cls-46" d="M224.41,390.43l-33,17-2.89,1.48-.08-1.2v-.24S172.65,389,174.34,384.55c.92-2.47,5.93-9.46,12.5-15.08,5.33-4.57,11.68-8.24,17.71-7.86,9.17.57,15.07,13.78,17.89,22.12C223.76,387.61,224.41,390.43,224.41,390.43Z"/><circle class="cls-47" cx="344.71" cy="352.28" r="3.73"/><path class="cls-7" d="M306.17,423.07l-.09-2c4.71-.21,10-3.61,14.86-9.57,8.05-9.84,13.5-24.86,12.15-33.5-2.29-14.72,9.45-26,10-26.44l1.38,1.46c-.11.11-11.48,11-9.35,24.67,1.45,9.28-4.07,24.69-12.57,35.08C318.79,417.29,313,422.76,306.17,423.07Z"/><path class="cls-45" d="M345.78,639.85c-19.42.72-34.54.35-39.32-2.05-13.19-6.62-11-22.53-9.19-29.86-7.15-9-14.18-28.89-10.37-73,.08-.89.16-1.79.25-2.72,2.49-26.3,4.48-51.52,6.44-74.25q.57-6.36,1.1-12.44c4.4-48.45,9.13-83.25,19.53-88.72a40.7,40.7,0,0,1-2.09-8.89c-1-8.26.13-20.11,13-25.66,2.85-1.23,6.46-2.57,10.57-4,2.43-.82,5-1.67,7.76-2.52.68-.22,1.38-.43,2.08-.64l2.26-.69a29.44,29.44,0,0,1-1.36,4.19c-2.11,5.18-5.18,12.13-8.67,20.34-14.22,33.3-35.48,87-27.54,124,8.66,40.31-8.81,109.11,14.19,141A38.36,38.36,0,0,0,337,615.19h0C348.88,621.82,350.07,630.66,345.78,639.85Z"/><path class="cls-48" d="M418.56,448.33c-5.85,33.63-17,62.85-35.66,81.06q-1.69,1.67-3.49,3.19c-.53.46-1.06.92-1.6,1.35-14.54,11.78-33.19,17.47-56.83,14.56a72.49,72.49,0,0,1-22.29-7l-.83-.39-.2-.1-1.77-.9q-2-1-3.94-2.12c-49.06-27.71-101.2-100.72-103.46-129.06l-.08-1.2v-.11a13.87,13.87,0,0,1,.75-5.3c.24-.63.5-1.24.77-1.85,6.12-13.64,19.53-18.34,32.51-16.74a41.53,41.53,0,0,1,18.27,6.82,34.73,34.73,0,0,1,5.52,4.63c15.11,15.67,63,65.47,63,65.47s-1.78-11.38,4.57-12.51,12.12,7.28,12.12,7.28S312,392.2,341.73,365.36c6.15-5.54,14.16-9.53,24.54-11.09,1.37-.21,2.78-.38,4.23-.49C411.22,350.43,429.19,387.34,418.56,448.33Z"/><path class="cls-49" d="M382.91,529.4c-15.21,14.82-35.43,22.36-61.93,19.1-9.25-1.15-19.07-4.9-29-10.51l13.56-18.8a4.67,4.67,0,0,1,6.5-1c23,16.26,44.31.88,51.92-5.95a3.88,3.88,0,0,1,5.64.47Z"/><path class="cls-50" d="M379.42,532.59c-.53.46-1.07.91-1.61,1.34C363.28,545.72,344.63,551.4,321,548.5c-7.48-.92-15.33-3.56-23.32-7.49l-1.77-.89,11.39-15.79a1.69,1.69,0,0,1,2.42-.34c25.89,20.63,50.1-.09,55.9-5.75a1.7,1.7,0,0,1,2.51.16Z"/><path class="cls-51" d="M377.81,533.93q-2.18,1.77-4.47,3.34c-.73.51-1.47,1-2.22,1.46a65.91,65.91,0,0,1-10.2,5.26c-.83.33-1.66.66-2.51,1a67.86,67.86,0,0,1-10.35,2.86c-.9.18-1.82.34-2.75.48a81.24,81.24,0,0,1-12.81,1c-.95,0-1.91,0-2.87-.06-2.8-.1-5.69-.33-8.65-.69-.7-.09-1.4-.19-2.11-.31-.93-.14-1.87-.32-2.81-.53a72.58,72.58,0,0,1-11.33-3.5c-.83-.33-1.67-.69-2.51-1-1.52-.65-3-1.35-4.56-2.1l10.68-14.79q1.86,1.59,3.71,2.89c.74.53,1.48,1,2.22,1.46a38.54,38.54,0,0,0,8.55,4c.87.28,1.74.53,2.6.73a33.69,33.69,0,0,0,8.73.95c.94,0,1.88-.08,2.8-.17a39.53,39.53,0,0,0,9.63-2.28c.93-.34,1.83-.7,2.7-1.09a51,51,0,0,0,4.73-2.41c.8-.46,1.58-.93,2.32-1.4a61.55,61.55,0,0,0,5.28-3.81c.75-.61,1.43-1.19,2-1.72a42.86,42.86,0,0,0,3.26-3.16Z"/><g class="cls-52"><path class="cls-53" d="M314.27,530.57c-1.91,2.8-4.9,7.11-9.54,13.59-.83-.33-1.67-.69-2.51-1,4.8-6.71,7.88-11.15,9.83-14C312.79,529.64,313.53,530.12,314.27,530.57Z"/></g><g class="cls-52"><path class="cls-54" d="M325.42,535.34a103,103,0,0,1-6.55,12.85c-.93-.14-1.87-.32-2.81-.53a99.1,99.1,0,0,0,6.76-13C323.69,534.89,324.56,535.14,325.42,535.34Z"/></g><g class="cls-52"><path class="cls-55" d="M337,536.12a110.65,110.65,0,0,1-4.45,13.13c-.95,0-1.91,0-2.87-.06a104.19,104.19,0,0,0,4.52-12.9C335.09,536.27,336,536.21,337,536.12Z"/></g><path class="cls-56" d="M349.28,532.75a113.9,113.9,0,0,1-1.22,15.07c-.9.18-1.82.34-2.75.48a109.48,109.48,0,0,0,1.27-14.46C347.51,533.5,348.41,533.14,349.28,532.75Z"/><g class="cls-52"><path class="cls-57" d="M360.92,544c-.83.33-1.66.66-2.51,1a102.8,102.8,0,0,0-4.4-14.62c.8-.46,1.58-.93,2.32-1.4A110,110,0,0,1,360.92,544Z"/></g><g class="cls-52"><path class="cls-58" d="M373.34,537.27c-.73.51-1.47,1-2.22,1.46-1.94-4.09-6.14-9.57-9.51-13.6.75-.61,1.43-1.19,2-1.72C366.77,527.12,371.09,532.65,373.34,537.27Z"/></g><path class="cls-59" d="M371.15,398.4c-16.44,0-19.44-2.38-19.44-2.38v21s4.86,2.38,19.44,2.38c16.3,0,19.44-2.38,19.44-2.38V396S388.19,398.4,371.15,398.4Zm17.32,15.91s-2.8,1.68-17.32,1.68c-13,0-17.32-1.68-17.32-1.68V399.4s2.67,1.69,17.32,1.69c15.18,0,17.32-1.69,17.32-1.69Z"/><circle class="cls-60" cx="371.15" cy="449.46" r="19.3"/><path class="cls-61" d="M418.57,214.16v65.36a21.67,21.67,0,0,1-11.23,19h-.06a21.77,21.77,0,0,1-10.38,2.65h-6.16l-.06-.77s0,0,0,0l-1-14.77-1.52-23.06L383,273.76l-.47-.45-15.75-15.14-5.16-8.92-1.06-1.83-8.89-15.35-29.19,1.18-13.33.54h0c-.6-.24-26.79-11.19-21.26-31.93s20.8-11.49,21.26-11.2c-.18-.43-13.08-30.62,18.58-29.9,18.4.42,18.33,7,20,13.17,1.26,4.62,3.52,9,15.1,10.59,5.56.74,11.19,1.18,16.61,1.41,3.77.16,7.43.22,10.92.2A28,28,0,0,1,418.57,214.16Z"/><path class="cls-62" d="M407.67,327.57c-2,.84-4.22,1.66-6.63,2.45-18.28,6-46.65,10.49-63.27,9-4.45-.41-8.06-1.23-10.41-2.58l-.59-.36a68.8,68.8,0,0,0,7-12.54c.7-1.64,1.37-3.38,1.95-5.2a49,49,0,0,0,1.69-6.8l0-.16a41.28,41.28,0,0,0,.58-5.13,48.32,48.32,0,0,0,10.34,1.84c11.64.88,30.34-1.48,41.38-22.45a66.2,66.2,0,0,0,5.06-13L401.21,300l.16.68,2.56,10.9Z"/><path class="cls-63" d="M407.67,327.57c-2,.84-4.22,1.66-6.63,2.45a194.9,194.9,0,0,1-63.62-18.65,41.28,41.28,0,0,0,.58-5.13s43.35,14.28,56.78-33.58l9.15,38.95Z"/><path class="cls-64" d="M394.78,272.66v13.4a26.73,26.73,0,0,1-4.1,14.34s0,0,0,0a25.78,25.78,0,0,1-2.05,2.8,22.87,22.87,0,0,1-17.48,8.32H330.71c-11.89,0-21.53-10.39-21.53-23.2V233.79h0q6.51-1.87,12.17-3c61-12.75,52.17,31.19,56.73,36.49,4.85,5.62,5-6.07,5-6.07,1.4-28,19.3-15.22,23-2.77S394.78,272.66,394.78,272.66Z"/><path class="cls-45" d="M348.3,311.53a21.66,21.66,0,0,1-.5,3,29.44,29.44,0,0,1-1.36,4.19c-2.11,5.18-5.18,12.13-8.67,20.34-4.45-.41-8.06-1.23-10.41-2.58l-.59-.36a68.8,68.8,0,0,0,7-12.54c.7-1.64,1.37-3.38,1.95-5.2a49,49,0,0,0,1.69-6.8h-6.68c-11.89,0-21.53-10.39-21.53-23.2V233.79c-.6-.24-26.79-11.19-21.26-31.93s20.8-11.49,21.26-11.2c-.18-.43-13.08-30.62,18.58-29.9,18.4.42,18.33,7,20,13.17-8.65-1.88-22.29,13.12-22.67,18.72-.75,11.19-26.13-2.42-20.14,12.5,3.51,8.75,11.37,15.62,16.37,25.6.41.81.8,1.64,1.16,2.5,2.79,6.54,4.23,14.44,2.61,24.92-3.78,24.35,21.91,32.1,23.21,49.91A20,20,0,0,1,348.3,311.53Z"/><path class="cls-65" d="M388.29,254.11c-1-2.78,6.68-13.22,14.09,5.24,3.42,8.52-9.62,8.33-9.62,8.33Z"/><circle class="cls-66" cx="321.56" cy="260.82" r="3.57"/><circle class="cls-7" cx="319.75" cy="259.84" r="0.99"/><circle class="cls-66" cx="347.3" cy="260.82" r="3.57"/><circle class="cls-7" cx="345.45" cy="259.84" r="0.99"/><path class="cls-67" d="M309.45,248.26s14.07-12.11,23.06-5L330.84,248s-8.79-3-17.84,4.46Z"/><path class="cls-68" d="M362.14,248.73s-13.58-12.65-22.84-5.91l1.48,4.77s8.9-2.68,17.65,5.15Z"/><path class="cls-66" d="M352.82,284.1a1.84,1.84,0,0,1,2.09,2.64,35.43,35.43,0,0,1-4.11,6.12c-3.81,4.43-9.18,7.33-15.13.65a29.37,29.37,0,0,1-3.22-4.51,1.84,1.84,0,0,1,1.65-2.8A64.17,64.17,0,0,0,352.82,284.1Z"/><path class="cls-7" d="M360.25,271.34h12.81v7.08H360.25a3.54,3.54,0,0,1-3.55-3.54h0A3.54,3.54,0,0,1,360.25,271.34Z"/><path class="cls-7" d="M319,274.88h0a3.55,3.55,0,0,1-3.54,3.54h-6.25v-7.09h6.25A3.55,3.55,0,0,1,319,274.88Z"/><path class="cls-69" d="M350.8,292.86c-3.81,4.43-9.18,7.33-15.13.65a13.73,13.73,0,0,1,8.07-2.28A15.06,15.06,0,0,1,350.8,292.86Z"/><path class="cls-70" d="M300.22,426.46l-.64-4.42a1.58,1.58,0,0,1,1.41-1.8l7.21-.72a1.58,1.58,0,0,1,1.7,1.24l.46,2.17a1.58,1.58,0,0,1-.93,1.78l-7,3A1.59,1.59,0,0,1,300.22,426.46Z"/><path class="cls-71" d="M309.18,460.65a9.8,9.8,0,0,1,1.05,2.35,15.79,15.79,0,0,1,.55,2.43,16.93,16.93,0,0,1,.18,2.48,9.87,9.87,0,0,1-.33,2.55,9.8,9.8,0,0,1-1.05-2.35,16,16,0,0,1-.72-4.91A9.85,9.85,0,0,1,309.18,460.65Z"/><path class="cls-72" d="M325.87,455.42a11.77,11.77,0,0,1,1.65,2.28,19.2,19.2,0,0,1,1.19,2.46,18.28,18.28,0,0,1,.83,2.6,11.61,11.61,0,0,1,.37,2.8,12.26,12.26,0,0,1-1.66-2.28,18.47,18.47,0,0,1-1.18-2.46,19.84,19.84,0,0,1-.84-2.61A12.11,12.11,0,0,1,325.87,455.42Z"/><path class="cls-73" d="M275.89,400.22c-.54,2.07-1.32,3.88-2,5.72a27.83,27.83,0,0,0-.89,2.72,8.1,8.1,0,0,0-.32,2.91,4.25,4.25,0,0,1-1.06-3.07,8.9,8.9,0,0,1,.61-3.18,12.88,12.88,0,0,1,1.47-2.8A10.11,10.11,0,0,1,275.89,400.22Z"/><path class="cls-74" d="M283.44,396a21.27,21.27,0,0,1-.69,3.08c-.29,1-.61,1.94-.95,2.89l-1,2.81a14.22,14.22,0,0,0-.42,1.41,3.83,3.83,0,0,0-.13,1.49,2.64,2.64,0,0,1-.74-1.5,6.7,6.7,0,0,1-.07-1.67,11.68,11.68,0,0,1,.7-3.13,15.54,15.54,0,0,1,1.34-2.86A11.79,11.79,0,0,1,283.44,396Z"/><path class="cls-39" d="M475.91,612a19.28,19.28,0,0,1-17.22,18.58c-6.25.68-13.68,1.46-21.87,2.27-.54-5.27-.86-11.27-1-17.8q-.09-5.62,0-11.72c.62-39.7,7.19-92.35,15-122,12.41-47-13.25-111.63-16-145s-23.28,24.1-46.68,3.22a46.14,46.14,0,0,1-4.82-4.93h0A29.74,29.74,0,0,1,378.2,326c-1.71-4.55-2.15-9.43-1.82-15.1.06-.77.11-1.55.19-2.33s.15-1.5.24-2.27c.23-1.93.52-3.95.87-6.08,1.22-7.48,3.07-16.25,4.89-26.91,1.27-7.43,2.52-15.77,3.53-25.25.39-3.63.75-7.41,1-11.37,1.76-23.06-2-39.35-7.64-50.76,3.77.16,7.43.22,10.92.2a28,28,0,0,1,28.14,28v65.36a21.66,21.66,0,0,1-11.26,19s26-4.62,36.44,15.16,0,38.79,0,38.79,26.58,50.55,24.9,102.58.84,99,6.71,125.05C479.19,597,482.3,607.21,475.91,612Z"/><path class="cls-39" d="M418.56,448.33c-5.85,33.63-17,62.85-35.66,81.06q-1.69,1.67-3.49,3.19c-.53.46-1.06.92-1.6,1.35-14.54,11.78-33.19,17.47-56.83,14.56a73.7,73.7,0,0,1-23.12-7.38c7.8-1.4,16.15-1.37,24.09,1.57,26.35,9.76,66.43-35,64-53.47s29.89-82.81,20.75-107.74c-6.11-16.7-27.16-24.12-40.39-27.2,1.37-.21,2.78-.38,4.23-.49C411.22,350.43,429.19,387.34,418.56,448.33Z"/><path class="cls-45" d="M298.69,541.5l-.83-.39-.2-.1-1.77-.9q-2-1-3.94-2.12c-49.06-27.71-101.2-100.72-103.46-129.06l-.08-1.2v-.24S172.65,389,174.34,384.55c.92-2.47,5.93-9.46,12.5-15.08a220.28,220.28,0,0,0,3.09,31c.43,2.34.91,4.68,1.45,7,1.84,7.69,4.39,14.91,7.93,20.36,13.37,20.56,50.13,79.3,72.31,86C286.6,518.36,295.44,530.79,298.69,541.5Z"/><path class="cls-45" d="M332.18,396c1.55,16.91,7.47,75.23-12.09,72.74-16.51-2.1-64.75-60.16-79.38-78.21a34.73,34.73,0,0,1,5.52,4.63c15.11,15.67,63,65.47,63,65.47s-1.78-11.38,4.57-12.51,12.12,7.28,12.12,7.28S312,392.2,341.73,365.36C337.23,372.92,331.2,385.26,332.18,396Z"/><path class="cls-45" d="M313.83,348.7c-6.51,15-18.12,40.39-26.68,50.7-12.53,15.11-23-5.87-34.74-14.15-8.35-5.87-30.86-26.83-43.2-38.48a33.62,33.62,0,0,1,10.17,6.8c12,11.55,56.51,46.65,56.51,46.65,1.68-4.48,7.55-4.2,7.55-4.2,4.76-12,28.8-48.23,28.8-48.23Z"/><path class="cls-75" d="M622.86,328l-28.53-5a16,16,0,0,1-6.71-.59l-23-7.19.36-2,.42-2.38.45-2.55,3-17,1.3-7.79.46-2.77.37-2.27.33-2,.43-2.57,1.09-6.55c4.12-7.12,24.41,6.49,37.14,16.06,6.11,4.59,10.47,8.25,10.47,8.25l.3,4.39L622.25,319l.54,8.07Z"/><path class="cls-76" d="M807.31,209.75a7.71,7.71,0,0,1-1.23,3.57c-1.41,2.09-6,3.6-10.32,4.6a88.68,88.68,0,0,1-8.94,1.58l3-14.86,3.52-.48.41,0,5.3-.72,7-1a17.24,17.24,0,0,1,1,3.47A12.79,12.79,0,0,1,807.31,209.75Z"/><path class="cls-77" d="M812,202.9a8.07,8.07,0,0,1-1.28,4.42,8.19,8.19,0,0,1-3.41,2.43,50.34,50.34,0,0,1-10.36,2.9c-3.11.58-5.5.85-5.5.85l1.89-9.34,1.11-5.52.41-.06,9.68-1.31,6.18-.84A17.1,17.1,0,0,1,812,202.9Z"/><path class="cls-78" d="M812,202.87l0,0c-.83,1.18-2.67,2.18-4.9,3a57.51,57.51,0,0,1-9.15,2.35c-3,.54-5.2.8-5.2.8l1-4.94,1.11-5.53.89-4.39L812,192a18,18,0,0,1,.78,2.33C813.39,196.63,813.83,200.2,812,202.87Z"/><path class="cls-79" d="M812,202.87l0,0a8.07,8.07,0,0,1-1.28,4.42,8.19,8.19,0,0,1-3.41,2.43,7.71,7.71,0,0,1-1.23,3.57c-1.41,2.09-6,3.6-10.32,4.6L788,216.4l2.74-4.74.69-5.55,3.78-6.65,9.31-2.19,8.26-3C813.39,196.63,813.83,200.2,812,202.87Z"/><path class="cls-80" d="M829.17,188.24a2.35,2.35,0,0,1,0,.65c-.72,4-10.78,8.3-20.64,10.72a69.22,69.22,0,0,1-11.38,1.89,14.32,14.32,0,0,1-1,4.9c-.95,2.21-1.1,8.84,1.74,9.47s16.26-8.16,17.84-7.24S818,214.82,812,220a37.75,37.75,0,0,1-10.3,5.78c-3.68,1.51-7,2.67-8.54,4-3,2.52-9.31,9.63-9.31,9.63L763.51,232l-2.23-.81s6.47-33.79,17.21-37.58S828.7,182.4,829.17,188.24Z"/><path class="cls-45" d="M829.17,188.24a2.35,2.35,0,0,1,0,.65c-2.84-1.15-7-1.74-12.52.3-11.37,4.21-41.29-.51-42.74,20.84-.83,12.29-6.07,18.73-10.37,22l-2.23-.81s6.47-33.79,17.21-37.58S828.7,182.4,829.17,188.24Z"/><path class="cls-81" d="M787.89,243.1c-1.32,5-3.08,11.26-4.29,15.52-.83,2.89-1.4,4.85-1.4,4.85l-33.79-16.58s0-.92.2-2.34c.49-4.56,2.09-14.34,6.91-15.66a18.19,18.19,0,0,1,6.33.05,67.51,67.51,0,0,1,13.6,3.47C782.79,235.13,789,239,787.89,243.1Z"/><path class="cls-45" d="M762.41,236.29c-1.6,4.59-8.75,7.06-13.8,8.26.49-4.56,2.09-14.34,6.91-15.66a18.19,18.19,0,0,1,6.33.05A8.61,8.61,0,0,1,762.41,236.29Z"/><path class="cls-79" d="M787.89,243.1c-1.32,5-3.08,11.26-4.29,15.52-1.11-1.25-1.4-3.5,0-7.34,2.94-8.22-3.1-14.95-8.12-18.87C782.79,235.13,789,239,787.89,243.1Z"/><path class="cls-7" d="M788.22,254.84S769.28,350,756.65,362.63s-12.58,48-81.87,45.05l-6.89-14.49-25.77-54.14s31.16,2.53,43.79,8.42c0,0,5.89-7.58,15.16-4.21,0,0,33.26-94.92,47.16-102.62,10.27-5.68,27.2,4.79,35.34,10.64C786.44,253.35,788.22,254.84,788.22,254.84Z"/><path class="cls-82" d="M788.22,254.84S769.28,350,756.65,362.63s-12.58,48-81.87,45.05l-6.89-14.49c1.85.29,4,.7,6.31,1.26,49.79,11.79,53.37-19.79,71.47-31.56s37.9-111.61,37.9-111.61C786.44,253.35,788.22,254.84,788.22,254.84Z"/><path class="cls-83" d="M687,400.4a44.38,44.38,0,0,1-2,4.34l-1.55,3.11c-5,10.18-13.5,28.6-13.62,44.29-.26,35-7.49,94.07-14.33,118.88-.11.38-.22.75-.32,1.11a29,29,0,0,1-5.89,11.21q-5.71.81-11.2,1.31a354.9,354.9,0,0,1-112.19-7.3h0l-.18-.83c-.26-1.19-.53-2.38-.79-3.57-19.31-86.65-33.1-152.52-27.62-196.35a97.19,97.19,0,0,1,6-24.26c2.38-5.92,9.45-11.39,17.75-16.21a.6.6,0,0,1,.15-.09c1.17-.68,2.36-1.35,3.57-2,7.94-4.29,16.49-8,22.95-11.05l1.37-.64c.9-.43,1.74-.84,2.49-1.25.37-.19.73-.38,1.06-.57h0c.51-.29,1-.58,1.38-.85a6.15,6.15,0,0,0,1.82-1.64c2-3.24,3.14-4.88,3.14-4.88.48-1.49,2.59-1.09,6,.07,1.86.63,4.09,1.48,6.66,2.39a94.14,94.14,0,0,0,14.91,4.09c4.82.86,13.09,2.34,18.53,2.07,1.13-.06,4.14,2.09,5.08,2.78l.11.08.12.1,0,0s5.53-4.85,7-5.18l.09,0c2.08-.23,3.62-.43,4.75-.61.68-.11,1.21-.2,1.63-.29a6.05,6.05,0,0,0,1.52-.43q3.83,3.78,7.56,7.4l4.58,4.42,4.08,3.9c2,1.9,4,3.77,5.89,5.61l.64.61c4.55,4.34,8.87,8.5,12.87,12.5h0c.59.59,1.17,1.17,1.73,1.75.88.88,1.73,1.75,2.57,2.62a160.59,160.59,0,0,1,12.43,14.2C685.7,381.69,689.56,391.18,687,400.4Z"/><path class="cls-84" d="M687,400.4a44.38,44.38,0,0,1-2,4.34l-1.55,3.11c-5,10.18-13.5,28.6-13.62,44.29-.26,35.56,1.77,80.84.93,117.89-.05,2.13,1.63,5.52,2.86,8.72a258.23,258.23,0,0,1-35.53,5.9,355,355,0,0,1-112.2-7.3l-.18-.83c-.26-1.19-.53-2.38-.79-3.57-14.78-67-24.66-119.64-26.52-160.25q-.47-10.29-.24-19.55a0,0,0,0,1,0,0q.09-3.36.28-6.6a139,139,0,0,1,4.81-30.73c2.33-8.13,9.41-14.5,17.75-19.66a.6.6,0,0,1,.15-.09c1.09-.67,2.19-1.33,3.31-2,8-4.52,16.68-8.06,23.21-11.09l1.37-.64c.9-.43,1.74-.84,2.49-1.25l4.28,10.1,4.34,6.46,17.55,26.16,1.9,24.95,2.09,31.28L583,440.42l10.56,9.25,4.39,3.85,28.19,24.71,8.44,7.4,5.75,5s1.4-6.19,3.6-15.63c1.57-6.81,3.56-15.32,5.72-24.42,2.86-12.05,6-25.15,9-36.73,1.32-5.18,2.59-10.05,3.76-14.39s2.24-8.11,3.18-11.14a52.31,52.31,0,0,1,2.49-7c1.64-3.24-1.14-9.71-5.78-17.13-1.84-2.93-4-6-6.21-9.07-4.11-5.61-8.66-11.24-12.69-16C637,331.54,631.86,326,631.86,326l1.1-.38,4.58,4.42,4.08,3.9c2,1.9,4,3.77,5.89,5.61l.64.61c4.55,4.34,8.87,8.5,12.87,12.5h0c.59.59,1.17,1.17,1.73,1.75.88.88,1.73,1.75,2.57,2.62a160.59,160.59,0,0,1,12.43,14.2C685.7,381.69,689.56,391.18,687,400.4Z"/><path class="cls-39" d="M682.26,398.46c-.28.89-14.74,46.3-38.31,76.57a111.19,111.19,0,0,1-9.35,10.6,70.72,70.72,0,0,1-10.72,8.82c-35.47,23.37-78,57.58-105.07-21.1-8.88-25.85-15.52-45.67-20.44-60.65q-.47-10.29-.24-19.55a0,0,0,0,1,0,0q.09-3.36.28-6.6l73.68,83.9L598,453.52l60.67-39.64Z"/><path class="cls-85" d="M665.33,357.05c-4.32,10.49-8.37,19.54-7.64,14.73,1.49-9.84-32.12-45.76-32.12-45.76l-1.69-7.35a6.05,6.05,0,0,0,1.52-.43C640.19,332.92,654.29,345.62,665.33,357.05Z"/><path class="cls-45" d="M669.8,452.14c-.26,35.56,1.77,80.84.93,117.89-.1,4.17,6.47,13.21,3.26,16.18a30.19,30.19,0,0,1-11.12,6.22q-.61-.75-1.17-1.53c-2.88-4.09-4.91-11-6.23-19.88-5.1-33.93.16-96.43,8.44-138.6,2.14-10.9,1.28-22-1.51-32.93C655.48,372.18,636.6,346,622.79,327c-1.91-2.63-3.72-5.11-5.38-7.44l.09,0c2.08-.23,3.62-.43,4.75-.61.68-.11,1.21-.2,1.63-.29a6.05,6.05,0,0,0,1.52-.43q3.83,3.78,7.56,7.4c12,11.61,23.23,21.95,32.37,31.41,15.81,16.36,25.35,30.13,21.66,43.35C686.1,403.59,670,430.47,669.8,452.14Z"/><path class="cls-86" d="M595.77,421.17c0,2.84-.13,5.58-.26,8.19q-.1,2.34-.27,4.53c-.44,6.41-1.09,11.83-1.66,15.78-.64,4.49-1.18,7.09-1.18,7.09L558.31,421l14.21-33,5.58-12.93-13.56-9.73-5.81-4.16s-1.22-2.83-2.82-7h0c-1-2.63-2.18-5.8-3.29-9.12-2.92-8.79-5.42-18.67-3.61-22.71.9-.43,1.74-.84,2.49-1.25.37-.19.73-.38,1.06-.57h0A118.24,118.24,0,0,1,563.23,331c10.12,11,24.43,29.88,29.17,52.55A176.47,176.47,0,0,1,595.77,421.17Z"/><path class="cls-87" d="M611.53,328.47s39.1,52.08,25.05,86.61"/><path class="cls-88" d="M734.78,294.51v1.89a7.49,7.49,0,0,1-1,3.7l-16.26,28.7-5.47,9-3.58-4Z"/><g class="cls-2"><g class="cls-89"><path class="cls-90" d="M699.71,355.3l-23-1.21L710,295.33l23,1.21L699.71,355.3m12-62.54a3.13,3.13,0,0,0-2.3,1.71l-34.19,60.38c-.55,1-.43,1.8.29,1.84L698,357.87a3.14,3.14,0,0,0,2.29-1.71l34.19-60.38c.56-1,.43-1.8-.29-1.84l-22.46-1.18"/><polyline class="cls-91" points="709.96 295.33 732.98 296.54 699.71 355.3 676.69 354.09 709.96 295.33"/></g></g><path class="cls-92" d="M696.51,366.63c-2.29,2.08-3.75,3.35-3.75,3.35l-12.6-13.75h0l-.42-.46-3.81-4.16v-.74c.08-14.09,7.63-21.13,11.35-23.61s6.1-22,12.4-20a3.88,3.88,0,0,1,.86.4c7,4.21-4.84,19.37,3.37,23.37a5.44,5.44,0,0,0,.5.22c8.05,3.31,16.13-8,16.13-8l3,8.79C725.83,339,705.2,358.72,696.51,366.63Z"/><path class="cls-79" d="M696.51,366.63l-3.1-1.82s23.53-30.62,15.08-30.31c-4,.15-4.58-1.48-4.08-3.24,8.05,3.31,16.13-8,16.13-8l3,8.79C725.83,339,705.2,358.72,696.51,366.63Z"/><path class="cls-93" d="M699.68,307.27c-1.58,7.84-5,21.61-10.06,24.07-6.86,3.36-9.31,23.54-9.46,24.88h0a.28.28,0,0,0,0,.06l-.41-.53-3.81-4.9c.08-14.09,7.63-21.13,11.35-23.61S693.38,305.23,699.68,307.27Z"/><path class="cls-94" d="M701.67,373.91l-7.76,9c-.76-.44-1.51-.89-2.26-1.36-11.27-7-21.36-16.83-26.46-22.19-2.22-2.34-3.49-3.82-3.49-3.82,3.36-3.44,6-5.92,7.9-7.56a4.81,4.81,0,0,1,6.1-.22l3.32,2.52,16.6,12.64,5.32,4A4.81,4.81,0,0,1,701.67,373.91Z"/><path class="cls-45" d="M679,350.25c-4.36.23-9.55,1.31-11.19,4.94a14.42,14.42,0,0,1-2.64,4.14c-2,2-3.49,1.52-3.49,1.52v-5.34c3.36-3.44,6-5.92,7.9-7.56a4.81,4.81,0,0,1,6.1-.22Z"/><path class="cls-79" d="M701.67,373.91l-7.76,9c-.76-.44-1.51-.89-2.26-1.36-.83-1.8-.59-3.94,1.6-6.44,3.4-3.87,3.45-8.33,2.37-12.19l5.32,4A4.81,4.81,0,0,1,701.67,373.91Z"/><path class="cls-7" d="M699.8,383.54s-5.94,10.11-6.69,11c-2.17,2.54-4.93,6-8.14,10.22-.77,1-1.57,2-2.39,3.11-5.32,7-11.68,15.47-18.67,24.57-4.53,5.9-9.31,12-14.24,18.19-7.64,9.52-15.62,19-23.51,27.62-17.17,18.67-33.88,32.86-45.63,32.86-8.2,0-16-2.59-23.33-7.16-20.85-12.95-37.9-41.79-49.43-72q-1.84-4.83-3.39-9.79a159.73,159.73,0,0,1-6.25-29,0,0,0,0,1,0,0,122.26,122.26,0,0,1-.86-16.52c.43-21,7.2-37.56,22.29-41.51a47.45,47.45,0,0,1,4.87-1l.26,0c10.47-1.51,19.66,1.34,27.93,11a54.29,54.29,0,0,1,3.8,5,93.62,93.62,0,0,1,8.12,15.25,199.72,199.72,0,0,1,8,22.66c2.76,9.37,5.42,20.17,8,32.55,0,0,.42-.22,1.13-.51,2.63-1.09,9.3-3.16,14.11,1.12a12.54,12.54,0,0,1,3,4s18.43-29,36.82-50.51c3.76-4.41,7.53-8.52,11.14-12,1.6-1.55,3.16-3,4.68-4.24l.42-.35.26-.21a30.86,30.86,0,0,1,4-2.7c1.84-1.06,3.67-1.94,4.94-2.52h0c1-.48,1.69-.75,1.69-.75l1.38,1.17,3.06,2.61,28.92,24.66.89.76Z"/><path class="cls-95" d="M543,200.94a28,28,0,1,1,1.57-13.29A28,28,0,0,1,543,200.94Z"/><path class="cls-45" d="M543,200.94a27.62,27.62,0,0,1-3.24-8.27c-4.84-21.23-32-18.87-47-15.86A28,28,0,0,1,543,200.94Z"/><circle class="cls-7" cx="549.96" cy="202.83" r="10.18"/><path class="cls-96" d="M651.15,234.81c0,.86,0,1.69,0,2.51,0,.05,0,.1,0,.15s0,.35,0,.53a76.34,76.34,0,0,1-2.41,16.38l-4.3-12.52-2.17-3.66-1-1.66-.13-.2-.06-.11-.65-1.1-2.52-4.24-1-.7h0l-6.79-5-6-4.4-20.68,8.9-2.48,2-7.42,6.09L587.21,243l-2.6,2.14,0,0-2,1.66-1,2-3.62,7-8.18,15.78.17,1.81.24,2.71.2,2.15.23,2.49.24,2.68-.7.09-1.82.22a43.55,43.55,0,0,1-12.55-5.05c-.75-.44-1.51-.91-2.28-1.42a41.48,41.48,0,0,1-17.11-23.13,63.74,63.74,0,0,1-.45-35.09,53.2,53.2,0,0,1,4.88-11.8,47.8,47.8,0,0,1,20.87-19.76c2.83-1.38,5.73-2.67,8.69-3.83,23.21-9.09,49.81-10.34,67.95,11.69C648.7,208,651.2,223.06,651.15,234.81Z"/><path class="cls-97" d="M648.66,254.38c-.08,1.79-.25,3.53-.48,5.18a43,43,0,0,1-1.71,7.63,17.42,17.42,0,0,1-1,2.55c-3.37,6.65-10.58,24.6-24.77,26.33l-.23,0a43.75,43.75,0,0,1-13.42-.88c-11.36-2.28-23-7.88-28.87-12.46a28,28,0,0,0-7.24-4.28l-.6-.22c-3.1-1-4.65-.47-4.65-.47-15.1,2.46-21.27-26.62-8.84-29.34s12.47,18.29,12.47,18.29,9.17-26.46,22.48-34.81,26.92-8.43,31.94-20.14c0,0,1.38,5.18,6.77,11a41.62,41.62,0,0,0,9.06,7.39C647.18,234.87,649.08,245.23,648.66,254.38Z"/><path class="cls-98" d="M565.06,272.66s2-14.68-2.08-16.73S549.13,260.58,565.06,272.66Z"/><path class="cls-66" d="M608.76,244.67a2.7,2.7,0,0,0,.41-.08,2.6,2.6,0,0,0,1-.56,1.57,1.57,0,0,0,.55-1,4.72,4.72,0,0,1-1.79.87c-.64.2-1.3.34-2,.63h0a4.34,4.34,0,1,0,1.81.17Z"/><path class="cls-66" d="M636.32,244a2.11,2.11,0,0,0,.77-.18,1.57,1.57,0,0,0,1-1.27c-.53.23-.88.41-1.28.59a9.85,9.85,0,0,0-1.28.66l.06,0a4.72,4.72,0,0,0-1.13,0,4.38,4.38,0,1,0,1.89.21Z"/><path class="cls-66" d="M612,244.82c-.7.15-1.46.15-2.29.27a3.32,3.32,0,0,0,2.43.46,2.23,2.23,0,0,0,1.2-.61,1.57,1.57,0,0,0,.44-1.21A2.57,2.57,0,0,1,612,244.82Z"/><path class="cls-66" d="M639.23,244.27a14.47,14.47,0,0,0-1.47.57,2,2,0,0,0,2.49-.38,1.23,1.23,0,0,0,.31-.86A5,5,0,0,1,639.23,244.27Z"/><circle class="cls-7" cx="609.15" cy="247.41" r="1.39"/><circle class="cls-7" cx="636.58" cy="246.5" r="1.39"/><path class="cls-7" d="M587.05,256.31l4.74.85a2.87,2.87,0,0,1,2.3,3.42h0a2.88,2.88,0,0,1-3.24,2.25l-4.76-.73a2.87,2.87,0,0,1-2.37-3.48l0-.13A2.87,2.87,0,0,1,587.05,256.31Z"/><path class="cls-7" d="M648.19,259.56a43.88,43.88,0,0,1-1.71,7.63l-5-1.16a3.45,3.45,0,0,1-2.65-3.5h0a3.45,3.45,0,0,1,3.63-3.29Z"/><path class="cls-66" d="M633.35,269.89a19.15,19.15,0,0,1-1.49,7.34,12.48,12.48,0,0,1-1.37,2.36c-1.78,2.45-4.62,4.4-9.1,4.92a24.15,24.15,0,0,1-14-2.58c-.52-.27-1-.55-1.51-.84a30.71,30.71,0,0,1-8.83-8.06,4,4,0,0,1,3.15-6.38l29-.86A4,4,0,0,1,633.35,269.89Z"/><path class="cls-99" d="M630.49,279.59c-1.78,2.45-4.62,4.4-9.1,4.92a24.15,24.15,0,0,1-14-2.58,15,15,0,0,1,23.07-2.34Z"/><path class="cls-100" d="M615.91,235.62l-2.58,4.45s-9.59-6.86-15.86,2l-4-4.19S603.14,223.61,615.91,235.62Z"/><path class="cls-101" d="M621.87,235.27l3,4.18s8.91-7.71,16,.5l3.56-4.55S633.48,222.13,621.87,235.27Z"/><path class="cls-102" d="M657.45,238.88c-.12-.9-.26-1.79-.4-2.69,0-.21-.08-.42-.12-.63-.16-.82-.35-1-1.2-.94-1.09,0-2.19.15-3.28.17l-1.3,0c-1.14,0-2.28,0-3.42,0l-1.93.07-1.34.06H644l-1.59.07-1.69.07-.35,0a22.27,22.27,0,0,0-3.7.67c-.67.17-1.34.31-2,.47h0l-.65.17c-1.22.33-2.45.72-3.63,1.13-1.47.51-2.94,1-4.4,1.59a23.53,23.53,0,0,1-5.22,1.2,22.82,22.82,0,0,1-5.29.1c-1.55-.17-3.1-.33-4.65-.46-1.25-.11-2.53-.18-3.8-.21-.91,0-1.83,0-2.75,0a20.87,20.87,0,0,0-4.1.31l-1.34.28-.31.07-2.08.43-1.24.26-1.89.41c-1.54.34-3,.76-4.59,1.11-.49.12-1,.22-1.49.31l-1.73.33c-.83.18-1,.37-.93,1.21,0,.2,0,.41,0,.62v0c.09.9.18,1.8.28,2.7,0,.38.17.72.63.79a2.44,2.44,0,0,1,2.06,1.9c.37,1.26.78,2.52,1.17,3.79.24.81.51,1.61.81,2.39a24.4,24.4,0,0,0,1.55,3.32,10.06,10.06,0,0,0,1.74,2.32,6,6,0,0,0,1.95,1.28,18.54,18.54,0,0,0,3.51,1,17.25,17.25,0,0,0,6.08,0c5.66-1,10.5-4.35,12.53-9.86a48.66,48.66,0,0,0,1.86-6.84,3.1,3.1,0,0,1,5.85-.73,48.69,48.69,0,0,0,3.48,6.18,15.26,15.26,0,0,0,12.16,6.51,19.23,19.23,0,0,0,2.4,0,16.38,16.38,0,0,0,3.12-.51,17.82,17.82,0,0,0,2.55-.87l.23-.1a18,18,0,0,0,3.15-1.84,7.6,7.6,0,0,0,2.7-4.39,27.5,27.5,0,0,0,.9-6.12c.06-1.32.15-2.64.21-4A2.41,2.41,0,0,1,657,239.8.76.76,0,0,0,657.45,238.88ZM587,245.26a1.41,1.41,0,0,1,1.39.43l-2.64.33A1.44,1.44,0,0,1,587,245.26Zm.19,1.55a1.43,1.43,0,0,1-1.39-.43l2.64-.33A1.44,1.44,0,0,1,587.15,246.81Zm2.23.74a1.7,1.7,0,0,1,0,.22.15.15,0,0,1,0,.07,4.1,4.1,0,0,1,.81-2.4,6.37,6.37,0,0,1,2.52-1.93,22.14,22.14,0,0,1,4.7-1.62l.29-.07.22,0a33.35,33.35,0,0,1,6-.89,22.51,22.51,0,0,1,9.22,1.12,4.37,4.37,0,0,1,.49.23l.16.09.33.19h0l.74.44-.09.05a3.26,3.26,0,0,1,.91,1.21c-.08-.1-.2-.21-.27-.3l-.31-.39a4.52,4.52,0,0,0-.61-.63l-.29-.2-.14-.09-.24-.14-.42-.22a10.25,10.25,0,0,0-2.19-.73c-.42-.1-.84-.17-1.26-.24a28.17,28.17,0,0,0-8.5-.07,39.56,39.56,0,0,0-3.91.72.28.28,0,0,0-.13,0,23.83,23.83,0,0,0-3.91,1.28,9.71,9.71,0,0,0-2.45,1.38A5,5,0,0,0,589.38,247.55Zm26.72,3.74a17.32,17.32,0,0,1-1.33,4.79,13.28,13.28,0,0,1-9.37,7.2,20.72,20.72,0,0,1-4.29.53,9.06,9.06,0,0,1-2.93-.35c-.38-.13-.78-.22-1.17-.33s-.65-.26-1-.38a6.17,6.17,0,0,1-2.24-1.37,7.13,7.13,0,0,1-1.68-2.57c-.23-.56-.43-1.13-.62-1.7a26.71,26.71,0,0,1-1.42-8.42,10.61,10.61,0,0,1,.28-2.09,3.75,3.75,0,0,1,2.09-2.49,18.52,18.52,0,0,1,4.81-1.86,34.52,34.52,0,0,1,7.76-1.11,21.9,21.9,0,0,1,7.46.9,7,7,0,0,1,1.42.66,5.23,5.23,0,0,1,.57.39,6.76,6.76,0,0,1,.54.64c.17.21.36.4.52.61a5.8,5.8,0,0,1,.65,1.54A17.54,17.54,0,0,1,616.1,251.29Zm11-9.85c.21-.2.41-.41.61-.61a0,0,0,0,0,0,0l.29-.28.13-.12a4.46,4.46,0,0,1,.42-.34,21.32,21.32,0,0,1,8.11-3.22l.56-.12a29.73,29.73,0,0,1,3.74-.51c.77-.06,1.55-.09,2.33-.11h.47c.45,0,.91,0,1.37,0a18.71,18.71,0,0,1,3.64.41,7.83,7.83,0,0,1,2.27.78,5.61,5.61,0,0,1,.65.47,4.12,4.12,0,0,1,1.36,2.13l0-.06a1.24,1.24,0,0,0-.1-.2,5.08,5.08,0,0,0-1.88-2.19,3.75,3.75,0,0,0-.44-.24,10,10,0,0,0-2.72-.74,20.24,20.24,0,0,0-2.69-.26c-.5,0-1,0-1.49,0-.89,0-1.78,0-2.67.13l-1.35.13c-1,.11-1.91.26-2.85.46a26.76,26.76,0,0,0-5.37,1.68c-.4.17-.79.35-1.18.55a9.77,9.77,0,0,0-1.93,1.24l-.36.31-.19.19-.13.13-.22.27a3.85,3.85,0,0,0-.44.76l-.21.45a3.94,3.94,0,0,0-.19.36,3.47,3.47,0,0,1,.59-1.4Zm25.93,9.8a6.48,6.48,0,0,1-2.83,4.78c-.29.2-.56.43-.86.6s-.62.34-.92.53l-.14.08a9,9,0,0,1-2.75,1.06,20.55,20.55,0,0,1-4.29.53,13.27,13.27,0,0,1-10.85-4.69,17,17,0,0,1-2.45-4.31,17.23,17.23,0,0,1-1.39-5.24,5.38,5.38,0,0,1,.24-1.64c.11-.25.25-.48.37-.73a5.17,5.17,0,0,1,.36-.75A3.72,3.72,0,0,1,628,241a6.15,6.15,0,0,1,1.22-1,21.89,21.89,0,0,1,7-2.7l.93-.19a34.19,34.19,0,0,1,4-.53c.78-.06,1.56-.09,2.35-.1h.49c.45,0,.89,0,1.33,0a16.26,16.26,0,0,1,3.79.59,4.9,4.9,0,0,1,1.9.93,2.81,2.81,0,0,1,.74,1,10.64,10.64,0,0,1,.77,2A27.13,27.13,0,0,1,653.08,251.24Zm1.69-14.4a1.44,1.44,0,0,1,1.39.43l-2.64.33A1.42,1.42,0,0,1,654.77,236.84Zm.19,1.56a1.43,1.43,0,0,1-1.39-.44l2.64-.33A1.46,1.46,0,0,1,655,238.4Z"/><path class="cls-102" d="M584.56,244.54l-21.25,5a10.29,10.29,0,0,1,3,3.49l18.6-5.17Z"/><path class="cls-103" d="M610.41,324.77s-16.6-3.86-22.53-3.84l-5,0-14.22.05-11.79.05a3.61,3.61,0,0,1-2.88-1.38,3.66,3.66,0,0,1-.31-4.18l3.8-6.47,1-1.67a6.06,6.06,0,0,1,.35-.53,6,6,0,0,1,6.76-2.08l.86.3L572,307l3.34,1.16.13,0L597,315.73c3.29,1.15,11.55,7.55,13.17,8.83l.11.08.12.1Z"/><path class="cls-7" d="M584.24,288.65a19,19,0,0,0-1.75-5.33,19,19,0,0,0-10.79-9.4c-.59-.2-1.19-.37-1.8-.52a18.9,18.9,0,0,0-7.45-.24,1.92,1.92,0,0,0,.66,2.49,13.72,13.72,0,0,1,2.38-.19,16.33,16.33,0,0,1,4.65.65,11.53,11.53,0,0,1,1.13.38,16.42,16.42,0,0,1,8.74,7.59h0a16.42,16.42,0,0,1-11.67,24,18,18,0,0,1-2.52.24,16.43,16.43,0,0,1-10.16-29.55l.08-.06a17,17,0,0,1,2.73-1.63.24.24,0,0,0,0-.12,1.92,1.92,0,0,0-.14-.63h0a1.93,1.93,0,0,0-1.61-1.19h0a17,17,0,0,0-1.92,1.17,14,14,0,0,0-1.3,1,19,19,0,0,0,21.83,30.89l.21-.13A19,19,0,0,0,584.24,288.65Z"/><path class="cls-104" d="M640.35,490.66s9.45,65.37,6.45,90.51"/><path class="cls-45" d="M648.66,254.38c-.08,1.79-.25,3.53-.48,5.18a43,43,0,0,1-1.71,7.63,17.42,17.42,0,0,1-1,2.55c-3.37,6.65-10.58,24.6-24.77,26.33L622.25,319,621,320.53c-1.91-2.63-1.94,1.39-3.6-.94-5-7-8.74-12.6-10-16.4a18.33,18.33,0,0,1-.37-8,68.81,68.81,0,0,1,2.88-11.79c5.53-17.08,16.71-39.73,20.17-58.21.15-.8.29-1.6.41-2.39,1-6.77.89-12.9-1.11-17.87-7.94-19.69-43.7-21.47-59.06-21.3,23.21-9.09,49.81-10.34,67.95,11.69C658.59,220,648.81,253.86,648.66,254.38Z"/><path class="cls-103" d="M610.42,324.77s4.74-6.25,5.94-7l5.76-3.72a1.43,1.43,0,0,1,2,.51l5.06,9.28a1.48,1.48,0,0,1-1.76,2.12l-8.57-2.75C617.07,322.6,610.42,324.77,610.42,324.77Z"/><path class="cls-39" d="M529.09,216.22A28,28,0,0,1,495.36,209c10.66-2.27,25.78-4.27,30.52,1.26A15.59,15.59,0,0,1,529.09,216.22Z"/><path class="cls-79" d="M582.49,283.32c-.07.72-.15,1.45-.25,2.2-.14,1.15-.31,2.34-.51,3.56a65,65,0,0,1-3.93,13.73q-1.08,2.65-2.3,5.22a1.42,1.42,0,0,0-.08.18c-1.21,2.52-2.49,5-3.81,7.41-.29.52-.57,1-.87,1.56-.7,1.28-1.41,2.56-2.12,3.83-1.86,3.31-3.7,6.6-5.39,9.94-1.12,2.21-2.17,4.44-3.11,6.71a58,58,0,0,0-3.7,12.44q-.34,2-.51,4.08h0a46.7,46.7,0,0,0,.35,10.62c3.57,24.41-6.94,78,.94,139.12a295.43,295.43,0,0,0,8.35,41.75c4.78,17.17,4.82,29.61,2,38.58a369.31,369.31,0,0,1-41.66-6.91h0l-.18-.83c-.26-1.19-.53-2.38-.79-3.57-19.31-86.65-33.1-152.52-27.62-196.35.43-21,7.2-37.56,22.29-41.51a47.45,47.45,0,0,1,4.87-1c8-4.52,16.68-8.06,23.21-11.09l1.37-.64c.9-.43,1.74-.84,2.49-1.25.37-.19.73-.38,1.06-.57h0c.51-.29,1-.58,1.38-.85a3.66,3.66,0,0,1-.31-4.18l3.8-6.47a19,19,0,0,1-4-31.76,41.48,41.48,0,0,1-17.11-23.13,63.74,63.74,0,0,1-.45-35.09c7.93-4.39,17.74-5.53,25,7.69,4.55,8.28,8.77,14.7,12.27,20.5.68,1.14,1.34,2.25,2,3.35.25.44.49.88.73,1.32q1.1,2,2,3.9a49.2,49.2,0,0,1,3.76,10.52A51.9,51.9,0,0,1,582.49,283.32Z"/><path class="cls-105" d="M667.16,355.71c-9.78,9.07-47.8,45.18-55.63,66.66-9,24.71-34.28,36.52-43.12,2.83s-13.07-88-48.85-90.11a47.45,47.45,0,0,1,4.87-1l.26,0c10.47-1.51,19.66,1.34,27.93,11a54.29,54.29,0,0,1,3.8,5,93.62,93.62,0,0,1,8.12,15.25,199.72,199.72,0,0,1,8,22.66c2.76,9.37,5.42,20.17,8,32.55,0,0,.42-.22,1.13-.51,2.63-1.09,9.3-3.16,14.11,1.12a12.54,12.54,0,0,1,3,4s18.43-29,36.82-50.51c3.76-4.41,7.53-8.52,11.14-12,1.6-1.55,3.16-3,4.68-4.24l.42-.35.26-.21a30.86,30.86,0,0,1,4-2.7c1.84-1.06,3.67-1.94,4.94-2.52h0c1-.48,1.69-.75,1.69-.75l1.38,1.17Z"/><path class="cls-106" d="M580.53,420.56a22.39,22.39,0,0,1,.78,4.21,37.23,37.23,0,0,1,.22,4.21,39.43,39.43,0,0,1-.21,4.21,22.94,22.94,0,0,1-.79,4.21,23.78,23.78,0,0,1-.78-4.21,39.43,39.43,0,0,1-.21-4.21,37.23,37.23,0,0,1,.22-4.21A23.19,23.19,0,0,1,580.53,420.56Z"/><path class="cls-107" d="M598.72,425.2a16,16,0,0,1-.88,3.41,25.91,25.91,0,0,1-1.38,3.15,25.23,25.23,0,0,1-1.76,2.95,15.5,15.5,0,0,1-2.27,2.69,16.39,16.39,0,0,1,.87-3.41,28.13,28.13,0,0,1,3.15-6.1A16.44,16.44,0,0,1,598.72,425.2Z"/><path class="cls-82" d="M699.8,383.54s-5.94,10.11-6.69,11c-2.17,2.54-4.93,6-8.14,10.22-.77,1-1.57,2-2.39,3.11-5.32,7-11.68,15.47-18.67,24.57-4.53,5.9-9.31,12-14.24,18.19-7.64,9.52-15.62,19-23.51,27.62-17.17,18.67-33.88,32.86-45.63,32.86-8.2,0-16-2.59-23.33-7.16-20.85-12.95-37.9-41.79-49.43-72q-1.84-4.83-3.39-9.79c18.91,32.74,49.61,76.94,75.15,71.53,35.9-7.61,95.8-95.87,117.44-112.54Z"/><path class="cls-79" d="M812,220a37.75,37.75,0,0,1-10.3,5.78c5.84-4.58,13.88-11.24,13.75-13.07-.21-2.87-5.58,2.66-14.21,4s-8.73-3.06-10.42-11.81c-1-5.43,9.52-5.83,17.67-5.35a69.22,69.22,0,0,1-11.38,1.89,14.32,14.32,0,0,1-1,4.9c-.95,2.21-1.1,8.84,1.74,9.47s16.26-8.16,17.84-7.24S818,214.82,812,220Z"/><path class="cls-108" d="M789.27,380.12A42.26,42.26,0,0,0,747,422.38v76.54a42.23,42.23,0,0,0,23,37.6,262.72,262.72,0,0,0,22.42-17,42.27,42.27,0,0,1-25.73-38.9V440.71a42.26,42.26,0,0,1,42.25-42.26h61.53q2.58-8.91,4.61-18.33Z"/><path class="cls-109" d="M729.94,461.89c-43.33,5.52-2.41,33.48-14.18,44.5s-24.59,5.9-15.1,47.07S699,595,677.52,587.14s-35,12.32-47.85,6.68-30.27-32.2-35.6-20c-2.7,6.16,16.94,27.51,40.36,40.94s35.81-1.59,54.66,6.12,33.26,7,47.17,14.15,32.25-5.84,41.82-20.21-1.67-49.09-10-59.62-13.57-25.29-8.86-35.57S773.27,456.37,729.94,461.89Zm21,67.6c7.79,13.4-12.91,20.36-12.12,30.52.45,5.8,2.7,5,13.79,18.76s5.15,25.13-7.4,28.08-26.61-31.23-28-50.91,8.78-17.25,14.56-25.8S743.17,516.09,751,529.49Z"/><path class="cls-110" d="M342.17,28.43Q334.83,33.17,328,38.61a21.18,21.18,0,1,1-29.72,30.08Q293,75.56,288.3,83a38.36,38.36,0,0,0,53.87-54.54Z"/></g></g></g></svg>