<svg xmlns="http://www.w3.org/2000/svg" xmlns:xlink="http://www.w3.org/1999/xlink" viewBox="0 0 457.77 344.28"><defs><style>.cls-1,.cls-11,.cls-12{fill:#f6eeff;}.cls-2{fill:#dec9f2;}.cls-3{fill:none;stroke-dasharray:19.33 19.33;}.cls-10,.cls-13,.cls-14,.cls-3,.cls-4,.cls-6,.cls-7,.cls-9{stroke:#6c3f95;}.cls-10,.cls-13,.cls-3,.cls-9{stroke-linecap:round;}.cls-10,.cls-13,.cls-3,.cls-7,.cls-9{stroke-linejoin:round;}.cls-13,.cls-3{stroke-width:3.6px;}.cls-4{fill:#65bcff;stroke-width:3.83px;}.cls-11,.cls-12,.cls-14,.cls-15,.cls-17,.cls-18,.cls-19,.cls-20,.cls-23,.cls-4,.cls-6{stroke-miterlimit:10;}.cls-5,.cls-6,.cls-7{fill:#9e64d1;}.cls-6{stroke-width:2.75px;}.cls-7{stroke-width:5.14px;}.cls-15,.cls-8{fill:#6c3f95;}.cls-10,.cls-13,.cls-14,.cls-24,.cls-9{fill:#fff;}.cls-9{stroke-width:1.71px;}.cls-10{stroke-width:2.42px;}.cls-11,.cls-12{stroke:#65bcff;}.cls-11{stroke-width:3px;}.cls-12{stroke-width:1.9px;}.cls-14{stroke-width:3.9px;}.cls-15,.cls-17,.cls-18,.cls-19,.cls-20,.cls-23{stroke:#9e64d1;}.cls-16{fill:url(#linear-gradient);}.cls-17{fill:url(#linear-gradient-2);}.cls-18{fill:url(#linear-gradient-3);}.cls-19{fill:#5d3680;}.cls-20{fill:#cfa9f2;}.cls-21{fill:#4c2373;}.cls-22{fill:#bc94e0;}.cls-23{fill:url(#linear-gradient-4);}.cls-25{fill:#42275c;}</style><linearGradient id="linear-gradient" x1="308.11" y1="200.3" x2="320.43" y2="200.3" gradientTransform="translate(94.48 -27.47) rotate(4.38)" gradientUnits="userSpaceOnUse"><stop offset="0" stop-color="#fab6b6"/><stop offset="1" stop-color="#ffead6"/></linearGradient><linearGradient id="linear-gradient-2" x1="236.35" y1="147.77" x2="251.84" y2="147.77" xlink:href="#linear-gradient"/><linearGradient id="linear-gradient-3" x1="311.29" y1="121.93" x2="333.01" y2="121.93" gradientTransform="matrix(1, 0, 0, 1, 0, 0)" xlink:href="#linear-gradient"/><linearGradient id="linear-gradient-4" x1="240.04" y1="208.47" x2="258.87" y2="208.47" xlink:href="#linear-gradient"/></defs><title>HOWITWORK_VOLUNTER_2</title><g id="Layer_2" data-name="Layer 2"><g id="how_it_work" data-name="how it work"><path class="cls-1" d="M381,310.79c-7.79-8.85-35,12.25-54.73-2.24-4.41-3.24-7.33-7.49-13.69-8.21-7.32-.83-16.63,3.3-19.9,11.19-3.89,9.37,2.82,18.91,3.73,20.16,10.56,14.54,36.31,15.23,54.24,8.46C369.64,333,389.18,320.13,381,310.79Z"/><path class="cls-1" d="M44.61,186.74a110.48,110.48,0,0,0,3.86,24.08c14.32,51.55,64.24,79.48,106.47,84.81a113.6,113.6,0,0,0,19.46.83c6.73-.32,13.15-1,19.33-1.8h0c4.44-.6,8.77-1.3,13-2.07,38.66-7,69.88-19.07,117-4a122.73,122.73,0,0,0,43.43,5.62,119.62,119.62,0,0,0,15.24-1.74c18.56-3.34,35.58-11,48.68-22.17a74.74,74.74,0,0,0,21.06-28.67,70,70,0,0,0,4.74-18.72c1.52-13.63,1.17-27.07-2-40a89.82,89.82,0,0,0-4.64-14c-.32-.75-.65-1.5-1-2.24s-.6-1.28-.91-1.92a91.68,91.68,0,0,0-5.13-9.09c-.55-.86-1.12-1.72-1.71-2.57a100,100,0,0,0-11.49-13.76,131.08,131.08,0,0,0-21.2-17.12c-12-7.88-26.58-15.14-44.21-21.65q-14.56-5.37-32-10-6.3-1.68-13-3.27a105,105,0,0,1-11.57-3.5C298,80,287.82,74.92,277,69.54,259,60.68,239,51.14,213.69,46.34q-5.07-1-10.45-1.66-5.78-.75-11.93-1.13c-1.91-.12-3.85-.22-5.82-.27l-1.12,0a144.25,144.25,0,0,0-45.29,6.56c-2.21.69-4.43,1.43-6.64,2.23-1.08.38-2.15.79-3.23,1.2l-1.46.58C106.18,62.45,84.9,77,69.17,99.53l-.69,1c-1.4,2.06-2.76,4.18-4.06,6.37a136.35,136.35,0,0,0-14.55,34.7c-.76,2.8-1.45,5.66-2.06,8.61q-1.2,5.58-2,11.53c0,.37-.1.73-.16,1.09q-.42,3.23-.69,6.37A128.23,128.23,0,0,0,44.61,186.74Z"/><path class="cls-2" d="M86.93,183.29A87.81,87.81,0,0,0,90,202.43c11.38,41,51.07,63.19,84.65,67.43a91,91,0,0,0,15.47.66c5.36-.26,10.45-.76,15.37-1.43h0c3.53-.47,7-1,10.34-1.65,30.74-5.55,55.55-15.16,93-3.21a97.44,97.44,0,0,0,46.64,3.09c14.76-2.66,28.28-8.73,38.71-17.63A59.54,59.54,0,0,0,411,226.9,55.93,55.93,0,0,0,414.73,212a91,91,0,0,0-1.58-31.8,71.38,71.38,0,0,0-3.69-11.12c-.25-.59-.51-1.19-.79-1.78s-.47-1-.72-1.52a72.55,72.55,0,0,0-4.08-7.23c-.44-.69-.89-1.37-1.36-2a79.82,79.82,0,0,0-9.13-11A104.78,104.78,0,0,0,376.52,132a173.15,173.15,0,0,0-35.15-17.21q-11.58-4.27-25.4-8-5-1.33-10.35-2.6a82.81,82.81,0,0,1-9.2-2.79c-8.07-2.92-16.12-7-24.76-11.27-14.27-7-30.14-14.63-50.3-18.45-2.69-.51-5.46-1-8.31-1.32q-4.59-.6-9.48-.9c-1.52-.1-3.07-.17-4.63-.22l-.89,0a114.55,114.55,0,0,0-36,5.21q-2.64.82-5.28,1.77c-.86.31-1.71.63-2.57,1L153,77.6C135.89,84.47,119,96,106.45,114l-.54.79c-1.12,1.63-2.19,3.32-3.23,5.06a108.5,108.5,0,0,0-11.57,27.59c-.6,2.23-1.15,4.5-1.64,6.84q-.94,4.44-1.6,9.17c0,.29-.08.58-.13.87-.22,1.71-.4,3.39-.55,5.06A102.68,102.68,0,0,0,86.93,183.29Z"/><circle class="cls-3" cx="259.41" cy="161.58" r="110.75"/><rect class="cls-4" x="93.03" y="195.38" width="33.98" height="46.46" rx="9.49" ry="9.49"/><rect class="cls-4" x="150.83" y="148.92" width="33.98" height="92.92" rx="9.49" ry="9.49"/><polyline class="cls-5" points="98.86 165.31 98.86 135.98 85.35 135.98 110.02 109.01 134.69 135.98 121.2 135.98 121.2 165.31"/><polyline class="cls-6" points="98.86 142.09 98.86 135.98 85.35 135.98 110.02 109.01 134.69 135.98 121.2 135.98 121.2 165.31"/><line class="cls-7" x1="98.86" y1="165.31" x2="98.86" y2="152.79"/><polyline class="cls-5" points="236.77 151.91 236.77 122.58 250.28 122.58 225.61 95.61 200.94 122.58 214.43 122.58 214.43 151.91"/><polyline class="cls-6" points="236.77 128.69 236.77 122.58 250.28 122.58 225.61 95.61 200.94 122.58 214.43 122.58 214.43 151.91"/><line class="cls-7" x1="236.77" y1="151.9" x2="236.77" y2="139.39"/><polygon class="cls-6" points="190.99 69.9 177.49 69.9 177.49 110.66 155.14 110.66 155.14 69.9 141.64 69.9 166.31 42.93 190.99 69.9"/><rect class="cls-4" x="208.62" y="179.48" width="33.98" height="62.35" rx="9.49" ry="9.49"/><rect class="cls-8" x="67.61" y="234.85" width="200.42" height="8.94" rx="4.47" ry="4.47"/><circle class="cls-9" cx="446.18" cy="95.61" r="4.93"/><circle class="cls-10" cx="183.2" cy="8.15" r="6.95"/><circle class="cls-11" cx="192.13" cy="322.26" r="10.36"/><rect class="cls-12" x="329.03" y="7.84" width="16.24" height="16.24" transform="translate(110.04 -233.73) rotate(45)"/><rect class="cls-13" x="5.57" y="182.92" width="18.2" height="18.2" transform="translate(140.08 45.87) rotate(45)"/><circle class="cls-14" cx="338.33" cy="173.01" r="55.21"/><path class="cls-15" d="M414.55,202.21l-10.85,2.18-.6-3a2.71,2.71,0,0,0-3.18-2.12l-14.15,2.85a2.71,2.71,0,0,0-2.12,3.18l.6,3-10.86,2.18A3.09,3.09,0,0,0,371,214.1l4.54,22.55a3.07,3.07,0,0,0,3.62,2.41l41.16-8.27a3.09,3.09,0,0,0,2.41-3.62l-4.54-22.55A3.07,3.07,0,0,0,414.55,202.21Zm-28.27,2.59s0,0,0,0l14.15-2.84s0,0,0,0l.6,3-14.19,2.85Z"/><path class="cls-8" d="M310.66,139.9s-10.72,2.09-12.76,5.8-12.26,45.47-10.23,49.92l6.2,5s7.14-3.67,8.93-8.63S310.66,139.9,310.66,139.9Z"/><path class="cls-16" d="M387,194.6h0a3.92,3.92,0,0,1,.28-.31,73,73,0,0,0,4-7.24l3.8,5.85c.09.13.19.27.27.41l3,5.63c.62,1.24-.82,3.4-2.18,5a3.88,3.88,0,0,1-4.55,1.06l-.2-.09a2.87,2.87,0,0,1-.51-.23h0a3,3,0,0,1-1.19-1.21l-3-5.63A3,3,0,0,1,387,194.6Z"/><path class="cls-17" d="M319.17,133.83a48,48,0,0,0,2.67,9.84l11.53,6.64L334.53,136s-4-1.21-5.16-8.56Z"/><path class="cls-18" d="M317.92,134.48c-2.29,0-4.43-3-5.53-8.1-.06-.32-.14-.65-.21-1-.75-3.83-1.06-7.49-.8-8.88.62-3.35,2.39-7.23,12.58-7.22s8.5,6.78,9,16.68S317.92,134.48,317.92,134.48Z"/><path class="cls-19" d="M333,126a14.41,14.41,0,0,0-1-3,2.7,2.7,0,0,0,.8-2.78c-.45-1.52-2-1.36-3.1-1-2.4-2.88-6.43-5.41-13.12-4.61-14.08,1.67-9.11-12.22,2.86-15.22,0,0-.86,4.82,6.84,4.91C342.45,104.48,334.25,123.78,333,126Z"/><path class="cls-20" d="M394.25,186.39s-7.47,4.09-9.31,2.38c-6.27-5.87-11.39-19.8-11.39-19.8-6.47-.34-16.77-4.73-16.77-4.73v0c-.16,2.67-.19,5.29-.14,7.84a117.67,117.67,0,0,0,7,38.11,55,55,0,0,1-10.21,6.2,48.06,48.06,0,0,1-12.52,4.05c-17.9,3-20.5-.11-20.5-.11-7.9-23.5-14-38-16.94-44.63a44.75,44.75,0,0,1-3.3-11c-1.24-7.59-2.26-19.22,2.53-21.87a28.64,28.64,0,0,1,8-3c2.86-.6,5.11-1,8-1.4,1.87-.25-1.4,6.12,7.29,5.38,7.32-.61,5.76-6.71,7.42-6.79,6.34-.28,9.8.21,11.54.63a5.78,5.78,0,0,1,1.5.48c11.16,2.36,34.36,15.85,41.35,20a5.19,5.19,0,0,1,2.45,3.53Z"/><path class="cls-8" d="M394.25,186.39s-7.47,4.09-9.31,2.38c-6.27-5.87-11.39-19.8-11.39-19.8-6.47-.34-16.77-4.73-16.77-4.73v0c-.16,2.67-9.72-22.23-11.87-26.55a5.78,5.78,0,0,1,1.5.48c11.16,2.36,34.36,15.85,41.35,20a5.19,5.19,0,0,1,2.45,3.53Z"/><path class="cls-8" d="M326.29,143.7l-5.6-.43a.82.82,0,0,0-.53,1c.16.87,2.07,3.19,2.76,3.29S327.84,145.27,326.29,143.7Z"/><path class="cls-21" d="M319.4,136.77s.87,4.58,3.78,6.56l-3.71,5.79s-5.33-5.28-5.56-9.58C313.91,139.54,318.07,137.05,319.4,136.77Z"/><path class="cls-8" d="M319.72,136.69s.66,4.14,3.19,6.39l-3.59,5.29s-4.87-4.72-5.68-9.07A53.39,53.39,0,0,1,319.72,136.69Z"/><path class="cls-21" d="M332.92,135.62s-5.87,6.61-10,7.46l3,7.15s12.32-8.74,12-13.15C337.87,137.08,334.28,135.54,332.92,135.62Z"/><path class="cls-8" d="M332.29,134.48s-5.24,7.75-9.38,8.6l2.9,6.36s11.94-8.15,11.59-12.56C337.4,136.88,333.65,134.4,332.29,134.48Z"/><polygon class="cls-8" points="384.94 188.77 386.79 194.55 395.82 192.79 394.25 186.39 384.94 188.77"/><path class="cls-22" d="M344.8,206.78c3,4.33,5.78,7.68,8.63,9.64a54.62,54.62,0,0,0,10.21-6.2,118.22,118.22,0,0,1-6.86-45.95c-2-1.23-4-1.94-5.41-1C347.78,165.84,339.9,199.65,344.8,206.78Z"/><path class="cls-8" d="M323.85,147.16a85.69,85.69,0,0,0,7.94,17.39c7.85,12.93,18.22,23.5,33.19,25.08,0,0,2.78-.9,8.32,4.18,0,0-4.09,5-7.15,5.18-24.49,1.09-45.72-27.91-44.27-52.23C321.93,145.94,323.42,146.23,323.85,147.16Z"/><path class="cls-23" d="M322.05,201.84h0a2.33,2.33,0,0,1-.08-.46,82.68,82.68,0,0,0-3.63-8.43l7.71.66a2.62,2.62,0,0,1,.55,0l7,1.22c1.51.31,2.42,3,2.92,5.35a4.3,4.3,0,0,1-2.17,4.71l-.21.11a3.5,3.5,0,0,1-.54.29h0a3.42,3.42,0,0,1-1.88.22l-7-1.23A3.35,3.35,0,0,1,322.05,201.84Z"/><path class="cls-8" d="M287.67,195.62s2,6.74,8.44,7.88c3.54.63,25.86-2.12,25.86-2.12l.3-8.09s-18.21-5-24.8-3.81A15.54,15.54,0,0,0,287.67,195.62Z"/><polygon class="cls-8" points="322.27 193.29 317.13 192 317.01 202.1 321.96 201.38 322.27 193.29"/><path class="cls-24" d="M322.54,124.59l6.12.83a.72.72,0,0,1,.53,1.08l-.31.54a.91.91,0,0,1-1.54.07l-.49-.68Z"/><path class="cls-24" d="M316.39,124.91,313,126.38c-.07-.32-.15-.65-.21-1Z"/><circle class="cls-25" cx="322.72" cy="120.97" r="1.16"/><circle class="cls-25" cx="315.23" cy="121.28" r="1.16"/><circle class="cls-24" cx="315.43" cy="120.83" r="0.52"/><circle class="cls-24" cx="323.04" cy="120.57" r="0.52"/><path class="cls-25" d="M317.31,118.42c-.1,1.29-5.06,1.32-5.06,1.32s-.28-.78-.07-1.09,1.66-.72,1.66-.72C314.32,117.84,317.36,117.88,317.31,118.42Z"/><path class="cls-25" d="M325.18,119.14s-6,.49-6.05-1c0-.67,4.09-.81,4.84-.68,0,0,1.13.29,1.34.59S325.18,119.14,325.18,119.14Z"/><path class="cls-25" d="M317.39,128.27s2,3.33,5,0"/></g></g></svg>