<svg xmlns="http://www.w3.org/2000/svg" viewBox="0 0 43 42" width="43" height="42">
	<defs>
		<clipPath clipPathUnits="userSpaceOnUse" id="cp1">
			<path d="M-847 -1499L593 -1499L593 3635L-847 3635Z" />
		</clipPath>
	</defs>
	<style>
		tspan { white-space:pre }
		.shp0 { fill: #6980ff } 
		.shp1 { fill: #ffffff } 
	</style>
	<g id="Become Partner Advisor" clip-path="url(#cp1)">
		<g id="03_motivate">
			<path id="Shape" fill-rule="evenodd" class="shp0" d="M25.04 4.97C26.06 5.98 26.63 7.36 26.63 8.79C26.63 11.78 24.21 14.2 21.22 14.2C18.23 14.2 15.81 11.78 15.81 8.79C15.81 5.8 18.23 3.38 21.22 3.38C22.65 3.38 24.03 3.95 25.04 4.97ZM25.28 8.79C25.28 6.55 23.46 4.73 21.22 4.73C18.98 4.73 17.16 6.55 17.16 8.79C17.16 11.04 18.98 12.85 21.22 12.85C23.46 12.85 25.27 11.04 25.28 8.79Z" />
			<path id="Shape" fill-rule="evenodd" class="shp0" d="M30.02 7.42C32.94 10.08 34.42 13.98 34.02 17.91C33.73 20.5 32.68 22.95 30.99 24.93L28.89 27.45C27.99 28.53 27.44 29.86 27.33 31.27C28.16 31.57 28.7 32.37 28.66 33.26C28.62 34.14 28.01 34.89 27.16 35.12C27.37 35.63 27.36 36.22 27.12 36.72C26.88 37.23 26.45 37.61 25.92 37.79C25.64 40.17 23.62 41.96 21.22 41.96C18.82 41.96 16.8 40.17 16.52 37.79C15.99 37.62 15.55 37.23 15.32 36.72C15.08 36.22 15.07 35.63 15.28 35.12C14.43 34.89 13.82 34.14 13.78 33.26C13.74 32.37 14.28 31.57 15.11 31.27C14.99 29.87 14.45 28.53 13.55 27.45L11.28 24.73C6.99 19.58 7.49 11.97 12.42 7.43L12.42 6.29L13.66 5.85C13.7 5.74 13.74 5.64 13.79 5.53L13.23 4.35L16.79 0.8L17.96 1.37C18.06 1.32 18.17 1.28 18.28 1.23L18.7 0L23.73 0L24.16 1.23C24.27 1.28 24.38 1.32 24.48 1.37L25.67 0.8L29.21 4.35L28.65 5.53C28.7 5.64 28.74 5.74 28.78 5.85L30.02 6.29L30.02 7.42ZM13.77 10.36L14.72 10.68L14.83 11C14.92 11.26 15.02 11.52 15.15 11.77L15.3 12.06L14.86 12.97L17.06 15.16L17.96 14.73L18.26 14.87C18.51 14.99 18.77 15.1 19.03 15.19L19.35 15.29L19.67 16.25L22.77 16.25L23.09 15.29L23.41 15.19C23.67 15.1 23.93 14.99 24.18 14.87L24.48 14.72L25.38 15.15L27.58 12.97L27.14 12.07L27.29 11.77C27.41 11.51 27.52 11.25 27.61 10.98L27.71 10.66L28.67 10.34L28.67 7.24L27.71 6.92L27.6 6.6C27.52 6.34 27.41 6.08 27.29 5.83L27.14 5.53L27.57 4.63L25.38 2.43L24.48 2.86L24.18 2.72C23.93 2.59 23.67 2.49 23.41 2.4L23.09 2.29L22.77 1.34L19.66 1.34L19.34 2.29L19.03 2.4C18.76 2.49 18.5 2.6 18.25 2.72L17.96 2.86L17.08 2.42L14.88 4.62L15.32 5.52L15.17 5.82C15.05 6.07 14.94 6.33 14.85 6.59L14.74 6.91L13.79 7.24L13.77 10.36ZM20.96 20.3L21.86 17.59L19.78 17.59L18.16 21.65L22.13 21.65L20.1 28.4L24.19 20.29L20.96 20.3ZM21.22 40.6C22.83 40.6 24.21 39.46 24.53 37.88L17.92 37.88C18.24 39.46 19.62 40.59 21.23 40.59L21.22 40.6ZM25.28 36.53C25.53 36.54 25.77 36.42 25.9 36.2C26.04 35.99 26.04 35.72 25.9 35.5C25.77 35.28 25.53 35.16 25.28 35.17L17.16 35.17C16.8 35.2 16.53 35.49 16.53 35.85C16.53 36.21 16.8 36.5 17.16 36.53L25.28 36.53ZM26.65 33.82C27.02 33.82 27.32 33.52 27.32 33.14C27.32 32.77 27.02 32.47 26.65 32.47L15.83 32.47C15.45 32.47 15.15 32.77 15.15 33.14C15.15 33.52 15.45 33.82 15.83 33.82L26.65 33.82ZM32.67 17.78C32.98 14.73 32.02 11.68 30.02 9.36L30.02 11.3L28.78 11.74C28.74 11.85 28.7 11.95 28.65 12.06L29.21 13.24L25.67 16.79L24.48 16.22L24.16 16.36L23.73 17.59L23.29 17.59L22.83 18.94L26.37 18.94L21.35 29.01C21.07 29.71 20.28 30.05 19.58 29.78C18.87 29.5 18.53 28.7 18.81 28L20.29 23L16.15 23L18.53 17.08L18.28 16.36C18.17 16.32 18.06 16.27 17.96 16.23L16.79 16.79L13.23 13.24L13.8 12.07C13.76 11.96 13.71 11.85 13.67 11.75L12.44 11.31L12.44 9.39C8.87 13.54 8.82 19.66 12.33 23.86L14.59 26.58C15.67 27.86 16.32 29.45 16.46 31.11L26.01 31.11C26.15 29.45 26.8 27.86 27.87 26.57L29.97 24.05C31.49 22.28 32.44 20.09 32.69 17.77L32.67 17.78Z" />
			<path id="Path" class="shp0" d="M24.53 37.89C24.21 39.47 22.83 40.6 21.22 40.6C19.61 40.6 18.23 39.47 17.91 37.89L24.53 37.89Z" />
			<path id="Path" class="shp1" d="M25.96 35.86C25.96 36.04 25.88 36.21 25.76 36.34C25.63 36.47 25.46 36.54 25.28 36.54L17.16 36.54C16.8 36.51 16.53 36.22 16.53 35.86C16.53 35.5 16.8 35.21 17.16 35.18L25.28 35.18C25.46 35.18 25.63 35.26 25.76 35.38C25.88 35.51 25.96 35.68 25.96 35.86Z" />
			<path id="Path" class="shp1" d="M27.31 33.15C27.31 33.33 27.24 33.51 27.11 33.63C26.99 33.76 26.81 33.83 26.63 33.83L15.82 33.83C15.44 33.83 15.14 33.53 15.14 33.15C15.14 32.78 15.44 32.48 15.82 32.48L26.63 32.48C27.01 32.48 27.31 32.78 27.31 33.15L27.31 33.15Z" />
			<path id="Path" class="shp1" d="M20.1 28.4L22.13 21.65L18.16 21.65L19.78 17.59L21.86 17.59L20.96 20.3L24.18 20.3L20.1 28.4L20.1 28.4Z" />
			<path id="Path" class="shp0" d="M16.31 31.28L16.31 31.14C16.17 29.5 15.53 27.95 14.49 26.68L12.2 23.96C8.64 19.7 8.68 13.49 12.3 9.28L12.58 8.96L12.58 11.21L13.78 11.63L13.81 11.7C13.85 11.8 13.89 11.9 13.94 12.01L13.97 12.08L13.42 13.23L16.81 16.6L17.95 16.05L18.11 16.12L18.33 16.21L18.4 16.23L18.7 17.08L16.39 22.85L20.53 22.85L18.96 28.06C18.81 28.65 19.12 29.26 19.68 29.48C20.25 29.71 20.89 29.48 21.19 28.95L26.12 19.09L22.62 19.09L23.17 17.42L23.62 17.42L24.04 16.23L24.49 16.04L25.63 16.59L29.02 13.21L28.47 12.06L28.5 11.99C28.55 11.89 28.59 11.79 28.64 11.67L28.66 11.6L29.86 11.18L29.86 8.93L30.14 9.25C32.17 11.6 33.15 14.69 32.83 17.79C32.57 20.14 31.61 22.36 30.07 24.15L27.97 26.68C26.92 27.94 26.29 29.49 26.15 31.13L26.15 31.28L16.31 31.28Z" />
			<path id="Shape" fill-rule="evenodd" class="shp1" d="M30.02 9.36C32.02 11.68 32.98 14.73 32.67 17.78C32.41 20.1 31.47 22.29 29.95 24.06L27.85 26.58C26.78 27.87 26.13 29.46 25.99 31.12L16.44 31.12C16.31 29.46 15.66 27.87 14.59 26.58L12.33 23.86C8.82 19.66 8.87 13.54 12.44 9.39L12.44 11.31L13.67 11.75C13.71 11.85 13.76 11.96 13.8 12.07L13.23 13.24L16.79 16.79L17.96 16.23C18.06 16.27 18.17 16.32 18.28 16.36L18.53 17.08L16.15 23L20.29 23L18.81 28C18.53 28.7 18.87 29.5 19.58 29.78C20.28 30.05 21.07 29.71 21.35 29.01L26.37 18.94L22.83 18.94L23.29 17.59L23.73 17.59L24.16 16.36L24.48 16.22L25.67 16.79L29.21 13.24L28.65 12.06C28.7 11.95 28.74 11.85 28.78 11.74L30.02 11.3L30.02 9.36ZM29.7 11.08L28.68 11.45L28.54 11.5L28.49 11.64C28.45 11.74 28.4 11.84 28.36 11.95L28.3 12.09L28.36 12.22L28.83 13.2L25.6 16.41L24.62 15.94L24.49 15.87L24.36 15.93L24.2 16L24.04 16.06L23.91 16.12L23.87 16.25L23.5 17.27L23.06 17.27L22.98 17.49L22.53 18.84L22.39 19.26L25.86 19.26L21.06 28.87C20.89 29.2 20.57 29.42 20.21 29.45C19.85 29.48 19.49 29.32 19.28 29.03C19.08 28.77 19.01 28.42 19.11 28.1L20.61 23.1L20.73 22.69L16.63 22.69L18.83 17.2L18.87 17.09L18.83 16.97L18.57 16.25L18.53 16.11L18.38 16.06L18.16 15.97L18.07 15.93L17.94 15.87L17.81 15.94L16.83 16.41L13.61 13.18L14.08 12.2L14.14 12.06L14.08 11.93C14.03 11.83 13.99 11.72 13.95 11.61L13.9 11.48L13.76 11.45L12.74 11.09L12.74 8.55L12.18 9.2C8.51 13.47 8.47 19.77 12.08 24.09L14.35 26.81C15.38 28.04 16 29.56 16.15 31.15L16.18 31.44L26.28 31.44L26.31 31.15C26.44 29.55 27.07 28.03 28.09 26.79L30.19 24.26C31.75 22.45 32.73 20.2 32.99 17.82C33.31 14.68 32.32 11.55 30.26 9.16L29.7 8.52L29.7 11.08Z" />
			<path id="Shape" fill-rule="evenodd" class="shp1" d="M28.67 7.24L28.67 10.36L27.71 10.68L27.61 11C27.52 11.26 27.41 11.52 27.29 11.77L27.15 12.06L27.57 12.96L25.38 15.15L24.48 14.73L24.18 14.87C23.93 14.99 23.67 15.1 23.41 15.19L23.09 15.3L22.77 16.25L19.66 16.25L19.34 15.3L19.02 15.19C18.76 15.1 18.5 15 18.25 14.87L17.95 14.73L17.05 15.16L14.85 12.97L15.29 12.07L15.14 11.77C15.02 11.52 14.91 11.26 14.83 10.99L14.72 10.67L13.77 10.36L13.77 7.25L14.72 6.92L14.83 6.6C14.92 6.34 15.02 6.08 15.15 5.83L15.29 5.53L14.86 4.63L17.05 2.43L17.96 2.86L18.26 2.72C18.51 2.6 18.77 2.49 19.03 2.4L19.35 2.3L19.67 1.34L22.78 1.34L23.1 2.3L23.41 2.4C23.68 2.49 23.94 2.6 24.19 2.72L24.48 2.86L25.38 2.43L27.58 4.62L27.15 5.53L27.3 5.82C27.42 6.07 27.53 6.33 27.61 6.6L27.72 6.91L28.67 7.24ZM25.04 12.63C26.06 11.61 26.63 10.24 26.63 8.8C26.63 5.81 24.21 3.39 21.22 3.39C18.23 3.39 15.81 5.81 15.81 8.8C15.81 11.79 18.23 14.21 21.22 14.21C22.65 14.21 24.03 13.64 25.04 12.63Z" />
			<path id="Shape" fill-rule="evenodd" class="shp0" d="M25.28 8.79C25.28 11.04 23.46 12.85 21.22 12.85C18.98 12.85 17.16 11.04 17.16 8.79C17.16 6.55 18.98 4.73 21.22 4.73C23.46 4.74 25.27 6.55 25.28 8.79ZM23.93 8.79C23.93 7.3 22.71 6.09 21.22 6.09C19.72 6.09 18.51 7.3 18.51 8.79C18.51 10.29 19.72 11.5 21.22 11.5C22.71 11.5 23.93 10.29 23.93 8.79Z" />
			<path id="Shape" fill-rule="evenodd" class="shp0" d="M21.22 11.98C19.46 11.98 18.04 10.55 18.04 8.8C18.04 7.04 19.46 5.62 21.22 5.62C22.98 5.62 24.4 7.04 24.4 8.8C24.4 10.55 22.98 11.98 21.22 11.98ZM21.22 7.92C20.86 7.92 20.54 8.13 20.41 8.46C20.27 8.79 20.35 9.17 20.6 9.42C20.85 9.67 21.23 9.74 21.56 9.61C21.88 9.47 22.1 9.15 22.1 8.79C22.1 8.56 22 8.34 21.84 8.17C21.67 8.01 21.45 7.92 21.22 7.92Z" />
			<path id="Shape" fill-rule="evenodd" class="shp1" d="M21.22 6.09C19.73 6.09 18.52 7.3 18.51 8.79C18.51 9.89 19.17 10.88 20.18 11.3C21.2 11.72 22.36 11.49 23.14 10.71C23.91 9.94 24.14 8.77 23.72 7.76C23.3 6.75 22.31 6.09 21.22 6.09ZM21.22 10.15C20.47 10.15 19.87 9.54 19.87 8.79C19.87 8.25 20.2 7.75 20.7 7.54C21.21 7.33 21.79 7.45 22.18 7.84C22.57 8.23 22.68 8.81 22.47 9.32C22.26 9.82 21.77 10.15 21.22 10.15ZM21.22 5.14C23.24 5.14 24.88 6.77 24.88 8.79C24.88 10.28 23.99 11.61 22.62 12.18C21.25 12.75 19.68 12.44 18.63 11.39C17.58 10.34 17.27 8.77 17.83 7.4C18.4 6.03 19.74 5.14 21.22 5.14ZM21.22 9.2C21.44 9.2 21.62 9.02 21.62 8.79C21.62 8.57 21.44 8.39 21.22 8.39C21 8.39 20.82 8.57 20.82 8.79C20.82 9.02 21 9.2 21.22 9.2Z" />
			<path id="Path" class="shp1" d="M21.97 8.79C21.97 9.1 21.79 9.38 21.51 9.49C21.23 9.61 20.9 9.55 20.69 9.33C20.47 9.12 20.4 8.79 20.52 8.51C20.64 8.23 20.91 8.04 21.22 8.04C21.63 8.04 21.97 8.38 21.97 8.79L21.97 8.79Z" />
			<path id="Rectangle" class="shp0" d="M35.43 15.56L42.2 15.56L42.2 16.91L35.43 16.91L35.43 15.56Z" />
			<path id="Path" class="shp0" d="M34.1 10.18L40.35 7.59L40.87 8.84L34.61 11.42L34.1 10.18Z" />
			<path id="Path" class="shp0" d="M1.58 8.84L2.1 7.59L8.35 10.18L7.84 11.43L1.58 8.84Z" />
			<path id="Rectangle" class="shp0" d="M0.24 15.56L7.01 15.56L7.01 16.91L0.24 16.91L0.24 15.56Z" />
			<path id="Path" class="shp0" d="M1.59 23.64L7.84 21.05L8.36 22.3L2.11 24.89L1.59 23.64Z" />
			<path id="Path" class="shp0" d="M34.1 22.3L34.61 21.05L40.86 23.64L40.34 24.89L34.1 22.3Z" />
		</g>
	</g>
</svg>