<svg xmlns="http://www.w3.org/2000/svg" xmlns:xlink="http://www.w3.org/1999/xlink" viewBox="0 0 477.7 333.07"><defs><style>.cls-1,.cls-17,.cls-18{fill:#f6eeff;}.cls-14,.cls-2,.cls-8{fill:#dec9f2;}.cls-15,.cls-16,.cls-20,.cls-3{fill:none;}.cls-10,.cls-11,.cls-12,.cls-13,.cls-14,.cls-15,.cls-16,.cls-19,.cls-20,.cls-24,.cls-25,.cls-3,.cls-4,.cls-5,.cls-6,.cls-7,.cls-8,.cls-9{stroke:#6c3f95;}.cls-11,.cls-12,.cls-13,.cls-14,.cls-15,.cls-16,.cls-20,.cls-3{stroke-linecap:round;}.cls-11,.cls-12,.cls-13,.cls-14,.cls-15,.cls-16,.cls-20,.cls-3,.cls-4{stroke-linejoin:round;}.cls-10,.cls-11,.cls-16,.cls-3,.cls-4,.cls-5,.cls-6,.cls-7,.cls-8,.cls-9{stroke-width:3.6px;}.cls-3{stroke-dasharray:23.2 23.2;}.cls-12,.cls-4,.cls-6{fill:#9e64d1;}.cls-21,.cls-25,.cls-5{fill:#7e4aad;}.cls-10,.cls-17,.cls-18,.cls-19,.cls-24,.cls-25,.cls-5,.cls-6,.cls-7,.cls-8,.cls-9{stroke-miterlimit:10;}.cls-13,.cls-7{fill:#65bcff;}.cls-23,.cls-9{fill:#cfa9f2;}.cls-10,.cls-11,.cls-19,.cls-27{fill:#fff;}.cls-12,.cls-13,.cls-14{stroke-width:4.35px;}.cls-15{stroke-width:1.8px;}.cls-17,.cls-18{stroke:#65bcff;}.cls-17{stroke-width:2.24px;}.cls-18{stroke-width:1.71px;}.cls-19,.cls-20{stroke-width:4.15px;}.cls-22{fill:#6c3f95;}.cls-24{fill:url(#linear-gradient);}.cls-26{fill:url(#linear-gradient-2);}.cls-28{fill:#dbc2b3;}.cls-29{fill:#f2d6c6;}.cls-30{fill:url(#linear-gradient-3);}</style><linearGradient id="linear-gradient" x1="338.85" y1="219.79" x2="344.82" y2="227.34" gradientTransform="translate(-73.32 -44.04) rotate(-2.91)" gradientUnits="userSpaceOnUse"><stop offset="0" stop-color="#fab6b6"/><stop offset="1" stop-color="#ffead6"/></linearGradient><linearGradient id="linear-gradient-2" x1="250.61" y1="383.48" x2="268.51" y2="383.48" gradientTransform="translate(19.15 -227.7) rotate(-0.06)" xlink:href="#linear-gradient"/><linearGradient id="linear-gradient-3" x1="257.87" y1="386.91" x2="261.34" y2="386.91" gradientTransform="translate(19.15 -227.7) rotate(-0.06)" gradientUnits="userSpaceOnUse"><stop offset="0" stop-color="#f27271"/><stop offset="1" stop-color="#e73c84"/></linearGradient></defs><title>HOWITWORK_VOLUNTER_3</title><g id="Layer_2" data-name="Layer 2"><g id="how_it_work" data-name="how it work"><path class="cls-1" d="M460.82,173.28A111,111,0,0,1,457,197.35c-14.32,51.56-64.24,79.48-106.48,84.81A112.59,112.59,0,0,1,331,283c-6.73-.31-13.14-.95-19.32-1.79h0c-4.44-.6-8.77-1.31-13-2.07-38.67-7-69.88-19.07-117-4a122.88,122.88,0,0,1-43.42,5.62A119.62,119.62,0,0,1,123,279c-18.56-3.34-35.58-11-48.69-22.17a74.92,74.92,0,0,1-21.06-28.67,70.47,70.47,0,0,1-4.73-18.72c-1.53-13.63-1.18-27.07,2-40a88.89,88.89,0,0,1,4.64-14c.32-.74.65-1.49,1-2.24s.6-1.27.91-1.91a91,91,0,0,1,5.13-9.1c.55-.86,1.12-1.71,1.71-2.56a100.1,100.1,0,0,1,11.49-13.77,131,131,0,0,1,21.2-17.11c12-7.88,26.58-15.14,44.21-21.65,9.71-3.58,20.33-6.94,32-10q6.31-1.7,13-3.27a105.63,105.63,0,0,0,11.57-3.5c10.15-3.69,20.28-8.81,31.14-14.19,18-8.87,37.92-18.4,63.27-23.21,3.38-.63,6.86-1.19,10.45-1.65q5.78-.75,11.92-1.14c1.92-.11,3.86-.21,5.83-.27l1.12,0a144,144,0,0,1,45.29,6.56q3.31,1,6.64,2.23c1.08.38,2.15.79,3.23,1.2l1.46.58c21.56,8.64,42.85,23.16,58.58,45.72l.68,1q2.12,3.09,4.07,6.36a136.57,136.57,0,0,1,14.55,34.71c.76,2.8,1.44,5.66,2.06,8.61q1.19,5.58,2,11.53l.15,1.09q.42,3.22.7,6.36A128.4,128.4,0,0,1,460.82,173.28Z"/><path class="cls-2" d="M418.5,169.82A88.41,88.41,0,0,1,415.43,189c-11.39,41-51.07,63.19-84.65,67.43a91,91,0,0,1-15.48.66c-5.35-.26-10.44-.77-15.36-1.43h0c-3.53-.48-7-1-10.34-1.65-30.74-5.56-55.56-15.16-93-3.21a97.44,97.44,0,0,1-46.64,3.09c-14.76-2.66-28.29-8.73-38.71-17.63a59.5,59.5,0,0,1-16.74-22.8,55.76,55.76,0,0,1-3.77-14.88,91,91,0,0,1,1.58-31.8A69.68,69.68,0,0,1,96,155.63c.25-.59.51-1.19.79-1.78s.47-1,.72-1.52a69.7,69.7,0,0,1,4.08-7.24c.43-.68.89-1.36,1.36-2a79.23,79.23,0,0,1,9.13-10.95,104.78,104.78,0,0,1,16.86-13.61,172.63,172.63,0,0,1,35.15-17.21q11.56-4.28,25.4-8,5-1.35,10.35-2.6a82.81,82.81,0,0,0,9.2-2.79c8.07-2.93,16.12-7,24.76-11.27C248,69.6,263.91,62,284.07,58.19c2.69-.5,5.45-.95,8.31-1.31q4.59-.6,9.48-.9c1.52-.1,3.07-.17,4.63-.22l.89,0a114.58,114.58,0,0,1,36,5.22q2.64.81,5.28,1.77l2.57,1,1.16.46C369.54,71,386.47,82.56,399,100.49c.19.26.37.52.55.79q1.67,2.44,3.23,5.06a108.55,108.55,0,0,1,11.57,27.59q.9,3.33,1.64,6.84.94,4.44,1.6,9.17l.12.87c.23,1.71.41,3.39.56,5.06A102.56,102.56,0,0,1,418.5,169.82Z"/><circle class="cls-3" cx="184.93" cy="154.74" r="110.75"/><path class="cls-4" d="M354.72,284.88,356.14,298,273.46,307l-.13-1.18A12,12,0,0,1,284,292.53Z"/><path class="cls-5" d="M351,250.93l3.68,34a12,12,0,0,0-9.86,13.1l.13,1.18,11.15-1.2,8.63-.94,3.59-.39a13.2,13.2,0,0,0,11.7-14.54l-3.68-33.95Z"/><path class="cls-6" d="M291.48,253.67h70.24a0,0,0,0,1,0,0v28.85a5.3,5.3,0,0,1-5.3,5.3H291.48a0,0,0,0,1,0,0V253.67A0,0,0,0,1,291.48,253.67Z" transform="matrix(0.99, -0.11, 0.11, 0.99, -27.25, 36.74)"/><path class="cls-6" d="M190.26,81.72H454a14.43,14.43,0,0,1,14.43,14.43v151.6A14.43,14.43,0,0,1,454,262.19H190.26a0,0,0,0,1,0,0V81.72a0,0,0,0,1,0,0Z" transform="translate(-16.6 36.46) rotate(-6.18)"/><path class="cls-7" d="M445.92,80.6l16.85,155.66a11.93,11.93,0,0,1-10.56,13.16L199.35,276.8a12,12,0,0,1-13.16-10.58L169.33,110.55a11.94,11.94,0,0,1,10.59-13.16L432.78,70A11.93,11.93,0,0,1,445.92,80.6Z"/><rect class="cls-8" x="192.45" y="97.59" width="244.93" height="130.55" rx="7.21" ry="7.21" transform="translate(-15.7 34.85) rotate(-6.18)"/><path class="cls-9" d="M461.51,224.6l1.26,11.66a11.93,11.93,0,0,1-10.56,13.16L199.35,276.8a12,12,0,0,1-13.16-10.58l-1.26-11.67Z"/><circle class="cls-10" cx="324.49" cy="251.35" r="6.28"/><polygon class="cls-11" points="154.56 108.38 137.9 237.9 46.21 226.11 59.54 122.53 88.84 99.92 154.56 108.38"/><polygon class="cls-11" points="90.04 100.08 86.61 126.76 59.44 123.26 59.54 122.53 88.84 99.92 90.04 100.08"/><rect class="cls-12" x="25.94" y="115.62" width="15.75" height="96.46" transform="translate(-75.29 37.02) rotate(-29.05)"/><rect class="cls-13" x="26.43" y="117.52" width="7.89" height="96.46" transform="translate(-76.65 35.59) rotate(-29.05)"/><polygon class="cls-14" points="64.02 202 64.48 212.76 64.79 219.59 59.13 215.73 50.24 209.65 64.02 202"/><path class="cls-14" d="M8.32,113.62h0a7.87,7.87,0,0,1,7.87,7.87v.74a0,0,0,0,1,0,0H.44a0,0,0,0,1,0,0v-.74A7.87,7.87,0,0,1,8.32,113.62Z" transform="translate(-56.2 18.87) rotate(-29.05)"/><polygon class="cls-12" points="64.48 212.76 64.79 219.59 59.13 215.73 64.48 212.76"/><rect class="cls-9" x="71.51" y="142.13" width="19.18" height="19.18" transform="matrix(0.99, 0.13, -0.13, 0.99, 20.02, -9.11)"/><rect class="cls-9" x="65.99" y="185.01" width="19.18" height="19.18" transform="translate(25.44 -8.05) rotate(7.33)"/><polyline class="cls-15" points="77.1 151.41 79.35 154.74 86.58 147.51"/><polyline class="cls-15" points="72.36 194.32 74.61 197.66 81.84 190.43"/><line class="cls-16" x1="95.38" y1="115.83" x2="137.26" y2="121.22"/><line class="cls-16" x1="108.66" y1="126.33" x2="136.15" y2="129.87"/><line class="cls-16" x1="112.83" y1="151.41" x2="133.05" y2="154"/><line class="cls-16" x1="104.44" y1="159.12" x2="131.93" y2="162.66"/><line class="cls-16" x1="95.92" y1="192.82" x2="127.53" y2="196.88"/><line class="cls-16" x1="105.48" y1="202.84" x2="126.42" y2="205.53"/><path class="cls-1" d="M156.49,299.58c7.79-8.85,35,12.25,54.74-2.24,4.41-3.25,7.32-7.49,13.69-8.21,7.31-.83,16.62,3.3,19.9,11.19,3.89,9.37-2.82,18.91-3.73,20.16-10.56,14.54-36.31,15.23-54.24,8.46C167.81,321.75,148.27,308.91,156.49,299.58Z"/><circle class="cls-11" cx="55.4" cy="68.39" r="8.03"/><circle class="cls-17" cx="424.03" cy="299.2" r="7.75"/><rect class="cls-11" x="111.5" y="304.36" width="13.38" height="13.38" transform="translate(254.56 7.53) rotate(45)"/><rect class="cls-18" x="416.7" y="4.24" width="14.65" height="14.65" transform="translate(132.38 -296.45) rotate(45)"/><rect class="cls-19" x="242.55" y="122.04" width="151.32" height="81.24" rx="7.98" ry="7.98" transform="translate(637.3 323.6) rotate(179.69)"/><line class="cls-20" x1="378.35" y1="157.21" x2="314.92" y2="157.55"/><line class="cls-20" x1="359.38" y1="169.95" x2="314.85" y2="170.19"/><line class="cls-20" x1="340.38" y1="182.7" x2="314.92" y2="182.83"/><path class="cls-21" d="M258.08,182.92c.32-1.65.59-3.26.88-4.94.18-1.08.37-2.2.59-3.43.71-4,4.43-6.05,6.32-6.85l2,15.22Z"/><path class="cls-22" d="M265.06,169.2l.6,4.62.67,5.07.4,3h-7.44c.23-1.25.44-2.5.66-3.78.18-1.07.37-2.19.59-3.41.5-2.83,2.75-4.58,4.52-5.53m1.64-2.87h-.09c-.82.26-7,2.37-8,8-.65,3.65-1.06,6.42-1.71,9.54H269l-.69-5.29-.67-5.07-.95-7.23Z"/><path class="cls-21" d="M293.44,182.92l.65-16.21.08,0c1.8.63,6,2.44,6.69,5.64.8,3.72,1.43,7.81,1.84,10.54Z"/><path class="cls-22" d="M295,168.16c1.76.77,4.38,2.26,4.85,4.43.69,3.2,1.26,6.69,1.66,9.33h-7.06l.18-4.44.2-5.13.17-4.19m-1.89-2.78-.27,6.89-.21,5.13-.27,6.52h11.47c-.4-2.7-1.09-7.44-2-11.75-.79-3.65-5.18-5.62-7.4-6.39h0c-.49-.17-.88-.28-1.1-.34l-.19-.05Z"/><path class="cls-23" d="M265.57,183.34l-.7-13.76a2.44,2.44,0,0,1,.63-1.74,3.09,3.09,0,0,1,1.29-.93l7.85-2.15,9.32-1.13,9.51,2.43a3.91,3.91,0,0,1,.73.24l.09,0a2.46,2.46,0,0,1,1.56,1.71l2.24,15.29Z"/><path class="cls-22" d="M283.92,164.21l.59.15.91.24,7.43,1.89.2,0,.28.07a3.69,3.69,0,0,1,.64.22l.06,0a2,2,0,0,1,1.25,1.27l.6,4.1.74,5.07.8,5.47h-31.3l-.21-4-.26-5.1-.21-4.11a1.92,1.92,0,0,1,.49-1.33,2.77,2.77,0,0,1,1-.74l.09,0h0l5.75-1.58,1.28-.35.65-.17,9.21-1.13M284,163l-9.51,1.16-.72.2-1.28.35-5.78,1.58h-.09a3.67,3.67,0,0,0-1.55,1.11,3.05,3.05,0,0,0-.77,2.14l.21,4.11.26,5.1.26,5.1h33.73l-1-6.78-.74-5.08-.6-4.09a3,3,0,0,0-2-2.19h0a4.81,4.81,0,0,0-.81-.27l-.29-.07-.19-.05-7.44-1.9-.9-.23L284,163Z"/><path class="cls-24" d="M274.28,160.06a15.25,15.25,0,0,1-.16,2.43,7.67,7.67,0,0,1-.53,2.39s8.58,1.63,11.48-1c0,0-2.25-5.21-2.26-7.88l-2.54,1.48-.19,2.16Z"/><polygon class="cls-22" points="297.76 177.13 264.76 178.81 264.5 173.72 297.02 172.06 297.76 177.13"/><path class="cls-25" d="M287.53,152.63a.37.37,0,0,1-.1.19l-.76.11-.44,2.86-.9.21-.52-.51-.28-5.64h-1.59l-5.25,0-3.94,0,.28,5.6-1.59.52-.66-1.08-.63-1.05,0-.07-.43-.7-.07-.12s-2-6.74,2.38-9.77c2.37-1.61,8.47-1.73,10.42-1C286.06,143.23,289.54,144.91,287.53,152.63Z"/><path class="cls-22" d="M288.36,154.31c0,2.92-2,2-2,2v2.15a3.35,3.35,0,0,1-.22,1.19,3.24,3.24,0,0,1-1.27,1.53,2,2,0,0,1-.32.18,3.22,3.22,0,0,1-1.42.33h-7.95l-.36,0a3.24,3.24,0,0,1-2.88-3.21v-1.89a1.61,1.61,0,0,1-1.92-1.28,3.59,3.59,0,0,1-.11-1.07,1.67,1.67,0,0,1,.34-1l.06-.08.1-.1a1.94,1.94,0,0,1,.86-.45h.11a.29.29,0,0,1,.25.21l.57,2.12a.78.78,0,0,0,.75.57h.31v-5.36a.85.85,0,0,1,.84-.84H284a1.26,1.26,0,0,1,1.26,1.25v5h.2a.65.65,0,0,0,.64-.55l.33-1.8a.92.92,0,0,1,.62-.71.83.83,0,0,1,.69,0C288.1,152.72,288.36,153.21,288.36,154.31Z"/><path class="cls-26" d="M288.09,154.34c0,2.84-1.93,1.94-1.93,1.94v2.08a3.19,3.19,0,0,1-.22,1.16,3.1,3.1,0,0,1-1.23,1.49,3.07,3.07,0,0,1-.31.17,3,3,0,0,1-1.37.32H275.3l-.35,0a3,3,0,0,1-.43-.08,3.15,3.15,0,0,1-1.58-1,3.11,3.11,0,0,1-.77-2.05v-1.84a1.57,1.57,0,0,1-1.87-1.25,3.68,3.68,0,0,1-.1-1,1.7,1.7,0,0,1,.33-1l.06-.07.09-.1a1.82,1.82,0,0,1,.84-.43h.11a.32.32,0,0,1,.24.21l.56,2.06a.75.75,0,0,0,.72.55h.3v-5.2a.82.82,0,0,1,.82-.82h9.65a1.22,1.22,0,0,1,1.22,1.21v4.87h.19a.63.63,0,0,0,.63-.52l.31-1.75a.87.87,0,0,1,.61-.69.79.79,0,0,1,.67,0C287.84,152.8,288.09,153.28,288.09,154.34Z"/><circle class="cls-22" cx="276.32" cy="153.53" r="0.73"/><circle class="cls-27" cx="276.66" cy="153.29" r="0.24"/><circle class="cls-22" cx="281.55" cy="153.52" r="0.73"/><circle class="cls-27" cx="281.79" cy="153.28" r="0.24"/><path class="cls-22" d="M274.07,151.49l.3.92a2.85,2.85,0,0,1,3.1-.36l.13-1.26S275.36,150.11,274.07,151.49Z"/><path class="cls-22" d="M284,151.4l-.26.94a2.85,2.85,0,0,0-3.12-.22l-.19-1.25S282.69,150.08,284,151.4Z"/><path class="cls-27" d="M272.52,157.28a3,3,0,0,1,2.41-1.34.6.6,0,0,1,.63.41h0a.59.59,0,0,1-.37.73,5.66,5.66,0,0,0-2.15,1.16Z"/><path class="cls-27" d="M282.51,156.21h0a.64.64,0,0,0,.6.72,2.89,2.89,0,0,1,1.93.78l.52-1.4a5.14,5.14,0,0,0-2.38-.67A.65.65,0,0,0,282.51,156.21Z"/><path class="cls-22" d="M281.56,157.27a2.56,2.56,0,0,1-.64,1.55,2.18,2.18,0,0,1-1.69.65,2.25,2.25,0,0,1-1.78-.68,2.36,2.36,0,0,1-.55-1.36Z"/><path class="cls-28" d="M271.52,153.37l.41,2.48a1.37,1.37,0,0,1-.41-2.48Z"/><path class="cls-29" d="M286.9,153.25l-.39,2.49a1.49,1.49,0,0,0,1-1.12A1.47,1.47,0,0,0,286.9,153.25Z"/><path class="cls-30" d="M280.92,158.82a2.18,2.18,0,0,1-1.69.65,2.25,2.25,0,0,1-1.78-.68,3.39,3.39,0,0,1,1.7-.42A3.46,3.46,0,0,1,280.92,158.82Z"/><path class="cls-22" d="M318.44,145.86l0,4.91-1.19,0,0-3.08-1,3.09h-1l-1.1-3.06,0,3.07-1.2,0-.05-4.92h1.47l1.37,3.41,1.27-3.44Z"/><path class="cls-22" d="M320.18,146.85l1,2.39.85-2.4,1.32,0-2.38,5.79-1.32,0,.9-2-1.67-3.75Z"/><path class="cls-22" d="M328.66,147.18a1.8,1.8,0,0,1,.41,1.23l0,2.27h-1.2l0-2.13a.84.84,0,0,0-.21-.61.71.71,0,0,0-.55-.22.77.77,0,0,0-.58.24.89.89,0,0,0-.2.66l0,2.07h-1.2l0-3.9,1.2,0v.72a1.21,1.21,0,0,1,.49-.56,1.42,1.42,0,0,1,.78-.21A1.35,1.35,0,0,1,328.66,147.18Z"/><path class="cls-22" d="M332.1,146.9a1.14,1.14,0,0,1,.48.54v-.7h1.19l0,3.9h-1.19v-.7a1.15,1.15,0,0,1-.47.55,1.36,1.36,0,0,1-.77.21,1.48,1.48,0,0,1-.86-.23,1.65,1.65,0,0,1-.61-.69,2.69,2.69,0,0,1,0-2.13,1.56,1.56,0,0,1,1.46-1A1.38,1.38,0,0,1,332.1,146.9Zm-1,1.1a1,1,0,0,0-.22.71,1,1,0,0,0,.24.69.8.8,0,0,0,.62.25.82.82,0,0,0,.62-.26,1,1,0,0,0,.23-.7.91.91,0,0,0-.25-.69.78.78,0,0,0-.62-.25A.81.81,0,0,0,331.1,148Z"/><path class="cls-22" d="M340.79,147.06a1.73,1.73,0,0,1,.42,1.23l0,2.27H340l0-2.12a.82.82,0,0,0-.2-.58.73.73,0,0,0-.55-.2.77.77,0,0,0-.56.22.93.93,0,0,0-.2.63l0,2.07h-1.2v-2.13a.78.78,0,0,0-.21-.57.7.7,0,0,0-.54-.21.78.78,0,0,0-.56.23.85.85,0,0,0-.21.62l0,2.07h-1.19l0-3.9h1.2v.66a1.18,1.18,0,0,1,.47-.52,1.48,1.48,0,0,1,.74-.2,1.61,1.61,0,0,1,.8.2,1.3,1.3,0,0,1,.52.59,1.64,1.64,0,0,1,.55-.59,1.53,1.53,0,0,1,.78-.22A1.47,1.47,0,0,1,340.79,147.06Z"/><path class="cls-22" d="M345.69,148.78l-2.71,0a.91.91,0,0,0,.23.63.73.73,0,0,0,.52.19.7.7,0,0,0,.44-.14.61.61,0,0,0,.23-.34h1.26a1.58,1.58,0,0,1-.32.74,1.68,1.68,0,0,1-.66.51,2.11,2.11,0,0,1-.88.2,2.26,2.26,0,0,1-1-.23,1.79,1.79,0,0,1-.7-.69,2.17,2.17,0,0,1-.26-1.07,2.28,2.28,0,0,1,.24-1.07,1.72,1.72,0,0,1,.69-.7,2.29,2.29,0,0,1,2,0,1.69,1.69,0,0,1,.69.66,2,2,0,0,1,.25,1A1.82,1.82,0,0,1,345.69,148.78Zm-1.39-1.06a.77.77,0,0,0-.53-.19.81.81,0,0,0-.55.2.84.84,0,0,0-.24.58l1.53,0A.71.71,0,0,0,344.3,147.72Z"/><path class="cls-22" d="M347.8,145a.72.72,0,0,1,.51-.18.73.73,0,0,1,.52.18.53.53,0,0,1,.2.44.58.58,0,0,1-.19.45.73.73,0,0,1-.52.18.67.67,0,0,1-.51-.17.54.54,0,0,1-.2-.44A.57.57,0,0,1,347.8,145Zm1.12,1.54,0,3.91h-1.2l0-3.9Z"/><path class="cls-22" d="M352.36,146.87a1.63,1.63,0,0,1,.57,1h-1.12a.62.62,0,0,0-.23-.37.67.67,0,0,0-.43-.14.54.54,0,0,0-.31.1.28.28,0,0,0-.1.24.3.3,0,0,0,.2.28,3.08,3.08,0,0,0,.6.17,6.5,6.5,0,0,1,.74.21,1.23,1.23,0,0,1,.5.35,1.08,1.08,0,0,1,0,1.25,1.21,1.21,0,0,1-.52.41,2.2,2.2,0,0,1-.81.16,2.12,2.12,0,0,1-1.27-.34,1.45,1.45,0,0,1-.59-1h1.15a.48.48,0,0,0,.22.38.78.78,0,0,0,.48.13.46.46,0,0,0,.31-.09.33.33,0,0,0,.1-.25.3.3,0,0,0-.19-.29,3.16,3.16,0,0,0-.63-.18,5.21,5.21,0,0,1-.72-.19,1.18,1.18,0,0,1-.49-.34.94.94,0,0,1-.2-.64,1,1,0,0,1,.39-.85,1.76,1.76,0,0,1,1.12-.34A1.86,1.86,0,0,1,352.36,146.87Z"/><path class="cls-22" d="M358.65,145.7a2.36,2.36,0,0,1,.91.89,2.71,2.71,0,0,1,.34,1.31,2.62,2.62,0,0,1-.32,1.31,2.38,2.38,0,0,1-.9.91,2.42,2.42,0,0,1-1.26.34,2.56,2.56,0,0,1-1.26-.31,2.38,2.38,0,0,1-.91-.9,2.73,2.73,0,0,1,0-2.62,2.46,2.46,0,0,1,.9-.91,2.42,2.42,0,0,1,1.26-.33A2.49,2.49,0,0,1,358.65,145.7Zm-2.19,1.19a1.5,1.5,0,0,0-.34,1,1.46,1.46,0,0,0,.35,1,1.21,1.21,0,0,0,.94.38,1.18,1.18,0,0,0,.93-.39,1.52,1.52,0,0,0,.34-1,1.46,1.46,0,0,0-.36-1,1.2,1.2,0,0,0-.93-.37A1.15,1.15,0,0,0,356.46,146.89Z"/><path class="cls-22" d="M361.74,145.19l.05,5.18h-1.2l0-5.18Z"/><path class="cls-22" d="M362.65,144.91a.78.78,0,0,1,.52-.19.77.77,0,0,1,.52.18.59.59,0,0,1,.2.45.59.59,0,0,1-.2.44.78.78,0,0,1-.51.19.73.73,0,0,1-.52-.18.57.57,0,0,1-.2-.44A.58.58,0,0,1,362.65,144.91Zm1.13,1.54,0,3.9h-1.19l0-3.9Z"/><path class="cls-22" d="M366.44,149.16l.82-2.75h1.27l-1.35,3.92H365.7l-1.43-3.89h1.28Z"/><path class="cls-22" d="M372.72,148.53l-2.71,0a1,1,0,0,0,.23.63.73.73,0,0,0,.52.19.68.68,0,0,0,.44-.14.57.57,0,0,0,.23-.34l1.27,0a1.61,1.61,0,0,1-.33.74,1.74,1.74,0,0,1-.65.52,2.19,2.19,0,0,1-1.91,0,1.68,1.68,0,0,1-.71-.69,2.22,2.22,0,0,1-.26-1.06,2.25,2.25,0,0,1,.24-1.07,1.72,1.72,0,0,1,.69-.7,2.26,2.26,0,0,1,1-.25,2.14,2.14,0,0,1,1,.23,1.73,1.73,0,0,1,.68.66,1.92,1.92,0,0,1,.25,1A1.19,1.19,0,0,1,372.72,148.53Zm-1.39-1.07a.79.79,0,0,0-.53-.18.77.77,0,0,0-.54.2.76.76,0,0,0-.24.57h1.52A.75.75,0,0,0,371.33,147.46Z"/><path class="cls-22" d="M375.14,146.51a1.46,1.46,0,0,1,.76-.22v1.28h-.34a1.16,1.16,0,0,0-.74.21.78.78,0,0,0-.25.68v1.78H373.4l0-3.9h1.2v.73A1.67,1.67,0,0,1,375.14,146.51Z"/></g></g></svg>