<svg xmlns="http://www.w3.org/2000/svg" xmlns:xlink="http://www.w3.org/1999/xlink" viewBox="0 0 930.88 631.39"><defs><style>.cls-1{isolation:isolate;}.cls-2{fill:url(#linear-gradient);}.cls-3{fill:url(#linear-gradient-2);}.cls-10,.cls-11,.cls-133,.cls-4{opacity:0.09;}.cls-4{fill:url(#linear-gradient-3);}.cls-5{fill:url(#linear-gradient-4);}.cls-119,.cls-57,.cls-59,.cls-6,.cls-7,.cls-8{fill:#fff;}.cls-6{opacity:0.13;}.cls-8{opacity:0.33;}.cls-9{fill:url(#linear-gradient-5);}.cls-10{fill:url(#linear-gradient-6);}.cls-11{fill:url(#linear-gradient-7);}.cls-12{fill:url(#linear-gradient-8);}.cls-13{fill:url(#linear-gradient-9);}.cls-14{fill:url(#linear-gradient-10);}.cls-15{fill:url(#linear-gradient-11);}.cls-16,.cls-17,.cls-56{fill:none;}.cls-16,.cls-17{stroke:#b3b3b3;stroke-miterlimit:10;}.cls-16{stroke-width:0.82px;}.cls-17{stroke-width:0.92px;}.cls-18{fill:url(#linear-gradient-12);}.cls-19{fill:url(#linear-gradient-13);}.cls-20{fill:url(#linear-gradient-14);}.cls-21{fill:url(#linear-gradient-15);}.cls-22{fill:url(#linear-gradient-16);}.cls-23{fill:url(#linear-gradient-17);}.cls-24{fill:url(#linear-gradient-18);}.cls-25{fill:#4d4d4d;}.cls-26{fill:url(#linear-gradient-19);}.cls-27{fill:url(#linear-gradient-20);}.cls-28{fill:url(#linear-gradient-21);}.cls-29{fill:url(#linear-gradient-22);}.cls-30{fill:url(#linear-gradient-23);}.cls-31{fill:url(#linear-gradient-24);}.cls-32{fill:url(#linear-gradient-25);}.cls-33{fill:#f0f0f0;}.cls-34{fill:url(#linear-gradient-26);}.cls-35{fill:#c9c9c9;}.cls-36{fill:url(#linear-gradient-27);}.cls-37{fill:url(#linear-gradient-28);}.cls-38{fill:url(#linear-gradient-29);}.cls-39{fill:url(#linear-gradient-30);}.cls-40{fill:url(#linear-gradient-31);}.cls-41{fill:#e3eaff;}.cls-42{fill:url(#linear-gradient-32);}.cls-43{fill:url(#linear-gradient-33);}.cls-44{fill:url(#linear-gradient-34);}.cls-45{fill:url(#linear-gradient-35);}.cls-46{fill:url(#linear-gradient-36);}.cls-47{fill:url(#linear-gradient-37);}.cls-48{fill:url(#linear-gradient-38);}.cls-115,.cls-49{fill:#f2f2f2;}.cls-50{fill:url(#linear-gradient-39);}.cls-51{fill:url(#linear-gradient-40);}.cls-52{fill:#e6e6e6;}.cls-53{fill:url(#linear-gradient-41);}.cls-54{fill:url(#linear-gradient-42);}.cls-55{fill:url(#linear-gradient-43);}.cls-57,.cls-66{opacity:0.1;}.cls-119,.cls-57,.cls-66{mix-blend-mode:overlay;}.cls-58{fill:#a587f7;}.cls-59{opacity:0.25;}.cls-60{fill:#c0aaf7;}.cls-61{fill:#baa3f7;}.cls-62{fill:url(#linear-gradient-44);}.cls-63{opacity:0.32;mix-blend-mode:multiply;}.cls-64{fill:#2e3192;}.cls-65{fill:url(#linear-gradient-45);}.cls-67{fill:#999;}.cls-68{fill:url(#linear-gradient-46);}.cls-69{fill:#ccc;}.cls-70{fill:url(#linear-gradient-47);}.cls-71{fill:url(#linear-gradient-48);}.cls-72{fill:url(#linear-gradient-49);}.cls-73{fill:url(#linear-gradient-50);}.cls-74{fill:url(#linear-gradient-51);}.cls-75{fill:url(#linear-gradient-52);}.cls-76{fill:url(#linear-gradient-53);}.cls-77{fill:url(#linear-gradient-54);}.cls-78{fill:url(#linear-gradient-55);}.cls-79{fill:url(#linear-gradient-56);}.cls-80{fill:url(#linear-gradient-57);}.cls-81{fill:url(#linear-gradient-58);}.cls-82{opacity:0.53;fill:url(#linear-gradient-59);}.cls-83{fill:url(#linear-gradient-60);}.cls-84{fill:url(#linear-gradient-61);}.cls-85{fill:url(#linear-gradient-62);}.cls-86{fill:url(#linear-gradient-63);}.cls-87{fill:url(#linear-gradient-64);}.cls-88{fill:url(#linear-gradient-65);}.cls-89{fill:url(#linear-gradient-66);}.cls-90{fill:url(#linear-gradient-67);}.cls-91{fill:url(#linear-gradient-68);}.cls-92{fill:url(#linear-gradient-69);}.cls-93{fill:url(#linear-gradient-70);}.cls-94{fill:#2800a2;}.cls-95{fill:url(#linear-gradient-71);}.cls-96{fill:url(#linear-gradient-72);}.cls-97{fill:#f2d6c6;}.cls-98{fill:url(#linear-gradient-73);}.cls-99{fill:url(#linear-gradient-74);}.cls-100{fill:url(#linear-gradient-75);}.cls-101{fill:url(#linear-gradient-76);}.cls-102{fill:url(#linear-gradient-77);}.cls-103{fill:url(#linear-gradient-78);}.cls-104{fill:#f7f7f7;}.cls-105{fill:url(#linear-gradient-79);}.cls-106{fill:url(#linear-gradient-80);}.cls-107{fill:url(#linear-gradient-81);}.cls-108{fill:url(#linear-gradient-82);}.cls-109{fill:url(#linear-gradient-83);}.cls-110{fill:url(#linear-gradient-84);}.cls-111{fill:url(#linear-gradient-85);}.cls-112{fill:#d9a8a3;}.cls-113{fill:url(#linear-gradient-86);}.cls-114{fill:url(#linear-gradient-87);}.cls-115{opacity:0.65;}.cls-116{fill:#a98cff;}.cls-117{fill:url(#linear-gradient-88);}.cls-118{fill:url(#linear-gradient-89);}.cls-119{opacity:0.2;}.cls-120{fill:url(#linear-gradient-90);}.cls-121{fill:url(#linear-gradient-91);}.cls-122{fill:url(#linear-gradient-92);}.cls-123{fill:url(#linear-gradient-93);}.cls-124{fill:url(#linear-gradient-94);}.cls-125{fill:url(#linear-gradient-95);}.cls-126{fill:url(#linear-gradient-96);}.cls-127{fill:url(#linear-gradient-97);}.cls-128{fill:url(#linear-gradient-98);}.cls-129,.cls-130{opacity:0.3;}.cls-129{fill:url(#linear-gradient-99);}.cls-130{fill:url(#linear-gradient-100);}.cls-131{fill:url(#linear-gradient-101);}.cls-132{opacity:0.7;fill:url(#linear-gradient-102);}.cls-133{fill:url(#linear-gradient-103);}.cls-134{fill:url(#linear-gradient-104);}</style><linearGradient id="linear-gradient" x1="448.92" y1="612.5" x2="588.15" y2="612.5" gradientTransform="translate(286.67 -94.58) rotate(9.99)" gradientUnits="userSpaceOnUse"><stop offset="0" stop-color="#b2a2ff"/><stop offset="1" stop-color="#5c79ff"/></linearGradient><linearGradient id="linear-gradient-2" x1="69.51" y1="287.61" x2="910.84" y2="287.61" gradientTransform="matrix(1, 0, 0, 1, 0, 0)" xlink:href="#linear-gradient"/><linearGradient id="linear-gradient-3" x1="932.61" y1="487.08" x2="648.4" y2="327.92" gradientUnits="userSpaceOnUse"><stop offset="0" stop-color="#fff" stop-opacity="0"/><stop offset="1" stop-color="#fff"/></linearGradient><linearGradient id="linear-gradient-4" x1="661.64" y1="361.77" x2="648.52" y2="475.21" gradientTransform="translate(101.18 793.64) rotate(-65.44)" xlink:href="#linear-gradient-3"/><linearGradient id="linear-gradient-5" x1="525.79" y1="-228.25" x2="515.37" y2="-138.11" gradientTransform="translate(542.31 -360.09) rotate(137.16)" xlink:href="#linear-gradient-3"/><linearGradient id="linear-gradient-6" x1="95.3" y1="373.86" x2="133.21" y2="289.86" xlink:href="#linear-gradient-3"/><linearGradient id="linear-gradient-7" x1="114.61" y1="121.91" x2="349.99" y2="121.91" xlink:href="#linear-gradient-3"/><linearGradient id="linear-gradient-8" x1="4.16" y1="243.56" x2="215.49" y2="243.56" gradientTransform="translate(33.86 -11.37) rotate(7.42)" gradientUnits="userSpaceOnUse"><stop offset="0" stop-color="#ff8900"/><stop offset="1" stop-color="#ffd865"/></linearGradient><linearGradient id="linear-gradient-9" x1="61.11" y1="466.29" x2="175.91" y2="466.29" gradientTransform="matrix(1, 0, 0, 1, 0, 0)" xlink:href="#linear-gradient-8"/><linearGradient id="linear-gradient-10" x1="708.53" y1="441.89" x2="930.88" y2="441.89" gradientTransform="matrix(1, 0, 0, 1, 0, 0)" xlink:href="#linear-gradient-8"/><linearGradient id="linear-gradient-11" x1="299.05" y1="23.61" x2="413.51" y2="23.61" gradientTransform="matrix(1, 0, 0, 1, 0, 0)" xlink:href="#linear-gradient-8"/><linearGradient id="linear-gradient-12" x1="243.82" y1="472.35" x2="541.93" y2="164.14" gradientUnits="userSpaceOnUse"><stop offset="0" stop-color="#2800a2"/><stop offset="1" stop-color="#895bec"/></linearGradient><linearGradient id="linear-gradient-13" x1="189.13" y1="578.87" x2="626.2" y2="260.54" gradientUnits="userSpaceOnUse"><stop offset="0" stop-color="#4286ff"/><stop offset="1" stop-color="#6637b0"/></linearGradient><linearGradient id="linear-gradient-14" x1="436.91" y1="394.11" x2="438.58" y2="394.11" gradientUnits="userSpaceOnUse"><stop offset="0" stop-color="#a587f7"/><stop offset="1" stop-color="#e6efff"/></linearGradient><linearGradient id="linear-gradient-15" x1="120.43" y1="484.52" x2="557.48" y2="166.21" xlink:href="#linear-gradient-13"/><linearGradient id="linear-gradient-16" x1="169.97" y1="552.54" x2="607.02" y2="234.23" xlink:href="#linear-gradient-13"/><linearGradient id="linear-gradient-17" x1="219.51" y1="620.56" x2="656.55" y2="302.25" xlink:href="#linear-gradient-13"/><linearGradient id="linear-gradient-18" x1="198.88" y1="334.98" x2="439.56" y2="334.98" xlink:href="#linear-gradient-14"/><linearGradient id="linear-gradient-19" x1="198.88" y1="439.08" x2="439.56" y2="439.08" xlink:href="#linear-gradient-14"/><linearGradient id="linear-gradient-20" x1="198.88" y1="448.6" x2="439.56" y2="448.6" xlink:href="#linear-gradient-14"/><linearGradient id="linear-gradient-21" x1="198.88" y1="543.18" x2="439.56" y2="543.18" xlink:href="#linear-gradient-14"/><linearGradient id="linear-gradient-22" x1="73.31" y1="419.83" x2="510.36" y2="101.51" xlink:href="#linear-gradient-13"/><linearGradient id="linear-gradient-23" x1="103.62" y1="461.45" x2="540.68" y2="143.13" xlink:href="#linear-gradient-13"/><linearGradient id="linear-gradient-24" x1="197.65" y1="245.49" x2="439.56" y2="245.49" xlink:href="#linear-gradient-14"/><linearGradient id="linear-gradient-25" x1="222.63" y1="400.19" x2="245.19" y2="400.19" gradientTransform="matrix(1, 0, 0, 1, 0, 0)" xlink:href="#linear-gradient-8"/><linearGradient id="linear-gradient-26" x1="245.19" y1="391.51" x2="253.58" y2="391.51" gradientTransform="translate(640.39 141.34) rotate(89.89)" gradientUnits="userSpaceOnUse"><stop offset="0" stop-color="#f27271"/><stop offset="1" stop-color="#e73c84"/></linearGradient><linearGradient id="linear-gradient-27" x1="253.43" y1="391.51" x2="261.82" y2="391.51" gradientTransform="translate(648.62 133.1) rotate(89.89)" xlink:href="#linear-gradient-26"/><linearGradient id="linear-gradient-28" x1="199.79" y1="403.83" x2="222.63" y2="403.83" gradientUnits="userSpaceOnUse"><stop offset="0" stop-color="#0080e8"/><stop offset="1" stop-color="#2800a2"/></linearGradient><linearGradient id="linear-gradient-29" x1="199.86" y1="301.14" x2="217.53" y2="301.14" gradientUnits="userSpaceOnUse"><stop offset="0" stop-color="#0080e8"/><stop offset="1" stop-color="#cfc2fe"/></linearGradient><linearGradient id="linear-gradient-30" x1="217.53" y1="308.46" x2="228.17" y2="308.46" gradientTransform="matrix(1, 0, 0, 1, 0, 0)" xlink:href="#linear-gradient-26"/><linearGradient id="linear-gradient-31" x1="228.36" y1="308.46" x2="239.01" y2="308.46" xlink:href="#linear-gradient-28"/><linearGradient id="linear-gradient-32" x1="252.98" y1="329.5" x2="311.16" y2="329.5" gradientTransform="matrix(1, 0, 0, 1, 0, 0)" xlink:href="#linear-gradient-8"/><linearGradient id="linear-gradient-33" x1="256.94" y1="329.5" x2="307.21" y2="329.5" xlink:href="#linear-gradient-28"/><linearGradient id="linear-gradient-34" x1="259" y1="329.5" x2="305.15" y2="329.5" gradientTransform="matrix(1, 0, 0, 1, 0, 0)" xlink:href="#linear-gradient-8"/><linearGradient id="linear-gradient-35" x1="275.53" y1="319.63" x2="307.16" y2="319.63" gradientTransform="matrix(1, 0, 0, 1, 0, 0)" xlink:href="#linear-gradient-26"/><linearGradient id="linear-gradient-36" x1="275.7" y1="309.31" x2="306.99" y2="309.31" xlink:href="#linear-gradient-28"/><linearGradient id="linear-gradient-37" x1="199.57" y1="511.96" x2="208.48" y2="511.96" gradientTransform="matrix(1, 0, 0, 1, 0, 0)" xlink:href="#linear-gradient-26"/><linearGradient id="linear-gradient-38" x1="208.48" y1="505.76" x2="226.31" y2="505.76" xlink:href="#linear-gradient-28"/><linearGradient id="linear-gradient-39" x1="235.22" y1="505.76" x2="245.95" y2="505.76" gradientTransform="matrix(1, 0, 0, 1, 0, 0)" xlink:href="#linear-gradient-26"/><linearGradient id="linear-gradient-40" x1="245.95" y1="508.56" x2="254.86" y2="508.56" xlink:href="#linear-gradient-28"/><linearGradient id="linear-gradient-41" x1="288.05" y1="503.72" x2="304.08" y2="503.72" gradientTransform="matrix(1, 0, 0, 1, 0, 0)" xlink:href="#linear-gradient-26"/><linearGradient id="linear-gradient-42" x1="274.75" y1="507.65" x2="286.78" y2="507.65" xlink:href="#linear-gradient-29"/><linearGradient id="linear-gradient-43" x1="258.52" y1="513.48" x2="274.75" y2="513.48" gradientTransform="matrix(1, 0, 0, 1, 0, 0)" xlink:href="#linear-gradient-26"/><linearGradient id="linear-gradient-44" x1="333.29" y1="218.64" x2="379.26" y2="218.64" xlink:href="#linear-gradient-28"/><linearGradient id="linear-gradient-45" x1="330.86" y1="199.17" x2="381.7" y2="199.17" xlink:href="#linear-gradient-28"/><linearGradient id="linear-gradient-46" x1="237.97" y1="229.12" x2="303.87" y2="208.07" xlink:href="#linear-gradient-29"/><linearGradient id="linear-gradient-47" x1="233.16" y1="185.37" x2="344" y2="188.52" xlink:href="#linear-gradient-29"/><linearGradient id="linear-gradient-48" x1="233.17" y1="185.11" x2="344.01" y2="188.27" xlink:href="#linear-gradient-29"/><linearGradient id="linear-gradient-49" x1="233.18" y1="184.85" x2="344.02" y2="188.01" xlink:href="#linear-gradient-29"/><linearGradient id="linear-gradient-50" x1="233.18" y1="184.59" x2="344.03" y2="187.75" xlink:href="#linear-gradient-29"/><linearGradient id="linear-gradient-51" x1="233.19" y1="184.33" x2="344.03" y2="187.49" xlink:href="#linear-gradient-29"/><linearGradient id="linear-gradient-52" x1="233.2" y1="184.08" x2="344.04" y2="187.23" xlink:href="#linear-gradient-29"/><linearGradient id="linear-gradient-53" x1="341.59" y1="558.62" x2="604.59" y2="558.62" xlink:href="#linear-gradient-13"/><linearGradient id="linear-gradient-54" x1="432.36" y1="511.91" x2="558.36" y2="219.17" xlink:href="#linear-gradient-14"/><linearGradient id="linear-gradient-55" x1="524.98" y1="263.38" x2="533.95" y2="263.38" xlink:href="#linear-gradient-13"/><linearGradient id="linear-gradient-56" x1="521.14" y1="308.33" x2="532.31" y2="308.33" gradientUnits="userSpaceOnUse"><stop offset="0" stop-color="#e4e4e4"/><stop offset="1" stop-color="#fafafa"/></linearGradient><linearGradient id="linear-gradient-57" x1="428.53" y1="239.49" x2="524.98" y2="239.49" xlink:href="#linear-gradient-13"/><linearGradient id="linear-gradient-58" x1="452.04" y1="265.55" x2="476.04" y2="235.23" gradientUnits="userSpaceOnUse"><stop offset="0" stop-color="#fab6b6"/><stop offset="1" stop-color="#ffead6"/></linearGradient><linearGradient id="linear-gradient-59" x1="491.12" y1="220.76" x2="445.99" y2="233.49" gradientUnits="userSpaceOnUse"><stop offset="0" stop-color="#ffdcd0"/><stop offset="1" stop-color="#eb7b7e"/></linearGradient><linearGradient id="linear-gradient-60" x1="429.19" y1="266.14" x2="438.16" y2="266.14" xlink:href="#linear-gradient-13"/><linearGradient id="linear-gradient-61" x1="424.86" y1="311.14" x2="436.03" y2="311.14" xlink:href="#linear-gradient-56"/><linearGradient id="linear-gradient-62" x1="424.6" y1="360.88" x2="437.76" y2="360.88" xlink:href="#linear-gradient-13"/><linearGradient id="linear-gradient-63" x1="520.66" y1="359.85" x2="533.59" y2="359.85" xlink:href="#linear-gradient-13"/><linearGradient id="linear-gradient-64" x1="478.63" y1="312.6" x2="479.89" y2="273.44" gradientUnits="userSpaceOnUse"><stop offset="0" stop-color="#002bc9"/><stop offset="1" stop-color="#e6efff"/></linearGradient><linearGradient id="linear-gradient-65" x1="394.49" y1="260.26" x2="415.34" y2="239.1" xlink:href="#linear-gradient-64"/><linearGradient id="linear-gradient-66" x1="401.32" y1="257.52" x2="432.27" y2="234.79" xlink:href="#linear-gradient-64"/><linearGradient id="linear-gradient-67" x1="545.5" y1="253.18" x2="533.81" y2="229.5" xlink:href="#linear-gradient-64"/><linearGradient id="linear-gradient-68" x1="561.36" y1="257.66" x2="546.52" y2="238.4" xlink:href="#linear-gradient-64"/><linearGradient id="linear-gradient-69" x1="429.9" y1="191.99" x2="532.21" y2="64.41" xlink:href="#linear-gradient-12"/><linearGradient id="linear-gradient-70" x1="389.66" y1="178.55" x2="478.71" y2="177.61" xlink:href="#linear-gradient-58"/><linearGradient id="linear-gradient-71" x1="443.69" y1="153.1" x2="466.27" y2="136.04" gradientUnits="userSpaceOnUse"><stop offset="0" stop-color="#0b3d77"/><stop offset="1" stop-color="#895bec"/></linearGradient><linearGradient id="linear-gradient-72" x1="489.82" y1="153.77" x2="505.77" y2="137.03" xlink:href="#linear-gradient-71"/><linearGradient id="linear-gradient-73" x1="460.27" y1="202.71" x2="485.54" y2="202.71" gradientTransform="matrix(1, 0, 0, 1, 0, 0)" xlink:href="#linear-gradient-26"/><linearGradient id="linear-gradient-74" x1="392.61" y1="300.25" x2="299.76" y2="455.61" xlink:href="#linear-gradient-29"/><linearGradient id="linear-gradient-75" x1="489.2" y1="391.23" x2="368.25" y2="450.6" gradientTransform="matrix(1, 0, 0, 1, 0, 0)" xlink:href="#linear-gradient-26"/><linearGradient id="linear-gradient-76" x1="417.22" y1="416.3" x2="422.9" y2="403.67" gradientTransform="matrix(1, 0, 0, 1, 0, 0)" xlink:href="#linear-gradient-26"/><linearGradient id="linear-gradient-77" x1="363.23" y1="423.02" x2="477.71" y2="423.02" xlink:href="#linear-gradient-58"/><linearGradient id="linear-gradient-78" x1="360.96" y1="446.1" x2="395.12" y2="446.1" xlink:href="#linear-gradient-13"/><linearGradient id="linear-gradient-79" x1="280.23" y1="427.11" x2="318.46" y2="427.11" xlink:href="#linear-gradient-13"/><linearGradient id="linear-gradient-80" x1="285.28" y1="433.6" x2="314.43" y2="433.6" gradientUnits="userSpaceOnUse"><stop offset="0" stop-color="#e5eeff"/><stop offset="1" stop-color="#b2c4ff"/></linearGradient><linearGradient id="linear-gradient-81" x1="286.29" y1="434.39" x2="313.5" y2="434.39" xlink:href="#linear-gradient-80"/><linearGradient id="linear-gradient-82" x1="306.89" y1="436.84" x2="308.85" y2="436.84" xlink:href="#linear-gradient-13"/><linearGradient id="linear-gradient-83" x1="301.63" y1="433.73" x2="303.36" y2="433.73" xlink:href="#linear-gradient-13"/><linearGradient id="linear-gradient-84" x1="296.37" y1="430.13" x2="297.84" y2="430.13" xlink:href="#linear-gradient-13"/><linearGradient id="linear-gradient-85" x1="291.12" y1="425.6" x2="292.32" y2="425.6" xlink:href="#linear-gradient-13"/><linearGradient id="linear-gradient-86" x1="560.69" y1="371.5" x2="668.69" y2="309.92" xlink:href="#linear-gradient-29"/><linearGradient id="linear-gradient-87" x1="488.91" y1="217.31" x2="522.34" y2="217.31" xlink:href="#linear-gradient-58"/><linearGradient id="linear-gradient-88" x1="615.56" y1="171.17" x2="541.03" y2="172.43" gradientUnits="userSpaceOnUse"><stop offset="0.17" stop-color="#fff" stop-opacity="0"/><stop offset="1" stop-color="#e6efff" stop-opacity="0.3"/></linearGradient><linearGradient id="linear-gradient-89" x1="499.85" y1="265.39" x2="529.06" y2="219.29" xlink:href="#linear-gradient-58"/><linearGradient id="linear-gradient-90" x1="589.53" y1="415.26" x2="661.51" y2="415.26" xlink:href="#linear-gradient-13"/><linearGradient id="linear-gradient-91" x1="593.69" y1="419.95" x2="660" y2="419.95" xlink:href="#linear-gradient-80"/><linearGradient id="linear-gradient-92" x1="595.52" y1="421.02" x2="659.37" y2="421.02" xlink:href="#linear-gradient-80"/><linearGradient id="linear-gradient-93" x1="599.36" y1="413.12" x2="625.39" y2="413.12" xlink:href="#linear-gradient-13"/><linearGradient id="linear-gradient-94" x1="609.01" y1="416.86" x2="630.36" y2="416.86" xlink:href="#linear-gradient-13"/><linearGradient id="linear-gradient-95" x1="619.09" y1="421.64" x2="637.86" y2="421.64" xlink:href="#linear-gradient-13"/><linearGradient id="linear-gradient-96" x1="629.69" y1="425.18" x2="644.25" y2="425.18" xlink:href="#linear-gradient-13"/><linearGradient id="linear-gradient-97" x1="639.26" y1="427.91" x2="652.42" y2="427.91" xlink:href="#linear-gradient-13"/><linearGradient id="linear-gradient-98" x1="510.8" y1="276.01" x2="561.37" y2="276.01" xlink:href="#linear-gradient-13"/><linearGradient id="linear-gradient-99" x1="607.87" y1="300.91" x2="640.19" y2="300.91" xlink:href="#linear-gradient-13"/><linearGradient id="linear-gradient-100" x1="629.32" y1="329.22" x2="658.18" y2="329.22" xlink:href="#linear-gradient-13"/><linearGradient id="linear-gradient-101" x1="810.65" y1="332.27" x2="578.54" y2="-50.46" xlink:href="#linear-gradient-14"/><linearGradient id="linear-gradient-102" x1="587.64" y1="166.67" x2="832.82" y2="166.67" xlink:href="#linear-gradient-29"/><linearGradient id="linear-gradient-103" x1="793.02" y1="480.01" x2="757.65" y2="435.8" xlink:href="#linear-gradient-3"/><linearGradient id="linear-gradient-104" x1="628.88" y1="299" x2="573.72" y2="344.06" xlink:href="#linear-gradient-64"/></defs><title>SEARCH</title><g class="cls-1"><g id="Layer_2" data-name="Layer 2"><g id="SEARCH"><path class="cls-2" d="M691.28,578c-29.21-26.51-51.52-26.28-65.54-1.51-13.77,24.3,20.91,53.81,62.68,54.84,84.12,2.05,75.29-29.75,66.44-39.33C733.63,569,713.61,598.24,691.28,578Z"/><path class="cls-3" d="M909.07,395.46c-12.56,112.7-149.94,172.31-271,133.7a318.77,318.77,0,0,0-42.41-10.49c-96.38-16.7-162.07,21.81-261.58,26.58-69.4,3.32-161.86-28.81-217.08-97.86a216.54,216.54,0,0,1-18.48-27c-22-38.07-33.48-85-27.31-140.86q.46-4.23,1.07-8.52,1.69-12.11,4.11-23.48c0-.08,0-.15,0-.23q1.86-8.87,4.15-17.28a275.36,275.36,0,0,1,34.05-77.81,249.68,249.68,0,0,1,19.68-26.57C180.66,71,244.18,43.82,299.84,34.09a285,285,0,0,1,43.46-4.3q5.65-.11,11,0c132.15,3.35,199.81,71.69,275.42,89.55,106.47,25.15,175.77,59.83,218.92,100.39,19.22,18.06,33.25,37.29,43.06,57.37q2.06,4.19,3.86,8.45C910.44,320.39,913.29,357.56,909.07,395.46Z"/><path class="cls-4" d="M909.07,395.46c-12.56,112.7-149.94,172.31-271,133.7a318.77,318.77,0,0,0-42.41-10.49c4.72-223.51,169.36-283.07,253-298.91,19.22,18.06,33.25,37.29,43.06,57.37q2.06,4.19,3.86,8.45C910.44,320.39,913.29,357.56,909.07,395.46Z"/><polygon class="cls-5" points="801.93 406.66 695.84 338.33 806.54 397.55 801.93 406.66"/><circle class="cls-6" cx="804.77" cy="402.38" r="13.66"/><circle class="cls-7" cx="804.77" cy="402.38" r="5.14"/><path class="cls-8" d="M799.66,393.53l-.29.18a10.17,10.17,0,0,0-4.61,6.71,8.31,8.31,0,0,0-.18,1.51,10.05,10.05,0,0,0,1.36,5.56,10.21,10.21,0,1,0,3.72-14Zm11.46,9.33a6.37,6.37,0,0,1-11.86,2.71,6.13,6.13,0,0,1-.43-.9,6.26,6.26,0,0,1-.17-4.07,6.36,6.36,0,0,1,12.46,2.26Z"/><path class="cls-8" d="M801.46,394.83a7.68,7.68,0,0,0-.81.41,8.2,8.2,0,0,0-3.89,5.25,7.83,7.83,0,0,0-.18,2.73,8.15,8.15,0,0,0,1.06,3.29,8.24,8.24,0,1,0,3.82-11.68Zm8.45,7.68a5.15,5.15,0,0,1-2.56,4.32,5.17,5.17,0,1,1,2.56-4.32Z"/><polygon class="cls-9" points="260.71 88.02 317.69 170.55 254.55 93.3 260.71 88.02"/><circle class="cls-6" cx="257.32" cy="90.29" r="10.86"/><circle class="cls-7" cx="257.32" cy="90.29" r="4.09"/><path class="cls-8" d="M258.37,98.35l.27,0a8.07,8.07,0,0,0,5.43-3.51,7.66,7.66,0,0,0,.59-1.05,8.11,8.11,0,1,0-15.39-2.4A8.13,8.13,0,0,0,258.37,98.35ZM252.81,88a5.06,5.06,0,0,1,9.53,1.64,5.29,5.29,0,0,1,0,.79,4.91,4.91,0,0,1-1.12,3A5,5,0,0,1,258,95.31a4.86,4.86,0,0,1-1.87-.1,5.06,5.06,0,0,1-3.3-7.21Z"/><path class="cls-8" d="M257.45,96.85q.36,0,.72-.06a6.49,6.49,0,0,0,4.45-2.66,6.25,6.25,0,0,0,1-1.95,6.45,6.45,0,0,0,.22-2.74,6.55,6.55,0,1,0-6.36,7.41Zm-3.85-8.22a4.07,4.07,0,0,1,7.11-.61,4.12,4.12,0,0,1,.66,1.75,4.05,4.05,0,0,1-1,3.23,4,4,0,0,1-2.52,1.34,4,4,0,0,1-3.29-1,4,4,0,0,1-1.29-2.46A3.89,3.89,0,0,1,253.6,88.63Z"/><path class="cls-10" d="M76.41,247.3c0,.08,0,.15,0,.23Q73.94,258.92,72.25,271q-.6,4.29-1.07,8.52A75.68,75.68,0,0,1,98.49,420.39a216.54,216.54,0,0,0,18.48,27A108.32,108.32,0,0,0,76.41,247.3Z"/><path class="cls-11" d="M343.3,29.79a285,285,0,0,0-43.46,4.3,41.27,41.27,0,0,1,4.66,49.79l-22.89,36.71-21.68,34.77a41.22,41.22,0,0,1-56.82,13.19l-68.82-42.91a249.68,249.68,0,0,0-19.68,26.57l85.19,53.11a57.55,57.55,0,0,0,79.28-18.4l35.86-57.5,26.34-42.24A57.53,57.53,0,0,0,343.3,29.79Z"/><path class="cls-12" d="M171.09,405.82c-5.13-7.14-15.59-2.59-20.82-10.8s-6.45-16.19-14.54-19.64-.5-12.55-12.09-28.26-23.63-10.27-32.57-25-6.13-39.87,1.06-45.42,11.79-22.09,17.88-39.52,18.21-12.26,16.63,1.86,11.29,12.7,15.2.43-7.5-40.88,1.76-55.41,16-12.65,26.14-23.52,11.77-25.62,27.22-30.25,42.67-23.5,39.86-35.26-36.09,27.1-46.48,26.26-15.63,14.45-22.59,17.17-20.14-4.48-31.3,4.44-18.4-6.19-33.89.34S93.71,167,78.78,172.63s-17.06,4.76-24.05,18.92-49,43.13-50.51,65.2-13.56,30.26,11.47,48,22.12,26.62,17.85,42,5,24.71,22.78,28.4.54,14,26,17.32,26.42-8.91,33.39-3.05,23.82,6.7,27.51,16.32,21.72,7.52,27.19,9.72,15,10.58,17.58,2C190,410.8,176.23,413,171.09,405.82ZM48.88,275.1c3.72,9.31-3.92,18-13.72,18.16s-18.06-6.78-14.29-12.08-1.38-13.19,1-23.4S40.26,235.68,52,246.85,42.78,259.85,48.88,275.1Zm52.38,104c-9.86,5.73-21.13-4.27-23-10.2s7.71-17.73,13.08-6.16,13.3,3.23,16.49,8.83S106,376.37,101.26,379.15Z"/><path class="cls-13" d="M175.9,469.15c-.34-6.82-7.58-8.55-21.69-3.24s-25.18,5-31.29-9.7-22.31,6.08-32.11-2.9-25.53-15-29.14-4.53,10.85,15,22.08,15.71,11.73,2.63,17.7,9.32,23.23,18.53,34.53,14.85,7.41-9.29,19.71-10.3S176.15,474,175.9,469.15Z"/><path class="cls-14" d="M915.21,448.75c-34.78-33.06,11.18-28.92,2.3-58.1s-51.79-68.94-92.72-60.91-45.65-12.31-55.53-4.2c-11.87,9.73,15.82,40.73,51.44,43.77s25.49,28,15.27,47.49-2.36,28-19.91,35.38-11.49,18.83-31.56,40-75.25,2.44-76,31.56S730.32,533.88,730.2,553s37.58-4,55.34-25,62.69,5.26,99.13-.24S950,481.81,915.21,448.75Zm-13.46,36.57c.8,14.51-7,23.84-21.56,25.09s-30.92-19.24-14-23.16,17.23-7.86,21.13-18.69,13.62-15.94,18.73-3.13C910.74,477.08,901,470.82,901.75,485.32Z"/><path class="cls-15" d="M299.05,19.4c.22,6.83,7.42,8.69,21.63,3.63s25.26-4.58,31.1,10.27,22.43-5.69,32.06,3.47,25.26,15.47,29.05,5-10.58-15.16-21.79-16.1-11.68-2.85-17.53-9.63S350.68-2.86,339.31.61s-7.58,9.16-19.89,10S298.89,14.51,299.05,19.4Z"/><rect class="cls-16" x="221.76" y="261.1" width="170.01" height="273.43"/><rect class="cls-16" x="221.76" y="343.82" width="126.67" height="20.67"/><rect class="cls-17" x="221.76" y="444.4" width="158.94" height="20.67"/><rect class="cls-18" x="198.02" y="243.04" width="242.6" height="302.5"/><rect class="cls-19" x="436.91" y="235.01" width="10.04" height="319.49"/><rect class="cls-20" x="436.91" y="244.53" width="1.67" height="299.16"/><rect class="cls-21" x="198.88" y="334.03" width="240.67" height="11.43"/><rect class="cls-22" x="198.88" y="438.13" width="240.67" height="11.42"/><rect class="cls-23" x="198.89" y="542.23" width="240.67" height="11.42"/><rect class="cls-24" x="198.88" y="334.03" width="240.67" height="1.91"/><rect class="cls-25" x="198.88" y="343.55" width="240.67" height="1.9"/><rect class="cls-26" x="198.88" y="438.13" width="240.67" height="1.9"/><rect class="cls-27" x="198.88" y="447.65" width="240.67" height="1.9"/><rect class="cls-28" x="198.88" y="542.23" width="240.67" height="1.91"/><rect class="cls-29" x="198.89" y="235.01" width="240.67" height="11.43"/><rect class="cls-30" x="191.5" y="235.01" width="7.39" height="319.49"/><rect class="cls-31" x="197.65" y="244.53" width="241.91" height="1.9"/><rect class="cls-32" x="222.63" y="362.08" width="22.56" height="76.21"/><rect class="cls-33" x="222.63" y="422.65" width="22.56" height="3.99"/><rect class="cls-33" x="222.63" y="371.85" width="22.56" height="3.99"/><rect class="cls-34" x="202.61" y="387.41" width="93.55" height="8.2" transform="translate(-142.62 640.11) rotate(-89.89)"/><rect class="cls-33" x="229.62" y="389.21" width="39.53" height="4.1" transform="translate(-142.42 639.77) rotate(-89.87)"/><rect class="cls-35" x="230.65" y="390.23" width="39.53" height="2.05" transform="translate(-141.17 641.17) rotate(-89.93)"/><rect class="cls-36" x="210.85" y="387.41" width="93.55" height="8.2" transform="translate(-134.39 648.36) rotate(-89.89)"/><rect class="cls-33" x="237.87" y="389.21" width="39.53" height="4.1" transform="translate(-134.2 648.02) rotate(-89.87)"/><rect class="cls-35" x="238.89" y="390.23" width="39.53" height="2.05" transform="translate(-132.93 649.41) rotate(-89.93)"/><polygon class="cls-37" points="222.63 437.19 206.95 438.77 199.79 370.46 215.47 368.89 222.63 437.19"/><polygon class="cls-33" points="221.02 421.87 205.34 423.44 205.71 427 221.4 425.42 221.02 421.87"/><polygon class="cls-33" points="221.49 426.26 205.81 427.84 205.96 429.32 221.64 427.75 221.49 426.26"/><polygon class="cls-33" points="216.71 380.65 201.02 382.23 201.4 385.79 217.08 384.21 216.71 380.65"/><rect class="cls-38" x="199.86" y="268.04" width="17.67" height="66.2"/><rect class="cls-7" x="202.75" y="278.87" width="11.89" height="1.77"/><rect class="cls-7" x="202.75" y="282.86" width="11.89" height="1.77"/><rect class="cls-39" x="217.53" y="282.67" width="10.64" height="51.57"/><rect class="cls-40" x="228.36" y="282.67" width="10.64" height="51.57"/><rect class="cls-41" x="239.2" y="282.67" width="10.64" height="51.57"/><path class="cls-7" d="M225.51,290.28a2.66,2.66,0,1,1-2.66-2.66A2.66,2.66,0,0,1,225.51,290.28Z"/><rect class="cls-7" x="220.13" y="295.03" width="5.45" height="0.63"/><path class="cls-7" d="M236.35,290.28a2.67,2.67,0,1,1-2.67-2.66A2.67,2.67,0,0,1,236.35,290.28Z"/><rect class="cls-7" x="230.96" y="295.03" width="5.45" height="0.63"/><path class="cls-7" d="M247.18,290.28a2.66,2.66,0,1,1-2.66-2.66A2.66,2.66,0,0,1,247.18,290.28Z"/><rect class="cls-7" x="241.79" y="295.03" width="5.45" height="0.63"/><rect class="cls-42" x="252.98" y="324.79" width="58.18" height="9.42"/><rect class="cls-43" x="256.94" y="324.79" width="50.27" height="9.42"/><rect class="cls-44" x="259" y="324.79" width="46.16" height="9.42"/><rect class="cls-41" x="271.52" y="314.47" width="39.64" height="10.32"/><rect class="cls-45" x="275.53" y="314.47" width="31.62" height="10.32"/><rect class="cls-41" x="277.7" y="314.47" width="27.28" height="10.32"/><rect class="cls-41" x="271.52" y="304.15" width="39.64" height="10.32"/><rect class="cls-46" x="275.7" y="304.15" width="31.29" height="10.32"/><rect class="cls-41" x="277.54" y="304.15" width="27.62" height="10.32"/><rect class="cls-47" x="199.57" y="482.18" width="8.91" height="59.56"/><polygon class="cls-48" points="217.4 469.79 208.49 469.79 208.49 541.74 217.4 541.74 226.31 541.74 226.31 469.79 217.4 469.79"/><rect class="cls-49" x="226.31" y="464.35" width="8.91" height="77.39"/><rect class="cls-50" x="235.22" y="469.79" width="10.72" height="71.95"/><rect class="cls-51" x="245.95" y="475.38" width="8.91" height="66.35"/><rect class="cls-7" x="199.57" y="482.18" width="8.91" height="16.24"/><rect class="cls-7" x="208.48" y="490.3" width="17.83" height="27.86"/><rect class="cls-52" x="229.3" y="475.38" width="2.4" height="42.77"/><rect class="cls-53" x="288.05" y="465.78" width="16.03" height="75.88"/><rect class="cls-7" x="288.05" y="495.85" width="16.03" height="23.44"/><rect class="cls-54" x="274.75" y="473.64" width="12.02" height="68.02"/><polygon class="cls-55" points="258.52 540.41 269.67 541.68 274.75 486.55 263.61 485.27 258.52 540.41"/><polygon class="cls-7" points="259.66 528.04 270.81 529.32 270.55 532.19 259.4 530.91 259.66 528.04"/><polygon class="cls-7" points="259.34 531.59 270.48 532.86 270.37 534.06 259.23 532.79 259.34 531.59"/><polygon class="cls-7" points="262.73 494.77 273.88 496.05 273.61 498.91 262.47 497.64 262.73 494.77"/><line class="cls-56" x1="262.47" y1="497.64" x2="262.73" y2="494.77"/><line class="cls-56" x1="268.31" y1="495.41" x2="268.04" y2="498.28"/><path class="cls-57" d="M447,235V554.5h-10v-.85H269.74c-.56-2.64-1.11-5.34-1.63-8.11l-.27-1.41c-.12-.63-.24-1.26-.35-1.9l-.15-.82q-.7-3.84-1.35-7.85c-.07-.41-.14-.82-.2-1.24-.05-.23-.08-.46-.11-.69-.17-1-.32-2-.47-3,0-.21-.07-.42-.1-.63-1.28-8.37-2.36-16.25-3.25-23.69-2.63-21.89-3.66-39.88-3.42-54.8,0-.64,0-1.27,0-1.9.06-2.64.17-5.18.31-7.62,0-.59.07-1.18.11-1.75a.76.76,0,0,1,0-.15,147.21,147.21,0,0,1,2.78-20.93c10.18-47.68,41.69-43.75,60.42-71.75.41-.61.82-1.25,1.22-1.9a64.67,64.67,0,0,0,4-7.62c.28-.62.55-1.26.82-1.9,3.52-8.48,6.14-19.17,7.45-33.12,2.3-24.5,2.06-42,.31-54.47-.09-.65-.19-1.29-.29-1.91s-.16-1-.25-1.49a70.68,70.68,0,0,0-1.86-8Z"/><path class="cls-58" d="M352.35,201.1l-1.07-.07-4-.24c-2.23-6.06-6.37-10.89-9.44-16.46a43.34,43.34,0,0,1-5.16-17.3c-.66-8.24,2-16,2.91-24.11.68-6,1-12.26-1.46-17.93-2.11-4.92-5.39-9.25-7.3-14.27-1.65-4.35-1.2-11.77,4.07-12.86a7.5,7.5,0,0,1,1.54-.13c5.49.12,9.56,3.61,12.32,8a42.69,42.69,0,0,1,5.39,11.75,54.16,54.16,0,0,1,1.36,11.78c.38,10.91.19,22-2.63,32.52-.86,3.23-2,6.39-2.64,9.67a38.63,38.63,0,0,0,5.23,28.32C351.76,200.24,352.05,200.67,352.35,201.1Z"/><path class="cls-57" d="M351.48,199.79l-.2,1.24c-.17-.43-4.4-11.47-10.27-23.32-6-12.09,2.42-45.23,1.88-59.1-.35-8.84-7.12-16.41-12-20.75a7.5,7.5,0,0,1,1.54-.13c5.49.12,9.56,3.61,12.32,8a42.69,42.69,0,0,1,5.39,11.75,54.16,54.16,0,0,1,1.36,11.78c.38,10.91.19,22-2.63,32.52-.86,3.23-2,6.39-2.64,9.67A38.63,38.63,0,0,0,351.48,199.79Z"/><path class="cls-59" d="M345.32,145.87c1.43-.94,3.37-2.31,5.43-3.94l.85-.68c0-.21,0-.42,0-.63l-1.16.93c-2.05,1.62-3.95,3-5.33,4l-1.68,1.24a63.51,63.51,0,0,0,.4-7.44c0-1.37-.06-2.69-.14-4,.33-.19,1.15-.76,2.29-1.62,1.46-1.09,3.42-2.64,5.52-4.44v-.07c0-.18,0-.37,0-.55l-.21.18c-2.13,1.83-4.08,3.44-5.5,4.61-1,.86-1.78,1.48-2.09,1.77a63.7,63.7,0,0,0-1.73-11c0-.17-.08-.33-.13-.49.31-.29,1-1.11,2.06-2.29l5.17-5.94.37-.42-.18-.52-.55.62c-2,2.32-3.82,4.46-5.08,6-.63.79-1.13,1.44-1.46,1.89l-.36.51a61.9,61.9,0,0,0-3-8.88s.05,0,.05,0l0,0c.17-.21.65-1,1.35-2.28,1.25-2.2,2.25-3.94,3.27-5.75l1-1.62-.3-.43c-.35.58-.71,1.18-1.07,1.81-1.3,2.24-2.4,4.31-3.16,5.82a23.86,23.86,0,0,0-1.1,2.41l-.06-.14c-.49-1.1-.89-2-1.19-2.52a6.09,6.09,0,0,0-.47-.85,5.14,5.14,0,0,0,.35.91c.26.58.62,1.44,1.08,2.56v0c-.41,0-1.16-.14-2.13-.35-1.52-.32-3.61-1-6-1.45-1-.22-1.94-.4-2.83-.56l.23.51,2.5.52c2.34.49,4.43,1.08,6,1.31a10.27,10.27,0,0,0,2.24.15,67.17,67.17,0,0,1,2.82,8.76c-1-.21-3.71-.59-6.94-1L333,122.5l.25.51,1.12.13c3.29.37,6.08.61,7,.62.05.22.11.43.16.65a66.52,66.52,0,0,1,1.59,10.69c-.32-.21-.81-.51-1.43-.86-1.2-.69-2.89-1.57-4.82-2.43-.35-.16-.69-.31-1-.45,0,.18.05.36.07.54l.78.35c1.91.85,3.61,1.68,4.85,2.29l1.6.77c.09,1.32.13,2.68.13,4.08a68.74,68.74,0,0,1-.48,7.82c-.67-.43-2.87-1.55-5.41-3l-1.78-1.07c0,.17-.05.34-.07.5.51.32,1.05.65,1.61,1a43.55,43.55,0,0,0,4.08,2.12,16.39,16.39,0,0,0,1.56.64c-.34,3.07-.81,6.26-1.28,9.53-1-.55-3.06-1.62-5.46-2.9l-2.09-1.12-.09.47c.61.35,1.26.71,2,1.08,1.67.89,3.23,1.64,4.37,2.14.52.24,1,.42,1.28.54,0,.24-.07.48-.11.72-.43,3.15-.79,6.24-.92,9.25-.77-.5-2.9-1.68-5.4-3.07l-2.4-1.35c0,.17,0,.34,0,.51.66.39,1.4.82,2.18,1.26,1.59.89,3.06,1.65,4.14,2.17.66.31,1.17.54,1.48.65,0,.06,0,.12,0,.19a50.84,50.84,0,0,0,.37,8.72c-.62-.4-2.63-1.41-5-2.53l-2.21-1c0,.19.07.37.11.55l1.89.89a56.92,56.92,0,0,0,5.27,2.24.49.49,0,0,1,0,.12,52.86,52.86,0,0,0,1.56,7.31,51.79,51.79,0,0,0-5.05-1.21l-.44-.09c.09.19.19.37.28.55h.06a46.58,46.58,0,0,0,5.19.87,49.73,49.73,0,0,0,2.67,7.14c.16.34.31.66.47,1a36,36,0,0,0-3.49-.88c.12.19.24.38.37.57a29,29,0,0,0,3.23.53,48.14,48.14,0,0,0,4.67,7.61l1,1.24h.25l-.08-.1-.93-1.3a53.89,53.89,0,0,1-4.52-7.73,19.89,19.89,0,0,0,1-2.12c-.07-.24-.14-.47-.2-.71-.41,1.14-.74,2.06-.91,2.59-.13-.29-.27-.57-.4-.87a51,51,0,0,1-2.63-7.3,31.11,31.11,0,0,0,2.68-2.28c0-.21,0-.41,0-.62-1.2,1.21-2.21,2.17-2.7,2.7a52.49,52.49,0,0,1-1.42-7c0-.08,0-.16,0-.24.73-.62,2.53-2.36,4.6-4.46l.31-.31c.06-.3.12-.59.19-.88l-.84.85c-2,2-3.62,3.76-4.29,4.57a51.67,51.67,0,0,1-.31-8.42c0-.12,0-.25,0-.37.36-.2.88-.52,1.55-.94,1.22-.78,2.88-1.9,4.67-3.2.57-.41,1.12-.82,1.64-1.22l.18-.71-2.1,1.54-4.58,3.31c-.57.41-1,.74-1.35,1,.15-2.9.51-5.89.92-8.94,0-.29.09-.58.13-.88.95-.49,3.59-2.07,6.65-4l2.07-1.32c0-.2.05-.39.07-.59-.75.47-1.56,1-2.4,1.51-2.94,1.86-5.42,3.51-6.36,4.21.47-3.33.95-6.6,1.28-9.76C343.84,146.82,344.49,146.42,345.32,145.87Z"/><path class="cls-60" d="M376.58,125c-2.44,5.67-2.14,11.89-1.46,17.93C376,151,378.7,158.79,378,167a43.18,43.18,0,0,1-5.16,17.3c-2.51,4.57-5.76,8.64-8.08,13.31v0a30.17,30.17,0,0,0-1.36,3.13l-5.06.31a38.61,38.61,0,0,0,6.1-29.63c-.67-3.28-1.78-6.44-2.64-9.67-2.81-10.55-3-21.61-2.62-32.52a54.77,54.77,0,0,1,1.35-11.78A42.69,42.69,0,0,1,366,105.75c2.76-4.41,6.83-7.9,12.32-8a5.6,5.6,0,0,1,4.15,1.48c2.76,2.6,2.78,8,1.46,11.51C382,115.74,378.69,120.07,376.58,125Z"/><path class="cls-57" d="M376.58,125c-2.44,5.67-2.14,11.89-1.46,17.93C376,151,378.7,158.79,378,167a43.18,43.18,0,0,1-5.16,17.3c-2.51,4.57-5.76,8.64-8.08,13.31.16-.75,4.66-22,8.41-32.26,3.82-10.47-1.38-25.72-1.65-38.56-.18-8.74,6.55-20.81,10.87-27.61,2.76,2.6,2.78,8,1.46,11.51C382,115.74,378.69,120.07,376.58,125Z"/><path class="cls-59" d="M365.4,145.87c-1.44-.94-3.38-2.31-5.44-3.94l-.85-.68c0-.21,0-.42,0-.63l1.16.93c2.05,1.62,3.95,3,5.33,4l1.68,1.24a65.76,65.76,0,0,1-.4-7.44c0-1.37.06-2.69.15-4-.33-.19-1.15-.76-2.3-1.62-1.45-1.09-3.42-2.64-5.52-4.44v-.07c0-.18,0-.37,0-.55l.22.18c2.12,1.83,4.08,3.44,5.49,4.61,1,.86,1.79,1.48,2.09,1.77a65.7,65.7,0,0,1,1.73-11c0-.17.09-.33.13-.49-.3-.29-1-1.11-2.05-2.29l-5.18-5.94-.37-.42.18-.52c.19.2.37.41.56.62,2,2.32,3.81,4.46,5.07,6,.63.79,1.13,1.44,1.46,1.89.16.22.28.38.36.51a61.9,61.9,0,0,1,3-8.88s0,0,0,0,0,0,0,0c-.17-.21-.66-1-1.36-2.28l-3.27-5.75c-.32-.54-.64-1.08-.95-1.62.09-.15.19-.29.29-.43l1.08,1.81c1.29,2.24,2.39,4.31,3.15,5.82a21.63,21.63,0,0,1,1.1,2.41l.06-.14c.49-1.1.89-2,1.19-2.52a5.4,5.4,0,0,1,.48-.85,5.93,5.93,0,0,1-.36.91c-.26.58-.62,1.44-1.08,2.56v0c.42,0,1.16-.14,2.13-.35,1.53-.32,3.61-1,6-1.45,1-.22,1.94-.4,2.83-.56-.07.17-.15.34-.23.51l-2.5.52c-2.34.49-4.43,1.08-6,1.31a10.27,10.27,0,0,1-2.24.15,67.17,67.17,0,0,0-2.82,8.76c1-.21,3.71-.59,6.94-1l1.43-.16c-.09.17-.18.34-.26.51l-1.11.13c-3.29.37-6.08.61-7,.62-.05.22-.11.43-.16.65a66.52,66.52,0,0,0-1.59,10.69c.33-.21.81-.51,1.43-.86,1.2-.69,2.9-1.57,4.82-2.43l1-.45c0,.18-.05.36-.06.54l-.78.35c-1.92.85-3.62,1.68-4.86,2.29l-1.6.77c-.08,1.32-.13,2.68-.12,4.08a66.45,66.45,0,0,0,.47,7.82c.67-.43,2.88-1.55,5.41-3l1.79-1.07.06.5c-.5.32-1,.65-1.61,1a43.55,43.55,0,0,1-4.08,2.12,16.39,16.39,0,0,1-1.56.64c.34,3.07.82,6.26,1.28,9.53,1-.55,3.06-1.62,5.46-2.9l2.09-1.12.09.47q-.92.53-1.95,1.08c-1.68.89-3.23,1.64-4.37,2.14q-.8.36-1.29.54c0,.24.07.48.11.72.43,3.15.79,6.24.92,9.25.78-.5,2.91-1.68,5.4-3.07l2.4-1.35c0,.17,0,.34,0,.51-.67.39-1.4.82-2.18,1.26-1.6.89-3.07,1.65-4.15,2.17-.66.31-1.17.54-1.48.65a1.15,1.15,0,0,1,0,.19,50.84,50.84,0,0,1-.37,8.72c.62-.4,2.63-1.41,5.05-2.53l2.21-1-.12.55-1.89.89a55.73,55.73,0,0,1-5.27,2.24s0,.08,0,.12a51.44,51.44,0,0,1-1.56,7.31c.61-.23,2.63-.71,5.06-1.21l.43-.09c-.09.19-.19.37-.28.55h-.06a46.94,46.94,0,0,1-5.18.87,49.71,49.71,0,0,1-2.68,7.14c-.15.34-.31.66-.47,1,.64-.22,1.95-.55,3.5-.88-.13.19-.25.38-.37.57a29.35,29.35,0,0,1-3.23.53,48.82,48.82,0,0,1-4.68,7.61l-.95,1.24h-.26l.08-.1.93-1.3a52.07,52.07,0,0,0,4.52-7.73,22.14,22.14,0,0,1-1-2.12l.21-.71c.4,1.14.74,2.06.9,2.59l.41-.87a51,51,0,0,0,2.62-7.3,29.88,29.88,0,0,1-2.67-2.28c0-.21,0-.41,0-.62,1.2,1.21,2.21,2.17,2.71,2.7a52.51,52.51,0,0,0,1.41-7l0-.24c-.74-.62-2.54-2.36-4.61-4.46l-.3-.31c-.07-.3-.13-.59-.2-.88l.85.85c2,2,3.61,3.76,4.28,4.57a50.58,50.58,0,0,0,.31-8.42c0-.12,0-.25,0-.37-.35-.2-.88-.52-1.54-.94-1.23-.78-2.89-1.9-4.68-3.2-.57-.41-1.12-.82-1.64-1.22-.06-.23-.11-.47-.17-.71l2.1,1.54,4.58,3.31c.56.41,1,.74,1.34,1-.15-2.9-.5-5.89-.92-8.94l-.12-.88c-1-.49-3.59-2.07-6.66-4l-2.07-1.32c0-.2,0-.39-.07-.59.75.47,1.56,1,2.4,1.51,3,1.86,5.42,3.51,6.37,4.21-.48-3.33-1-6.6-1.29-9.76C366.88,146.82,366.23,146.42,365.4,145.87Z"/><path class="cls-61" d="M357.59,188.93a28.12,28.12,0,0,0,0,7.1c.56,3.64,2.65,5.65,4.76,8.42l-2.22-.69-2.37-.73c-1.85-1.28-2.94-3.39-3.84-5.46-3.73-8.56-6.1-18.61-4.91-27.95,1.25-9.8,3.4-19.73,2.82-29.67a68.15,68.15,0,0,0-3.27-16.52c-3-9.5-8.6-26.56,1-34.36a6.19,6.19,0,0,1,1.7-1c4.37-1.76,8.91,2.67,11.55,6,5,6.36,6.65,15.25,7.82,23.07,2.43,16.32-3.15,32.06-7.82,47.45A130.28,130.28,0,0,0,357.59,188.93Z"/><path class="cls-57" d="M357.59,188.93a28.12,28.12,0,0,0,0,7.1c.56,3.64,2.65,5.65,4.76,8.42l-2.22-.69c-1-2.69-2.35-6.47-4.15-11.68-4.73-13.68,6-57.05,6.42-74.31.29-12.11-6.87-23.81-11.17-29.71,4.37-1.76,8.91,2.67,11.55,6,5,6.36,6.65,15.25,7.82,23.07,2.43,16.32-3.15,32.06-7.82,47.45A130.28,130.28,0,0,0,357.59,188.93Z"/><path class="cls-59" d="M357.84,202.5l-.51-1.17c-.2-.45-.38-1-.61-1.62a47.41,47.41,0,0,1-2.37-9.58c.37-.2,1.1-.65,2.09-1.3l1.25-.85c0-.21.05-.41.08-.61l-1.55,1.15c-.89.67-1.55,1.17-1.89,1.45-.05-.32-.1-.65-.14-1a66.93,66.93,0,0,1-.41-9.79c1-.52,3.27-1.9,6-3.65.05-.24.11-.48.17-.72-2.85,1.83-5.19,3.39-6.2,4.14.06-2,.19-4.15.4-6.34.17-1.85.4-3.76.67-5.71a33.44,33.44,0,0,1,2.75-2c1.67-1.1,3.88-2.58,6.32-4.24.09-.27.17-.55.25-.82-2.65,1.83-5,3.49-6.78,4.75a20.79,20.79,0,0,0-2.14,1.76l-.37.37c.17-1.21.35-2.45.55-3.7.41-2.57.87-5.21,1.31-7.92.54-.25,1.4-.69,2.5-1.27,1.89-1,4.48-2.41,7.33-4l.69-.38c.06-.24.13-.48.19-.72l-1.14.64c-2.85,1.59-5.41,3.05-7.25,4.13-1,.58-1.77,1.05-2.28,1.37.12-.71.23-1.42.34-2.15a101,101,0,0,0,1.17-10.39q.06-1,.09-1.95l.53-.32c.63-.37,1.52-.95,2.61-1.68,2.18-1.47,5.11-3.61,8.19-6.18.39-.32.76-.64,1.13-1,0-.25,0-.5.07-.75l-1.54,1.3c-3.07,2.56-5.95,4.74-8.06,6.28l-2.51,1.82-.41.3c.09-2.62.06-5.17-.06-7.62s-.35-4.92-.64-7.2c.14-.11.36-.3.68-.59l2.19-2c1.83-1.72,4.36-4.09,7.18-6.67l2.3-2.09c0-.2-.07-.4-.1-.6-.83.73-1.68,1.49-2.55,2.29-2.83,2.59-5.33,5-7.1,6.8-.88.89-1.59,1.62-2.06,2.14-.25.28-.44.48-.56.63-.06-.49-.12-1-.19-1.46-.38-2.74-.85-5.27-1.34-7.57-.34-1.54-.68-3-1-4.28l.4-.34c.54-.47,1.31-1.17,2.25-2,1.87-1.75,4.42-4.22,7.15-7q.85-.87,1.65-1.71c-.07-.18-.15-.35-.23-.53l-1.8,1.87-7,7.12-2.13,2.17-.3.31c-.64-2.54-1.28-4.65-1.79-6.28-.39-1.25-.73-2.21-1-2.86a7.09,7.09,0,0,0-.39-1,4.91,4.91,0,0,0,.25,1c.24.84.52,1.8.83,2.89.46,1.62,1,3.73,1.63,6.23-.4-.2-1.28-.58-2.51-1.08-1.73-.71-4.14-1.63-6.82-2.59l-.8-.28.09.59.53.19,6.86,2.44c1.33.46,2.28.77,2.68.87l.06.23c-.06.07-.1.12-.09.13s0,0,.1,0c.3,1.26.6,2.62.89,4.09.47,2.29.91,4.81,1.26,7.54,0,.36.09.73.13,1.1-.31-.19-1.06-.55-2.1-1-1.44-.66-3.43-1.55-5.65-2.5l-1.63-.69c.06.22.13.44.2.66l1.22.52c2.21,1,4.23,1.78,5.71,2.36,1.14.44,1.95.73,2.27.81.29,2.37.52,4.88.63,7.51.1,2.42.12,4.95,0,7.55l-1.31-1L352,136l-.64-.48c0,.24.07.49.1.73l.23.17c1.73,1.28,3.34,2.36,4.54,3.11.65.4,1.16.7,1.51.89q0,.94-.09,1.89c-.19,3.36-.64,6.81-1.18,10.34l-.32,2c-.66-.9-2.11-2.68-3.84-4.7-.22-.24-.42-.48-.63-.72l-.06.74.28.33c1.84,2.13,3.46,3.92,4.21,4.64-.45,2.74-.89,5.43-1.31,8-.2,1.28-.38,2.53-.55,3.77-.62-.7-2.19-2.26-3.9-4.2l-.29-.33c0,.23-.07.46-.1.69a30.58,30.58,0,0,0,4.26,4.06c-.26,1.94-.48,3.83-.64,5.68-.21,2.3-.33,4.52-.36,6.64-.2-.21-.46-.49-.75-.85-.66-.86-1.62-2-2.77-3.27l-1-1c0,.24,0,.49,0,.73l.62.67c1.15,1.21,2.13,2.34,2.88,3.15a6.75,6.75,0,0,0,1,.89,65.93,65.93,0,0,0,.52,9.56c0,.29.09.57.13.86-.49-.59-1.92-2-3.8-3.86.07.29.14.58.22.88,1.79,1.66,3.16,2.87,3.62,3.18a43.72,43.72,0,0,0,2.6,9.7c.25.61.45,1.16.68,1.61s.39.79.57,1.14.22.42.3.57l.1,0Q358,202.92,357.84,202.5Z"/><path class="cls-62" d="M368.55,237.24a4.09,4.09,0,0,1-2.58.9H346.6a4.12,4.12,0,0,1-2.59-.9,20.75,20.75,0,0,1-2.85-2.85c-7.38-8.83-8.05-23.15-7.83-30.65.06-2.27.21-3.92.28-4.61H379c.08.69.22,2.34.28,4.61C379.49,212.13,378.61,229,368.55,237.24Z"/><g class="cls-63"><path class="cls-64" d="M375.45,216.39c-5.84-4.44-16.11-.29-21.49,3.11-5.63,3.56-9.13,9.25-13.31,14.27a21.61,21.61,0,0,0,3.36,3.47h0q1.5-1.69,2.91-3.53c3.06-4,6.05-7.8,10.34-10.51a25.21,25.21,0,0,1,7.7-3.08c2.27-.54,6.46-1.42,8.1.78s1.55,5.42,1.57,8.48a40,40,0,0,0,3.31-9.78A8.4,8.4,0,0,0,375.45,216.39Z"/><path class="cls-64" d="M373.87,203.3c-4.72,1.45-9.52,2.62-14.3,3.86-8.49,2.19-16.89,4.68-24.69,8.75l-.69.37c2.52-2.76,4.77-5.82,7-8.33a82.43,82.43,0,0,1,8.81-8.82h-7.27c-3.19,3.17-6.15,6.61-9,10l-.32.39A60.63,60.63,0,0,0,335,221.44c2-1.14,4-2.16,5.92-3.05,8.4-3.91,17.63-5.88,26.56-8.21a104.38,104.38,0,0,0,11.76-3.26c0-2.14,0-4-.12-5.38A53.31,53.31,0,0,1,373.87,203.3Z"/><path class="cls-64" d="M364.55,226.24c-4.82-.12-8.91,2.57-12.21,5.86a23.67,23.67,0,0,0-4.16,6h5.64c.17-.26.33-.54.51-.8,2.18-3.21,7.37-7.65,11.51-5.76,1.84.84,3,2.67,3.82,4.67a22.94,22.94,0,0,0,3.37-4.06C371.27,229.12,368.21,226.34,364.55,226.24Z"/></g><path class="cls-65" d="M381.7,197.42v3.49a2.85,2.85,0,0,1-2.47,2.83l-.39,0H333.72l-.39,0a2.85,2.85,0,0,1-2.47-2.83v-3.49a2.86,2.86,0,0,1,2.86-2.86h45.12A2.86,2.86,0,0,1,381.7,197.42Z"/><path class="cls-66" d="M290.25,235q-1.77,3.93-3.71,8l-.71,1.49c-.31.63-.61,1.27-.92,1.91-9.43,19.51-21.44,40.86-35.07,57.21A122.31,122.31,0,0,1,239.2,315a1.57,1.57,0,0,1-.19.18,77.21,77.21,0,0,1-10.64,8.37l-.19.12q-.93.59-1.86,1.14a23.11,23.11,0,0,0-8.61,9.24l-.11.21c-.29.54-.57,1.11-.83,1.69a40.8,40.8,0,0,0-2.57,7.62c-.16.62-.3,1.25-.43,1.9a99.76,99.76,0,0,0-1.47,23.76c.14,3.79.43,7.73.83,11.8.11,1.17.23,2.36.37,3.56C214.81,396.3,217,409,219.58,422h0c.23,1.17.47,2.34.71,3.51.05.28.11.55.17.83l.3,1.47q.87,4.26,1.79,8.53l.09.4c.1.46.19.91.29,1.37,0,.05,0,.11,0,.16.12.58.25,1.16.38,1.74.54,2.54,1.1,5.08,1.66,7.62l.42,1.9q1.65,7.44,3.31,14.8,1.24,5.56,2.45,11c.18.78.35,1.56.52,2.34,1.24,5.65,2.43,11.19,3.52,16.57,3.77,18.51,6.43,35.07,6.27,47.45,0,.17,0,.33,0,.49,0,.64,0,1.28-.05,1.9s-.05,1-.08,1.41a41.23,41.23,0,0,1-1.26,8.11H198.89v.85H191.5V235Z"/><polygon class="cls-41" points="303.06 237.32 249.78 237.32 247.16 227.94 246.74 226.41 241.03 206.06 239.56 200.78 235.5 186.32 235.34 185.72 235.16 185.06 235.07 184.78 234.28 181.96 287.56 181.96 303.06 237.32"/><polygon class="cls-67" points="234.01 181.95 234.01 181.96 233.43 184.06 233.24 184.76 233.06 185.36 232.74 184.18 232.12 181.98 232.1 181.96 232.1 181.95 234.01 181.95"/><polygon class="cls-68" points="300.87 237.32 271.79 237.32 286.32 185.38 298.24 227.92 299.29 231.66 300.87 237.32"/><polygon class="cls-69" points="247.6 237.32 218.51 237.32 233.06 185.36 237.69 201.92 238.44 204.55 244.12 224.86 244.97 227.92 245.87 231.09 246.03 231.66 247.6 237.32"/><polygon class="cls-7" points="285.1 181.96 283.51 187.62 282.46 191.36 269.6 237.31 269.6 237.32 216.34 237.32 229.21 191.36 230.25 187.62 231.84 181.96 285.1 181.96"/><polygon class="cls-60" points="264.6 203.05 250.23 211.42 235.86 203.05 250.23 194.22 264.6 203.05"/><polygon class="cls-58" points="250.23 211.42 250.23 228.49 235.86 219.95 235.86 203.05 250.23 211.42"/><polygon class="cls-61" points="264.6 203.05 250.23 211.42 250.23 228.49 264.6 220.05 264.6 203.05"/><circle class="cls-70" cx="235.69" cy="185.44" r="0.91"/><circle class="cls-71" cx="244.75" cy="185.44" r="0.91"/><circle class="cls-72" cx="253.81" cy="185.44" r="0.91"/><circle class="cls-73" cx="262.87" cy="185.44" r="0.91"/><circle class="cls-74" cx="271.93" cy="185.44" r="0.91"/><circle class="cls-75" cx="281" cy="185.44" r="0.91"/><path class="cls-41" d="M235.69,178.57a3.57,3.57,0,0,0-3.57,3.38h0s0,0,0,0a1,1,0,0,0,0,.17,3.56,3.56,0,0,0,.63,2,3.07,3.07,0,0,0,.5.58,3.4,3.4,0,0,0,1.56.87,3.2,3.2,0,0,0,.54.09l.35,0v-.63a3.07,3.07,0,0,1-.53-.05,1.1,1.1,0,0,1-.26-.06,2.93,2.93,0,0,1-2.16-2.85,1.21,1.21,0,0,1,0-.19h0a3,3,0,0,1,5.89,0h.63A3.58,3.58,0,0,0,235.69,178.57Z"/><path class="cls-41" d="M244.75,178.57a3.56,3.56,0,0,0-3.57,3.39,1.21,1.21,0,0,0,0,.19,3.59,3.59,0,0,0,2.7,3.48,3.66,3.66,0,0,0,.88.11v-.63a3,3,0,0,1-2.95-3,1.21,1.21,0,0,1,0-.19,3,3,0,0,1,5.89,0h.63A3.58,3.58,0,0,0,244.75,178.57Z"/><path class="cls-41" d="M253.81,178.57a3.56,3.56,0,0,0-3.57,3.39,1.21,1.21,0,0,0,0,.19,3.59,3.59,0,0,0,2.7,3.48,3.66,3.66,0,0,0,.88.11v-.63a3,3,0,0,1-2.95-3,1.21,1.21,0,0,1,0-.19,3,3,0,0,1,5.89,0h.63A3.58,3.58,0,0,0,253.81,178.57Z"/><path class="cls-41" d="M264.59,179a3.64,3.64,0,0,0-1.71-.43,3.56,3.56,0,0,0-3.57,3.39,1.21,1.21,0,0,0,0,.19,3.66,3.66,0,0,0,.14,1,3.57,3.57,0,0,0,2.55,2.47h0a3.68,3.68,0,0,0,.89.11v-.63a3,3,0,0,1-2.95-3,1.21,1.21,0,0,1,0-.19,2.94,2.94,0,0,1,2.94-2.76,3,3,0,0,1,1.13.22,2.93,2.93,0,0,1,1.82,2.53h.63A3.58,3.58,0,0,0,264.59,179Z"/><path class="cls-41" d="M271.94,178.57a3.56,3.56,0,0,0-3.57,3.39,1.21,1.21,0,0,0,0,.19,3.57,3.57,0,0,0,2.69,3.47h0a3.68,3.68,0,0,0,.89.11v-.63a3,3,0,0,1-2.95-3,1.21,1.21,0,0,1,0-.19,3,3,0,0,1,5.89,0h.63A3.58,3.58,0,0,0,271.94,178.57Z"/><path class="cls-41" d="M281,178.57a3.56,3.56,0,0,0-3.57,3.39,1.21,1.21,0,0,0,0,.19,3.57,3.57,0,0,0,2.69,3.47h0a3.68,3.68,0,0,0,.89.11v-.63a3,3,0,0,1-2.95-3,1.21,1.21,0,0,1,0-.19,3,3,0,0,1,5.89,0h.63A3.58,3.58,0,0,0,281,178.57Z"/><path class="cls-66" d="M264.59,179l-.58.42a3,3,0,0,0-1.13-.22,2.94,2.94,0,0,0-2.94,2.76,1.21,1.21,0,0,0,0,.19,3,3,0,0,0,.05.52l-.54.48a40,40,0,0,0-9,11.2,23.86,23.86,0,0,0-2.38,15.8c.07.42.17.84.27,1.27a27.7,27.7,0,0,1-.81,15.46c-.11.35-.23.71-.36,1.06q-.57,1.59-1.29,3.15a48.36,48.36,0,0,1-3.48,6.23h-26l12.87-46,1-3.74,1.58-5.66h.28a3.58,3.58,0,0,1,7.15,0h-.63a3,3,0,0,0-5.89,0h8.43a3.58,3.58,0,0,1,7.15,0h-.63a3,3,0,0,0-5.89,0h8.43a3.58,3.58,0,0,1,7.15,0h-.63a3,3,0,0,0-5.89,0h8.44a3.56,3.56,0,0,1,3.57-3.39A3.64,3.64,0,0,1,264.59,179Z"/><path class="cls-57" d="M285.1,182l-1.58,5.66-1,3.74L269.6,237.31h-3.31c1.34-6.86,1.69-14.91-1.69-21-5-8.88,2-25.06,6.86-34.39Z"/><path class="cls-76" d="M600.85,564.35c-7,6.19-21.79,10.4-41,13-56,7.74-149.11,2.17-193-6.31-14.41-2.79-23.52-5.88-24.26-8.92-3.78-15.48,4.15-23,4.15-23s11.69-.4,30-.9c37.33-1,102.25-2.51,152.59-2,36.81.4,65.83,1.87,70.57,5.38C609.83,549,600.85,564.35,600.85,564.35Z"/><path class="cls-77" d="M600,541.65c-24.58,4.12-47.21,7.05-68,9-76.23,7.3-127.09,1.92-155.92-3.69-19.91-3.87-29.32-7.86-29.32-7.86-6.85-45.69-2.72-160.2-1.89-181,.06-1.69.11-2.75.12-3.12a.66.66,0,0,0,0-.14c2-87.57,18.75-100,22-101.36l.07,0a.22.22,0,0,1,.13,0l.19-.07c17-5.61,36.33-7.42,36.33-7.42.77-7.17,10.39-8.68,10.39-8.68-.94-11.61,9.62-20.87,13.21-23.67.73-.57,1.17-.87,1.17-.87s6.4-3,25-.66l.74.09c7.18.95,15.56-.09,24.26-1.58,14.48-2.45,29.83-6.13,41.94-3.89.57.11,1.13.23,1.66.36,17.75,4.57,18.22,26.5,18.22,26.5,14.85-.49,13.34,9.57,13.34,9.57,33.54,5,39.08,15.61,39.08,15.61C610.19,316.14,600,541.65,600,541.65Z"/><circle class="cls-78" cx="529.46" cy="263.38" r="4.49"/><path class="cls-79" d="M531.06,352.88l-2.22-.45c0-.23,4.65-23.91-4.42-45.78C515,283.87,528.89,264,529,263.77l1.85,1.32c-.14.19-13.32,19.1-4.37,40.7C535.85,328.31,531.11,352.64,531.06,352.88Z"/><path class="cls-80" d="M525,226.54a51.89,51.89,0,0,1-2.42,12.25c-4.12,12-14.69,24-42.63,25.5-26.14,1.4-41.05-8.06-47.51-18a21.51,21.51,0,0,1-3.84-12.68c.52-8.34,6.69-10.92,10.45-11.71a15,15,0,0,1,2.89-.37c2.21-2.32,7.67-4.07,14.82-5.24a163.29,163.29,0,0,1,30.36-1.59,133.63,133.63,0,0,1,23.51,2.64h0C519.42,219.29,525.32,222.34,525,226.54Z"/><path class="cls-81" d="M522.54,238.79c-4.11,12-14.68,24-42.63,25.5C458,265.46,444,259,436.21,251a30.6,30.6,0,0,1-3.8-4.74l.19-.09c7.46-3.46,7.16-17,6.42-24.31-.29-2.78-.64-4.63-.64-4.63l18.34-1,21.22-1.11,9.14-.48,23-1.22c.15,1.36.31,2.65.49,3.86h0C513.13,234.69,518.66,238.45,522.54,238.79Z"/><path class="cls-82" d="M497.38,216.43s-27.81,39.3-61.17,34.57a30.6,30.6,0,0,1-3.8-4.74l.19-.09c7.46-3.46,7.16-17,6.42-24.31-.29-2.78-.64-4.63-.64-4.63l18.34-1,21.22-1.11Z"/><circle class="cls-83" cx="433.68" cy="266.14" r="4.49"/><path class="cls-84" d="M434.79,355.69l-2.22-.45c.05-.23,4.64-23.91-4.42-45.78-9.45-22.78,4.46-42.68,4.61-42.88l1.84,1.32c-.13.19-13.31,19.1-4.36,40.7C439.58,331.12,434.84,355.45,434.79,355.69Z"/><path class="cls-85" d="M432.29,351.68l2.48.44a3.64,3.64,0,0,1,3,4L436.36,367a3.64,3.64,0,0,1-4.34,3.1l-4.52-.93a3.64,3.64,0,0,1-2.72-4.7l3.42-10.32A3.64,3.64,0,0,1,432.29,351.68Z"/><path class="cls-86" d="M528.66,350.76l1.47.26a4.19,4.19,0,0,1,3.42,4.66l-1.23,9.67a4.19,4.19,0,0,1-5,3.58l-3.31-.68a4.2,4.2,0,0,1-3.14-5.43l3.07-9.25A4.2,4.2,0,0,1,528.66,350.76Z"/><path class="cls-87" d="M446.81,288a77.71,77.71,0,0,0,8.11,2.42q4.09,1,8.24,1.72a90,90,0,0,0,16.7,1.21,74.6,74.6,0,0,0,16.55-2.24,68.73,68.73,0,0,0,8-2.56,77,77,0,0,0,7.72-3.44,54.66,54.66,0,0,1-15.29,7.5,61.13,61.13,0,0,1-8.36,2,70.16,70.16,0,0,1-8.56.77,72.68,72.68,0,0,1-17-1.67A65.3,65.3,0,0,1,446.81,288Z"/><path class="cls-88" d="M403.77,246a16.21,16.21,0,0,1,.47,4.9c0,.79-.08,1.57-.15,2.35s-.17,1.57-.32,2.47a5.25,5.25,0,0,1-1.25-2.33,8.84,8.84,0,0,1-.28-2.55,9.67,9.67,0,0,1,.4-2.5A7.23,7.23,0,0,1,403.77,246Z"/><path class="cls-89" d="M414.15,237.3a44.55,44.55,0,0,1,1.21,4.67c.33,1.55.65,3.09.93,4.63s.57,3.07.89,4.59a22.05,22.05,0,0,0,1.32,4.51,9.29,9.29,0,0,1-2.81-4,23.72,23.72,0,0,1-1.37-4.69,31.39,31.39,0,0,1-.5-4.82A22.67,22.67,0,0,1,414.15,237.3Z"/><path class="cls-90" d="M540.31,233.58a14.25,14.25,0,0,1,1,3.67,19.91,19.91,0,0,1,.16,3.78,14.13,14.13,0,0,1-.73,3.78,5.43,5.43,0,0,1-2.33,3.12,10.65,10.65,0,0,0,.8-3.48c.11-1.17.19-2.35.26-3.54s.15-2.4.27-3.61A29.33,29.33,0,0,1,540.31,233.58Z"/><path class="cls-91" d="M553.65,243.15a3.86,3.86,0,0,1,.52,1.8,4.94,4.94,0,0,1-.2,1.75,4.45,4.45,0,0,1-.84,1.63,2.54,2.54,0,0,1-1.68,1c.14-.68.18-1.18.27-1.69a11.06,11.06,0,0,1,.34-1.49,8.33,8.33,0,0,1,.58-1.49A6.18,6.18,0,0,1,553.65,243.15Z"/><path class="cls-92" d="M548.37,142.22c-8.06,3.94-12.9,11.56-14.62,14.7-.49.88-.73,1.41-.73,1.41l-5.54.76L524.21,180l-6.54,1.51-3.78-3.78-2-41-28.84.09-49.69.16,2,40.05,0,.72-11.57,3.78L419,173.61l-4.93-8.13L411,160.37l-.52-.86V123.23a35.77,35.77,0,0,1,36.27-35.78l4.3,0c14.37.17,29.45.17,39.58-.36,2.7-.14,5-.32,6.93-.54C516.91,84.33,518.42,62.69,537.8,70s1.51,36.24,1.51,36.24C560.71,109.75,558.69,137.19,548.37,142.22Z"/><path class="cls-93" d="M537.8,169.41c0,20.63-14.09,14.09-14.09,14.09v15.17a22.85,22.85,0,0,1-10.58,19.26,22.07,22.07,0,0,1-2.23,1.26,22.78,22.78,0,0,1-10,2.31H444.61a21.55,21.55,0,0,1-2.55-.15,20.69,20.69,0,0,1-3.16-.57,22.88,22.88,0,0,1-17.13-22.11V185.26c-9.81,1.26-14.77-5.8-14.34-16.61a11.42,11.42,0,0,1,3.54-8.28,14.45,14.45,0,0,1,8.1-3.49l5.66,20.83h6.36V139.84a5.92,5.92,0,0,1,5.92-5.92h70.31a8.83,8.83,0,0,1,8.84,8.83v35.46h5.28L525,158.58s5-3.84,8.78-1.66C536,158.22,537.8,161.68,537.8,169.41Z"/><circle class="cls-94" cx="452.1" cy="163.4" r="5.29"/><circle class="cls-7" cx="453.97" cy="161.53" r="1.6"/><circle class="cls-94" cx="490.18" cy="163.4" r="5.29"/><circle class="cls-7" cx="492.26" cy="161.05" r="1.6"/><path class="cls-95" d="M436.11,152.29l4,5.82S447.19,146.5,461,149L459.27,140S442.16,140,436.11,152.29Z"/><path class="cls-96" d="M507.92,152.29l-4,5.82s-7-11.61-20.89-9.09l1.76-9.06S501.88,140,507.92,152.29Z"/><path class="cls-7" d="M424.35,190.67s3.86-8,17.55-9.73a4.3,4.3,0,0,1,4.6,3h0a4.29,4.29,0,0,1-2.7,5.32c-4.76,1.63-12.51,4.71-15.68,8.38Z"/><path class="cls-7" d="M497.14,183h0a4.71,4.71,0,0,0,4.37,5.27c4.21.27,10.14,1.47,14,5.73l3.78-10.19A36.78,36.78,0,0,0,502,178.81,4.73,4.73,0,0,0,497.14,183Z"/><path class="cls-94" d="M488,191.14a1.62,1.62,0,0,1,1.9,1.89,18,18,0,0,1-4.34,9c-2.51,2.65-6.37,4.72-12.32,4.72-6.47,0-10.47-2.27-13-5a16.5,16.5,0,0,1-3.67-7.39,1.84,1.84,0,0,1,2-2.22,138.88,138.88,0,0,0,14,.66A83.53,83.53,0,0,0,488,191.14Z"/><path class="cls-97" d="M417.11,162.19l3,18.06s-6.42-1.8-7.45-8S417.11,162.19,417.11,162.19Z"/><path class="cls-97" d="M529.1,161.46l-2.86,18.09s6.41-1.85,7.4-8.1S529.1,161.46,529.1,161.46Z"/><path class="cls-98" d="M485.54,202c-2.51,2.65-6.37,4.72-12.32,4.72-6.47,0-10.47-2.27-13-5a25,25,0,0,1,12.38-3A24.53,24.53,0,0,1,485.54,202Z"/><path class="cls-66" d="M463.63,245.88c-1.24,5.57-5,10.52-12.25,14.71h0a65.06,65.06,0,0,1-13.2,5.53q-2.07.64-4,1.44c-.94.38-1.85.79-2.75,1.23l-.93.46C379.68,295.33,403.88,402.67,380.71,435c-15,20.92-2.43,68-3.9,103.26-.13,3-.36,5.94-.72,8.76-1.22,9.63-3.94,18-9.21,24.09-14.41-2.79-23.52-5.88-24.26-8.92-3.78-15.48,4.15-23,4.15-23-6.85-45.69-2.72-160.2-1.89-181,.06-1.69.11-2.75.12-3.12a.66.66,0,0,0,0-.14c2-87.57,18.75-100,22-101.36l.07,0a.22.22,0,0,1,.13,0l.19-.07c17-5.61,36.33-7.42,36.33-7.42.77-7.17,10.39-8.68,10.39-8.68-.94-11.61,9.62-20.87,13.21-23.67a22.69,22.69,0,0,1-5.6-15V185.26c-9.81,1.26-14.77-5.8-14.34-16.61a11.42,11.42,0,0,1,3.54-8.28l-.52-.86V123.23a35.77,35.77,0,0,1,36.27-35.78l4.3,0c-6.56,11.68-14.8,29.17-18.31,48.27a103.5,103.5,0,0,0-1.62,13.77c-.13,2.74-.14,5.5,0,8.25,0,.55.05,1.11.09,1.66A62,62,0,0,0,435.32,177q.92,2.41,2,4.83c1.22,2.81,2.58,5.59,4,8.36,3.88,7.52,8.29,14.87,12.2,21.92.79,1.41,1.56,2.82,2.29,4.21l0,.1c.91,1.72,1.78,3.42,2.58,5.09C462.7,230.41,465.25,238.65,463.63,245.88Z"/><path class="cls-57" d="M600.85,564.35c-7,6.19-21.79,10.4-41,13a110,110,0,0,1-11.36-6.31c-9.39-6-14.06-12.72-16.53-20.4a65.63,65.63,0,0,1-2.61-14.42c-1.66-18.36-.29-41.25-18.6-70.26-32.27-51.13,60.7-77.72,56.91-146.38s-44.29-28.52-73.15-54.93c-.69-.63-1.36-1.3-2-2-8.89-9.6-12.59-24.4-13.69-41.21q-.21-3.15-.3-6.38c0-1.49-.07-3-.07-4.51-.17-25,3.83-52.62,4.54-73.83,0-1,0-1.92.07-2.86.06-3.15,0-6.14-.1-8.93a76.72,76.72,0,0,1,7.59-37.85c2.7-.14,5-.32,6.93-.54C516.91,84.33,518.42,62.69,537.8,70s1.51,36.24,1.51,36.24c21.4,3.52,19.38,31,9.06,36-8.06,3.94-12.9,11.56-14.62,14.7,2.25,1.3,4,4.76,4,12.49,0,20.63-14.09,14.09-14.09,14.09v15.17a22.6,22.6,0,0,1-1.61,8.41c17.75,4.57,18.22,26.5,18.22,26.5,14.85-.49,13.34,9.57,13.34,9.57,33.54,5,39.08,15.61,39.08,15.61C610.19,316.14,600,541.65,600,541.65,609.83,549,600.85,564.35,600.85,564.35Z"/><path class="cls-99" d="M379.5,463.22c-6,8.5-40.75-4.75-55.25-9.25a46.52,46.52,0,0,1-5.9-2.29c-1.28-.59-2.59-1.25-3.91-2l-.93-.53q-2.31-1.34-4.65-3l-1.08-.78q-2.22-1.62-4.41-3.53l-1.08-1q-2.27-2-4.44-4.4c-.36-.39-.71-.79-1.07-1.2a68.75,68.75,0,0,1-4.45-5.62c-.36-.5-.71-1-1.06-1.52a71.5,71.5,0,0,1-5-8.57c-.35-.69-.68-1.39-1-2.11A78.48,78.48,0,0,1,281,405.72a14.14,14.14,0,0,1-.76-3.19c-1.06-23.27,15.06-77.75,30.39-106,15.53-28.64,56.67-43,56.67-43,3,34.5-19.55,128.86-19.55,128.86L366,428a13.64,13.64,0,0,0-1.69,3.25c-2.94,8.25,2.89,17.91,8.15,24.44a72.79,72.79,0,0,0,6.08,6.66Z"/><path class="cls-7" d="M326.16,415.27l9.66-26.08s22.17-15.05,43.67-17.05,36.67,9,40,13.5l-4.15,5.13-37.58-3.13Z"/><path class="cls-7" d="M424.16,385.64s24.58-15.82,45.71-13.74S504.24,391,504.24,391l2,7.69-3.47,13.73-34-26.75-28,3.55-13.4,1.68Z"/><path class="cls-100" d="M516.66,410c-4.66,12-18.33,48.76-26,46.88-6.93-1.7-3.84-9.1-10.51-14.94a18.09,18.09,0,0,0-2.44-1.77,120.93,120.93,0,0,0-13.68-7c-5.34-2.35-9.44-3.83-9.44-3.83l-26.76,8.29-45-7.5s-20.67-1.5-27.5,5-16.17,14-19.67,8S323.33,423.72,319,419.85c-2-1.81-1-3.61,1.37-5.53,2.74-2.2,7.3-4.55,11.29-7.26,7.5-5.09,32.67-28.76,57.5-26.42s20.5,19.33,49.84,6c27.3-12.41,37-7.64,51.9,3l3.43,2.48C511.33,404.47,521.33,398,516.66,410Z"/><path class="cls-57" d="M516.66,410c-4.66,12-18.33,48.76-26,46.88-6.93-1.7-3.84-9.1-10.51-14.94a31.82,31.82,0,0,1,8.09-12.21c15.29-14.81,9.29-30.43,2.66-40l3.43,2.48C511.33,404.47,521.33,398,516.66,410Z"/><path class="cls-66" d="M464,433.18c-5.34-2.35-9.44-3.83-9.44-3.83l-26.76,8.29-45-7.5s-20.67-1.5-27.5,5-16.17,14-19.67,8S323.33,423.72,319,419.85c-2-1.81-1-3.61,1.37-5.53,5,1.85,11,5.65,17.29,13.16,15.73,18.77,20.9-13.71,23.3-27.44s26.65,3.2,76.8-8.78C476,382.11,469.35,416.42,464,433.18Z"/><polygon class="cls-101" points="414.16 425.64 415.34 390.77 419.49 385.64 424.16 385.64 427.34 390.87 428.99 419.85 414.16 425.64"/><path class="cls-102" d="M477.2,412.69a17.67,17.67,0,0,1-4.44,5.45c-.33.29-.67.56-1,.83-5,3.88-9.94,12.88-17.16,15.38a34.8,34.8,0,0,0-3.39,1.46h0c-9.4,4.51-28.46,15.94-41.68,17.77-15.12,2.1-14.64,3.26-14.64,3.26l-12.48-9.63L374,434l3.88-4.62s-.63-2.76-5.38-8.5c-.79-1-1.44-1.82-2-2.59-2.68-3.85-2.46-5.5-2.14-6.54,0,0-4.88.63-5.13-2.75s1.87-6.5,6.5-7.12,10.75-1.26,13.5,8.74c0,0,1.12,3.74,9,3.26,14.12-.88,26.3-18.14,32.25-15.76,2.09.84,2.52,2.62,1.81,4.77a14.5,14.5,0,0,1-2.2,3.95,43.38,43.38,0,0,1-5.61,6c-7,6.37-7,9-7,9s5.38.56,12.12-8.22,20.26-25.28,27.76-24.41c3.26.38,4.27,1.94,4.17,3.82-.1,2.07-1.57,4.53-2.87,6.22-.24.3-.46.58-.68.83-2.5,2.88-12.12,15.88-14.75,18.38L430,425.33c.72-.45,12.26-7.73,17.47-15.36,5.38-7.88,13.12-13.75,19.12-14.62,3.53-.52,5.07,1.65,4.95,4.2a7.5,7.5,0,0,1-2.57,5.17c-.76.67-1.65,1.44-2.59,2.29-3.83,3.46-8.65,8.22-10.66,12.34-2.34,4.78-9.26,10.34-10.15,11,1-.69,9.39-6.3,13-10,3.88-4,11.88-12.13,16.76-11.63C477.86,409,478.17,410.62,477.2,412.69Z"/><path class="cls-66" d="M451.18,435.82c-9.4,4.51-28.46,15.94-41.68,17.77-15.12,2.1-14.64,3.26-14.64,3.26l-12.48-9.63L374,434l3.88-4.62s-.63-2.76-5.38-8.5c-.79-1-1.44-1.82-2-2.59A36.72,36.72,0,0,1,388.35,435c8.84,17.32,22.1-3.42,43.08,1.54C437.89,438.05,444.76,437.42,451.18,435.82Z"/><path class="cls-103" d="M391.87,460c-4.07,1.3-12.37,2.25-12.37,2.25l-1,.1-4.79.53a17.36,17.36,0,0,1-9.66-7.41c-6-9.69-1.54-23.84-1.54-23.84l1.76-.38,1-.22c.32-.07,1.69-.29,2-.33l10.54-1.32c-2.52,7.93,6.65,16.63,12.11,21.77l.64.6C393.65,454.58,398.36,457.9,391.87,460Z"/><path class="cls-104" d="M477.19,412.69a17.67,17.67,0,0,1-4.44,5.45c-1.78-2.83.82-5.75.82-5.75Z"/><path class="cls-104" d="M471.56,399.55a7.5,7.5,0,0,1-2.57,5.17c-.76.67-1.65,1.44-2.59,2.29a11,11,0,0,1-3.83-2.79c-.58-1.92,2.17-5.17,2.17-5.17C466.63,398.17,469.84,399,471.56,399.55Z"/><path class="cls-104" d="M455.54,393c-.1,2.07-1.57,4.53-2.87,6.22-1.93.08-4.36,0-5.43-.6-1.92-1.14,0-6.11,0-6.11C450.09,391.64,453.61,392.44,455.54,393Z"/><path class="cls-104" d="M426.3,402.86a14.5,14.5,0,0,1-2.2,3.95,6.45,6.45,0,0,1-5.11-.65c-1.56-1.13,1.47-5.25,1.47-5.25Z"/><path class="cls-105" d="M318.34,451.68c-13.76-6.32-30.39-20.93-37.35-46-.29-1-.54-2.09-.76-3.19,3.56,5.35,9.48,12.41,17.43,15.61,13.66,5.5,19,4.16,20.24,15.33A131.33,131.33,0,0,1,318.34,451.68Z"/><path class="cls-106" d="M314.43,449.7a63,63,0,0,1-5.58-3.5l-1.08-.78q-2.22-1.62-4.41-3.53l-1.08-1q-2.26-2-4.44-4.4c-.36-.39-.71-.79-1.07-1.2a68.75,68.75,0,0,1-4.45-5.62c-.36-.5-.71-1-1.06-1.52h0a73.51,73.51,0,0,1-6-10.67,33,33,0,0,0,5.84,4c.33.18.66.34,1,.5s1,.46,1.51.67c.95.38,1.87.73,2.74,1.06l1,.36c1.55.56,3,1,4.26,1.47l1,.34c1.61.55,3,1,4.25,1.58.35.15.68.3,1,.47,3.54,1.76,5.32,4.17,6,10.05A107.38,107.38,0,0,1,314.43,449.7Z"/><path class="cls-107" d="M313.5,449.17q-2.31-1.34-4.65-3l-1.08-.78q-2.22-1.62-4.41-3.53l-1.08-1q-2.26-2-4.44-4.4c-.36-.39-.71-.79-1.07-1.2a68.75,68.75,0,0,1-4.45-5.62c-.36-.5-.71-1-1.06-1.52a71.5,71.5,0,0,1-5-8.57,30.4,30.4,0,0,0,3.91,2.48c.33.18.66.34,1,.5.49.24,1,.46,1.51.67,1,.38,1.87.73,2.74,1.06l1,.36c1.55.56,3,1,4.26,1.47l1,.34c1.61.55,3,1,4.25,1.58.35.15.68.3,1,.47,3.54,1.76,5.32,4.17,6,10A101.63,101.63,0,0,1,313.5,449.17Z"/><path class="cls-108" d="M308.85,446.2l-1.08-.78c-.63-6.2-.84-12.79-.88-17.94.35.15.68.3,1,.47C308,433.26,308.18,440,308.85,446.2Z"/><path class="cls-109" d="M303.36,441.89l-1.08-1c-.45-5.4-.61-10.9-.65-15.36l1,.34C302.68,430.57,302.86,436.34,303.36,441.89Z"/><path class="cls-110" d="M297.84,436.52c-.36-.39-.71-.79-1.07-1.2-.25-4.12-.36-8.16-.4-11.59l1,.36C297.42,427.78,297.54,432.14,297.84,436.52Z"/><path class="cls-111" d="M291.26,428.18h0c-.09-2.37-.13-4.63-.14-6.67.33.18.66.34,1,.5,0,2.35.08,5,.2,7.7C292,429.2,291.61,428.69,291.26,428.18Z"/><path class="cls-112" d="M493.46,256.92s-2.33,6.51,2.84,7.51,14.5-1.05,14.5-1.05S500.38,252.84,493.46,256.92Z"/><path class="cls-113" d="M667,397.07c-2.21,6.53-3.91,12.56-5.52,17.92q-.76,2.52-1.51,4.83c-.21.64-.42,1.27-.63,1.88-4.94,14.38-10.85,21.67-29.68,16.49h0q-2.43-.66-5.16-1.61c-4.64-1.62-8.85-3.25-12.72-4.94A114.33,114.33,0,0,1,595.53,423q-.93-.59-1.83-1.2c-1.43-1-2.81-1.95-4.16-3-10.64-8-19.19-17.84-30.5-31.3-20.73-24.68-49.73-74.19-40.86-93.74.11-.26.23-.51.36-.76l6-2.42,31.2-12.55,4.83-2,1.45-.58s8.5-2.5,17,7l-5.5-35s2.74.69,7.08,2.16c12.84,4.33,39.72,15.45,51.23,35.51a39,39,0,0,1,2.19,4.33c1.77,4.09,3.87,8.49,6.15,13.12,1.59,3.24,3.27,6.59,5,10,4.39,8.77,9,18.08,13,27.47C666.79,360.33,672.54,380.83,667,397.07Z"/><path class="cls-114" d="M522.34,215.89s-15.58-4-24.14-9.46-13.87,9-3.85,12.6a88.67,88.67,0,0,1,19.35,10.38Z"/><path class="cls-115" d="M518.28,181.84a28.78,28.78,0,0,1-33.07,14.08h0a29.17,29.17,0,0,1-4.47-1.68h0c-.46-.21-.92-.45-1.37-.69a28.78,28.78,0,0,1-2.94-48.85,28.25,28.25,0,0,1,7.13-3.64l.51-.18a28.76,28.76,0,0,1,34.28,41Z"/><path class="cls-116" d="M507.6,141A30.75,30.75,0,0,0,495,137.34a31.08,31.08,0,0,0-18.21,4.48,30.92,30.92,0,0,0,1.2,53.46l.27.15a30.53,30.53,0,0,0,15.4,3.67A30.92,30.92,0,0,0,507.6,141Zm8.78,39.85A26.61,26.61,0,1,1,481,144.41a.91.91,0,0,1,.17-.09,26.61,26.61,0,0,1,35.17,36.49Z"/><rect class="cls-116" x="505.7" y="196.5" width="4.32" height="42.98" transform="translate(-41.23 155.21) rotate(-16.71)"/><path class="cls-116" d="M509.76,240.28a6.52,6.52,0,0,1-3.13-3.84l-8-26.6a6.47,6.47,0,1,1,12.4-3.73l8,26.6a6.48,6.48,0,0,1-9.28,7.57Z"/><path class="cls-7" d="M515.84,234.16a.63.63,0,0,1-.32-.39l-1.65-5.49a.66.66,0,0,1,1.27-.39l1.65,5.5a.66.66,0,0,1-.44.83A.64.64,0,0,1,515.84,234.16Z"/><path class="cls-7" d="M513.54,226.47a.65.65,0,0,1-.32-.4c-1.83-6.3-3.74-12.65-5.68-18.89a.66.66,0,1,1,1.26-.4c1.95,6.25,3.86,12.62,5.69,18.92a.66.66,0,0,1-1,.77Z"/><path class="cls-117" d="M650.62,58.71l-7.85,223.86L493.68,199.1l-8.47-3.18h0l-4.47-1.68h0c-.46-.21-.92-.45-1.37-.69a28.78,28.78,0,0,1-2.94-48.85,28.25,28.25,0,0,1,7.13-3.64,2.38,2.38,0,0,1,.51-.18c.44-.52,11-3.52,11-3.52Z"/><path class="cls-118" d="M548.54,260.32s-15.27,12.7-29.39,12.26h-.49l-4.12-3s-9.13-2.5-13-11.37c0,0-8.13-2.63-7.5,2.12s9.12,1.25,9.62,4.63-7.12,7.87-12.62,4.87c-4.55-2.48-6.88-9.16-7.54-11.38-.14-.47-.21-.74-.21-.74s-9.5-5.13-5.5-19.38a8.21,8.21,0,0,1-1.26-6.85c.67-2.78,2.85-6.18,8.26-9.77,13.37-8.88,39.33-9,44.12-4.63,9.25,8.38,9.63,21.93,12.72,32.07a25.63,25.63,0,0,0,4.78,8.91h0a24.75,24.75,0,0,0,2.1,2.25Z"/><path class="cls-119" d="M546.41,258.05c-4.06-2.67-7.62-6.47-8.61-11.82-2.65-14.27-8.72-7-22.47-21.52-10.76-11.36-30.66.89-38.8,6.76.67-2.78,2.85-6.18,8.26-9.77,13.37-8.88,39.33-9,44.12-4.63,9.25,8.38,9.63,21.93,12.72,32.07A25.63,25.63,0,0,0,546.41,258.05Z"/><path class="cls-66" d="M518.66,272.57l-4.12-3s-9.13-2.5-13-11.37c0,0-8.13-2.63-7.5,2.12s9.12,1.25,9.62,4.63-7.12,7.87-12.62,4.87c-4.55-2.48-6.88-9.16-7.54-11.38,1.86-4.15,5.4-7.49,12-7,9.74.66,18.06,8.25,23.68,21.18Z"/><path class="cls-112" d="M477.78,238.32a5.56,5.56,0,0,1,.18-2.63,6.32,6.32,0,0,1,1.27-2.36,5,5,0,0,1,2.32-1.57,3.51,3.51,0,0,1,2.73.31,9.77,9.77,0,0,0-2.06,1.11,12.65,12.65,0,0,0-1.48,1.45C479.8,235.71,479,237,477.78,238.32Z"/><path class="cls-112" d="M483.28,257.7a8,8,0,0,1-1.61-3.94,8.3,8.3,0,0,1,.56-4.39,8,8,0,0,1,2.75-3.48,9.41,9.41,0,0,1,1.87-1.07,12.85,12.85,0,0,1,2.06-.56c-.51.53-1,.93-1.53,1.39l-.7.7c-.11.12-.23.22-.35.33l-.3.37a10.78,10.78,0,0,0-2,3.08,11.45,11.45,0,0,0-.85,3.57A25.68,25.68,0,0,0,483.28,257.7Z"/><path class="cls-120" d="M661.51,415q-.76,2.52-1.51,4.83c-5.51,16.9-11.59,25.07-35.47,16.75-13-4.52-22.62-9.2-30.84-14.73-1.43-1-2.81-1.95-4.16-3,6.1-5.24,15.56-15.22,21.17-20.47,7.66-7.16,10.5-13.5,24.66,1A60.23,60.23,0,0,0,661.51,415Z"/><path class="cls-121" d="M660,419.82c-4,12.24-8.29,19.91-19.42,20-.43,0-.87,0-1.32,0a41.23,41.23,0,0,1-8.45-1.35l-1.12-.3q-2.43-.68-5.16-1.62c-1.51-.53-3-1.05-4.4-1.59l-1-.39c-3.23-1.23-6.24-2.47-9.07-3.76l-1-.46c-3.09-1.42-6-2.88-8.64-4.41-.34-.19-.68-.38-1-.58-2-1.14-3.86-2.32-5.67-3.54,4.43-2.26,12.26-6.64,15.17-10.6,3.3-4.49,8.15-12.72,15.55-11a7.65,7.65,0,0,1,1,.28,14.72,14.72,0,0,1,4.11,2.32c.28.22.57.45.86.7l.42.37a43.09,43.09,0,0,0,6.2,4.35l.88.52c1.72,1,3.58,2.05,5.48,3.05l.91.48c2.46,1.29,5,2.52,7.24,3.61.31.16.63.3.93.45C655.7,418,658.47,419.19,660,419.82Z"/><path class="cls-122" d="M659.37,421.7c-5.37,15.62-11.87,22.87-34.84,14.87-12-4.19-21.19-8.52-29-13.53,4.5-2.41,10.8-6.19,13.34-9.65,3.3-4.49,8.15-12.72,15.55-11a7.65,7.65,0,0,1,1,.28A14.72,14.72,0,0,1,629.5,405c.28.22.57.45.86.7l.42.37a43.09,43.09,0,0,0,6.2,4.35l.88.52c1.72,1,3.58,2,5.48,3l.91.48c2.46,1.29,5,2.52,7.24,3.61l.93.45C655.29,419.92,657.77,421,659.37,421.7Z"/><path class="cls-123" d="M625.39,400.56c-3.32,6-11.15,17.8-25,25.4-.34-.19-.68-.38-1-.58,13.84-7.4,21.68-19,25-25.1A7.65,7.65,0,0,1,625.39,400.56Z"/><path class="cls-124" d="M630.36,403.58c-1.49,4.81-6.19,15.45-20.34,27.25l-1-.46c14.5-12,19.12-23,20.49-27.49C629.78,403.1,630.07,403.33,630.36,403.58Z"/><path class="cls-125" d="M637.86,408.82c-1.62,4.82-6.18,15.25-17.73,26.16l-1-.39c11.85-11.07,16.36-21.66,17.89-26.29Z"/><path class="cls-126" d="M644.25,412.35a82.26,82.26,0,0,1-3.42,10.32c-2,5-5.32,11.31-10,15.82l-1.12-.3c8.24-7.57,12.36-21.3,13.65-26.32Z"/><path class="cls-127" d="M652.42,416.41a57.22,57.22,0,0,1-11.84,23.44c-.43,0-.87,0-1.32,0A55.88,55.88,0,0,0,651.49,416C651.8,416.12,652.12,416.26,652.42,416.41Z"/><path class="cls-66" d="M629.7,438.18q-2.43-.66-5.16-1.61c-4.64-1.62-8.85-3.25-12.72-4.94A114.33,114.33,0,0,1,595.53,423q-.93-.59-1.83-1.2c-1.43-1-2.81-1.95-4.16-3-10.64-8-19.19-17.84-30.5-31.3-21-25-50.5-75.5-40.5-94.5l6-2.42a128.38,128.38,0,0,1,2,15.13c2.35,32.62,36.91,83.84,56.67,92S631.34,425.56,629.7,438.18Z"/><path class="cls-128" d="M561.37,277.74c-.88.88-1.75,1.72-2.61,2.53-15.12,14.16-26.56,16.53-33.23,16.2h0a15.71,15.71,0,0,1-6.65-1.56c-.24-.36-.46-.72-.69-1.08-9.37-15.09-7.14-25.59-7.14-25.59l3.74-1.46,27.42-10.69,1.34-.52s6.16-1,9.5,5.5c2.52,4.93,6,12,7.55,15.08Z"/><path class="cls-129" d="M640.19,302.69C630.51,313.32,616,316.57,616,316.57l-8.17-16.33c13.5-4.71,21-11.71,24-15a37.61,37.61,0,0,1,2.13,4.2c-4.08,3.52-12.85,9.83-21.1,12.72l5.2,10.4s13.43-4.81,21.22-11.68C639.6,301.48,639.89,302.08,640.19,302.69Z"/><path class="cls-130" d="M658.18,340.18a16.51,16.51,0,1,1-13-27.47C649.56,321.48,654.18,330.79,658.18,340.18Z"/><path class="cls-66" d="M525.52,296.47a15.71,15.71,0,0,1-6.65-1.56C508.7,279.24,511,268.24,511,268.24l3.74-1.46C516.55,276.49,520.41,294,525.52,296.47Z"/><path class="cls-131" d="M710.22,32.44A134.24,134.24,0,1,0,844.46,166.67,134.23,134.23,0,0,0,710.22,32.44ZM793.09,257A122.59,122.59,0,1,1,812.75,99.44q2.88,4.36,5.37,9a122.64,122.64,0,0,1-25,148.59Z"/><path class="cls-132" d="M832.82,166.67a122.57,122.57,0,1,1-20.07-67.23q2.88,4.36,5.37,9A121.93,121.93,0,0,1,832.82,166.67Z"/><path class="cls-7" d="M818.12,108.43V133a4.46,4.46,0,0,1-4.46,4.46H801.51c.09,2.27,1.09,7.89,8.09,13.11,0,0-12.81-3.07-15.61-13.11H723.56A4.46,4.46,0,0,1,719.1,133V103.9a4.46,4.46,0,0,1,4.46-4.46h89.19Q815.63,103.81,818.12,108.43Z"/><path class="cls-7" d="M793.09,257a122.57,122.57,0,0,1-46.66,26.81V261.48a4.46,4.46,0,0,1,4.46-4.46Z"/><path class="cls-7" d="M681.69,51.09V80.16a4.46,4.46,0,0,1-4.46,4.46h-43.1c-2.8,10-15.61,13.11-15.61,13.11,7-5.22,8-10.84,8.09-13.11h-7.46a122.57,122.57,0,0,1,61.06-36.84A4.43,4.43,0,0,1,681.69,51.09Z"/><path class="cls-7" d="M693.64,179.66H614.46a4.45,4.45,0,0,0-4.46,4.45v29.08a4.46,4.46,0,0,0,4.46,4.46h12.15c-.1,2.26-1.09,7.88-8.1,13.1,0,0,12.82-3.06,15.62-13.1h59.51a4.46,4.46,0,0,0,4.46-4.46V184.11A4.46,4.46,0,0,0,693.64,179.66Z"/><path class="cls-7" d="M767.49,172.57h33.88a2.41,2.41,0,0,1,2.41,2.41v15.7a2.4,2.4,0,0,1-2.41,2.4h-6.56c.06,1.23.59,4.26,4.37,7.08,0,0-6.92-1.66-8.43-7.08H767.49a2.4,2.4,0,0,1-2.41-2.4V175A2.41,2.41,0,0,1,767.49,172.57Z"/><path class="cls-133" d="M746.76,389.19a33,33,0,1,0,33,33A33,33,0,0,0,746.76,389.19Zm0,55.15a22.15,22.15,0,1,1,22.15-22.15A22.15,22.15,0,0,1,746.76,444.34Z"/><path class="cls-57" d="M667,397.07c-2.21,6.53-3.91,12.56-5.52,17.92q-.76,2.52-1.51,4.83c-.21.64-.42,1.27-.63,1.88-5.37,15.62-11.87,22.87-34.84,14.87-4.64-1.62-8.85-3.25-12.72-4.94,3.33-6.54,9.86-12.43,21.84-15.67,37.83-10.22-2.21-39.1,3.32-60.27,12.25-46.95-31-87.06-56.36-106,12.84,4.33,39.72,15.45,51.23,35.51a39,39,0,0,1,2.19,4.33c1.77,4.09,3.87,8.49,6.15,13.12,1.59,3.24,3.27,6.59,5,10,4.39,8.77,9,18.08,13,27.47C666.79,360.33,672.54,380.83,667,397.07Z"/><path class="cls-57" d="M632,353.57c-20.63-3.35-51.38-51.17-57.06-62.92-4-8.19-10.79-7.54-16.22-10.38a12.11,12.11,0,0,1-3-2.17,13.51,13.51,0,0,1-2.94-4.54,71.54,71.54,0,0,0-10.62-17.47l1.34-.52s6.16-1,9.5,5.5c2.52,4.93,6,12,7.55,15.08l1.45-.58s8.5-2.5,17,7l11.73,13.2s23.16,29.58,27.16,34.84S632,353.57,632,353.57Z"/><path class="cls-134" d="M632,353.57c-3.89-6.31-8-12.44-12.19-18.51s-8.63-12-13.12-17.85-9.06-11.66-13.68-17.43-9.29-11.5-14-17.21c5.3,5.19,10.35,10.62,15.21,16.21s9.54,11.35,14.07,17.22,8.78,12,12.82,18.19A183.41,183.41,0,0,1,632,353.57Z"/><path class="cls-66" d="M391.87,460c-4.07,1.3-12.37,2.25-12.37,2.25l-1,.1,1,.9c-6,8.5-40.75-4.75-55.25-9.25a46.52,46.52,0,0,1-5.9-2.29c-1.28-.59-2.59-1.25-3.91-2l-.93-.53q-2.31-1.34-4.65-3l-1.08-.78q-2.22-1.62-4.41-3.53l-1.08-1q-2.27-2-4.44-4.4c-.36-.39-.71-.79-1.07-1.2a68.75,68.75,0,0,1-4.45-5.62c-.36-.5-.71-1-1.06-1.52a71.5,71.5,0,0,1-5-8.57c-.35-.69-.68-1.39-1-2.11A78.48,78.48,0,0,1,281,405.72a14.14,14.14,0,0,1-.76-3.19c-1.06-23.27,15.06-77.75,30.39-106,15.53-28.64,56.67-43,56.67-43S315.57,288,311.17,329.22s-24.35,60.1-13.32,71.06-2.34,35.9,39.65,49.42a121.25,121.25,0,0,0,26.59,5.74,67.73,67.73,0,0,0,8.37.22c9.6-.34,15-2.89,17.52-4.54l.64.6C393.65,454.58,398.36,457.9,391.87,460Z"/><path class="cls-119" d="M381.7,197.42v3.49a2.85,2.85,0,0,1-2.47,2.83c.26,8.39-.62,25.25-10.68,33.5a4.09,4.09,0,0,1-2.58.9h-10a78.42,78.42,0,0,0,10.76-5.95c7.55-5.16-4.95-11.11-.92-23.42a17.7,17.7,0,0,0,.91-5,13.43,13.43,0,0,0-.65-4.64,13.81,13.81,0,0,0-2.58-4.57h15.39A2.86,2.86,0,0,1,381.7,197.42Z"/><path class="cls-66" d="M345.5,230.61a14.76,14.76,0,0,1-4.34,3.78c-7.38-8.83-8.05-23.15-7.83-30.65a2.85,2.85,0,0,1-2.47-2.83v-3.49a2.86,2.86,0,0,1,2.86-2.86h7a26.68,26.68,0,0,1,2,4.57,19.88,19.88,0,0,1,1,4.64,13.16,13.16,0,0,1-.78,5.87C339.82,217.56,350.35,224.08,345.5,230.61Z"/></g></g></g></svg>