<svg xmlns="http://www.w3.org/2000/svg" xmlns:xlink="http://www.w3.org/1999/xlink" viewBox="0 0 479.33 351.24"><defs><style>.cls-1{fill:url(#linear-gradient);}.cls-2{isolation:isolate;}.cls-14,.cls-15,.cls-17,.cls-3{fill:#f6eeff;}.cls-4{fill:#dec9f2;}.cls-11,.cls-40,.cls-5,.cls-9{fill:none;}.cls-10,.cls-11,.cls-12,.cls-13,.cls-16,.cls-18,.cls-33,.cls-5,.cls-6,.cls-7,.cls-8,.cls-9{stroke:#6c3f95;}.cls-11,.cls-16,.cls-40,.cls-5,.cls-7,.cls-9{stroke-linecap:round;}.cls-11,.cls-16,.cls-19,.cls-40,.cls-5,.cls-7,.cls-9{stroke-linejoin:round;}.cls-12,.cls-13,.cls-5,.cls-6,.cls-7,.cls-8,.cls-9{stroke-width:3.6px;}.cls-5{stroke-dasharray:19.33 19.33;}.cls-31,.cls-6{fill:#9e64d1;}.cls-10,.cls-12,.cls-13,.cls-14,.cls-15,.cls-17,.cls-18,.cls-23,.cls-27,.cls-32,.cls-33,.cls-34,.cls-35,.cls-36,.cls-41,.cls-6,.cls-8{stroke-miterlimit:10;}.cls-12,.cls-16,.cls-18,.cls-21,.cls-33,.cls-7{fill:#fff;}.cls-10,.cls-27,.cls-37,.cls-8{fill:#cfa9f2;}.cls-10,.cls-11{stroke-width:1.8px;}.cls-13{fill:#65bcff;}.cls-14,.cls-15,.cls-17{stroke:#65bcff;}.cls-14{stroke-width:2.31px;}.cls-15,.cls-33{stroke-width:3px;}.cls-16{stroke-width:1.92px;}.cls-17{stroke-width:1.59px;}.cls-18{stroke-width:1.81px;}.cls-19,.cls-23,.cls-27,.cls-32,.cls-34,.cls-35,.cls-36,.cls-41{stroke:#9e64d1;}.cls-19{stroke-width:0.75px;fill:url(#linear-gradient-2);}.cls-20{clip-path:url(#clip-path);}.cls-22{opacity:0.5;mix-blend-mode:overlay;}.cls-23,.cls-34{fill:#5d3680;}.cls-23{stroke-width:0.25px;}.cls-24{fill:url(#linear-gradient-4);}.cls-25{fill:url(#linear-gradient-5);}.cls-26,.cls-36{fill:#6c3f95;}.cls-27,.cls-32{stroke-width:0.5px;}.cls-28{fill:#42275c;}.cls-29{fill:#7643a3;}.cls-30{fill:#6240b9;}.cls-32{fill:url(#linear-gradient-6);}.cls-35{fill:url(#linear-gradient-7);}.cls-38{fill:url(#linear-gradient-8);}.cls-39{fill:url(#linear-gradient-9);}.cls-40{stroke:#fff;stroke-width:0.44px;}.cls-41{fill:url(#linear-gradient-10);}.cls-42{fill:url(#linear-gradient-11);}.cls-43{fill:url(#linear-gradient-12);}</style><linearGradient id="linear-gradient" x1="-65.75" y1="175.49" x2="-55.71" y2="175.49" gradientTransform="matrix(-1, 0, 0, 1, 326.47, 0)" gradientUnits="userSpaceOnUse"><stop offset="0" stop-color="#fab6b6"/><stop offset="1" stop-color="#ffead6"/></linearGradient><linearGradient id="linear-gradient-2" x1="395.17" y1="196.8" x2="423.55" y2="196.8" gradientTransform="matrix(1, 0, 0, 1, 0, 0)" xlink:href="#linear-gradient"/><clipPath id="clip-path"><path id="_Clipping_Path_" data-name="&lt;Clipping Path&gt;" class="cls-1" d="M388,167.78a5.49,5.49,0,0,1,2.79,1.61,5.72,5.72,0,0,1,1.4,4,8.26,8.26,0,0,1-.59,2.81,8.15,8.15,0,0,1-.54,1.16,10.38,10.38,0,0,0-1,1.7,4.06,4.06,0,0,0,1,2.86c.71.44-1,.07-1.78.62a4.46,4.46,0,0,1-3.11.79.94.94,0,0,1-.64-.26c-.1-.11-.44.3-.49.16-.2-.72-2.75.21-2.24-.3s2.2-2.77,2-2.94a4.87,4.87,0,0,0-.52-.37,3.94,3.94,0,0,1-1-.75,3.6,3.6,0,0,1-.61-1.56,13.74,13.74,0,0,1-.39-5.41,5.13,5.13,0,0,1,2.27-3.56A4.73,4.73,0,0,1,388,167.78Z"/></clipPath><linearGradient id="linear-gradient-4" x1="-65.25" y1="175.08" x2="-62.08" y2="174.47" xlink:href="#linear-gradient"/><linearGradient id="linear-gradient-5" x1="-64.59" y1="184.26" x2="-56.29" y2="184.26" xlink:href="#linear-gradient"/><linearGradient id="linear-gradient-6" x1="-68.82" y1="200.41" x2="-45.37" y2="200.41" gradientTransform="matrix(-1, 0, 0, 1, 326.47, 0)" gradientUnits="userSpaceOnUse"><stop offset="0" stop-color="#ffead6"/><stop offset="1" stop-color="#fab6b6"/></linearGradient><linearGradient id="linear-gradient-7" x1="272.89" y1="273.86" x2="288.16" y2="273.86" gradientTransform="translate(-74.04 -74.38) rotate(-2.91)" xlink:href="#linear-gradient"/><linearGradient id="linear-gradient-8" x1="227.94" y1="266.6" x2="241.35" y2="266.6" gradientTransform="translate(-74.04 -74.38) rotate(-2.91)" xlink:href="#linear-gradient"/><linearGradient id="linear-gradient-9" x1="229.42" y1="258.49" x2="253.28" y2="258.49" gradientTransform="translate(-74.04 -74.38) rotate(-2.91)" xlink:href="#linear-gradient"/><linearGradient id="linear-gradient-10" x1="230.1" y1="303.54" x2="245.14" y2="303.54" gradientTransform="translate(-74.04 -74.38) rotate(-2.91)" xlink:href="#linear-gradient"/><linearGradient id="linear-gradient-11" x1="193.23" y1="285.97" x2="199.84" y2="285.97" gradientTransform="translate(-74.04 -74.38) rotate(-2.91)" gradientUnits="userSpaceOnUse"><stop offset="0" stop-color="#fff"/><stop offset="1" stop-color="#cfc2fe"/></linearGradient><linearGradient id="linear-gradient-12" x1="578.12" y1="1327.45" x2="582.1" y2="1327.45" gradientTransform="translate(-996.15 -621.2) rotate(-31.76)" xlink:href="#linear-gradient-11"/></defs><title>HOWITWORK_VOLUNTER_1</title><g class="cls-2"><g id="Layer_2" data-name="Layer 2"><g id="how_it_work" data-name="how it work"><path class="cls-3" d="M58.28,191.44a111,111,0,0,0,3.86,24.08c14.32,51.56,64.24,79.48,106.48,84.81a112.55,112.55,0,0,0,19.46.83c6.73-.32,13.14-1,19.32-1.79h0c4.44-.59,8.77-1.3,13-2.07,38.67-7,69.88-19.07,117-4a123,123,0,0,0,43.43,5.62,121.46,121.46,0,0,0,15.24-1.74c18.56-3.34,35.58-11,48.68-22.17a74.84,74.84,0,0,0,21.07-28.67,70.54,70.54,0,0,0,4.73-18.73c1.52-13.63,1.18-27.06-2-40a89.59,89.59,0,0,0-4.64-14c-.32-.75-.65-1.49-1-2.24s-.6-1.28-.91-1.91a90.7,90.7,0,0,0-5.13-9.1c-.55-.86-1.12-1.71-1.71-2.56A100.1,100.1,0,0,0,443.72,144a131.08,131.08,0,0,0-21.2-17.12c-12-7.88-26.58-15.14-44.21-21.65q-14.56-5.37-31.95-10-6.32-1.69-13-3.28a101.43,101.43,0,0,1-11.57-3.5c-10.15-3.68-20.28-8.81-31.14-14.18-18-8.87-37.92-18.4-63.27-23.21q-5.07-1-10.45-1.66-5.78-.75-11.92-1.13-2.88-.18-5.83-.27L198,48a143.67,143.67,0,0,0-45.29,6.56q-3.31,1-6.64,2.22c-1.08.39-2.15.8-3.23,1.21l-1.46.58c-21.56,8.64-42.85,23.16-58.58,45.72-.23.33-.46.65-.69,1-1.4,2-2.76,4.17-4.06,6.36a136.65,136.65,0,0,0-14.55,34.7c-.76,2.81-1.44,5.67-2.06,8.61q-1.18,5.59-2,11.54l-.15,1.09c-.28,2.15-.52,4.26-.7,6.36A128.23,128.23,0,0,0,58.28,191.44Z"/><path class="cls-4" d="M100.6,188a87.81,87.81,0,0,0,3.07,19.14c11.38,41,51.07,63.19,84.65,67.43a89,89,0,0,0,15.48.66c5.35-.25,10.44-.76,15.36-1.42h0c3.53-.47,7-1,10.34-1.64,30.74-5.56,55.56-15.16,93-3.21a97.87,97.87,0,0,0,34.53,4.47A96.7,96.7,0,0,0,369.18,272c14.76-2.65,28.29-8.73,38.71-17.62a59.5,59.5,0,0,0,16.74-22.8,55.84,55.84,0,0,0,3.77-14.89,90.92,90.92,0,0,0-1.58-31.79,69.68,69.68,0,0,0-3.69-11.12c-.25-.6-.51-1.19-.79-1.79s-.47-1-.72-1.51a69.7,69.7,0,0,0-4.08-7.24c-.43-.68-.89-1.36-1.36-2a79.16,79.16,0,0,0-9.13-10.94,104.24,104.24,0,0,0-16.86-13.61A172.12,172.12,0,0,0,355,119.46c-7.72-2.85-16.16-5.52-25.4-8-3.35-.9-6.79-1.77-10.35-2.61a82.74,82.74,0,0,1-9.2-2.78c-8.07-2.93-16.12-7-24.76-11.28-14.27-7-30.14-14.63-50.3-18.45q-4-.77-8.31-1.32-4.59-.58-9.48-.9c-1.52-.09-3.07-.17-4.63-.21l-.89,0a114.29,114.29,0,0,0-36,5.22q-2.64.81-5.28,1.77c-.86.3-1.71.63-2.57,1l-1.16.47c-17.14,6.87-34.07,18.41-46.58,36.34l-.54.79c-1.12,1.64-2.19,3.32-3.23,5.06a108.5,108.5,0,0,0-11.57,27.59q-.9,3.34-1.64,6.85-.94,4.44-1.6,9.17l-.12.87c-.23,1.7-.41,3.39-.56,5.05A102.68,102.68,0,0,0,100.6,188Z"/><circle class="cls-5" cx="282.51" cy="172.9" r="110.75" transform="translate(-39.51 250.41) rotate(-45)"/><path class="cls-3" d="M362.61,317.74c-7.79-8.84-35,12.26-54.74-2.24-4.41-3.24-7.32-7.49-13.69-8.21-7.31-.82-16.62,3.3-19.9,11.2-3.89,9.36,2.82,18.9,3.73,20.15,10.56,14.54,36.31,15.23,54.24,8.46C351.29,339.92,370.83,327.08,362.61,317.74Z"/><path class="cls-6" d="M89,243.86l159.55.34A22.33,22.33,0,0,0,270.89,222l.22-103.89a22.34,22.34,0,0,0-22.22-22.31L89.34,95.45A22.33,22.33,0,0,0,67,117.66l-.22,103.9A22.33,22.33,0,0,0,89,243.86Z"/><polygon class="cls-7" points="257.93 32.14 255.2 162.61 162.84 160.68 165.03 56.34 191.73 30.75 257.93 32.14"/><polygon class="cls-7" points="192.94 30.77 192.38 57.65 165.01 57.08 165.03 56.34 191.73 30.75 192.94 30.77"/><rect class="cls-8" x="179.98" y="73.46" width="19.17" height="19.17" transform="translate(1.78 -3.95) rotate(1.2)"/><rect class="cls-8" x="179.07" y="116.65" width="19.17" height="19.17" transform="translate(2.68 -3.92) rotate(1.2)"/><polyline class="cls-9" points="185.56 83.16 188.15 86.23 194.56 78.27"/><polyline class="cls-9" points="185.42 126.31 188.02 129.38 194.43 121.42"/><line class="cls-9" x1="199.93" y1="45.86" x2="242.12" y2="46.74"/><line class="cls-9" x1="214.24" y1="54.88" x2="241.93" y2="55.46"/><line class="cls-9" x1="221.06" y1="79.34" x2="241.43" y2="79.77"/><line class="cls-9" x1="213.55" y1="87.9" x2="241.24" y2="88.48"/><line class="cls-9" x1="208.68" y1="122.3" x2="240.52" y2="122.96"/><line class="cls-9" x1="219.24" y1="131.24" x2="240.34" y2="131.68"/><polygon class="cls-7" points="245.32 72.14 242.59 202.62 150.23 200.69 152.41 96.34 179.11 70.76 245.32 72.14"/><polygon class="cls-7" points="180.33 70.78 179.76 97.66 152.4 97.09 152.41 96.34 179.11 70.76 180.33 70.78"/><rect class="cls-8" x="167.36" y="113.47" width="19.17" height="19.17" transform="translate(2.62 -3.68) rotate(1.2)"/><rect class="cls-8" x="166.46" y="156.66" width="19.17" height="19.17" transform="translate(3.52 -3.65) rotate(1.2)"/><polyline class="cls-9" points="172.94 123.17 175.53 126.23 181.95 118.28"/><polyline class="cls-9" points="172.81 166.32 175.4 169.39 181.82 161.43"/><line class="cls-9" x1="187.32" y1="85.87" x2="229.5" y2="86.75"/><line class="cls-9" x1="201.63" y1="94.89" x2="229.32" y2="95.47"/><line class="cls-9" x1="208.45" y1="119.35" x2="228.81" y2="119.78"/><line class="cls-9" x1="200.94" y1="127.91" x2="228.63" y2="128.49"/><line class="cls-9" x1="196.06" y1="162.3" x2="227.91" y2="162.97"/><line class="cls-9" x1="206.63" y1="171.24" x2="227.72" y2="171.69"/><polygon class="cls-7" points="289.38 64.33 252.32 189.46 163.75 163.23 193.38 63.16 225.88 45.52 289.38 64.33"/><polygon class="cls-7" points="227.05 45.87 219.41 71.64 193.17 63.87 193.38 63.16 225.88 45.52 227.05 45.87"/><rect class="cls-8" x="200.42" y="85.81" width="19.17" height="19.17" transform="translate(35.73 -55.7) rotate(16.5)"/><rect class="cls-8" x="188.15" y="127.23" width="19.17" height="19.17" transform="translate(46.99 -50.51) rotate(16.5)"/><polyline class="cls-9" points="206.11 94.44 207.8 98.09 216.08 92.11"/><polyline class="cls-9" points="194.59 136.03 196.29 139.68 204.57 133.7"/><line class="cls-9" x1="229.81" y1="62.26" x2="270.27" y2="74.24"/><line class="cls-9" x1="241.24" y1="74.74" x2="267.8" y2="82.6"/><line class="cls-9" x1="241.36" y1="100.13" x2="260.89" y2="105.92"/><line class="cls-9" x1="231.86" y1="106.41" x2="258.42" y2="114.28"/><line class="cls-9" x1="218.08" y1="138.3" x2="248.62" y2="147.34"/><line class="cls-9" x1="225.92" y1="149.71" x2="246.15" y2="155.7"/><polygon class="cls-7" points="335.5 51.47 372.9 98.91 339.33 125.38 309.42 87.45 311.44 70.45 335.5 51.47"/><polygon class="cls-7" points="311.88 70.1 319.58 79.87 309.63 87.72 309.42 87.45 311.44 70.45 311.88 70.1"/><rect class="cls-10" x="321.61" y="85.34" width="8.87" height="8.87" transform="translate(14.43 221.16) rotate(-38.26)"/><rect class="cls-10" x="333.99" y="101.04" width="8.87" height="8.87" transform="translate(7.37 232.2) rotate(-38.26)"/><polyline class="cls-11" points="324.64 90.99 326.47 91.33 326.43 86.6"/><polyline class="cls-11" points="337.29 106.45 339.12 106.79 339.07 102.06"/><line class="cls-11" x1="318.81" y1="73.44" x2="334.15" y2="61.34"/><line class="cls-11" x1="326.58" y1="72.45" x2="336.65" y2="64.51"/><line class="cls-11" x1="336.21" y1="79.19" x2="343.61" y2="73.35"/><line class="cls-11" x1="336.05" y1="84.46" x2="346.11" y2="76.52"/><line class="cls-11" x1="344.42" y1="98.18" x2="356" y2="89.05"/><line class="cls-11" x1="350.83" y1="98.27" x2="358.49" y2="92.22"/><path class="cls-12" d="M83.14,262.4l171.33.36a16.42,16.42,0,0,0,16.41-16.33l.24-115.68a16.42,16.42,0,0,0-16.34-16.4L83.45,114a16.41,16.41,0,0,0-16.4,16.33L66.8,246A16.41,16.41,0,0,0,83.14,262.4Z"/><path class="cls-13" d="M67.14,111.13A9.13,9.13,0,0,1,76.28,102l28,.06c19.39,0,35.22,0,35.18,19.43h0l109.46.23a22.31,22.31,0,0,1,22.21,22.3L270.9,248a22.32,22.32,0,0,1-22.31,22.21l-159.54-.33a22.33,22.33,0,0,1-22.22-22.31L67,145.76v-2.12Z"/><rect class="cls-6" x="348.11" y="122.42" width="82.52" height="113.46" rx="12.38" ry="12.38" transform="translate(209.4 568.15) rotate(-89.88)"/><rect class="cls-12" x="348.11" y="130.62" width="82.52" height="113.46" rx="9.1" ry="9.1" transform="translate(201.2 576.33) rotate(-89.88)"/><path class="cls-13" d="M332.73,158.19a15.4,15.4,0,0,1,15.43-15.36h5.25c10.78,0,19.58-1.32,19.55,9.46h0l60.86.13a12.4,12.4,0,0,1,12.35,12.4l-.12,57.76a12.41,12.41,0,0,1-12.4,12.35l-88.71-.18a12.42,12.42,0,0,1-12.35-12.41l.12-56.58v-1.18Z"/><circle class="cls-14" cx="470.21" cy="129.38" r="7.97"/><circle class="cls-7" cx="152.4" cy="326.23" r="10.36"/><circle class="cls-15" cx="133.4" cy="11.86" r="10.36"/><rect class="cls-16" x="337.56" y="18.59" width="13.73" height="13.73" transform="translate(118.87 -236.09) rotate(45)"/><rect class="cls-17" x="4.89" y="162.37" width="18.18" height="18.18" transform="translate(125.34 40.34) rotate(45)"/><circle class="cls-18" cx="390.14" cy="190.94" r="21.56"/><path class="cls-19" d="M420.6,196.77a8.58,8.58,0,0,1-1.74-.3h0l-.7-.15-.43-.11h0a10.24,10.24,0,0,0,.84-1.31c.2-.48-.2-.41-.2-.41a15,15,0,0,1-2,1.13,3.26,3.26,0,0,0-1.38,1.14h0s-11.15,5.1-11.58,4.64v0l-3-14.55L400,186l-.18,1.6-.3.32-4.33,4.66,1.32,5,.2.75v.05l1.89,7.18a2.85,2.85,0,0,0,4,1.84A139.67,139.67,0,0,0,416,199.29h0a10.53,10.53,0,0,0,3.95.53,2.14,2.14,0,0,0,1.67-1.5c.66-.13.91-1.2.91-1.2l1-.59C422.79,195.45,422.3,196.53,420.6,196.77Z"/><path id="_Clipping_Path_2" data-name="&lt;Clipping Path&gt;" class="cls-1" d="M388,167.78a5.49,5.49,0,0,1,2.79,1.61,5.72,5.72,0,0,1,1.4,4,8.26,8.26,0,0,1-.59,2.81,8.15,8.15,0,0,1-.54,1.16,10.38,10.38,0,0,0-1,1.7,4.06,4.06,0,0,0,1,2.86c.71.44-1,.07-1.78.62a4.46,4.46,0,0,1-3.11.79.94.94,0,0,1-.64-.26c-.1-.11-.44.3-.49.16-.2-.72-2.75.21-2.24-.3s2.2-2.77,2-2.94a4.87,4.87,0,0,0-.52-.37,3.94,3.94,0,0,1-1-.75,3.6,3.6,0,0,1-.61-1.56,13.74,13.74,0,0,1-.39-5.41,5.13,5.13,0,0,1,2.27-3.56A4.73,4.73,0,0,1,388,167.78Z"/><g class="cls-20"><path class="cls-21" d="M381.59,176a1.56,1.56,0,0,1,1.28-.71.31.31,0,0,1,.34.22h0a.3.3,0,0,1-.2.38,3,3,0,0,0-1.14.62Z"/><path class="cls-21" d="M381.59,176.93a1.59,1.59,0,0,1,1.28-.71.33.33,0,0,1,.34.22h0a.32.32,0,0,1-.2.39,3,3,0,0,0-1.14.61Z"/></g><path class="cls-22" d="M386.91,179.7a7.48,7.48,0,0,0,1.72-.73,4,4,0,0,1-.59,1.29,1.82,1.82,0,0,1-1.35.7,1.8,1.8,0,0,1-1.11-.41,3.15,3.15,0,0,1-.73-.82,7.09,7.09,0,0,0,.94.13A5.22,5.22,0,0,0,386.91,179.7Z"/><path class="cls-23" d="M382.84,169.47a1.53,1.53,0,0,1,.72-1.3c.37-.16,1.54-.72,1.84-.79A4.4,4.4,0,0,1,388,167a5.29,5.29,0,0,1,2.66,1,11,11,0,0,1,2,1.68,11.73,11.73,0,0,1,.75,2.29c.09.4-.51,1.54-.47,1.62a1.34,1.34,0,0,1-.43,1.59c-.13.09-.3.19-.33.35a.75.75,0,0,0,.05.26,1.29,1.29,0,0,1-1.06,1.57c0,.37,0,.82-.35,1a.71.71,0,0,1-.9-.38,2.62,2.62,0,0,1-.14-1.18c0-.48.05-.94.06-1.42a3.64,3.64,0,0,0-.36-1.43.93.93,0,0,1,0-.86,1.68,1.68,0,0,1-.79-2.42,3.24,3.24,0,0,1-1,.43,6.3,6.3,0,0,1-1.9-.06c-1.68.34-.84.92-2.12.39a1.19,1.19,0,0,1-1.46.05.91.91,0,0,1-.41-1,1.23,1.23,0,0,1,.81-.66c.09,0,.19-.07.22-.16a.44.44,0,0,0,0-.2Z"/><path class="cls-24" d="M390.42,173.58a.59.59,0,0,1,.81,0,1,1,0,0,1,.23.59,2.21,2.21,0,0,1-.06.68,2.83,2.83,0,0,1-.44,1.08,1.25,1.25,0,0,1-1.1.33c-.18,0-.1-1.18-.09-1.37A2.11,2.11,0,0,1,390.42,173.58Z"/><path class="cls-25" d="M389.78,180.65s0,1.22,1.11,1.22-3.27,6-3.27,6l-1.59-.09-2.35-2.88-.92-2.07a4.87,4.87,0,0,0,2.36-1.1C385.67,181,389.78,180.65,389.78,180.65Z"/><path class="cls-26" d="M371.18,197.06l.1.1,1.58.36,2.36.55a7.73,7.73,0,0,0,2.2.17h.12a43.61,43.61,0,0,0-.7-6.63c-.33-2.07-.68-4.14-.83-6.22,0-.14,0-.28,0-.42a38.41,38.41,0,0,0-2.22,4.27l-.12.26c-.16.37-.32.74-.47,1.11,0,.06-.05.13-.08.19l-.1.27A39.94,39.94,0,0,0,371.18,197.06Z"/><path class="cls-27" d="M376,185c.19,3.4.9,6.79,1.25,10.19.1,1,.17,2.07.18,3.11v.07c0,.52,0,1.62.08,3,0,.92.06,2,.09,3.11s.06,2,.09,3.1a32.53,32.53,0,0,1-.13,5.17,27.81,27.81,0,0,0,4.67,1.64,26.64,26.64,0,0,0,8.63.29s6.59-.72,8.4-2a29.54,29.54,0,0,1-.23-5.13c0-.91,0-1.82,0-2.73,0-.13,0-.25,0-.37,0-1,0-2.07-.08-3.11l-.09-3.11s0,0,0-.07c0-1-.07-2-.11-3q-.23-5.82-.59-11.65h0A7,7,0,0,0,397,183c-1-.32-4.51-1.19-5.71-1.38a.32.32,0,0,0-.37.33h0c.13,2.69-6.64,3.15-7.6,1a.82.82,0,0,0-.94-.46A46.31,46.31,0,0,0,377,184a2.32,2.32,0,0,0-1,.92Z"/><path class="cls-26" d="M398.08,183.5q.45,7.33.7,14.69A9.9,9.9,0,0,0,402.6,197a9.4,9.4,0,0,0,1.66-1.14L403.09,192l-1.23-4.07c-.05-.17-.11-.35-.16-.53a6,6,0,0,0-3-3.59Z"/><path class="cls-28" d="M384.23,176.53a1.42,1.42,0,0,0,.35.86,1.29,1.29,0,0,0,2.23-.78Z"/><path class="cls-21" d="M384.58,177.39a1.42,1.42,0,0,0,1.92,0,1.89,1.89,0,0,0-.94-.22A1.85,1.85,0,0,0,384.58,177.39Z"/><path class="cls-29" d="M385,205.87l10.12,1.22a.22.22,0,0,0,.25-.26l-2-12.41a.22.22,0,0,0-.2-.18L383.06,193a.23.23,0,0,0-.25.26l2,12.41A.22.22,0,0,0,385,205.87Z"/><polygon class="cls-30" points="382.87 193.08 382.41 193.53 383.07 193.68 382.87 193.08"/><path class="cls-31" d="M384.55,206.3l10.12,1.22a.23.23,0,0,0,.25-.26l-2-12.41a.2.2,0,0,0-.19-.18l-10.12-1.23a.22.22,0,0,0-.25.26l2,12.41A.25.25,0,0,0,384.55,206.3Z"/><circle class="cls-21" cx="388.25" cy="200.25" r="1.99"/><path class="cls-21" d="M384.24,194.89a.37.37,0,0,1-.13-.17.31.31,0,0,1,.21-.39.31.31,0,0,1,.25.57.16.16,0,0,1,0,.07.22.22,0,0,1-.14.28.22.22,0,0,1-.28-.15A.21.21,0,0,1,384.24,194.89Z"/><path class="cls-32" d="M371.86,200.31l.43-2.92,5.13.94,12.22,2,1.07-.18s.88-1.41,2-1.54,1.2-1.52,1.86-.89-1.79,1.83-1.19,2.11.46.55.8-.31c0,0,1.75.84.81,1.47a1,1,0,0,1,0,.41.65.65,0,0,1-.51.58.58.58,0,0,1-.44.75c-.63.18-2,.95-2.79.56a1.84,1.84,0,0,0-1.3-.22L374.06,203A2.34,2.34,0,0,1,371.86,200.31Z"/><circle class="cls-28" cx="387.17" cy="173.8" r="0.45"/><circle class="cls-21" cx="386.96" cy="173.66" r="0.15"/><circle class="cls-28" cx="383.94" cy="173.8" r="0.45"/><circle class="cls-21" cx="383.79" cy="173.65" r="0.15"/><path class="cls-28" d="M388.56,172.54l-.18.58a1.77,1.77,0,0,0-1.92-.23l-.08-.78A2.33,2.33,0,0,1,388.56,172.54Z"/><path class="cls-28" d="M382.41,172.49l.15.58a1.77,1.77,0,0,1,1.93-.14l.12-.77A2.34,2.34,0,0,0,382.41,172.49Z"/><path class="cls-21" d="M388.65,175.5a2,2,0,0,0-.68-.19.31.31,0,0,0-.34.22h0a.32.32,0,0,0,.2.39,2.92,2.92,0,0,1,1.14.61h0A.75.75,0,0,0,388.65,175.5Z"/><path class="cls-21" d="M388.63,176.41a2.53,2.53,0,0,0-.68-.19.31.31,0,0,0-.34.22h0a.32.32,0,0,0,.2.39,3.06,3.06,0,0,1,1.14.61h0A.75.75,0,0,0,388.63,176.41Z"/><path class="cls-21" d="M400.23,190a2.12,2.12,0,0,0,2.13,2.12,2.24,2.24,0,0,0,.73-.12l-1.23-4.07A2.13,2.13,0,0,0,400.23,190Z"/><path class="cls-21" d="M373,191.06h2.06v-1.83h-1.29l-.12.26h1.09v1.3H373.1Z"/><circle class="cls-33" cx="170.6" cy="192.96" r="46.77"/><path class="cls-34" d="M181.38,146.21c7.21.24,16.09,7,13.92,13.5s-5.13,7.63-5.13,7.63l-.8,12.68s1.59,5,5.94,6.54,6.47,12.39-.18,14.81-60.92,27.6-72,19-4.43-13.32-.78-15.18c0,0-12.59-5.89-7.3-22.69,4.94-15.65,33.78-12.11,40-17.12C166.64,156.15,167.7,145.76,181.38,146.21Z"/><path class="cls-35" d="M214.3,190s-.45-3.87-1.61-5.23,1-2.41,2.29-1.65a4.2,4.2,0,0,1,1.66,2.31s3-7.79,4.53-8.23,1.42,1.29,1.42,1.29a3.53,3.53,0,0,1,1.85-1.45c1.08-.24,1.61,1.27,1.09,2.48a1.94,1.94,0,0,1,1.59-.32c.85.25-.28,2.55-.36,3.33a23.13,23.13,0,0,1-1.28,6.88,8.45,8.45,0,0,1-1.83,2.94l-7.27.37Z"/><path class="cls-36" d="M224.36,192s-10.22,34.7-17.87,40.09-19.33-10.17-19.33-10.17-1.51-29.24,4-29.66c0,0,2.29,2.87,4.78,6.48l.64.95c.61.91,1.22,1.84,1.8,2.79l.6,1a24.27,24.27,0,0,1,3,6.76L214.25,190Z"/><path class="cls-37" d="M167.33,183.57s-10.53-.86-15.59.79l-5.18,53.78,38.67-2,6-43.94s-6.37-4.4-10.22-4.48Z"/><path class="cls-29" d="M181.82,229.58,153.66,233a.63.63,0,0,1-.69-.73l5.52-34.52a.63.63,0,0,1,.55-.52l28.15-3.42a.63.63,0,0,1,.69.73l-5.52,34.52A.64.64,0,0,1,181.82,229.58Z"/><polygon class="cls-30" points="187.72 194 189.01 195.26 187.18 195.66 187.72 194"/><path class="cls-31" d="M183.06,230.77l-28.15,3.42a.63.63,0,0,1-.7-.73l5.52-34.52a.65.65,0,0,1,.55-.53L188.43,195a.63.63,0,0,1,.7.73l-5.53,34.52A.61.61,0,0,1,183.06,230.77Z"/><circle class="cls-21" cx="172.77" cy="213.95" r="5.53"/><path class="cls-21" d="M183.92,199a.83.83,0,0,0,.35-.45.88.88,0,1,0-1.67-.54.86.86,0,0,0,.39,1,.52.52,0,0,0-.11.19.62.62,0,1,0,1.18.38A.6.6,0,0,0,183.92,199Z"/><path class="cls-38" d="M171.6,171.85S170,182,167.33,183.57c0,0-.14,5.59,13.64,4.18,0,0-1.7-4.36-1-6.35Z"/><path class="cls-39" d="M191.45,174.26a15.42,15.42,0,0,1-.34,1.53c-.72,2.72-2.05,4.92-4.36,5.69-9,3-13.16-1.62-13.95-2.42-2-2.06-1.2-7.21-1.2-7.21s-4.36-1-3.42-4.3c.89-3.13,3.89-2.2,4.32-2l0,0c2.72,1.45,2,3.3,2,3.3,4.68-.73,13.6-8.48,13.6-8.48-.83,2.82-3.89,5.41-3.89,5.41,6.16-1.84,6.92-5.91,6.92-5.91S192.59,167.94,191.45,174.26Z"/><path class="cls-28" d="M181.07,166.6a1.12,1.12,0,0,0,.31,0,2,2,0,0,0,.32-.1,1.39,1.39,0,0,0,.54-.4,1.4,1.4,0,0,1-.46.54,2.07,2.07,0,0,1-.32.19,1.69,1.69,0,0,1-.36.13Z"/><path class="cls-28" d="M181.63,166.79a1.27,1.27,0,0,0,.32,0,1.81,1.81,0,0,0,.31-.09,1.34,1.34,0,0,0,.54-.4,1.4,1.4,0,0,1-.46.54L182,167l-.36.13Z"/><circle class="cls-28" cx="181.28" cy="167.78" r="1.26"/><circle class="cls-21" cx="181.89" cy="167.38" r="0.42"/><path class="cls-28" d="M188.15,167.15a1.76,1.76,0,0,0,.31,0,1.31,1.31,0,0,0,.32-.1,1.39,1.39,0,0,0,.54-.4,1.51,1.51,0,0,1-.46.55,2,2,0,0,1-.32.18,1.28,1.28,0,0,1-.36.13Z"/><path class="cls-28" d="M188.71,167.33l.32,0,.31-.1a1.34,1.34,0,0,0,.54-.4,1.4,1.4,0,0,1-.46.54,2,2,0,0,1-.31.19,2.2,2.2,0,0,1-.36.13Z"/><circle class="cls-28" cx="188.42" cy="168.32" r="1.26"/><circle class="cls-21" cx="188.85" cy="167.92" r="0.42"/><path class="cls-28" d="M191.7,166.42h0a.65.65,0,0,1-1,.1,3.53,3.53,0,0,0-2.3-1.06.74.74,0,0,1-.69-.87h0a.74.74,0,0,1,.84-.59,4.54,4.54,0,0,1,3.13,1.71A.65.65,0,0,1,191.7,166.42Z"/><path class="cls-28" d="M180.62,175.5a3.78,3.78,0,0,0,2.22,1.15,4.37,4.37,0,0,0,1.25,0c.22,0,.42-.09.64-.13s.41-.13.63-.18l-.58.33a4.75,4.75,0,0,1-.63.23,3.46,3.46,0,0,1-1.36.11A2.87,2.87,0,0,1,180.62,175.5Z"/><path class="cls-21" d="M178.54,172.91c.13,0,.06-.26-.09-.28l-2.23-.26a1.43,1.43,0,0,0-1.7,1.41.34.34,0,0,0,.45.34Z"/><path class="cls-21" d="M191.45,174.26a15.42,15.42,0,0,1-.34,1.53l-2.62-1.91c-.12-.08,0-.27.17-.24l2.21.41A1.74,1.74,0,0,1,191.45,174.26Z"/><path class="cls-21" d="M170.89,170.82l-.35,5.79-.08-5.8a.22.22,0,0,1,.43,0Z"/><circle class="cls-40" cx="170.51" cy="177.1" r="0.62"/><path class="cls-41" d="M171.83,214.42c.12-.07,2.75-5.22,4.77-4.49s-.56,4.72-.56,4.72,4.1-1.29,6.58-.34,3.49,2.36,2.23,2.91c0,0,3.48,2.68-.09,2.86,0,0,2.25.5,1.58,1.72s-8.37.84-9.25,1.86S168.9,216,171.83,214.42Z"/><path class="cls-36" d="M177.09,223.66,151.79,238a15.17,15.17,0,0,1-21.72-9.71c-1.34-5.26,1.69-15,3.45-21.87.06-.25.13-.5.18-.75.11-.42.21-.82.3-1.22a35.42,35.42,0,0,1,2.76-7.86c.19-.38.38-.75.58-1.1,5.65-10.27,14.4-11.13,14.4-11.13L148,223.08l23.66-8.94Z"/><path class="cls-42" d="M140.07,200.9a4.78,4.78,0,0,1-4.54,5,4.65,4.65,0,0,1-1.83-.26c.11-.42.21-.82.3-1.22l.15-.62a2.83,2.83,0,0,0,.88.08,3.05,3.05,0,0,0,1.05-5.86c.22-.51.45-1,.68-1.46A4.76,4.76,0,0,1,140.07,200.9Z"/><path class="cls-43" d="M198.41,202.45l-1.6,1a.92.92,0,0,1-1.27-.3l-.78-1.25a.93.93,0,0,1,.3-1.27l1.55-1-.64-.95L193.83,200a1.35,1.35,0,0,0-.44,1.87l1.52,2.46a1.36,1.36,0,0,0,1.88.44l2.22-1.37Z"/></g></g></g></svg>