<?xml version="1.0" encoding="UTF-8"?>
<svg width="1342px" height="472px" viewBox="0 0 1342 472" version="1.1" xmlns="http://www.w3.org/2000/svg" xmlns:xlink="http://www.w3.org/1999/xlink">
    <!-- Generator: Sketch 61.2 (89653) - https://sketch.com -->
    <title>Group 15</title>
    <desc>Created with Sketch.</desc>
    <g id="Page-1" stroke="none" stroke-width="1" fill="none" fill-rule="evenodd" opacity="0.5">
        <g id="Group-15" stroke="#BDC6F7">
            <path d="M262.214348,42.3576213 C262.214348,101.25004 238.637566,133.805697 191.484002,140.024593 C120.753666,149.352938 110.561615,195.233706 123.638146,232.945334 C136.714677,270.656962 139.936674,307.579435 78.4941916,321.765876" id="Path-47"></path>
            <path d="M235.720156,28 C235.720156,86.8924183 212.143374,119.448076 164.98981,125.666972 C94.2594743,134.995317 84.0674237,180.876085 97.1439546,218.587713 C110.220485,256.299341 113.442482,293.221814 52,307.408255" id="Path-47-Copy"></path>
            <path d="M209.720156,14 C209.720156,72.8924183 186.143374,105.448076 138.98981,111.666972 C68.2594743,120.995317 58.0674237,166.876085 71.1439546,204.587713 C84.2204854,242.299341 87.4424824,279.221814 26,293.408255" id="Path-47-Copy-2"></path>
            <path d="M183.720156,0 C183.720156,58.8924183 160.143374,91.4480757 112.98981,97.6669721 C42.2594743,106.995317 32.0674237,152.876085 45.1439546,190.587713 C58.2204854,228.299341 61.4424824,265.221814 -5.68434189e-14,279.408255" id="Path-47-Copy-3"></path>
            <path d="M764.306958,425.296434 C782.334148,357.571341 843.898496,316.757329 949,302.854397 C1106.65226,282 1196.32952,312 1209.06861,192 C1217.56134,112 1261.62696,79.5713753 1341.26547,94.7141258" id="Path-48"></path>
            <path d="M878.958516,451.197448 C892.987615,383.472355 940.898152,342.658343 1022.69013,328.755411 C1145.37808,307.901014 1215.16662,337.901014 1225.08042,217.901014 C1231.68963,137.901014 1265.98232,105.472389 1327.95852,120.61514" id="Path-48-Copy"></path>
            <path d="M1003,471.197448 C1012.37356,403.472355 1044.38506,362.658343 1099.03448,348.755411 C1181.00862,327.901014 1227.63793,357.901014 1234.26185,237.901014 C1238.6778,157.901014 1261.59052,125.472389 1303,140.61514" id="Path-48-Copy-2"></path>
        </g>
    </g>
</svg>