<svg xmlns="http://www.w3.org/2000/svg" viewBox="0 0 35 49" width="35" height="49">
	<defs>
		<clipPath clipPathUnits="userSpaceOnUse" id="cp1">
			<path d="M-552 -1496L888 -1496L888 5960L-552 5960Z" />
		</clipPath>
	</defs>
	<style>
		tspan { white-space:pre }
		.shp0 { fill: #ffffff;stroke: #6980ff;stroke-linejoin:round;stroke-width: 2 } 
		.shp1 { fill: #6980ff } 
	</style>
	<g id="Become Advisor" clip-path="url(#cp1)">
		<g id="02_SUPPORT">
			<path id="Path" class="shp0" d="M32.29 20.11L17.14 28.93L2 20.11L32.29 20.11L32.29 20.11Z" />
			<path id="Path" class="shp0" d="M17.14 28.93L17.14 46.92L2 37.93L2 20.11L17.14 28.93L17.14 28.93Z" />
			<path id="Path" class="shp0" d="M32.29 20.11L17.14 28.93L17.14 46.92L32.29 38.03L32.29 20.11L32.29 20.11Z" />
			<path id="Oval" class="shp1" d="M17.14 7.88C19.18 7.88 20.83 6.23 20.83 4.19C20.83 2.15 19.18 0.5 17.14 0.5C15.11 0.5 13.46 2.15 13.46 4.19C13.46 6.23 15.11 7.88 17.14 7.88Z" />
			<path id="Path" class="shp1" d="M25.46 18.72L8.83 18.72C8.83 13.6 12.56 9.45 17.15 9.45C21.74 9.45 25.46 13.6 25.46 18.72Z" />
			<path id="Oval" class="shp1" d="M26.54 11.28C27.94 11.28 29.08 10.14 29.08 8.74C29.08 7.34 27.94 6.21 26.54 6.21C25.14 6.21 24.01 7.34 24.01 8.74C24.01 10.14 25.14 11.28 26.54 11.28Z" />
			<path id="Path" class="shp1" d="M32.25 18.72L26.53 18.72C26.43 16.59 25.71 14.53 24.47 12.79C25.12 12.5 25.82 12.36 26.53 12.36C29.7 12.36 32.25 15.21 32.25 18.72Z" />
			<path id="Oval" class="shp1" d="M7.75 11.28C9.15 11.28 10.28 10.14 10.28 8.74C10.28 7.34 9.15 6.21 7.75 6.21C6.35 6.21 5.21 7.34 5.21 8.74C5.21 10.14 6.35 11.28 7.75 11.28Z" />
			<path id="Path" class="shp1" d="M9.8 12.79C8.56 14.53 7.85 16.59 7.75 18.72L2.04 18.72C2.04 15.21 4.6 12.36 7.75 12.36C8.45 12.36 9.15 12.51 9.8 12.79L9.8 12.79Z" />
		</g>
	</g>
</svg>