<svg xmlns="http://www.w3.org/2000/svg" xmlns:xlink="http://www.w3.org/1999/xlink" viewBox="0 0 887.68 591.36"><defs><style>.cls-1{isolation:isolate;}.cls-2{fill:url(#linear-gradient);}.cls-3{fill:url(#linear-gradient-2);}.cls-119,.cls-4,.cls-6,.cls-61,.cls-7,.cls-71,.cls-8{fill:#fff;}.cls-4{opacity:0.06;}.cls-5{fill:url(#linear-gradient-3);}.cls-6{opacity:0.13;}.cls-8{opacity:0.33;}.cls-9{fill:url(#linear-gradient-4);}.cls-10{fill:url(#linear-gradient-5);}.cls-11{fill:url(#linear-gradient-6);}.cls-12{fill:url(#linear-gradient-7);}.cls-13,.cls-71{opacity:0.1;}.cls-13,.cls-24,.cls-25,.cls-61,.cls-71{mix-blend-mode:overlay;}.cls-14{fill:url(#linear-gradient-8);}.cls-15{opacity:0.21;fill:url(#linear-gradient-9);}.cls-16{fill:#ded1ff;}.cls-17{fill:#c9c9ff;}.cls-116,.cls-18,.cls-66,.cls-88{fill:none;stroke:#fff;}.cls-18,.cls-88{stroke-linecap:round;stroke-width:1.35px;}.cls-18,.cls-66{stroke-miterlimit:10;}.cls-19{fill:url(#linear-gradient-10);}.cls-20{fill:url(#linear-gradient-11);}.cls-21{fill:url(#linear-gradient-12);}.cls-22{fill:url(#linear-gradient-13);}.cls-23{fill:url(#linear-gradient-14);}.cls-24{opacity:0.11;}.cls-25,.cls-61{opacity:0.15;}.cls-26{fill:url(#linear-gradient-15);}.cls-27{fill:url(#linear-gradient-16);}.cls-28{fill:url(#linear-gradient-17);}.cls-29{fill:url(#linear-gradient-18);}.cls-30{fill:url(#linear-gradient-19);}.cls-31{fill:url(#linear-gradient-20);}.cls-32{fill:url(#linear-gradient-21);}.cls-33{fill:url(#linear-gradient-22);}.cls-34{fill:url(#linear-gradient-23);}.cls-35{fill:url(#linear-gradient-24);}.cls-36{fill:url(#linear-gradient-25);}.cls-37{fill:url(#linear-gradient-26);}.cls-38{fill:url(#linear-gradient-27);}.cls-39{fill:url(#linear-gradient-28);}.cls-40{fill:url(#linear-gradient-29);}.cls-41{fill:url(#linear-gradient-30);}.cls-42{fill:url(#linear-gradient-31);}.cls-43{fill:url(#linear-gradient-32);}.cls-44{fill:url(#linear-gradient-33);}.cls-45{fill:url(#linear-gradient-34);}.cls-46,.cls-48,.cls-50,.cls-51{opacity:0.3;}.cls-46{fill:url(#linear-gradient-35);}.cls-47{fill:url(#linear-gradient-36);}.cls-48{fill:url(#linear-gradient-37);}.cls-49{fill:url(#linear-gradient-38);}.cls-50{fill:url(#linear-gradient-39);}.cls-51{fill:url(#linear-gradient-40);}.cls-52{fill:url(#linear-gradient-41);}.cls-53{fill:url(#linear-gradient-42);}.cls-54{fill:url(#linear-gradient-43);}.cls-55{fill:url(#linear-gradient-44);}.cls-56{fill:url(#linear-gradient-45);}.cls-57{fill:url(#linear-gradient-46);}.cls-58{fill:url(#linear-gradient-47);}.cls-59{fill:url(#linear-gradient-48);}.cls-60{fill:url(#linear-gradient-49);}.cls-62{fill:url(#linear-gradient-50);}.cls-63{fill:url(#linear-gradient-51);}.cls-64{fill:#f2f2f2;}.cls-65{fill:#2800a2;}.cls-66{stroke-width:2px;}.cls-67{fill:#dbc2b3;}.cls-68{fill:#f2d6c6;}.cls-69{fill:url(#linear-gradient-52);}.cls-70{fill:url(#linear-gradient-53);}.cls-72{fill:url(#linear-gradient-54);}.cls-73{fill:url(#linear-gradient-55);}.cls-74{fill:url(#linear-gradient-56);}.cls-75{fill:url(#linear-gradient-57);}.cls-76{fill:url(#linear-gradient-58);}.cls-77{fill:url(#linear-gradient-59);}.cls-78{fill:url(#linear-gradient-60);}.cls-79{fill:url(#linear-gradient-61);}.cls-80{fill:url(#linear-gradient-62);}.cls-81{fill:url(#linear-gradient-63);}.cls-82{fill:url(#linear-gradient-64);}.cls-83{fill:url(#linear-gradient-65);}.cls-84{fill:url(#linear-gradient-66);}.cls-85{fill:url(#linear-gradient-67);}.cls-86{fill:url(#linear-gradient-68);}.cls-87{fill:url(#linear-gradient-69);}.cls-116,.cls-88{stroke-linejoin:round;}.cls-89{fill:url(#linear-gradient-70);}.cls-90{fill:url(#linear-gradient-71);}.cls-91{fill:url(#linear-gradient-72);}.cls-92{fill:url(#linear-gradient-73);}.cls-93{fill:url(#linear-gradient-74);}.cls-94{fill:url(#linear-gradient-75);}.cls-95{fill:url(#linear-gradient-76);}.cls-96{fill:url(#linear-gradient-77);}.cls-97{fill:url(#linear-gradient-78);}.cls-98{fill:url(#linear-gradient-79);}.cls-99{fill:url(#linear-gradient-80);}.cls-100{fill:url(#linear-gradient-81);}.cls-101{fill:url(#linear-gradient-82);}.cls-102{fill:url(#linear-gradient-83);}.cls-103{fill:url(#linear-gradient-84);}.cls-104{fill:url(#linear-gradient-85);}.cls-105{fill:url(#linear-gradient-86);}.cls-106{fill:url(#linear-gradient-87);}.cls-107{fill:url(#linear-gradient-88);}.cls-108{fill:#c7625a;}.cls-109{fill:url(#linear-gradient-89);}.cls-110{fill:url(#linear-gradient-90);}.cls-111{fill:url(#linear-gradient-91);}.cls-112{fill:url(#linear-gradient-92);}.cls-113{fill:url(#linear-gradient-93);}.cls-114{fill:url(#linear-gradient-94);}.cls-115{opacity:0.25;}.cls-117{fill:url(#linear-gradient-95);}.cls-118{fill:#ff6865;}.cls-119{font-size:17.39px;font-family:Poppins-ExtraBold, Poppins;font-weight:700;}.cls-120{fill:#000134;}</style><linearGradient id="linear-gradient" x1="396.1" y1="562.93" x2="535.32" y2="562.93" gradientTransform="translate(-169.87 46.11) rotate(-6.12)" gradientUnits="userSpaceOnUse"><stop offset="0" stop-color="#b2a2ff"/><stop offset="1" stop-color="#5c79ff"/></linearGradient><linearGradient id="linear-gradient-2" x1="1029.22" y1="4.03" x2="-143.36" y2="672.33" gradientTransform="matrix(1, 0, 0, 1, 0, 0)" xlink:href="#linear-gradient"/><linearGradient id="linear-gradient-3" x1="-5100.81" y1="-2326.47" x2="-5111.03" y2="-2238.11" gradientTransform="matrix(0.86, 0.51, -0.51, 0.86, 3975.82, 4976.48)" gradientUnits="userSpaceOnUse"><stop offset="0" stop-color="#fff" stop-opacity="0"/><stop offset="1" stop-color="#fff"/></linearGradient><linearGradient id="linear-gradient-4" x1="141.16" y1="-7352.95" x2="134.54" y2="-7295.75" gradientTransform="matrix(-0.53, 0.85, -0.85, -0.53, -5606.07, -3933.93)" xlink:href="#linear-gradient-3"/><linearGradient id="linear-gradient-5" x1="-1502.81" y1="162.22" x2="-1321.64" y2="162.22" gradientTransform="translate(-817.97 484.5) rotate(168)" gradientUnits="userSpaceOnUse"><stop offset="0" stop-color="#ff8900"/><stop offset="1" stop-color="#ffd865"/></linearGradient><linearGradient id="linear-gradient-6" x1="58.5" y1="42.63" x2="238.54" y2="42.63" gradientTransform="translate(652.25 342.76) rotate(18.39)" xlink:href="#linear-gradient-5"/><linearGradient id="linear-gradient-7" x1="655.67" y1="432.49" x2="725.01" y2="276.75" gradientUnits="userSpaceOnUse"><stop offset="0" stop-color="#4286ff"/><stop offset="1" stop-color="#6637b0"/></linearGradient><linearGradient id="linear-gradient-8" x1="777.65" y1="293.51" x2="833.5" y2="293.51" gradientUnits="userSpaceOnUse"><stop offset="0" stop-color="#fab6b6"/><stop offset="1" stop-color="#ffead6"/></linearGradient><linearGradient id="linear-gradient-9" x1="660.79" y1="297.13" x2="682.31" y2="297.13" gradientUnits="userSpaceOnUse"><stop offset="0" stop-color="#e4e4e4"/><stop offset="1" stop-color="#fafafa"/></linearGradient><linearGradient id="linear-gradient-10" x1="209.95" y1="562.47" x2="193.1" y2="486.66" xlink:href="#linear-gradient-7"/><linearGradient id="linear-gradient-11" x1="0" y1="330" x2="299.57" y2="330" xlink:href="#linear-gradient-9"/><linearGradient id="linear-gradient-12" x1="181.27" y1="326.64" x2="219.47" y2="326.64" xlink:href="#linear-gradient-7"/><linearGradient id="linear-gradient-13" x1="100.17" y1="540.56" x2="263.03" y2="384.31" gradientUnits="userSpaceOnUse"><stop offset="0" stop-color="#0080e8"/><stop offset="1" stop-color="#cfc2fe"/></linearGradient><linearGradient id="linear-gradient-14" x1="166.99" y1="378.42" x2="217.95" y2="334.61" xlink:href="#linear-gradient-13"/><linearGradient id="linear-gradient-15" x1="236.66" y1="260.01" x2="243.9" y2="260.01" xlink:href="#linear-gradient-7"/><linearGradient id="linear-gradient-16" x1="233.56" y1="296.28" x2="242.58" y2="296.28" xlink:href="#linear-gradient-9"/><linearGradient id="linear-gradient-17" x1="119.5" y1="175.62" x2="147.41" y2="175.62" xlink:href="#linear-gradient-7"/><linearGradient id="linear-gradient-18" x1="20.46" y1="445.28" x2="177.43" y2="315.03" xlink:href="#linear-gradient-13"/><linearGradient id="linear-gradient-19" x1="188.17" y1="373.97" x2="193.07" y2="369.26" xlink:href="#linear-gradient-7"/><linearGradient id="linear-gradient-20" x1="188.17" y1="423.62" x2="193.07" y2="418.92" xlink:href="#linear-gradient-7"/><linearGradient id="linear-gradient-21" x1="188.17" y1="473.27" x2="193.07" y2="468.57" xlink:href="#linear-gradient-7"/><linearGradient id="linear-gradient-22" x1="125.32" y1="340.31" x2="167.7" y2="299.65" xlink:href="#linear-gradient-13"/><linearGradient id="linear-gradient-23" x1="128.49" y1="159.55" x2="158.23" y2="159.55" xlink:href="#linear-gradient-8"/><linearGradient id="linear-gradient-24" x1="141.63" y1="161.09" x2="271.57" y2="161.09" gradientUnits="userSpaceOnUse"><stop offset="0" stop-color="#001456"/><stop offset="1" stop-color="#5800a2"/></linearGradient><linearGradient id="linear-gradient-25" x1="159.7" y1="248.69" x2="235.7" y2="248.69" xlink:href="#linear-gradient-7"/><linearGradient id="linear-gradient-26" x1="161.96" y1="240.29" x2="234.69" y2="240.29" xlink:href="#linear-gradient-8"/><linearGradient id="linear-gradient-27" x1="200.23" y1="263.24" x2="198.83" y2="246.19" gradientUnits="userSpaceOnUse"><stop offset="0" stop-color="#a587f7"/><stop offset="1" stop-color="#e6efff"/></linearGradient><linearGradient id="linear-gradient-28" x1="175.37" y1="263.04" x2="197.14" y2="263.04" xlink:href="#linear-gradient-7"/><linearGradient id="linear-gradient-29" x1="199.91" y1="261.8" x2="226.14" y2="261.8" xlink:href="#linear-gradient-7"/><linearGradient id="linear-gradient-30" x1="186" y1="270.8" x2="210.28" y2="270.8" xlink:href="#linear-gradient-7"/><linearGradient id="linear-gradient-31" x1="218.69" y1="245.16" x2="245.69" y2="269.82" gradientUnits="userSpaceOnUse"><stop offset="0" stop-color="#dedede"/><stop offset="1" stop-color="#fafafa"/></linearGradient><linearGradient id="linear-gradient-32" x1="161.96" y1="238.8" x2="219.47" y2="238.8" gradientUnits="userSpaceOnUse"><stop offset="0" stop-color="#ffdcd0"/><stop offset="1" stop-color="#d9bab1"/></linearGradient><linearGradient id="linear-gradient-33" x1="167.8" y1="259.41" x2="147.46" y2="280.08" xlink:href="#linear-gradient-31"/><linearGradient id="linear-gradient-34" x1="246.8" y1="403.05" x2="357.54" y2="293.25" xlink:href="#linear-gradient-13"/><linearGradient id="linear-gradient-35" x1="296.57" y1="419.35" x2="346.18" y2="419.35" xlink:href="#linear-gradient-7"/><linearGradient id="linear-gradient-36" x1="298.96" y1="419.79" x2="344.78" y2="419.79" gradientUnits="userSpaceOnUse"><stop offset="0" stop-color="#e5eeff"/><stop offset="1" stop-color="#b2c4ff"/></linearGradient><linearGradient id="linear-gradient-37" x1="296.57" y1="416.36" x2="346.18" y2="416.36" xlink:href="#linear-gradient-7"/><linearGradient id="linear-gradient-38" x1="305.14" y1="427.33" x2="337.8" y2="427.33" xlink:href="#linear-gradient-36"/><linearGradient id="linear-gradient-39" x1="320.58" y1="323.07" x2="340.83" y2="323.07" xlink:href="#linear-gradient-7"/><linearGradient id="linear-gradient-40" x1="331.05" y1="357.13" x2="348.46" y2="357.13" xlink:href="#linear-gradient-7"/><linearGradient id="linear-gradient-41" x1="313.91" y1="359.58" x2="289.58" y2="290.32" xlink:href="#linear-gradient-7"/><linearGradient id="linear-gradient-42" x1="233.1" y1="337.87" x2="243.64" y2="337.87" xlink:href="#linear-gradient-7"/><linearGradient id="linear-gradient-43" x1="269.48" y1="259.12" x2="250.13" y2="235.41" gradientUnits="userSpaceOnUse"><stop offset="0" stop-color="#002bc9"/><stop offset="1" stop-color="#e6efff"/></linearGradient><linearGradient id="linear-gradient-44" x1="63.85" y1="258.81" x2="84.76" y2="280.02" xlink:href="#linear-gradient-43"/><linearGradient id="linear-gradient-45" x1="67.91" y1="261.38" x2="83.51" y2="287.59" xlink:href="#linear-gradient-43"/><linearGradient id="linear-gradient-46" x1="141.78" y1="197.67" x2="247.01" y2="197.67" xlink:href="#linear-gradient-8"/><linearGradient id="linear-gradient-47" x1="-456.66" y1="-140.65" x2="-436.55" y2="-140.65" gradientTransform="translate(561.25 432.42) rotate(16.94)" gradientUnits="userSpaceOnUse"><stop offset="0" stop-color="#0b3d77"/><stop offset="1" stop-color="#895bec"/></linearGradient><linearGradient id="linear-gradient-48" x1="769.29" y1="729.93" x2="789.4" y2="729.93" gradientTransform="translate(-765.17 -260.83) rotate(-19.46)" xlink:href="#linear-gradient-47"/><linearGradient id="linear-gradient-49" x1="312.34" y1="289.98" x2="368.49" y2="277.19" xlink:href="#linear-gradient-8"/><linearGradient id="linear-gradient-50" x1="279.02" y1="301.93" x2="219.44" y2="263.25" xlink:href="#linear-gradient-8"/><linearGradient id="linear-gradient-51" x1="283.74" y1="322.59" x2="304.64" y2="266.75" xlink:href="#linear-gradient-8"/><linearGradient id="linear-gradient-52" x1="184.44" y1="213.92" x2="204.84" y2="213.92" gradientUnits="userSpaceOnUse"><stop offset="0" stop-color="#f27271"/><stop offset="1" stop-color="#e73c84"/></linearGradient><linearGradient id="linear-gradient-53" x1="320.7" y1="397.37" x2="354.4" y2="281.33" xlink:href="#linear-gradient-43"/><linearGradient id="linear-gradient-54" x1="470.94" y1="211.69" x2="663.84" y2="205.87" gradientUnits="userSpaceOnUse"><stop offset="0" stop-color="#2800a2"/><stop offset="1" stop-color="#7d49ec"/></linearGradient><linearGradient id="linear-gradient-55" x1="127.49" y1="-132.03" x2="139.38" y2="-132.03" gradientTransform="matrix(0.98, 0.2, -0.2, 0.98, 393.76, 281.01)" xlink:href="#linear-gradient-47"/><linearGradient id="linear-gradient-56" x1="537.02" y1="244.66" x2="589.02" y2="137.29" xlink:href="#linear-gradient-54"/><linearGradient id="linear-gradient-57" x1="537.02" y1="241.97" x2="596.93" y2="241.97" xlink:href="#linear-gradient-8"/><linearGradient id="linear-gradient-58" x1="537" y1="240.61" x2="589.32" y2="240.61" xlink:href="#linear-gradient-32"/><linearGradient id="linear-gradient-59" x1="595.01" y1="563.46" x2="537.01" y2="212.46" xlink:href="#linear-gradient-7"/><linearGradient id="linear-gradient-60" x1="620.38" y1="559.27" x2="562.38" y2="208.27" xlink:href="#linear-gradient-7"/><linearGradient id="linear-gradient-61" x1="372.63" y1="147.24" x2="422.77" y2="84.72" gradientTransform="translate(156.71 71.81) rotate(4.29)" xlink:href="#linear-gradient-8"/><linearGradient id="linear-gradient-62" x1="552.57" y1="183.13" x2="556.56" y2="183.43" gradientTransform="matrix(1, 0, 0, 1, 0, 0)" xlink:href="#linear-gradient-47"/><linearGradient id="linear-gradient-63" x1="554.27" y1="183.79" x2="558.26" y2="184.09" gradientTransform="matrix(1, 0, 0, 1, 0, 0)" xlink:href="#linear-gradient-47"/><linearGradient id="linear-gradient-64" x1="549.15" y1="187.13" x2="556.89" y2="187.13" xlink:href="#linear-gradient-24"/><linearGradient id="linear-gradient-65" x1="580.19" y1="185.2" x2="584.18" y2="185.5" gradientTransform="matrix(1, 0, 0, 1, 0, 0)" xlink:href="#linear-gradient-47"/><linearGradient id="linear-gradient-66" x1="581.89" y1="185.86" x2="585.88" y2="186.16" gradientTransform="matrix(1, 0, 0, 1, 0, 0)" xlink:href="#linear-gradient-47"/><linearGradient id="linear-gradient-67" x1="576.95" y1="189.21" x2="584.69" y2="189.21" xlink:href="#linear-gradient-24"/><linearGradient id="linear-gradient-68" x1="445.04" y1="178.31" x2="457.57" y2="178.31" gradientTransform="translate(142.68 -18.59) rotate(2.76)" xlink:href="#linear-gradient-24"/><linearGradient id="linear-gradient-69" x1="376.79" y1="136.76" x2="428.62" y2="29.72" gradientTransform="translate(156.71 71.81) rotate(4.29)" xlink:href="#linear-gradient-54"/><linearGradient id="linear-gradient-70" x1="563.98" y1="554.31" x2="570.72" y2="421.46" xlink:href="#linear-gradient-7"/><linearGradient id="linear-gradient-71" x1="1051.99" y1="2649.62" x2="1058.97" y2="2633.94" gradientTransform="matrix(0.46, -1.06, 0.99, 0.43, -2627.61, 209.42)" xlink:href="#linear-gradient-8"/><linearGradient id="linear-gradient-72" x1="378.46" y1="483.21" x2="363.16" y2="297.12" gradientUnits="userSpaceOnUse"><stop offset="0" stop-color="#cf766b"/><stop offset="1" stop-color="#ff6e65"/></linearGradient><linearGradient id="linear-gradient-73" x1="333.5" y1="207.19" x2="411.69" y2="207.19" gradientUnits="userSpaceOnUse"><stop offset="0" stop-color="#fbc0a4"/><stop offset="1" stop-color="#fbad88"/></linearGradient><linearGradient id="linear-gradient-74" x1="333.5" y1="205.63" x2="395.79" y2="205.63" gradientUnits="userSpaceOnUse"><stop offset="0" stop-color="#fbc0a4"/><stop offset="1" stop-color="#fb8b55"/></linearGradient><linearGradient id="linear-gradient-75" x1="309" y1="184.13" x2="451.26" y2="40.57" xlink:href="#linear-gradient-24"/><linearGradient id="linear-gradient-76" x1="340.31" y1="191.57" x2="398.94" y2="118.47" gradientUnits="userSpaceOnUse"><stop offset="0" stop-color="#fbc0a4"/><stop offset="1" stop-color="#fbaf8a"/></linearGradient><linearGradient id="linear-gradient-77" x1="327.27" y1="206.46" x2="487.95" y2="44.31" xlink:href="#linear-gradient-24"/><linearGradient id="linear-gradient-78" x1="-502.18" y1="-252.47" x2="-485.16" y2="-252.47" gradientTransform="matrix(0.92, 0.38, -0.38, 0.92, 713.48, 555.72)" xlink:href="#linear-gradient-24"/><linearGradient id="linear-gradient-79" x1="1155.77" y1="1085.49" x2="1172.87" y2="1085.49" gradientTransform="translate(-1165.66 -228.66) rotate(-29.83)" xlink:href="#linear-gradient-24"/><linearGradient id="linear-gradient-80" x1="314.9" y1="150.1" x2="320.86" y2="150.1" xlink:href="#linear-gradient-76"/><linearGradient id="linear-gradient-81" x1="415.62" y1="149.5" x2="421.53" y2="149.5" xlink:href="#linear-gradient-76"/><linearGradient id="linear-gradient-82" x1="217.66" y1="303.6" x2="294.64" y2="303.6" xlink:href="#linear-gradient-9"/><linearGradient id="linear-gradient-83" x1="436.33" y1="292.65" x2="514.15" y2="292.65" xlink:href="#linear-gradient-9"/><linearGradient id="linear-gradient-84" x1="469.99" y1="307.63" x2="549.69" y2="227.21" xlink:href="#linear-gradient-9"/><linearGradient id="linear-gradient-85" x1="231.59" y1="404.33" x2="418.81" y2="404.33" xlink:href="#linear-gradient-73"/><linearGradient id="linear-gradient-86" x1="356.33" y1="441.76" x2="339.95" y2="397.55" xlink:href="#linear-gradient-73"/><linearGradient id="linear-gradient-87" x1="263.14" y1="395.49" x2="499.49" y2="395.49" xlink:href="#linear-gradient-73"/><linearGradient id="linear-gradient-88" x1="353.53" y1="168.32" x2="381.98" y2="168.32" xlink:href="#linear-gradient-8"/><linearGradient id="linear-gradient-89" x1="327.26" y1="225.5" x2="369.68" y2="225.5" xlink:href="#linear-gradient-9"/><linearGradient id="linear-gradient-90" x1="369.21" y1="225.04" x2="412.98" y2="225.04" xlink:href="#linear-gradient-9"/><linearGradient id="linear-gradient-91" x1="434.94" y1="222.5" x2="441.68" y2="207.37" xlink:href="#linear-gradient-8"/><linearGradient id="linear-gradient-92" x1="444.39" y1="226.54" x2="451.37" y2="210.85" xlink:href="#linear-gradient-8"/><linearGradient id="linear-gradient-93" x1="430.89" y1="219.7" x2="436.75" y2="206.54" xlink:href="#linear-gradient-8"/><linearGradient id="linear-gradient-94" x1="438.18" y1="225.9" x2="445.82" y2="208.72" xlink:href="#linear-gradient-8"/><linearGradient id="linear-gradient-95" x1="295.52" y1="847.5" x2="460.48" y2="847.5" gradientTransform="translate(-470.33 -293.94) rotate(-16.33)" xlink:href="#linear-gradient-5"/></defs><title>REVISI VOLUNTER FIT</title><g class="cls-1"><g id="Layer_2" data-name="Layer 2"><g id="volunter"><path class="cls-2" d="M347.66,536.32c-35.42-17.36-56.79-11-63.39,16.73-6.48,27.17,35,45.9,75.44,35.29,81.38-21.36,64.08-49.47,52.91-56.22C385.86,516,374.74,549.59,347.66,536.32Z"/><path class="cls-3" d="M848.53,417.53a220.9,220.9,0,0,1-14.86,18.89c-45.26,51.66-111.78,80.88-170.91,88.34a230.25,230.25,0,0,1-39.61,1.69c-113.44-5.43-182.91-54.7-304-16.09-78.95,25.18-164.83,8.6-218.51-37.23C81.84,457.08,67,437.45,57.77,414.77a142.92,142.92,0,0,1-9.64-38.11c-4.23-37.89-1.37-75.06,13.48-109.88q1.8-4.25,3.87-8.45a183,183,0,0,1,10.44-18.52,201.54,201.54,0,0,1,26.86-33.24c39.15-39.46,102-73.65,198.19-99.34q12.84-3.44,26.49-6.66A211.61,211.61,0,0,0,351,93.44,433.13,433.13,0,0,0,391.12,76c13.53-6.53,27.44-13.62,42.13-20.63q5.49-2.62,11.13-5.22c14.07-6.47,28.91-12.73,44.83-18.29h0a374.79,374.79,0,0,1,54-14.55,367.65,367.65,0,0,1,57.41-6.23l2.28-.07c68.73-1.74,172.7,26,234.49,114.58,16.67,23.9,30.27,52.23,39.28,85.61q2.31,8.55,4.2,17.52c.27,1.27.53,2.55.79,3.84q1.85,9.21,3.21,18.89c0,.25.07.5.11.75C894.46,320.06,878.35,375.07,848.53,417.53Z"/><path class="cls-4" d="M733.19,390.71V278.29A26.82,26.82,0,0,1,760,251.47H884.84q-1.37-9.67-3.21-18.89H736.34a32.92,32.92,0,0,0-32.92,32.93v138a32.92,32.92,0,0,0,32.92,32.93h97.33a220.9,220.9,0,0,0,14.86-18.89H760A26.82,26.82,0,0,1,733.19,390.71Z"/><polygon class="cls-5" points="717.31 443.11 779.03 366.61 723.99 447.44 717.31 443.11"/><circle class="cls-6" cx="720.4" cy="445.67" r="10.64"/><circle class="cls-7" cx="720.4" cy="445.67" r="4.01"/><path class="cls-8" d="M727.67,442.44c0-.08-.07-.16-.12-.24a7.91,7.91,0,0,0-4.81-4.13,7.13,7.13,0,0,0-1.15-.26,7.95,7.95,0,1,0,6.08,4.63Zm-8.17,8.11a4.94,4.94,0,0,1-.38-9.67,4.81,4.81,0,0,1,3.16.2,4.88,4.88,0,0,1,2.65,2.58,4.72,4.72,0,0,1,.42,1.78,4.94,4.94,0,0,1-2.94,4.76A4.85,4.85,0,0,1,719.5,450.55Z"/><path class="cls-8" d="M726.52,443.73a6.4,6.4,0,0,0-4-4.11,6,6,0,0,0-2.1-.37,6.42,6.42,0,0,0-1.51,12.67,6.52,6.52,0,0,0,4.09-.38A6.43,6.43,0,0,0,726.52,443.73Zm-6.66,5.9a4,4,0,0,1-2.54-6.51,4,4,0,1,1,2.54,6.51Z"/><polygon class="cls-9" points="490.65 74.32 539.02 115.65 487.73 78.56 490.65 74.32"/><circle class="cls-6" cx="488.94" cy="76.26" r="6.89"/><circle class="cls-7" cx="488.94" cy="76.26" r="2.59"/><path class="cls-8" d="M490.89,81l.16-.07a5.12,5.12,0,0,0,2.76-3,4.46,4.46,0,0,0,.19-.74,5.15,5.15,0,0,0-10-2.44,5.1,5.1,0,0,0,.15,3.48A5.16,5.16,0,0,0,490.89,81Zm-5.09-5.44a3.18,3.18,0,0,1,1.92-2.3A3.21,3.21,0,0,1,491.91,75a3,3,0,0,1,.15.48,3.13,3.13,0,0,1-.19,2,3.21,3.21,0,0,1-5.9-.09A3.09,3.09,0,0,1,485.8,75.59Z"/><path class="cls-8" d="M490.08,80.26a3.12,3.12,0,0,0,.43-.15,4.1,4.1,0,0,0,2.3-2.36,4.15,4.15,0,1,0-2.73,2.51Zm-3.7-4.41a2.59,2.59,0,0,1,4.95-.57,2.53,2.53,0,0,1-.08,2.14,2.59,2.59,0,0,1-4.71-.17A2.52,2.52,0,0,1,486.38,75.85Z"/><circle class="cls-4" cx="657.86" cy="206.82" r="24.2"/><circle class="cls-4" cx="652.43" cy="30.56" r="12.1"/><circle class="cls-4" cx="803.06" cy="111.74" r="12.1"/><path class="cls-4" d="M489.22,31.88h0c-15.92,5.56-30.76,11.82-44.83,18.29a49.68,49.68,0,1,1-11.13,5.22c-14.69,7-28.6,14.1-42.13,20.63a71.85,71.85,0,1,0,98.1-44.14Z"/><path class="cls-10" d="M440.1,46.54c2.77,10.43,14.5,10.71,34.55-2.11s37.21-16,51.48,4.71,32.45-16.72,50.52-6.07S621,57.87,623.12,40.5s-21.67-19.54-39.24-17-19-.21-30.37-8.57-41.95-21-58.19-11.6-8.4,16.78-27.05,22.38S438.11,39.07,440.1,46.54Z"/><path class="cls-11" d="M863.34,431.31c-11.92-18.72-7.54-23.88-.48-33s3.42-17.9-7.5-25.24,3.48-9.55-12.7-18.71-20.13-1.25-23.19-7.08-14.13-11-14-18.46c.11-5.15-5.9-8.42-10.63-10.93a24.65,24.65,0,0,1-4.93-3c-3.06-3-7.18-11.19-11.23-6.12-3.15,3.92,6.66,6.23,8.15,12.42,1.37,5.72,8.54,6,10.6,11.48a8.39,8.39,0,0,1,.4,1.44,68.43,68.43,0,0,1,.73,7.05c0,.08,0,.15,0,.22.08,1,.18,2,.34,2.94a11.84,11.84,0,0,0,3.28,6.91c4.47,4.52-3.1,8.56.37,22.24s13,13.33,15,25.67-6.79,28.39-13.13,30.14c-3.3.92-6.94,4-10.93,8.21-3.66,3.84-7.6,8.59-11.84,13.39-8.83,10-15.55,3.23-10.63-5.8S767,433.45,761,440.6c-4.89,5.84-5.89,21.79-11.64,31.36a17.37,17.37,0,0,1-4.67,5.28c-10.17,7.21-14.19,4.09-23.94,8.61s-14.88,13.95-26.49,12.83a45.05,45.05,0,0,0-8,.06c-12,1-27.25,5.74-28.32,12.68-1.32,8.64,31.58-8.31,38.31-4.9,3.22,1.63,6.65.46,10-1.19,3.6-1.8,7-4.18,9.87-4.14,5.4.08,12.26,8.5,22.17,5.58s10.64,9.17,22.8,9h.45c11.73-.45,12.13-13.5,23.52-13.2s12.73,1.47,21.27-6.1,44.61-15.51,51.66-29.89S875.25,450,863.34,431.31Zm-34.82-59.55c-.44-9.21-8-5.8-8.63-10.42s2.49-2.7,6.45-3.25c8.16-1.14,13,8.64,12.63,13.12S829,381,828.52,371.76Zm24.91,73.93c-4,2.51-2.67,9.2-7.08,15.39s-18.34,9.79-23.18-.92,9.75-6.17,9.84-18.05c0-7.26,7.54-11,14.15-8.43S857.4,443.16,853.43,445.69Z"/><path class="cls-12" d="M793.53,313.13l-.45.63c-3.89,5.57-32.92,46.57-59.1,72.25-.4.41-.83.82-1.25,1.23-.62.61-1.26,1.22-1.89,1.8-.14.13-.26.26-.4.37-.84.8-1.68,1.58-2.53,2.34l-.82.73c-.89.79-1.77,1.56-2.65,2.29-.28.25-.56.47-.85.71-1.24,1-2.49,2-3.72,2.93-.29.24-.57.46-.88.67-1.39,1-2.77,2-4.09,2.82-.33.2-.63.39-.95.57a38.81,38.81,0,0,1-3.72,2c-.54.25-1.06.48-1.61.68a10.72,10.72,0,0,1-1.08.39,18.8,18.8,0,0,1-7,.84c-.4,0-.78-.06-1.19-.11a23.34,23.34,0,0,1-5.93-1.69c-.38-.17-.74-.33-1.12-.52a34.55,34.55,0,0,1-4.56-2.73c-.3-.2-.62-.43-.94-.68a48.1,48.1,0,0,1-4.49-3.76c-.24-.25-.52-.51-.77-.77q-1.21-1.17-2.4-2.46a4.81,4.81,0,0,1-.36-.4c-.66-.73-1.33-1.49-2-2.26-.38-.45-.76-.92-1.15-1.4-7.88-9.71-14.28-21.59-18.25-29.8C654.58,354,653,350,653,350L652.43,336l-2.6-64.7-.78-14.16c.32.25,1,.6,1.4.84,8.78,5.91,15,16.45,22.74,28.46.22.33.42.67.64,1,.1.16.22.31.32.47a3.3,3.3,0,0,0,.27.42c1.48,2.33,2.94,4.73,4.4,7.16.17.3.35.6.53.89.7,1.17,1.39,2.34,2.07,3.53.3.49.61,1,.89,1.5,1.08,1.87,2.17,3.76,3.19,5.65.32.54.62,1.1.93,1.64,2.69,4.82,5.24,9.59,7.59,14.14.3.55.6,1.11.87,1.67C704,342.08,710.23,356,710.23,356s19.5-17.78,33.61-29.5c12.79-10.63,33.82-21.77,33.82-21.77Z"/><path class="cls-13" d="M793.08,313.76c-3.89,5.57-32.92,46.58-59.1,72.26l-1.25,1.22c-.62.61-1.26,1.23-1.89,1.8-.14.13-.26.26-.4.37-.84.8-1.68,1.58-2.53,2.34l-.82.72c-.89.8-1.77,1.56-2.65,2.3l-.85.71c-1.24,1-2.49,2-3.71,2.93-.31.24-.59.46-.89.67-1.38,1-2.77,2-4.1,2.82-.32.2-.62.39-.94.57a41.13,41.13,0,0,1-3.72,2,17.22,17.22,0,0,1-1.61.68q-.54.23-1.08.39a18.8,18.8,0,0,1-7,.84c-.4,0-.78-.06-1.19-.11a23.27,23.27,0,0,1-5.92-1.69l-1.13-.52a33.92,33.92,0,0,1-4.56-2.73c-.3-.2-.62-.43-.94-.69a45.19,45.19,0,0,1-4.48-3.75c-.24-.25-.53-.51-.79-.77-.8-.78-1.6-1.6-2.39-2.45-.12-.13-.24-.26-.36-.41-.66-.73-1.32-1.49-2-2.27-.38-.44-.76-.9-1.14-1.39C662.16,373,653,350,653,350L652.43,336l.57-6.47s26.8,60.71,41.46,58,96.71-75.35,96.71-75.35Z"/><path class="cls-14" d="M829.25,278.52s2.45,7.88-1.49,11.14a13.84,13.84,0,0,1,.33,5.51,16.92,16.92,0,0,1-5.74,10.48S803.29,317.77,790.23,317a14.11,14.11,0,0,1-5.39-1.31c-12.29-6-5.86-19.45-2.28-23.9s8.72-14.64,8.72-14.64,2.41-1.92,2.82,1.94-.49,11-.56,11.6v0h0a74.51,74.51,0,0,0,8.53-2.54h0c3.33-1.23,10.24-2.63,12.75-4.53,10.36-7.88,9.56-16.7,18.67-12.55Z"/><path class="cls-15" d="M682.31,301.37l-10.59,6.49-10.93-13.19,12.4-8.28.64,1c.1.16.22.31.32.48l-10.23,6.83,8.7,10.55,8.8-5.4C681.72,300.37,682,300.87,682.31,301.37Z"/><path class="cls-13" d="M814.83,283.62c-2.7,16.28-23.53,17.16-23.53,17.16,2.39-1.6,2.25-9.57,2.24-10.1a74.51,74.51,0,0,0,8.53-2.54h0C805.41,286.92,812.32,285.52,814.83,283.62Z"/><path class="cls-13" d="M828.09,295.17a16.92,16.92,0,0,1-5.74,10.48S803.29,317.77,790.23,317l-.31-.22s22.57-5.55,30-12A44.11,44.11,0,0,0,828.09,295.17Z"/><polygon class="cls-16" points="834.96 209.6 807.44 225.63 779.91 209.6 807.44 192.68 834.96 209.6"/><polygon class="cls-7" points="807.44 225.63 807.44 258.33 779.91 241.98 779.91 209.6 807.44 225.63"/><polygon class="cls-17" points="834.96 209.6 807.44 225.63 807.44 258.33 834.96 242.17 834.96 209.6"/><line class="cls-18" x1="781.6" y1="260.48" x2="752.89" y2="227.9"/><line class="cls-18" x1="773.77" y1="226.18" x2="763.33" y2="204.54"/><line class="cls-18" x1="781.69" y1="275.27" x2="758.82" y2="253.09"/><line class="cls-18" x1="826.42" y1="264.35" x2="854.6" y2="231.3"/><line class="cls-18" x1="841.96" y1="229.65" x2="851.29" y2="214.39"/><line class="cls-18" x1="848.88" y1="251.72" x2="864.08" y2="236.65"/><path class="cls-19" d="M297.88,502.89c-21.53,19.09-135.26,14.86-185,6.13-13.8-2.42-22.68-5.19-23.34-7.89-3-12.49,3.35-18.59,3.35-18.59s5.54-.19,14.81-.46c45.35-1.34,179.84-4.67,189.51,2.49C305.14,490.46,297.88,502.89,297.88,502.89Z"/><path class="cls-20" d="M299,425.28c0,1,0,1.91,0,2.87-.19,8.71-.41,16.79-.62,24s-.43,13.41-.62,18.47c-.33,8.82-.56,14-.56,14-2.63.44-5.23.87-7.8,1.27C278.43,487.57,268,489,258,490.18c-19.42,2.29-37,3.59-52.77,4.16q-4.2.17-8.23.24c-16.77.37-31.37-.09-43.91-1A285.39,285.39,0,0,1,107.68,487a105.13,105.13,0,0,1-14.84-4.44C89.61,461,89.41,420.33,90,387c.18-11.84.45-22.77.72-31.59s.51-15.44.65-18.9c.05-1.36.09-2.22.11-2.52v-.11l-2.82,0c-9.73.1-42.27.29-59.31-1.79l-1.56-.2h-.11l-.44-.07-.35,0c-.26,0-.51-.1-.77-.12l-.43-.08-.3-.06h-.1l-.19,0-.38-.07h0l-.66-.13-.3-.07h0a.45.45,0,0,1-.16,0l-.15,0c-.43-.09-.83-.2-1.21-.29s-.58-.17-.82-.26a4.76,4.76,0,0,1-.57-.19l-1.6-.62-.35-.13c-.27-.1-.54-.2-.81-.33l-.41-.16c-.42-.17-.85-.35-1.27-.54a41.14,41.14,0,0,1-3.9-1.91l-.87-.51-.32-.2-.11-.06-.31-.2c-.23-.15-.45-.29-.67-.46a6.33,6.33,0,0,1-.71-.48c-.73-.53-1.43-1.09-2.13-1.71-.23-.22-.45-.42-.67-.65l-.38-.37c-.32-.34-.65-.69-1-1.05l-.12-.17a1.64,1.64,0,0,1-.27-.32l-.08-.08,0,0c-.09-.13-.2-.26-.3-.39h0a22.09,22.09,0,0,1-1.84-2.88l-.51-1.07a20.67,20.67,0,0,1-.85-2.21s0-.08,0-.1c-.06-.21-.13-.42-.18-.62A.6.6,0,0,1,1,313c0-.1-.05-.19-.07-.27a1.42,1.42,0,0,1-.05-.16A29,29,0,0,1,0,305a5.15,5.15,0,0,1,0-.56,5.74,5.74,0,0,1,0-.6v-.08a41.21,41.21,0,0,1,.44-4.59c.09-.66.22-1.32.35-2,0-.16.05-.3.08-.47a.11.11,0,0,0,0-.05c.06-.22.1-.44.15-.66s.14-.65.2-1,.15-.64.23-1a.26.26,0,0,0,0-.08c.07-.31.15-.62.23-.93.2-.78.43-1.57.69-2.39.1-.4.22-.79.35-1.16.39-1.22.8-2.44,1.27-3.72.09-.23.18-.47.26-.71s.15-.39.23-.58.07-.22.12-.33l.12-.32a4.65,4.65,0,0,0,.2-.52.09.09,0,0,0,0-.06c.07-.15.12-.29.18-.44.13-.34.28-.69.43-1,.27-.69.56-1.36.87-2.08l0-.07a.46.46,0,0,1,.07-.14c.13-.31.27-.61.41-.95v0h0c.51-1.15,1-2.33,1.64-3.54l.12-.26c0-.09.09-.19.15-.3q.38-.81.81-1.65c.16-.33.33-.66.51-1,.28-.55.58-1.13.89-1.71C35.77,223.6,115,165.49,115,165.49a.65.65,0,0,1,.39-.18c.55-.09,1.83.07,4.46,1.86a58.37,58.37,0,0,1,7.74,6.65,83.34,83.34,0,0,1,8.62,9.8,43.92,43.92,0,0,1,4.22,6.86,13.51,13.51,0,0,1,.57,1.26c-8.78,18.67-27.12,38.29-42.3,52.52C85.43,256.68,74.57,265,74.57,265c5.88.41,2.4,5.43,2.14,5.79A127.48,127.48,0,0,1,89,263.12c.74-.41,1.48-.8,2.21-1.19l.16-.08c.8-.42,1.61-.83,2.42-1.24,1.07-.54,2.15-1.06,3.21-1.55,1.79-.85,3.55-1.63,5.3-2.37l1.2-.49c1.18-.49,2.35-1,3.51-1.4,2-.8,4-1.51,5.9-2.17l.83-.28,1-.34h.07a.14.14,0,0,1,.1,0l.14-.06c4-1.3,7.68-2.37,10.9-3.2,5.44-1.41,15.38-3.79,21.48-5.18,2.66-.61,4.6-1,5.1-1.09,2.19-.29,4.58-.57,7.14-.85,22.33-2.39,57.1-4.18,76-5.05l8.2-.36L249,236a15.28,15.28,0,0,1,6.69,1,6.52,6.52,0,0,1,4.07,6.71,103.14,103.14,0,0,1,15.12,3.3,57.25,57.25,0,0,1,6.19,2.23,40.47,40.47,0,0,1,4.2,2.05,28.6,28.6,0,0,1,3.27,2.15v0h0s.12.09.22.19.09.07.13.09a.7.7,0,0,1,.16.14,13.79,13.79,0,0,1,1.13,1,7.56,7.56,0,0,1,1.09,1.36c.13.37.23.76.34,1.17.54,1.87,1,3.93,1.5,6.18,0,0,0,.05,0,.09q.6,2.85,1.12,6.09c.37,2.34.72,4.82,1.06,7.42.18,1.38.34,2.8.51,4.27.77,6.86,1.4,14.48,1.9,22.62q.21,3.45.39,7c.11,2,.2,4,.3,6,0,1.12.09,2.25.13,3.38.45,10.89.7,22.35.85,33.93C299.75,378.86,299.46,403.82,299,425.28Z"/><polygon class="cls-21" points="190.62 281.29 181.27 371.98 219.47 371.98 204.41 281.29 190.62 281.29"/><path class="cls-22" d="M289.37,485.83C278.43,487.57,268,489,258,490.18c-19.42,2.29-37,3.59-52.77,4.16q-4.2.17-8.23.24L193.7,350.24s57.61-55.76,63.85-86.06C262.92,238.08,283.4,437.28,289.37,485.83Z"/><polygon class="cls-23" points="193.7 350.24 228.22 340.3 232.11 307.89 193.7 350.24"/><path class="cls-24" d="M153.11,493.59A286.76,286.76,0,0,1,107.68,487a104,104,0,0,1-14.84-4.45C89.61,461,89.41,420.33,90,387c3.36,28.38,9.7,62.42,21.19,71.66C125.47,470.17,144.1,474.56,153.11,493.59Z"/><path class="cls-25" d="M299,425.29c0,1,0,1.91-.07,2.86h0c-.38,17.4-.86,32.31-1.23,42.41a31.49,31.49,0,0,1-1.33-13.3c2.39-24.33-33-56.47-38.38-90-3-18.65,8.9-55.13,8.9-55.13,14.87-4.72,25.27,14.79,32.54,42.36C299.74,378.86,299.47,403.82,299,425.29Z"/><circle class="cls-26" cx="240.28" cy="260.01" r="3.62"/><path class="cls-27" d="M241.57,332.23l-1.79-.36c0-.19,3.75-19.29-3.56-36.94-7.63-18.38,3.6-34.44,3.72-34.6l1.48,1.06c-.11.15-10.74,15.41-3.52,32.84C245.44,312.41,241.61,332,241.57,332.23Z"/><path class="cls-28" d="M147.41,181.43A13.46,13.46,0,0,1,146,185.9s0,0,0,0a9.53,9.53,0,0,1-3.56,3.74,8.24,8.24,0,0,1-2,.82,10.15,10.15,0,0,1-2.64.41L119.5,168.74a10.24,10.24,0,0,1,.34-1.57c.75-2.58,3.08-7.39,10-6.75l14.24,17,3,3.62Z"/><path class="cls-29" d="M205.25,494.34a476,476,0,0,1-52.14-.76A285.39,285.39,0,0,1,107.68,487a105.13,105.13,0,0,1-14.84-4.44C89.61,461,89.41,420.33,90,387c.18-11.84.45-22.77.72-31.59s.51-15.44.65-18.9c.05-1.36.09-2.22.11-2.52v-.11l-2.82,0h0c-9.74.11-42.28.3-59.3-1.77l-1.57-.21h-.11l-.43-.07-.36,0-.76-.12-.44-.07h-.07l-.22,0-.11,0-.19,0-.37-.07h0l-.67-.13-.2,0-.12,0h0l-.15,0-.16,0c-.43-.09-.84-.2-1.22-.3l-.82-.24-.56-.2-1.59-.62h0l-.35-.13-.81-.32-.42-.17-1.26-.53c-1.28-.56-2.6-1.19-3.9-1.92l-.86-.51-.33-.2-.1-.06-.32-.2c-.23-.14-.45-.29-.68-.45s-.47-.32-.7-.49a22.59,22.59,0,0,1-2.13-1.72c-.23-.2-.45-.41-.67-.63l-.38-.38c-.32-.34-.65-.69-1-1.05l-.13-.16a3,3,0,0,1-.27-.33l-.08-.08,0,0c-.1-.14-.21-.27-.31-.4h0a20.5,20.5,0,0,1-1.82-2.89c-.18-.35-.35-.7-.52-1.06a20.67,20.67,0,0,1-.85-2.21,1,1,0,0,0,0-.1h0c-.07-.2-.12-.41-.18-.61a1.17,1.17,0,0,1-.06-.2,2.5,2.5,0,0,1-.07-.26,1.09,1.09,0,0,1-.05-.17A28.46,28.46,0,0,1,0,305c0-.19,0-.38,0-.56s0-.4,0-.6v-.08h0a41,41,0,0,1,.44-4.59c.1-.65.22-1.32.34-2l.09-.47,0-.05c0-.22.09-.44.14-.66s.13-.64.21-1,.14-.64.23-1a.24.24,0,0,1,0-.08c.07-.3.15-.61.23-.93.2-.77.43-1.57.68-2.4.12-.38.23-.77.36-1.16.38-1.2.8-2.44,1.28-3.71.08-.23.17-.48.26-.71s.14-.39.22-.58a2.67,2.67,0,0,1,.12-.33l.12-.31.21-.53s0,0,0-.06l.18-.44c.13-.34.27-.69.42-1,.28-.68.57-1.36.88-2.06,0,0,0-.05,0-.08l.06-.14c.14-.31.28-.61.42-.94a0,0,0,0,1,0,0q.76-1.73,1.65-3.54c0-.08.08-.17.12-.26l.14-.29c.26-.54.54-1.1.82-1.66.16-.33.33-.66.5-1l.89-1.72C35.77,223.6,115,165.49,115,165.49a.69.69,0,0,1,.4-.18c.55-.1,1.83.07,4.46,1.86a59,59,0,0,1,7.74,6.65,80.53,80.53,0,0,1,8.61,9.81,44.61,44.61,0,0,1,4.24,6.84,11.73,11.73,0,0,1,.55,1.27C124.54,226.72,74.57,265,74.57,265c6.1.41,2.13,5.79,2.13,5.79A124.62,124.62,0,0,1,89,263.12c.74-.41,1.48-.8,2.21-1.19l.16-.08c.8-.42,1.61-.84,2.42-1.24,1.07-.53,2.14-1,3.21-1.54h0l.71-.33.75-.34c1.29-.59,2.57-1.16,3.84-1.7l.6-.24.6-.25q1.77-.75,3.51-1.41c.87-.34,1.72-.66,2.57-1l3.33-1.19.83-.28,1-.34h.07a.14.14,0,0,1,.1,0l.14-.06c4-1.3,7.68-2.37,10.9-3.2,5.44-1.41,15.38-3.79,21.48-5.18.7,4.09,10.62,59.3,30.39,84.47,3.91,5,7.22,9.46,10,13.46v0c11.86,17,14.39,25.13,14.39,25.13Z"/><circle class="cls-30" cx="192.62" cy="369.7" r="3.1"/><circle class="cls-31" cx="192.62" cy="419.35" r="3.1"/><circle class="cls-32" cx="192.62" cy="469.01" r="3.1"/><path class="cls-33" d="M193.7,350.24S157.05,330.38,156.22,330s2-12.59,2-12.59l-19.74-22.56,9-51.33c.7,4.09,10.62,59.3,30.39,84.47,3.91,5,7.22,9.46,10,13.46Z"/><path class="cls-34" d="M150.2,174.31c-.87,2.32-1.61,4.21-2.11,5.47-.42,1.05-.68,1.65-.68,1.65l-.31-.31-3.38-3.21-15.23-14.5,1.37-3s-.29-7,14.65-17.49c1.58-1.1,3.33-2.25,5.28-3.44C165.43,130,155.56,160,150.2,174.31Z"/><path class="cls-35" d="M146.09,183.59s-20.79-65.71,27.4-65.71c50,0,83.9,3.13,96.08-2.75a1.41,1.41,0,0,1,1.87,1.87c-5,11-17.11,34.23-31.16,34.73,0,0,8.39,1.91,24-7.29A2.41,2.41,0,0,1,267.9,147c-1.3,6.5-5.77,18.46-20.89,31.36-22.62,19.28-20.62,28.84-20.62,28.84l-70.93-14.83Z"/><path class="cls-36" d="M235.7,236.53a31.27,31.27,0,0,1-1,3.63c-3.32,9.72-11.85,19.38-34.4,20.58-21.09,1.13-33.12-6.5-38.33-14.55a20.64,20.64,0,0,1-2.26-4.61C182,239.19,216.8,237.4,235.7,236.53Z"/><path class="cls-37" d="M234.69,240.17c-3.32,9.71-11.84,19.37-34.4,20.58-9.92.52-17.84-.88-24-3.36-6.92-2.79-11.6-6.93-14.35-11.19l.15-.08c6-2.79,5.78-13.76,5.18-19.61-.23-2.25-.51-3.74-.51-3.74l14.8-.79,24.5-1.28,9.49-.49,9.09-.49c.12,1.1.25,2.13.39,3.12h0C227.1,236.85,231.56,239.89,234.69,240.17Z"/><path class="cls-38" d="M243.9,235.73c-3.15,31.54-43.51,31.79-66.05,29.09C162.49,263,155.47,250,152.56,242c2.19-.29,4.58-.57,7.14-.85l.74-.08c2.76,6.76,8.7,16.19,20.65,17.62,18.51,2.22,51.29,2.07,55.3-22.62Z"/><path class="cls-39" d="M180.84,256.39l16.3,8.58s-.81,5.17-1.19,4.68-20.58-5.24-20.58-5.24Z"/><polygon class="cls-40" points="199.91 263.27 203.06 268.46 226.14 260.86 219.47 255.13 199.91 263.27"/><path class="cls-41" d="M204.41,281.29H190.62l-4.52-17a3.14,3.14,0,0,1,3-3.94h18.25a2.9,2.9,0,0,1,2.75,3.81Z"/><path class="cls-42" d="M198.75,260.86s39-20.35,29.23-26.87c0,0,20.86-2.7,19.54,6.3s-24.38,33.5-24.38,33.5S221.1,257.58,198.75,260.86Z"/><path class="cls-43" d="M219.47,220.61s-14.24,32-43.16,36.78c-6.92-2.79-11.6-6.93-14.35-11.19l.15-.08c6-2.79,5.78-13.76,5.18-19.61-.23-2.25-.51-3.74-.51-3.74l14.8-.79,24.5-1.28,9.49-.49Z"/><path class="cls-44" d="M198.75,260.86s-22.29-6.59-22.91,11.76c0,0-31.61-12.39-23.28-30.19,2-4.32,14.11-9.5,14.61-4.92C168.72,251.73,198.75,260.86,198.75,260.86Z"/><path class="cls-45" d="M347.56,398.48a61.4,61.4,0,0,1-1.38,6.09h0c-.41,1.45-.88,2.86-1.4,4.23-.46,1.2-1,2.37-1.51,3.5-.39.82-.8,1.62-1.25,2.39a37.83,37.83,0,0,1-2.34,3.66c-.59.83-1.22,1.64-1.88,2.43a38.33,38.33,0,0,1-3.93,4,41.18,41.18,0,0,1-4.12,3.28,51.16,51.16,0,0,1-6,3.56,21.28,21.28,0,0,1-9.95,2.48,18.2,18.2,0,0,1-3.05-.26,20.59,20.59,0,0,1-4-1.1c-.54-.2-1.09-.43-1.61-.68-.76-.35-1.5-.75-2.25-1.18l-.24-.15a29.28,29.28,0,0,1-2.82-1.92l-.86-.69h0c-.82-.66-1.6-1.36-2.39-2.13a47.1,47.1,0,0,1-3.24-3.46,2.09,2.09,0,0,1-.14-.17c-17.09-20.29-27.95-63.62-23.94-104.07l7.85-6.2,16.29-12.87-2.7-25.73-2.11-20.08,0,0s.11.08.21.18l.13.1.17.13c4.25,3.45,32,26.74,46.19,57.86a98.87,98.87,0,0,1,5.51,15.09c.6,2.22,1.12,4.47,1.54,6.74.26,1.42.52,2.84.77,4.24,2.52,13.78,4.65,26.81,5.32,38.66A97.33,97.33,0,0,1,347.56,398.48Z"/><path class="cls-13" d="M293.19,422.39c-17.09-20.29-27.95-63.62-23.94-104.07l7.85-6.2,7.25,3.26s-5.17,72.71,6.69,94.13A18.89,18.89,0,0,1,293.19,422.39Z"/><path class="cls-46" d="M346.18,404.57h0c-.41,1.45-.88,2.86-1.4,4.24-.46,1.19-1,2.35-1.51,3.49-.39.81-.81,1.61-1.25,2.39a37.83,37.83,0,0,1-2.34,3.66c-.59.83-1.22,1.64-1.88,2.43a39.4,39.4,0,0,1-3.93,4.05,42.59,42.59,0,0,1-4.12,3.27,50.61,50.61,0,0,1-6,3.56,20.57,20.57,0,0,1-13,2.21,19.88,19.88,0,0,1-4-1.09c-.55-.2-1.08-.43-1.61-.68-.76-.35-1.5-.75-2.24-1.18l-.25-.15h0a28,28,0,0,1-2.81-1.92c-.3-.23-.59-.45-.88-.69-.81-.66-1.6-1.37-2.39-2.13l2.34-.7L300,425l.06,0,1.22-.38.24-.08.75-.24c.35-.1.7-.22,1.06-.34l1.33-.43.09,0,1.09-.36,1.1-.36.82-.28,1.57-.54,1.6-.56c.81-.28,1.64-.58,2.46-.89l.14,0c.79-.29,1.59-.58,2.39-.89.56-.2,1.13-.42,1.7-.64l1.61-.63c.9-.35,1.81-.71,2.72-1.09l1.28-.52c2.48-1,5-2.11,7.39-3.26.86-.4,1.71-.81,2.55-1.22s1.67-.84,2.49-1.27l.12-.06c.78-.4,1.55-.81,2.3-1.23,1-.58,2.06-1.17,3-1.75l1.55-1,.72-.46,1.41-.93Z"/><path class="cls-47" d="M344.78,408.81c-.46,1.19-1,2.35-1.51,3.49-.39.81-.81,1.61-1.25,2.39-13.6,9.76-29.86,14.2-39.37,16.08h0a28,28,0,0,1-2.81-1.92c-.3-.23-.59-.45-.88-.69C309.89,424.86,331,417.81,344.78,408.81Z"/><path class="cls-48" d="M346.18,404.57c-.41,1.45-.88,2.86-1.4,4.23-13.79,9-34.89,16.06-45.81,19.36-.82-.66-1.61-1.37-2.4-2.14.72-.2,1.51-.44,2.34-.69L300,425l.06,0,1.22-.38.23-.08.76-.23,1.06-.34,1.33-.44a.32.32,0,0,0,.09,0c.37-.11.72-.23,1.09-.36s.73-.23,1.1-.37.55-.17.82-.27l1.57-.54,1.6-.57c.81-.27,1.63-.57,2.46-.88a.57.57,0,0,0,.14,0c.79-.29,1.59-.58,2.39-.89.56-.21,1.13-.42,1.7-.65s1.08-.4,1.61-.62c.9-.35,1.81-.72,2.72-1.09l1.28-.52c2.48-1,5-2.11,7.39-3.26q1.29-.6,2.55-1.23c.84-.41,1.66-.83,2.49-1.25l.12-.06c.78-.41,1.55-.83,2.3-1.24,1-.58,2.06-1.16,3-1.75.53-.32,1-.64,1.54-1,.25-.14.49-.3.73-.46.48-.31.95-.62,1.41-.94S345.74,404.89,346.18,404.57Z"/><path class="cls-49" d="M337.8,420.78a39.4,39.4,0,0,1-3.93,4.05,42.59,42.59,0,0,1-4.12,3.27,98.35,98.35,0,0,1-19,5.77,19.88,19.88,0,0,1-4-1.09c-.55-.2-1.08-.43-1.61-.68C313.45,430.36,327,426.85,337.8,420.78Z"/><path class="cls-50" d="M340.83,326.82l-15.37,7.59c-2.57-7-4.88-15-4.88-15l14.74-7.73c.45,1,.88,2,1.3,3l-11.57,5.88s1.18,3.74,3.28,9.43l11.78-5.68Q340.49,325.56,340.83,326.82Z"/><path class="cls-51" d="M348.46,376.46a20.09,20.09,0,0,1-5.94-1,65.31,65.31,0,0,0-6.55-17.7c-1.83-3.4-3.47-6.73-4.92-9.88a19.73,19.73,0,0,1,12.09-10.1C345.66,351.58,347.79,364.61,348.46,376.46Z"/><path class="cls-52" d="M263.46,308.43s-1.22,7.46,5.79,9.9,24.83,3.81,34,1.37,13.4,5,17.36,3.81,11-12.95,8.23-17.06l-25.74,4.87L288,310.71S267.12,301.27,263.46,308.43Z"/><path class="cls-53" d="M239.41,330.48l1.66.3a3.12,3.12,0,0,1,2.55,3.46l-1.06,8.34a3.13,3.13,0,0,1-3.73,2.67l-3.24-.67a3.12,3.12,0,0,1-2.33-4l2.64-8A3.12,3.12,0,0,1,239.41,330.48Z"/><path class="cls-54" d="M259.8,243.69a4.59,4.59,0,0,1,.09,1.38,6.38,6.38,0,0,1-.25,1.36,4.87,4.87,0,0,1-.57,1.28,2.28,2.28,0,0,1-1,.95,6,6,0,0,0,.52-1.21c.14-.4.27-.81.38-1.23A20.51,20.51,0,0,1,259.8,243.69Z"/><path class="cls-55" d="M74.57,265c-1.11.5-2.19.89-3.25,1.34-.53.22-1,.47-1.57.71s-1,.52-1.58.8A6.41,6.41,0,0,1,71,265.67a10.19,10.19,0,0,1,1.73-.53A6.77,6.77,0,0,1,74.57,265Z"/><path class="cls-56" d="M76.7,270.8a.41.41,0,0,1,.07.39,1.17,1.17,0,0,1-.16.36,2.85,2.85,0,0,1-.49.59,6.36,6.36,0,0,1-1.22.85,7.59,7.59,0,0,1-2.77.86,8.58,8.58,0,0,1,1.2-.83c.4-.24.82-.46,1.22-.69s.82-.43,1.22-.65c.19-.12.4-.23.57-.36S76.71,271.05,76.7,270.8Z"/><path class="cls-57" d="M247,184.18c0,16.65-11.38,11.37-11.38,11.37v12.24a28.71,28.71,0,0,1-.94,8.83c-1.15,3.7-14.15,10.58-24.85,18.45a24.37,24.37,0,0,1-27.31,1c-10.34-6.43-23.22-14.59-24.64-16.23a18.35,18.35,0,0,1-4.51-12.08V197c-5.88.76-9.6-2.18-11-7.32a20.36,20.36,0,0,1-.59-6.08,9.45,9.45,0,0,1,1.92-5.66,2.67,2.67,0,0,1,.38-.45,6.06,6.06,0,0,1,.55-.58,11.16,11.16,0,0,1,4.94-2.54,1.79,1.79,0,0,1,.61,0,1.68,1.68,0,0,1,1.39,1.23l3.29,12.11a4.39,4.39,0,0,0,4.23,3.23h1.78V160.32a4.78,4.78,0,0,1,4.78-4.78h56.74a7.13,7.13,0,0,1,7.13,7.14v28.6h1.12a3.75,3.75,0,0,0,3.7-3.09l1.84-10.26a5.2,5.2,0,0,1,3.59-4.07,4.9,4.9,0,0,1,3.94.24C245.55,175.14,247,177.93,247,184.18Z"/><path class="cls-58" d="M164.62,167.32l1.74,5.44s8.17-7.3,18.27-2.11l.77-7.4S172.19,159.22,164.62,167.32Z"/><path class="cls-59" d="M223.2,166.86l-1.5,5.52s-8.48-6.94-18.34-1.31l-1.1-7.36S215.29,159.11,223.2,166.86Z"/><path class="cls-60" d="M364.81,275.06a3.1,3.1,0,0,0-1,2.44c.1,3.64,5.16,8.2,0,11-6.4,3.46-8.79,4.16-15.11,4.57s-11.09,6.4-16,6.2c-2-.09-6.68,1.13-11.44,2.58-6.76,2.07-13.75,4.63-13.75,4.63l-26-6.25-4.88-15.09s10-5.43,14.78-3.34,20-9.14,27.26-5.48,23.47-1.36,28.64,4c0,0,9.44-18.36,16.76-17.13a8,8,0,0,1,1.89.52c3.12,1.29,3.28,4.17,2.05,7A14,14,0,0,1,364.81,275.06Z"/><path class="cls-61" d="M364.81,275.06a3.1,3.1,0,0,0-1,2.44c.1,3.64,5.16,8.2,0,11-6.4,3.46-8.79,4.16-15.11,4.57s-11.09,6.4-16,6.2c-2-.09-6.68,1.13-11.44,2.58,3.49-9.46,20.47-8.89,35.5-21.2,9.69-7.94,10.35-13.57,9.16-16.91,3.12,1.29,3.28,4.17,2.05,7A14,14,0,0,1,364.81,275.06Z"/><path class="cls-62" d="M273.82,310.2c-17.37-.63-16.05-11.47-22.65-16.35C247,290.73,240.51,281.41,236.4,274a57.13,57.13,0,0,1-3.18-6.55,9,9,0,0,1-.73-2.73,4.81,4.81,0,0,1,2.68-4.15c3-1.57,8.24-.26,13.26,10.44,7.82,16.66,19,17,19,17l1.15,4Z"/><path class="cls-61" d="M268.57,292c-7.6,2.85-18.56-13.3-26-19.77a22.94,22.94,0,0,1-7.41-11.64c3-1.57,8.24-.26,13.26,10.44,7.82,16.66,19,17,19,17Z"/><path class="cls-63" d="M333.23,300.66c-.51,5.74-9.24,14.92-14.63,15.54-4.11.46-7.48-2.1-10.19-3.06a4.39,4.39,0,0,0-2.32-.3c-1.91.39-3.66,2.22-5.71,3.45l-4,1.12c-4-.3-25.62-2.54-29.28-14s-2.44-42.75.6-49,5.69-7.62,8.84-7.41c7.93.51,6.5,11,4.88,15.74s-1.28,29.55,1.23,32.29a16.27,16.27,0,0,0,4.86,3.76s1-40,3.81-49.46c2.48-8.42,4.69-9.9,7.67-9.9.36,0,.73,0,1.11,0,3.55.3,7.72.51,7.62,19.5s1,41.43.81,44.58v-.05a13.69,13.69,0,0,1,3.65-6.75c2.84-2.54,2.74-33.11,6.8-39.51,2.09-3.29,5.8-5.7,9.16-5.46,3.16.22,6,2.78,6.89,9.13C336.89,274,333.73,294.92,333.23,300.66Z"/><path class="cls-64" d="M367.94,270.68a14,14,0,0,1-3.13,4.39,3.07,3.07,0,0,0-1,2.43,6.15,6.15,0,0,1-2.16-.84c-2.21-1.44-1.75-7.76,1.3-6.4A8.35,8.35,0,0,0,367.94,270.68Z"/><path class="cls-64" d="M322,257.85s2.36-3.12,8.3,0c0,0,.31,10.67-3.2,11.2S320.74,268.14,322,257.85Z"/><path class="cls-64" d="M240.05,273.9a2.85,2.85,0,0,1-3.64.09,55.78,55.78,0,0,1-3.19-6.55l3.44-1.82S243.71,271.26,240.05,273.9Z"/><path class="cls-64" d="M294.48,245.62s4.78-3.05,9.14,0c0,0,2.54,11.27-2.59,12.49S293.88,254.25,294.48,245.62Z"/><path class="cls-64" d="M273.16,253.43s2,1.73,6.65,1.22c0,0-.2,8.74-4.37,8.74S270.42,257.17,273.16,253.43Z"/><circle class="cls-65" cx="177.85" cy="179.33" r="4.27"/><circle class="cls-7" cx="179.86" cy="177.92" r="1.41"/><circle class="cls-65" cx="208.58" cy="179.33" r="4.27"/><rect class="cls-66" x="164.99" y="167.19" width="25.73" height="22.32" rx="9.31" ry="9.31"/><rect class="cls-66" x="195.72" y="167.19" width="25.73" height="22.32" rx="9.31" ry="9.31"/><circle class="cls-7" cx="209.99" cy="177.92" r="1.41"/><path class="cls-7" d="M155.46,201.34s3.12-6.5,14.16-7.85a3.45,3.45,0,0,1,3.71,2.43h0a3.47,3.47,0,0,1-2.18,4.3c-3.84,1.31-10.09,3.79-12.65,6.75Z"/><path class="cls-7" d="M214.2,195.11h0a3.81,3.81,0,0,0,3.52,4.25c3.4.21,8.19,1.19,11.35,4.62l3-8.22a29.64,29.64,0,0,0-14-4A3.82,3.82,0,0,0,214.2,195.11Z"/><path class="cls-65" d="M208.58,204.21a15.25,15.25,0,0,1-3.74,9.14c-2,2.14-5.15,3.81-10,3.81-5.21,0-8.44-1.83-10.45-4.06a13.76,13.76,0,0,1-3.24-8Z"/><path class="cls-67" d="M149.62,178.35,152,192.93s-5.18-1.46-6-6.49S149.62,178.35,149.62,178.35Z"/><path class="cls-68" d="M240,177.77l-2.31,14.59s5.17-1.49,6-6.53S240,177.77,240,177.77Z"/><path class="cls-69" d="M204.84,213.35c-2,2.14-5.15,3.81-10,3.81-5.21,0-8.44-1.83-10.45-4.06a20.11,20.11,0,0,1,10-2.42A19.81,19.81,0,0,1,204.84,213.35Z"/><path class="cls-70" d="M343.28,390.53a39.8,39.8,0,0,0,0-8.93,56.85,56.85,0,0,0-1.65-8.78,69.34,69.34,0,0,0-2.88-8.44c-1.16-2.75-2.52-5.39-3.92-8A175.75,175.75,0,0,1,327.33,340a138.85,138.85,0,0,1-5.6-17.06c.87,2.86,1.82,5.69,2.87,8.5s2.1,5.59,3.26,8.34c2.29,5.52,4.8,11,7.59,16.23,1.38,2.64,2.74,5.34,3.89,8.12a61.63,61.63,0,0,1,2.81,8.56A45.22,45.22,0,0,1,343.28,390.53Z"/><path class="cls-61" d="M333.23,300.66c-.51,5.74-9.24,14.92-14.63,15.54-4.11.46-7.48-2.1-10.19-3.06.45-2.56,1.64-4.23,4.33-2.94,7,3.38,11.7-9,16.69-20.92,4-9.55.35-29.83-1.26-37.55,3.16.22,6,2.78,6.89,9.13C336.89,274,333.73,294.92,333.23,300.66Z"/><path class="cls-61" d="M308.55,303.5s-4.61,8.47-8.17,12.79l-4,1.12c-.89-6.72.9-11.29,6.58-18.07s-1.7-35.56,0-44.93c1.11-6.1-1.81-11.81-4-15,.36,0,.73,0,1.11,0,3.55.3,7.72.51,7.62,19.5S308.76,300.35,308.55,303.5Z"/><path class="cls-71" d="M115.29,251.84l-.2.06-.15,0-.1,0-.06,0-1,.34-.83.29c-1.91.66-3.88,1.37-5.9,2.15-1.16.45-2.33.91-3.51,1.41l-1.2.5c-2.78,1.17-5.64,2.48-8.51,3.92-.81.4-1.62.81-2.42,1.23l-.16.08c-.73.39-1.47.78-2.21,1.19A124.62,124.62,0,0,0,76.7,270.8s4-5.38-2.13-5.79c0,0,50-38.28,66.41-73.27a12.9,12.9,0,0,0-.55-1.27,45.1,45.1,0,0,0-4.24-6.84c-4.22,11.28-15.47,37.72-32.15,50C82.51,249.5,52.85,267.88,67,274.6c7.66,3.64,23.94-3.51,37.25-10.84,11.27-6.18,20.4-12.49,20.4-12.49l4.67-3.4Z"/><path class="cls-24" d="M98.43,338.68c-1.86,5.63-4.87,11.15-7.76,16.73.26-8.76.51-15.45.65-18.91.05-1.36.09-2.22.1-2.52a.41.41,0,0,0,0-.11s-42,.72-62.12-1.74l-1.57-.2-.11,0-.43-.06-.36-.06-.76-.11-.44-.08h-.07l-.22,0-.11,0-.19,0-.37-.07h0l-.67-.13-.2,0-.12,0h0l-.15,0a.76.76,0,0,1-.16,0c-.43-.1-.84-.2-1.22-.31l-.82-.24-.56-.2c-.51-.19-1.05-.39-1.59-.62h0a3,3,0,0,1-.35-.13l-.81-.32-.42-.17-1.26-.53c-1.28-.56-2.6-1.19-3.9-1.92l-.86-.5-.33-.2-.1-.06-.32-.2-.68-.46c-.23-.15-.47-.31-.7-.49a24.16,24.16,0,0,1-2.13-1.71l-.67-.64-.38-.38c-.32-.33-.65-.69-1-1.05a1,1,0,0,1-.13-.16,4.15,4.15,0,0,1-.27-.32l-.08-.09,0,0-.31-.4h0a20.84,20.84,0,0,1-1.82-2.89c-.18-.35-.35-.69-.52-1.06a20.67,20.67,0,0,1-.85-2.21s0-.07,0-.1h0c-.07-.2-.12-.4-.18-.6S1,313,1,313a2.68,2.68,0,0,1-.07-.27,1,1,0,0,1-.05-.16A28.54,28.54,0,0,1,0,305c0-.18,0-.38,0-.56s0-.4,0-.6v-.07h0a41.15,41.15,0,0,1,.44-4.6c.1-.65.22-1.32.34-2l.09-.46,0-.06c0-.22.09-.44.14-.66s.13-.64.21-1,.14-.64.23-1a.31.31,0,0,1,0-.08c.07-.3.15-.61.23-.92.2-.78.43-1.58.68-2.4.12-.39.23-.78.36-1.17.38-1.2.8-2.43,1.28-3.71.08-.23.17-.47.26-.71s.14-.39.22-.58.07-.21.12-.32l.12-.32.21-.53s0,0,0-.06l.18-.43c.13-.35.27-.69.42-1,.28-.69.57-1.37.88-2.07a.41.41,0,0,1,0-.08,1,1,0,0,0,.06-.14c.14-.31.28-.61.42-.94a0,0,0,0,1,0,0H7q.76-1.73,1.65-3.54c0-.08.08-.17.12-.26s.09-.19.14-.29c.26-.54.54-1.09.82-1.66l.5-1,.89-1.72C35.77,223.6,115,165.49,115,165.49a.63.63,0,0,1,.39-.18c-17.75,14.9-87.21,74.36-97,101.11C7.15,297.15,1.56,326.71,48.82,326.24c22.13-.21,35.43-.62,42.84.47C100.09,328,100.92,331.12,98.43,338.68Z"/><path class="cls-72" d="M613.88,201.33c0,1.15,0,2.29,0,3.45a191.21,191.21,0,0,1-6.12,42.95,236.84,236.84,0,0,1-17.29,47.12l-53.29-12.76-6.36-22.26L528,250l-7-24.63a92.33,92.33,0,0,1-3.37-31.19,90.37,90.37,0,0,1,25.6-57.87c1.14-1.15,2.23-2.2,3.26-3.13l.1-.08c1.46-1.32,3-2.57,4.57-3.73,13.77-10.15,31.23-13.31,47.17,12.62q2.33,3.78,4.6,8.41a108.18,108.18,0,0,1,10,34.92A136.5,136.5,0,0,1,613.88,201.33Z"/><circle class="cls-7" cx="570.77" cy="136.42" r="11.1"/><path class="cls-73" d="M545,180.55h0a1.85,1.85,0,0,0,2.69.84,10.37,10.37,0,0,1,7.18-1.67,2.15,2.15,0,0,0,2.48-2.1h0a2.15,2.15,0,0,0-2-2.17c-2.55-.14-6.93.12-9.94,3.07A1.86,1.86,0,0,0,545,180.55Z"/><path class="cls-74" d="M618.59,179.69a67.78,67.78,0,0,1-4.74,25.09c-4.53,11.13-12.22,19.83-22.49,24.84-1.14.55-2.31,1.06-3.5,1.52a48,48,0,0,1-10.55,2.74h0a58.67,58.67,0,0,1-12.72.33l-2.25-.17a55.88,55.88,0,0,1-8.53-1.32c-1-.23-2-.49-3-.78h0a40.28,40.28,0,0,1-4-1.35c-15.61-6-25.72-19.11-29.24-36.39a68.11,68.11,0,0,1-1.32-10.74c-.91-19.45,9.35-41.47,30.28-50.34a45.2,45.2,0,0,1,6.47-2.23,57.19,57.19,0,0,1,19.06-1.62c.52,0,1,.1,1.57.18,8.29,1.09,17.07,5.87,24.64,12.56C609.9,152.25,618.69,167,618.59,179.69Z"/><path class="cls-75" d="M596.93,251.73c-3,8.8-4.55,7.71-25,8.79-1.28.08-2.51.11-3.73.11l-1.54,0-1.1,0c-.44,0-.86,0-1.3-.06l-1.24-.1c-1.67-.14-3.24-.36-4.75-.63l-.77-.15c-.5-.09-1-.2-1.43-.31s-.63-.15-.95-.23l-1.86-.52-.74-.24a3.12,3.12,0,0,1-.49-.17c-.64-.21-1.26-.44-1.85-.68-.79-.33-1.54-.66-2.27-1-.36-.18-.71-.35-1-.54s-.64-.35-.94-.53a25.4,25.4,0,0,1-8.76-8.07l0-.06c-.81-1.24,4.44-.35,4-1.59,4.18-2.42,5.47-9.56,5.71-14.11,0-.32,0-.66,0-1,0-.16,0-.31,0-.47s0-.41-.07-.65c0-.42-.1-.81-.14-1.16-.17-1.38-.32-2.23-.32-2.23l8.64-.71,22.23-1.18,8.61-.44,3.27-.3,1.43-.13c0,.31.06.6.1.9.09.67.17,1.29.25,1.91,0,0,.48,3.1.48,3.1l.06.39c1,6.84,1.73,12.72,2.65,16.7C594.76,249.63,595.65,251.61,596.93,251.73Z"/><path class="cls-76" d="M589.32,224.11s-12.91,29.06-39.17,33.36c-.78-.31-1.53-.65-2.25-1-.37-.18-.72-.35-1.06-.54l-.94-.52a25.35,25.35,0,0,1-8.76-8.09l0,0c-.8-1.25,3.5-.08,3-1.31,4.18-2.43,3.56-11,3.8-15.54.08-.23-.51-5.49-.51-5.49l11.51.42,22.23-1.17,8.6-.44Z"/><path class="cls-77" d="M661.49,415c0,.87,0,1.73,0,2.61-.19,7.87-.37,15.21-.55,21.72s-.4,12.18-.58,16.77c0,.73-.06,1.7-.08,2.86-.25,11.64-.42,42.72-.42,42.72-12.52,2.11-24.36,3.78-35.52,5.1-58.09,6.87-97.91,3.95-121.81,0-5.79-.94-10.64-2-14.58-2.91a93.86,93.86,0,0,1-13.45-4c-4-26.52-2.91-117.7-2-148.24.12-4.25.26-7.95.37-11v0c.09-2.63.17-4.72.23-6.16.06-1.24.08-2,.09-2.3V332l3.08-66.92c2.32-1.12,4.59-2.16,6.82-3.1l1.07-.44c1.08-.43,2.14-.86,3.21-1.27,1.29-.5,2.56-1,3.79-1.41l1.54-.57.77-.25c.31-.1.62-.19.91-.31h.07s0,0,.07,0l.15-.06c3.62-1.18,7-2.14,9.88-2.91,4.56-1.17,15.94-3.33,23.49-4.72,2.74-.51,5-.92,6.2-1.13h0l1-.19,2.83-.07,11.71-.29,40.71-1,3.77-.1,8.88-.21c.43.06,1,.14,1.66.25h0l2.94.46c9.69,1.49,28.87,4.55,31.88,5.48a52.36,52.36,0,0,1,5.63,2,36.68,36.68,0,0,1,3.81,1.88,23.81,23.81,0,0,1,3,1.94v0h0a1.85,1.85,0,0,0,.2.16l.11.1s.08.05.14.12c.41.35.76.66,1,.94a7.18,7.18,0,0,1,1,1.24c.09.35.19.7.28,1.05.5,1.69,1,3.57,1.36,5.61,0,0,0,.06,0,.08.35,1.73.66,3.57,1,5.51.34,2.14.67,4.38,1,6.76.15,1.25.31,2.53.44,3.86.72,6.24,1.28,13.15,1.75,20.52.12,2.09.23,4.2.35,6.36.1,1.8.18,3.63.26,5.49,0,1,.08,2,.13,3,.39,9.9.64,20.27.77,30.81C662.15,372.84,661.88,395.49,661.49,415Z"/><path class="cls-71" d="M591.36,229.62c1,6.84,1.73,12.72,2.65,16.7l-4.7,5s-2.77-7.18-1.45-20.13c.14-1.55.36-3.16.64-4.87.16-.92.32-1.85.54-2.82a98,98,0,0,1,5-16.68c4.1-10.33,1.62-24.88-3.15-39.15-4.89-14.64-12.17-29-17.26-38.17,21,2.76,45.11,29.21,44.94,50.24C618.42,202.71,608.47,221.27,591.36,229.62Z"/><path class="cls-78" d="M607.14,249.28l-9.32,7.55c-9.86,8-24.08,19.38-24.52,19.38-.67,0-40.57-17.51-40.57-17.51l-1.17-7.91a27.51,27.51,0,0,0,2.63-1.9h0c2.77-2.25,6.79-6.24,7.12-10.85.51-7.1,14,7.79,25.65,7.55,9.32-.19,15.94-5.12,20.41-8.67,3.85-3.07,6.12-5.11,7.13-2.22,1.52,4.33,7,9.72,10.27,12.57h0C606.18,248.52,607.14,249.28,607.14,249.28Z"/><path class="cls-79" d="M615.36,194.77c-1.12,15.06-11.05,9.51-11.05,9.51L594.68,219a38.55,38.55,0,0,1-11.61,11.42c-5.25,3.31-10,6.41-17.33,6.55-11,.22-18.82-7.58-23.58-13.75A78.94,78.94,0,0,1,529.79,200c-5.37.29-8.54-2.62-9.44-7.36a18.72,18.72,0,0,1-.12-5.54,8.69,8.69,0,0,1,2.12-5,2.64,2.64,0,0,1,.37-.38c.18-.17.35-.34.54-.49a10.17,10.17,0,0,1,4.64-2,1.32,1.32,0,0,1,.56,0,1.53,1.53,0,0,1,1.18,1.19l2.15,11.19a4,4,0,0,0,3.6,3.21L537,195s-1.5-7.11,1.65-10.84c14.1-2,35.22-.79,57.37-20.79.6-.54.66,3,.39,7.19-.34,5.16.28,7.6,1.1,9.84a36,36,0,0,1,2.19,10.71l.4,9a3.4,3.4,0,0,0,3.55-2.55l2.37-9.15a4.71,4.71,0,0,1,3.51-3.44,4.53,4.53,0,0,1,3.56.48C614.67,186.49,615.79,189.11,615.36,194.77Z"/><path class="cls-80" d="M552.54,183.5a5.65,5.65,0,0,0,1-.07,4.86,4.86,0,0,0,1-.25,4.26,4.26,0,0,0,1.72-1.14,4.35,4.35,0,0,1-1.49,1.59,6.38,6.38,0,0,1-1,.53,6.11,6.11,0,0,1-1.12.34Z"/><path class="cls-81" d="M554.24,184.15a4.77,4.77,0,0,0,1-.06,5.64,5.64,0,0,0,1-.25,4.06,4.06,0,0,0,1.72-1.15,4.3,4.3,0,0,1-1.49,1.6,7.34,7.34,0,0,1-1,.53,6.11,6.11,0,0,1-1.12.34Z"/><circle class="cls-82" cx="553.02" cy="187.13" r="3.87"/><circle class="cls-7" cx="554.93" cy="185.99" r="1.28"/><path class="cls-83" d="M580.16,185.57a5.59,5.59,0,0,0,2-.32,4.19,4.19,0,0,0,1.72-1.14,4.35,4.35,0,0,1-1.49,1.59,6.38,6.38,0,0,1-1,.53,6.11,6.11,0,0,1-1.12.34Z"/><path class="cls-84" d="M581.86,186.22a4.77,4.77,0,0,0,1-.06,5.64,5.64,0,0,0,1-.25,4.15,4.15,0,0,0,1.73-1.15,4.42,4.42,0,0,1-1.5,1.6,6.8,6.8,0,0,1-1,.53,6.11,6.11,0,0,1-1.12.34Z"/><circle class="cls-85" cx="580.82" cy="189.21" r="3.87"/><circle class="cls-7" cx="582.19" cy="188.03" r="1.28"/><path class="cls-86" d="M590.62,184.84h0a1.94,1.94,0,0,1-3,.15,10.9,10.9,0,0,0-6.89-3.58,2.28,2.28,0,0,1-2-2.79h0a2.27,2.27,0,0,1,2.65-1.69c2.64.52,7.05,1.94,9.34,5.74A1.94,1.94,0,0,1,590.62,184.84Z"/><path class="cls-67" d="M527.66,182.89l1.19,13.35s-4.59-1.67-5-6.28S527.66,182.89,527.66,182.89Z"/><path class="cls-68" d="M609.46,188.49l-3.08,13s4.78-1,5.84-5.5S609.46,188.49,609.46,188.49Z"/><path class="cls-13" d="M502.48,506.74c-5.79-.94-10.64-2-14.58-2.9a95,95,0,0,1-13.46-4c-4-26.52-2.9-117.7-2-148.23.12-4.26.25-8,.35-11l14.86,35.47a228.23,228.23,0,0,1,16.8,108.35Z"/><path class="cls-65" d="M557.12,212.86a15.84,15.84,0,0,0,4.2,2.13,17.09,17.09,0,0,0,4.53.84,19.81,19.81,0,0,0,2.31-.07,20,20,0,0,0,2.31-.32c.78-.12,1.52-.37,2.3-.54s1.51-.49,2.3-.69c-.68.43-1.39.82-2.1,1.21a22.49,22.49,0,0,1-2.29.87,15.39,15.39,0,0,1-4.88.66A13.51,13.51,0,0,1,561,215.8,10.34,10.34,0,0,1,557.12,212.86Z"/><path class="cls-7" d="M538.23,202.61l9.94-2.54-4.47,3.41a3.83,3.83,0,0,1-5.47-.87Z"/><path class="cls-7" d="M539.21,207.27l9.94-2.55-4.47,3.41a3.83,3.83,0,0,1-5.47-.86Z"/><path class="cls-7" d="M591.91,206.64l-9.45-4,3.91,4a3.84,3.84,0,0,0,5.54,0Z"/><path class="cls-7" d="M589.42,211.06l-9.46-4,3.92,4a3.83,3.83,0,0,0,5.54,0Z"/><path class="cls-87" d="M550.71,165.2s-11.21,3.23-12.23,27.52c-.72,17.2,2.66,66.24,2.66,66.24S521.83,196.15,525,178.58,550.71,165.2,550.71,165.2Z"/><path class="cls-7" d="M608.21,203.32l-2,17.72.66-17.82a.68.68,0,0,1,1.35.05A.07.07,0,0,1,608.21,203.32Z"/><circle class="cls-88" cx="606.06" cy="222.53" r="1.89"/><path class="cls-89" d="M659.83,498.67s-125.55,19.69-185.91-3c0,0-6.4,10.24,12.2,15.17C511.93,517.7,672.37,530.46,659.83,498.67Z"/><path class="cls-90" d="M457,211.51c3.32-5.48,11.47,6.38,8.87,10.29S454.37,215.79,457,211.51Z"/><path class="cls-91" d="M479.38,368.2c-.11,11.23-.29,22.11-.49,32.22,0,1,0,2-.07,3-.2,9.08-.4,17.53-.63,25s-.46,14-.66,19.33c-.34,9.2-.58,52.48-.58,52.48-14.42,2.44-28,4.35-40.89,5.87-66.88,7.9-112.74,4.54-140.26,0-6.66-1.09-12.25-2.26-16.79-3.35a108.22,108.22,0,0,1-15.49-4.65c-3.06-20.34-3.53-73.72-3.18-117.47.17-21.95.54-41.47.9-53.21.14-4.91.28-9.17.4-12.63v0c.11-3,.21-5.41.27-7.1.07-1.41.1-2.31.11-2.64v-.1l2.72-59,.84-18.05c2.66-1.29,5.27-2.49,7.83-3.56.41-.19.84-.34,1.24-.53,1.25-.5,2.46-1,3.69-1.44,2.13-.83,4.17-1.59,6.14-2.29.32-.08.59-.2.89-.28s.71-.23,1.06-.37h.07s0,0,.08,0a.63.63,0,0,0,.16-.07c4.18-1.34,8-2.46,11.39-3.34,5.77-1.48,21-4.33,29.49-5.88,3.53-.66,5.88-1.08,5.88-1.08h.41l20.33-.5,37.48-.93,15.77-.39,4.2-.11.2,0c6.8,1,37.65,5.83,41.81,7.11a64.87,64.87,0,0,1,6.49,2.3l1.12.5c1.23.58,2.31,1.13,3.25,1.67a25.54,25.54,0,0,1,3.41,2.24v0a.07.07,0,0,1,0,0,2.27,2.27,0,0,1,.23.17s.08.07.14.13.08.06.15.13a15.73,15.73,0,0,1,1.19,1.08,8.47,8.47,0,0,1,1.14,1.42c.12.41.22.81.33,1.23.57,1.94,1.09,4.11,1.56,6.45,0,0,0,.07.06.09.4,2,.77,4.12,1.14,6.36.39,2.46.77,5,1.11,7.77.19,1.44.36,2.91.52,4.44.8,7.12,1.46,15,2,23.37,0,.09,0,.18,0,.26.13,2.4.27,4.85.42,7.33.1,2.08.2,4.18.28,6.32.07,1.16.09,2.33.16,3.5.46,11.4.73,23.34.89,35.47C479.52,340.44,479.5,354.58,479.38,368.2Z"/><path class="cls-92" d="M411.69,207.06c-2.38,7-7.34,13.93-17.85,18a59,59,0,0,1-18.09,3.48q-2.19.12-4.29.12l-1.78,0a1.32,1.32,0,0,1-.28,0l-1,0c-.52,0-1,0-1.5-.08l-1.43-.11c-1.92-.16-3.74-.42-5.48-.73l-.88-.17c-.57-.11-1.11-.23-1.65-.35l-1.09-.27c-.72-.19-1.45-.39-2.14-.6-.28-.08-.56-.17-.85-.28a4.08,4.08,0,0,1-.56-.19c-.74-.24-1.46-.51-2.14-.79-.9-.36-1.77-.75-2.6-1.16-.42-.2-.82-.4-1.21-.62l-1.09-.6a33.82,33.82,0,0,1-3.25-2.13,27.67,27.67,0,0,1-6.84-7.18l0,0a22.26,22.26,0,0,1-2.17-4.3l.25-.14a16.8,16.8,0,0,0,7.13-10.51,16.32,16.32,0,0,0,.46-3.13c0-.57,0-1.12,0-1.67,0-.23,0-.47-.06-.76s-.07-.62-.11-.9c-.22-1.84-.43-3-.43-3l15.45-.82,3.3-.18,22.3-1.17,9.91-.51,2.06-.11,7.45-.39c.12,1.14.25,2.22.4,3.25h0c.08.54.16,1.05.24,1.56a51.1,51.1,0,0,0,1.36,6.06c1.63,5.59,3.77,8.32,5.79,9.57A6.3,6.3,0,0,0,411.69,207.06Z"/><path class="cls-93" d="M395.79,186.63S380.92,220.09,350.7,225c-.91-.36-1.77-.75-2.6-1.16-.42-.2-.82-.4-1.21-.61l-1.1-.61a29.25,29.25,0,0,1-10.08-9.3.17.17,0,0,0,0-.06A22.48,22.48,0,0,1,333.5,209c4.81-2.8,7.56-8.55,7.84-13.79a5,5,0,0,0,0-1.67c0-.23,0-.47-.07-.75-.25-2.36-.53-3.91-.53-3.91l15.45-.82,25.6-1.35,9.91-.51Z"/><path class="cls-94" d="M431.63,141.88s5.63,19.94-12.56,19.24a.18.18,0,0,0,0,0,.43.43,0,0,1,0,.05c.19,1.19,1.7,12.17-9.21,12h-.29l-15.89.55L357,175.08l-27.29,1h0s-.32,0-.86,0c-4.1,0-21.34-.66-18-14.95,0,0-16.13-7.82-2.57-19.24,0,0-17.89-14.1-2.68-28.56.36-.33.76-.7,1.17-1,0,0-12.59-19.52,15.49-23.56,0,0-4.2-26.93,22.47-21.21,0,0,16.7-21.87,34.39-3.7l.75-.31c3.24-1.24,16.27-5,22.29,11.42,0,0,24.23-.34,18.54,24.24,0,0,16.32.37,6.56,19.64C427.22,118.79,441.07,131.08,431.63,141.88Z"/><path class="cls-95" d="M420.66,148.58c0,16-9.36,12.61-10.87,12l-.2-.1v12.79a20.32,20.32,0,0,1-1.27,7.1,18.92,18.92,0,0,1-7.05,9.14,15.58,15.58,0,0,1-1.75,1.05h0a16.87,16.87,0,0,1-7.87,2H347.43a16.52,16.52,0,0,1-2-.12,17.13,17.13,0,0,1-2.49-.49,17.89,17.89,0,0,1-9.06-6,19.66,19.66,0,0,1-4.19-9.82h0a21.35,21.35,0,0,1-.19-2.8V161.93l-.23,0c-5.59.67-9.14-2.38-10.46-7.68a23.21,23.21,0,0,1-.58-6.34,10.48,10.48,0,0,1,1.87-5.92,3.18,3.18,0,0,1,.37-.47,6.35,6.35,0,0,1,.54-.61,10.7,10.7,0,0,1,4.8-2.64,1.4,1.4,0,0,1,.61,0,1.67,1.67,0,0,1,1.35,1.26l.43,1.68,2.77,11a4.35,4.35,0,0,0,4.12,3.38h1.73L336,147c-.18-1.7-.29-3.38-.36-5.08a85.12,85.12,0,0,1,1.21-18.31,10.72,10.72,0,0,1-.11-1.4c0-2.18,1-2.69,2.32-2.56,6.37.65,12.78-.51,18.92-2.43a10.37,10.37,0,0,1,3.16-.49,10.78,10.78,0,0,1,2.82.39,56.31,56.31,0,0,0,26.48,1l.95-.19a12.24,12.24,0,0,1,6.44.42,11.53,11.53,0,0,1,4.43,2.8,7.37,7.37,0,0,1,2.46,5.34,18,18,0,0,0,.06,3.36l.58,3.7a36.41,36.41,0,0,1,0,10.93L403.65,156h1.09a3.53,3.53,0,0,0,2.85-1.46,4,4,0,0,0,.76-1.77l1.79-10.71a5.34,5.34,0,0,1,3.49-4.26,4.52,4.52,0,0,1,3.84.26C419.25,139.14,420.66,142.05,420.66,148.58Z"/><path class="cls-7" d="M331.51,161.74s3-6.76,13.72-8.19a3.41,3.41,0,0,1,3.69,2.52h0c.54,1.88-3.07,1.63-4.8,2.27-2.21.81-2.58,4.28-5.2,5.79a5.29,5.29,0,0,1-7.41-2.39Z"/><path class="cls-7" d="M388.72,155.23h0c-.26,2.28,3,1.74,5.13,1.89,1.49.11,1.6,2.92,3.37,3.51a7.13,7.13,0,0,0,8.94-4.72h0a27.55,27.55,0,0,0-13.69-4.18A3.78,3.78,0,0,0,388.72,155.23Z"/><path class="cls-96" d="M409.79,160.54l.09,10.84v2a19.53,19.53,0,0,1-1.56,6.92c-1.39,3.78-3.27,12.23-7.54,16.25a33.33,33.33,0,0,1-10.55,6.86c-4.39,1.82-10,3.1-17.61,3.33-16.7.5-23.55-3.84-30-8.43-11.75-8.43-13.56-16.9-13.84-22.28-.07-1.09-.05-2.06-.05-2.87l.16-6.85a36.8,36.8,0,0,0,.32-4.39c.16-7.68-.92-18.91-1.07-20.74l8.62,14.35s7.3,20,12,8.37,33.26-9.23,39,0c2,3.32,4.68,3.21,7.21,1.73,4.52-2.65,8.71-9.68,8.71-9.68l6.5-14Z"/><circle class="cls-65" cx="352.31" cy="143.51" r="4.46"/><circle class="cls-7" cx="354.41" cy="142.04" r="1.47"/><circle class="cls-65" cx="384.41" cy="143.51" r="4.46"/><circle class="cls-7" cx="385.88" cy="142.04" r="1.47"/><path class="cls-97" d="M344.5,137.77h0s6.54-5.15,14.39-2.21a3.3,3.3,0,0,0,4.36-2.63h0a3.58,3.58,0,0,0-2.45-4.16,22.48,22.48,0,0,0-10.91-.39C346,129.34,343.66,133.6,344.5,137.77Z"/><path class="cls-98" d="M394.06,136.53h0s-7.11-4.21-14.54-.21a3.24,3.24,0,0,1-4.64-2h0a3.64,3.64,0,0,1,1.93-4.46A22.57,22.57,0,0,1,387.59,128C391.55,128.38,394.39,132.28,394.06,136.53Z"/><path class="cls-99" d="M325.82,142.49l2.36,15.23s-5.05-1.53-5.86-6.78S325.82,142.49,325.82,142.49Z"/><path class="cls-100" d="M413.83,141.88l-2.25,15.24s5-1.56,5.81-6.82S413.83,141.88,413.83,141.88Z"/><path class="cls-13" d="M295.8,506.12c-6.66-1.09-12.24-2.26-16.78-3.35a109.86,109.86,0,0,1-15.5-4.65c-4.59-30.55-3.35-135.53-2.28-170.69.13-4.9.29-9.17.4-12.63Z"/><path class="cls-101" d="M294,266h0c-5.73,34.53-10.82,90.92-13.3,117.5-2.3-.24-10.37-1.21-20.33-2.89a245.36,245.36,0,0,1-31.4-7.18c-1.07-.34-2.11-.68-3.12-1a12.24,12.24,0,0,1-8.1-12.73c3-31.88,5.69-60.32,9.28-83.16,3.8-24.1,20.7-44.36,44-51.53.78-.24,1.57-.47,2.38-.68,10.71-3,16,4.22,18.66,14.32A96.45,96.45,0,0,1,294.61,258,32.74,32.74,0,0,1,294,266Z"/><path class="cls-13" d="M553.6,241.28a15.18,15.18,0,0,1-1,3,16.71,16.71,0,0,1-2.82,4.08,31.93,31.93,0,0,1-6.54,5.31,69.82,69.82,0,0,1-10.11,5.23c-.75.32-1.54.64-2.32.95-17.12,6.86-37.6,10.17-37.6,10.17l-2.08-11.12,1.54-.57.77-.25c.31-.1.62-.19.91-.31h.07s0,0,.07,0l.15-.06c3.62-1.18,7-2.14,9.88-2.91,4.56-1.17,15.94-3.33,23.49-4.72l-7-24.63a92.33,92.33,0,0,1-3.37-31.19,68.11,68.11,0,0,1-1.32-10.74c-.91-19.45,9.35-41.47,30.28-50.34,1.46-1.32,3-2.57,4.57-3.73l1.9,1.5s-23.14,15.36-21.46,38.77c.43,5.9,2.49,12.47,5.23,19.26,4.94,12.32,12.05,25.39,15.41,36.67a48.37,48.37,0,0,1,1.6,7.13c.06.41.11.83.15,1.24A21.78,21.78,0,0,1,553.6,241.28Z"/><path class="cls-102" d="M514.13,353.94a12.35,12.35,0,0,1-11.33,12.9l-1,.09-2.28.16c-3.84.29-8.27.58-13.11.82l-1.11,0c-1.91.1-3.88.18-5.89.24-10.16.37-21.63.46-33.18-.08,0,0-5.83-64.46-8.39-101.26a32.23,32.23,0,0,1-1.43-7.92,63.63,63.63,0,0,1,1.35-15.68c3-14.46,10.92-28.31,23.58-26.26,17.41,2.82,32.63,17,37.09,30.16h0a181.89,181.89,0,0,1,6.09,22c1.94,8.85,3.59,18.69,5,29.41C511.63,315,513.16,333.6,514.13,353.94Z"/><path class="cls-103" d="M509.48,298.54,477.2,303.6l-5.55-28.4,32.85-6.06C506.44,278,508.09,287.83,509.48,298.54Z"/><path class="cls-104" d="M231.59,374.3c1.29,26.47,6.16,48.19,13.5,54.5,10.6,9.08,39.51,5.85,73-1.23s100.77-19.91,100.77-19.91-51.89-25.45-93.72-31.17c-19-2.61-33.52-1.9-43.73-.31-12.23,1.82-18.22,4.92-18.22,4.92A267.19,267.19,0,0,1,231.59,374.3Z"/><path class="cls-105" d="M394.51,412.33c-6.42,1.24-13.68,2.65-21.29,4.14-29.6-12.15-90.79-28.37-90-40.41l19.69-1.27Z"/><path class="cls-106" d="M263.14,381.1S384.84,409.28,419.51,422c42.84,15.73,61.12,7.95,70.41-9.87,7.33-14,8.25-20.6,9.57-45.14a399.73,399.73,0,0,1-53.28,1.14s-63-6.09-103.55-7.44C289.28,358.93,270.84,368.65,263.14,381.1Z"/><path class="cls-107" d="M353.9,166.35a27.66,27.66,0,0,0,6.81,2.1,36,36,0,0,0,7,.55c1.18-.08,2.36-.09,3.53-.28.58-.08,1.18-.11,1.76-.23l1.75-.32a17.46,17.46,0,0,0,1.74-.39l1.74-.43c1.16-.29,2.28-.7,3.46-1-1.06.57-2.15,1.1-3.26,1.61a34.94,34.94,0,0,1-3.44,1.19,30.55,30.55,0,0,1-7.24,1.15,27.17,27.17,0,0,1-7.3-.86A18.6,18.6,0,0,1,353.9,166.35Z"/><path class="cls-108" d="M371,230.54c.08-.13,0,.06-.06.14s-.09.23-.13.36-.15.53-.23.81c-.14.56-.25,1.14-.35,1.74-.21,1.18-.34,2.4-.46,3.62-.23,2.45-.33,4.93-.39,7.41-.09,5,0,10-.09,15q-.13,15-.51,30-.31-15-.84-30c-.16-5-.45-10-.59-15-.05-2.51-.06-5,.06-7.57.07-1.27.16-2.54.32-3.83q.12-1,.3-1.95c.08-.33.14-.66.25-1,0-.17.1-.35.16-.53a3.83,3.83,0,0,1,.33-.71,1.35,1.35,0,0,1,2.23,1.51Z"/><path class="cls-109" d="M347.75,244.23a112.58,112.58,0,0,1-14.92-17.4c-3.85-5.83-6.58-12-5.21-16.75h0c1.36-4.66,3.26-3.69,6.13-1.21l.16.13c2.31,2,5.26,5,9,6.75,1.11.52,2.27,1,3.43,1.53,10.8,4.65,23,8.43,23.29,11.38C369.68,228.65,345.22,235.81,347.75,244.23Z"/><path class="cls-110" d="M400.82,234.49a131.84,131.84,0,0,1-9,9.74c2.54-8.42-22.57-14.24-22.57-14.24a5.13,5.13,0,0,1,.19-1.36c1.56-5.54,12.78-7.4,22.73-11,1.53-.57,3-1.17,4.45-1.84,4.65-2.17,8.22-6.43,10.91-8.57a8.67,8.67,0,0,1,1.52-1,1.94,1.94,0,0,1,2.88.93,8.42,8.42,0,0,1,.74,1.85C414.68,216,407.35,226.71,400.82,234.49Z"/><path class="cls-111" d="M441.22,207.84c5.55.24-.51,11.83-4.51,11S436,207.62,441.22,207.84Z"/><path class="cls-112" d="M451,211.26c5.5.82-1.13,12.15-5.13,11.37S446.68,210.62,451,211.26Z"/><path class="cls-113" d="M436.08,206.78c5.5.76-.1,10.35-4.1,9.57S433,206.36,436.08,206.78Z"/><path class="cls-114" d="M445.48,209.28c5.56.24-1.47,13.23-5.48,12.45S440.24,209.06,445.48,209.28Z"/><path class="cls-71" d="M661.49,415c0,.87,0,1.73,0,2.61-.19,7.87-.37,15.21-.55,21.72s-.4,12.18-.58,16.77c0,.73-.06,1.7-.08,2.86-10.7-33.42-11.85-187.94-39.7-193.07-10.92-2-18-5.24-22.71-9a25,25,0,0,1-7.35-9.5,52.18,52.18,0,0,1-3.09-10.41c3.85-3.07,6.12-5.11,7.13-2.22,1.52,4.33,7,9.72,10.27,12.57h0c8,1.23,31.46,4.9,34.82,5.94a52.36,52.36,0,0,1,5.63,2,36.68,36.68,0,0,1,3.81,1.88,23.81,23.81,0,0,1,3,1.94v0h0a1.85,1.85,0,0,0,.2.16l.11.1s.08.05.14.12c.41.35.76.66,1,.94a7.18,7.18,0,0,1,1,1.24c.09.35.19.7.28,1.05.5,1.69,1,3.57,1.36,5.61,0,0,0,.06,0,.08.35,1.73.66,3.57,1,5.51.34,2.14.67,4.38,1,6.76.15,1.25.31,2.53.44,3.86.72,6.24,1.28,13.15,1.75,20.52.12,2.09.23,4.2.35,6.36.1,1.8.18,3.63.26,5.49,0,1,.08,2,.13,3,.39,9.9.64,20.27.77,30.81C662.15,372.84,661.88,395.49,661.49,415Z"/><path class="cls-71" d="M543.68,238.62a55.18,55.18,0,0,0,11.33,6,50.65,50.65,0,0,0,6.08,1.95c2.06.56,4.17,1,6.31,1.36a28,28,0,0,1-6.53-.33,31.27,31.27,0,0,1-6.35-1.73,30.44,30.44,0,0,1-5.85-3A23,23,0,0,1,543.68,238.62Z"/><g class="cls-115"><polygon class="cls-116" points="534.49 298.3 526.34 303.05 518.18 298.3 526.34 293.29 534.49 298.3"/><polygon class="cls-116" points="526.34 303.05 526.34 312.75 518.18 307.9 518.18 298.3 526.34 303.05"/><polygon class="cls-116" points="534.49 298.3 526.34 303.05 526.34 312.75 534.49 307.95 534.49 298.3"/></g><g class="cls-115"><polygon class="cls-116" points="333.36 265.4 325.2 270.15 317.04 265.4 325.2 260.38 333.36 265.4"/><polygon class="cls-116" points="325.2 270.15 325.2 279.84 317.04 274.99 317.04 265.4 325.2 270.15"/><polygon class="cls-116" points="333.36 265.4 325.2 270.15 325.2 279.84 333.36 275.05 333.36 265.4"/></g><g class="cls-115"><polygon class="cls-116" points="135.82 298.88 127.66 303.64 119.5 298.88 127.66 293.87 135.82 298.88"/><polygon class="cls-116" points="127.66 303.64 127.66 313.33 119.5 308.48 119.5 298.88 127.66 303.64"/><polygon class="cls-116" points="135.82 298.88 127.66 303.64 127.66 313.33 135.82 308.54 135.82 298.88"/></g><path class="cls-71" d="M514.62,365.7s-4.88.59-12.85,1.22a165,165,0,0,1-2.28-32.42c.61-22.9-8.5-44.23-21.91-60.9-11.31-14-25.66-24.76-39.85-30.35A57.51,57.51,0,0,0,418,239c-7.53-.16-13.12-1.66-17.16-4.47a18.77,18.77,0,0,1-7-9.43,34.55,34.55,0,0,1-1.71-7.48,70.39,70.39,0,0,1-.41-10c0-1.32.1-2.69.19-4.11.19-3.4.55-7,1-11,.26-2.06.54-4.18.85-6.39.54-3.89,1.17-8,1.86-12.31.43-2.62.86-5.33,1.33-8.12q1.28-7.69,2.67-16.17a106.63,106.63,0,0,0,.37-31.11c-2.78-21.56-11.25-40.79-19.25-54.9,3.47-1.24,17.45-5,23.91,11.42,0,0,26-.34,19.89,24.24,0,0,17.5.37,7,19.64,0,0,14.85,12.29,4.73,23.09,0,0,6,19.94-13.48,19.24a.18.18,0,0,0,0,0,.07.07,0,0,1,0,.05c.21,1.19,1.83,12.17-9.88,12v.17a18.42,18.42,0,0,1-1.67,6.92c-1.49,3.78-3.51,12.23-8.09,16.25,1.63,5.58,3.77,8.32,5.79,9.57a1.93,1.93,0,0,1,2.88.93c6.8,1,37.65,5.83,41.81,7.11a62.45,62.45,0,0,1,6.49,2.3l1.12.5c17.41,2.81,32.63,17,37.09,30.16h0a181.37,181.37,0,0,1,6.09,22c1.94,8.85,3.59,18.69,5,29.41C512,318.14,513.72,340.72,514.62,365.7Z"/><path class="cls-13" d="M359.64,192.5a30,30,0,0,1-5.4,16c-.58.86-1.23,1.71-1.93,2.56a59.57,59.57,0,0,1-5.92,6.22c-1.25,1.17-2.53,2.25-3.84,3.26a64.68,64.68,0,0,1-9.72,6.3c-13.06,6.93-27.53,9.45-40.76,11.82-10.27,1.86-19.8,3.61-27.33,7.29-9.06,4.41-15.21,11.6-16.3,25.07-2.51,31.14-12.85,75.95-19.5,102.46a73.53,73.53,0,0,1-12.06-4.83c3.33-35.51,6.2-67.15,10.12-92.1,3.8-24.1,20.7-44.36,44-51.53.78-.24,1.57-.47,2.38-.68.41-.19.84-.34,1.24-.53,1.25-.5,2.46-1,3.69-1.44,2.13-.83,4.17-1.59,6.14-2.29.32-.08.59-.2.89-.28s.71-.23,1.06-.37h.07s0,0,.08,0a.63.63,0,0,0,.16-.07c4.18-1.34,8-2.46,11.39-3.34,5.77-1.48,21-4.33,29.49-5.88h0c1.36-4.66,3.26-3.69,6.13-1.21a16.8,16.8,0,0,0,7.13-10.51,16.32,16.32,0,0,0,.46-3.13c0-.57,0-1.12,0-1.67,0-.23,0-.47-.06-.76s-.07-.62-.11-.9a19.24,19.24,0,0,1-9.72-6A19,19,0,0,1,327,176h0s-.34,0-.92,0c-4.4,0-22.89-.66-19.32-14.95,0,0-17.3-7.82-2.76-19.24,0,0-19.19-14.09-2.87-28.55A278.67,278.67,0,0,1,333.29,142c9.73,10.3,18.4,21.74,22.95,33.13a44.69,44.69,0,0,1,3.26,12.8A32.37,32.37,0,0,1,359.64,192.5Z"/><path class="cls-117" d="M117.59,392.52c-5.22-26,9.7-62.2-5.22-69.8s-26.72,26.15-47-4.76c-8.13-12.38,5.86-19.07-9.12-26.29s-26,18.38-27.6,46.47,34.11,39.09,24.82,83c-3.43,16.18,1.7,32.24,11.15,46.53,16.21,24.5,36,39.94,56,33.1,19.08-6.53,21.29,16.44,26.16,20.9,25.28,23.15,39,1.74,58.24,1.95,22.43.25,55.24,15.14,37.4-17.79-14.63-27-43.55,3.6-59.32-12.51s-34-10.47-56-15.66S125.71,433.06,117.59,392.52Zm-40.16-2c6.66-20.91-22-33.78-15.22-42.41s14.1-10.2,20.75,3.38c2.09,4.25,14.83-1.47,18.36,4.61,6,10.4-7.26,26.52.39,42.25S70.78,411.45,77.43,390.53Z"/><circle class="cls-7" cx="707.35" cy="127.06" r="66.42"/><circle class="cls-118" cx="707.35" cy="127.06" r="54.31"/><circle class="cls-7" cx="707.35" cy="127.06" r="35.5"/><circle class="cls-118" cx="707.35" cy="127.06" r="21.27"/><text class="cls-119" transform="translate(692.64 131.37)">Act</text><polygon points="755.32 146.74 743.98 141.97 747.44 149.29 758.78 154.05 755.32 146.74"/><polygon points="755.32 146.74 743.98 141.97 751.62 139.32 762.96 144.09 755.32 146.74"/><path class="cls-7" d="M755.29,148.24a1.63,1.63,0,0,1-.59-.11L740.18,142l-33.75-14.6a1.51,1.51,0,0,1-.79-2,1.5,1.5,0,0,1,.82-.8,1.47,1.47,0,0,1,.58-.12,1.41,1.41,0,0,1,.6.13l48.25,20.68a1.54,1.54,0,0,1,.8,2A1.52,1.52,0,0,1,755.29,148.24Z"/><path class="cls-120" d="M707,124.86a1.25,1.25,0,0,1,.46.09l48.25,20.69a1.18,1.18,0,0,1-.46,2.26,1.22,1.22,0,0,1-.46-.09l-14.52-6.1-33.74-14.59a1.19,1.19,0,0,1-.62-1.55,1.23,1.23,0,0,1,.64-.63,1.33,1.33,0,0,1,.45-.08m0-.69h0a2,2,0,0,0-.71.14,1.86,1.86,0,0,0,0,3.44L740,142.34l14.52,6.1a1.83,1.83,0,0,0,.73.15A1.87,1.87,0,0,0,756,145l-48.25-20.69a1.83,1.83,0,0,0-.73-.15Z"/></g></g></g></svg>